<?xml version="1.0" encoding="utf-8" standalone="no"?>
<!DOCTYPE svg PUBLIC "-//W3C//DTD SVG 1.1//EN"
  "http://www.w3.org/Graphics/SVG/1.1/DTD/svg11.dtd">
<svg xmlns:xlink="http://www.w3.org/1999/xlink" width="390.24pt" height="432pt" viewBox="0 0 390.24 432" xmlns="http://www.w3.org/2000/svg" version="1.1">
 <metadata>
  <rdf:RDF xmlns:dc="http://purl.org/dc/elements/1.1/" xmlns:cc="http://creativecommons.org/ns#" xmlns:rdf="http://www.w3.org/1999/02/22-rdf-syntax-ns#">
   <cc:Work>
    <dc:type rdf:resource="http://purl.org/dc/dcmitype/StillImage"/>
    <dc:date>2025-01-18T22:31:18.002351</dc:date>
    <dc:format>image/svg+xml</dc:format>
    <dc:creator>
     <cc:Agent>
      <dc:title>Matplotlib v3.10.0, https://matplotlib.org/</dc:title>
     </cc:Agent>
    </dc:creator>
   </cc:Work>
  </rdf:RDF>
 </metadata>
 <defs>
  <style type="text/css">*{stroke-linejoin: round; stroke-linecap: butt}</style>
 </defs>
 <g id="figure_1">
  <g id="patch_1">
   <path d="M 0 432 
L 390.24 432 
L 390.24 0 
L 0 0 
z
" style="fill: #ffffff"/>
  </g>
  <g id="axes_1">
   <g id="patch_2">
    <path d="M 71.0562 383.94 
L 319.798982 383.94 
L 319.798982 12.96 
L 71.0562 12.96 
z
" style="fill: #ffffff"/>
   </g>
   <g id="matplotlib.axis_1">
    <g id="xtick_1">
     <g id="text_1">
      <!-- 1 -->
      <g style="fill: #262626" transform="translate(76.28911 401.313594) scale(0.11 -0.11)">
       <defs>
        <path id="ArialMT-31" d="M 2384 0 
L 1822 0 
L 1822 3584 
Q 1619 3391 1289 3197 
Q 959 3003 697 2906 
L 697 3450 
Q 1169 3672 1522 3987 
Q 1875 4303 2022 4600 
L 2384 4600 
L 2384 0 
z
" transform="scale(0.015625)"/>
       </defs>
       <use xlink:href="#ArialMT-31"/>
      </g>
     </g>
    </g>
    <g id="xtick_2">
     <g id="text_2">
      <!-- 2 -->
      <g style="fill: #262626" transform="translate(92.871963 401.313594) scale(0.11 -0.11)">
       <defs>
        <path id="ArialMT-32" d="M 3222 541 
L 3222 0 
L 194 0 
Q 188 203 259 391 
Q 375 700 629 1000 
Q 884 1300 1366 1694 
Q 2113 2306 2375 2664 
Q 2638 3022 2638 3341 
Q 2638 3675 2398 3904 
Q 2159 4134 1775 4134 
Q 1369 4134 1125 3890 
Q 881 3647 878 3216 
L 300 3275 
Q 359 3922 746 4261 
Q 1134 4600 1788 4600 
Q 2447 4600 2831 4234 
Q 3216 3869 3216 3328 
Q 3216 3053 3103 2787 
Q 2991 2522 2730 2228 
Q 2469 1934 1863 1422 
Q 1356 997 1212 845 
Q 1069 694 975 541 
L 3222 541 
z
" transform="scale(0.015625)"/>
       </defs>
       <use xlink:href="#ArialMT-32"/>
      </g>
     </g>
    </g>
    <g id="xtick_3">
     <g id="text_3">
      <!-- 3 -->
      <g style="fill: #262626" transform="translate(109.454815 401.313594) scale(0.11 -0.11)">
       <defs>
        <path id="ArialMT-33" d="M 269 1209 
L 831 1284 
Q 928 806 1161 595 
Q 1394 384 1728 384 
Q 2125 384 2398 659 
Q 2672 934 2672 1341 
Q 2672 1728 2419 1979 
Q 2166 2231 1775 2231 
Q 1616 2231 1378 2169 
L 1441 2663 
Q 1497 2656 1531 2656 
Q 1891 2656 2178 2843 
Q 2466 3031 2466 3422 
Q 2466 3731 2256 3934 
Q 2047 4138 1716 4138 
Q 1388 4138 1169 3931 
Q 950 3725 888 3313 
L 325 3413 
Q 428 3978 793 4289 
Q 1159 4600 1703 4600 
Q 2078 4600 2393 4439 
Q 2709 4278 2876 4000 
Q 3044 3722 3044 3409 
Q 3044 3113 2884 2869 
Q 2725 2625 2413 2481 
Q 2819 2388 3044 2092 
Q 3269 1797 3269 1353 
Q 3269 753 2831 336 
Q 2394 -81 1725 -81 
Q 1122 -81 723 278 
Q 325 638 269 1209 
z
" transform="scale(0.015625)"/>
       </defs>
       <use xlink:href="#ArialMT-33"/>
      </g>
     </g>
    </g>
    <g id="xtick_4">
     <g id="text_4">
      <!-- 4 -->
      <g style="fill: #262626" transform="translate(126.037667 401.313594) scale(0.11 -0.11)">
       <defs>
        <path id="ArialMT-34" d="M 2069 0 
L 2069 1097 
L 81 1097 
L 81 1613 
L 2172 4581 
L 2631 4581 
L 2631 1613 
L 3250 1613 
L 3250 1097 
L 2631 1097 
L 2631 0 
L 2069 0 
z
M 2069 1613 
L 2069 3678 
L 634 1613 
L 2069 1613 
z
" transform="scale(0.015625)"/>
       </defs>
       <use xlink:href="#ArialMT-34"/>
      </g>
     </g>
    </g>
    <g id="xtick_5">
     <g id="text_5">
      <!-- 5 -->
      <g style="fill: #262626" transform="translate(142.620519 401.313594) scale(0.11 -0.11)">
       <defs>
        <path id="ArialMT-35" d="M 266 1200 
L 856 1250 
Q 922 819 1161 601 
Q 1400 384 1738 384 
Q 2144 384 2425 690 
Q 2706 997 2706 1503 
Q 2706 1984 2436 2262 
Q 2166 2541 1728 2541 
Q 1456 2541 1237 2417 
Q 1019 2294 894 2097 
L 366 2166 
L 809 4519 
L 3088 4519 
L 3088 3981 
L 1259 3981 
L 1013 2750 
Q 1425 3038 1878 3038 
Q 2478 3038 2890 2622 
Q 3303 2206 3303 1553 
Q 3303 931 2941 478 
Q 2500 -78 1738 -78 
Q 1113 -78 717 272 
Q 322 622 266 1200 
z
" transform="scale(0.015625)"/>
       </defs>
       <use xlink:href="#ArialMT-35"/>
      </g>
     </g>
    </g>
    <g id="xtick_6">
     <g id="text_6">
      <!-- 6 -->
      <g style="fill: #262626" transform="translate(159.203371 401.313594) scale(0.11 -0.11)">
       <defs>
        <path id="ArialMT-36" d="M 3184 3459 
L 2625 3416 
Q 2550 3747 2413 3897 
Q 2184 4138 1850 4138 
Q 1581 4138 1378 3988 
Q 1113 3794 959 3422 
Q 806 3050 800 2363 
Q 1003 2672 1297 2822 
Q 1591 2972 1913 2972 
Q 2475 2972 2870 2558 
Q 3266 2144 3266 1488 
Q 3266 1056 3080 686 
Q 2894 316 2569 119 
Q 2244 -78 1831 -78 
Q 1128 -78 684 439 
Q 241 956 241 2144 
Q 241 3472 731 4075 
Q 1159 4600 1884 4600 
Q 2425 4600 2770 4297 
Q 3116 3994 3184 3459 
z
M 888 1484 
Q 888 1194 1011 928 
Q 1134 663 1356 523 
Q 1578 384 1822 384 
Q 2178 384 2434 671 
Q 2691 959 2691 1453 
Q 2691 1928 2437 2201 
Q 2184 2475 1800 2475 
Q 1419 2475 1153 2201 
Q 888 1928 888 1484 
z
" transform="scale(0.015625)"/>
       </defs>
       <use xlink:href="#ArialMT-36"/>
      </g>
     </g>
    </g>
    <g id="xtick_7">
     <g id="text_7">
      <!-- 7 -->
      <g style="fill: #262626" transform="translate(175.786223 401.313594) scale(0.11 -0.11)">
       <defs>
        <path id="ArialMT-37" d="M 303 3981 
L 303 4522 
L 3269 4522 
L 3269 4084 
Q 2831 3619 2401 2847 
Q 1972 2075 1738 1259 
Q 1569 684 1522 0 
L 944 0 
Q 953 541 1156 1306 
Q 1359 2072 1739 2783 
Q 2119 3494 2547 3981 
L 303 3981 
z
" transform="scale(0.015625)"/>
       </defs>
       <use xlink:href="#ArialMT-37"/>
      </g>
     </g>
    </g>
    <g id="xtick_8">
     <g id="text_8">
      <!-- 8 -->
      <g style="fill: #262626" transform="translate(192.369076 401.313594) scale(0.11 -0.11)">
       <defs>
        <path id="ArialMT-38" d="M 1131 2484 
Q 781 2613 612 2850 
Q 444 3088 444 3419 
Q 444 3919 803 4259 
Q 1163 4600 1759 4600 
Q 2359 4600 2725 4251 
Q 3091 3903 3091 3403 
Q 3091 3084 2923 2848 
Q 2756 2613 2416 2484 
Q 2838 2347 3058 2040 
Q 3278 1734 3278 1309 
Q 3278 722 2862 322 
Q 2447 -78 1769 -78 
Q 1091 -78 675 323 
Q 259 725 259 1325 
Q 259 1772 486 2073 
Q 713 2375 1131 2484 
z
M 1019 3438 
Q 1019 3113 1228 2906 
Q 1438 2700 1772 2700 
Q 2097 2700 2305 2904 
Q 2513 3109 2513 3406 
Q 2513 3716 2298 3927 
Q 2084 4138 1766 4138 
Q 1444 4138 1231 3931 
Q 1019 3725 1019 3438 
z
M 838 1322 
Q 838 1081 952 856 
Q 1066 631 1291 507 
Q 1516 384 1775 384 
Q 2178 384 2440 643 
Q 2703 903 2703 1303 
Q 2703 1709 2433 1975 
Q 2163 2241 1756 2241 
Q 1359 2241 1098 1978 
Q 838 1716 838 1322 
z
" transform="scale(0.015625)"/>
       </defs>
       <use xlink:href="#ArialMT-38"/>
      </g>
     </g>
    </g>
    <g id="xtick_9">
     <g id="text_9">
      <!-- 9 -->
      <g style="fill: #262626" transform="translate(208.951928 401.313594) scale(0.11 -0.11)">
       <defs>
        <path id="ArialMT-39" d="M 350 1059 
L 891 1109 
Q 959 728 1153 556 
Q 1347 384 1650 384 
Q 1909 384 2104 503 
Q 2300 622 2425 820 
Q 2550 1019 2634 1356 
Q 2719 1694 2719 2044 
Q 2719 2081 2716 2156 
Q 2547 1888 2255 1720 
Q 1963 1553 1622 1553 
Q 1053 1553 659 1965 
Q 266 2378 266 3053 
Q 266 3750 677 4175 
Q 1088 4600 1706 4600 
Q 2153 4600 2523 4359 
Q 2894 4119 3086 3673 
Q 3278 3228 3278 2384 
Q 3278 1506 3087 986 
Q 2897 466 2520 194 
Q 2144 -78 1638 -78 
Q 1100 -78 759 220 
Q 419 519 350 1059 
z
M 2653 3081 
Q 2653 3566 2395 3850 
Q 2138 4134 1775 4134 
Q 1400 4134 1122 3828 
Q 844 3522 844 3034 
Q 844 2597 1108 2323 
Q 1372 2050 1759 2050 
Q 2150 2050 2401 2323 
Q 2653 2597 2653 3081 
z
" transform="scale(0.015625)"/>
       </defs>
       <use xlink:href="#ArialMT-39"/>
      </g>
     </g>
    </g>
    <g id="xtick_10">
     <g id="text_10">
      <!-- 10 -->
      <g style="fill: #262626" transform="translate(222.476264 401.313594) scale(0.11 -0.11)">
       <defs>
        <path id="ArialMT-30" d="M 266 2259 
Q 266 3072 433 3567 
Q 600 4063 929 4331 
Q 1259 4600 1759 4600 
Q 2128 4600 2406 4451 
Q 2684 4303 2865 4023 
Q 3047 3744 3150 3342 
Q 3253 2941 3253 2259 
Q 3253 1453 3087 958 
Q 2922 463 2592 192 
Q 2263 -78 1759 -78 
Q 1097 -78 719 397 
Q 266 969 266 2259 
z
M 844 2259 
Q 844 1131 1108 757 
Q 1372 384 1759 384 
Q 2147 384 2411 759 
Q 2675 1134 2675 2259 
Q 2675 3391 2411 3762 
Q 2147 4134 1753 4134 
Q 1366 4134 1134 3806 
Q 844 3388 844 2259 
z
" transform="scale(0.015625)"/>
       </defs>
       <use xlink:href="#ArialMT-31"/>
       <use xlink:href="#ArialMT-30" transform="translate(55.615234 0)"/>
      </g>
     </g>
    </g>
    <g id="xtick_11">
     <g id="text_11">
      <!-- 11 -->
      <g style="fill: #262626" transform="translate(239.464741 401.313594) scale(0.11 -0.11)">
       <use xlink:href="#ArialMT-31"/>
       <use xlink:href="#ArialMT-31" transform="translate(48.240234 0)"/>
      </g>
     </g>
    </g>
    <g id="xtick_12">
     <g id="text_12">
      <!-- 12 -->
      <g style="fill: #262626" transform="translate(255.641969 401.313594) scale(0.11 -0.11)">
       <use xlink:href="#ArialMT-31"/>
       <use xlink:href="#ArialMT-32" transform="translate(55.615234 0)"/>
      </g>
     </g>
    </g>
    <g id="xtick_13">
     <g id="text_13">
      <!-- 13 -->
      <g style="fill: #262626" transform="translate(272.224821 401.313594) scale(0.11 -0.11)">
       <use xlink:href="#ArialMT-31"/>
       <use xlink:href="#ArialMT-33" transform="translate(55.615234 0)"/>
      </g>
     </g>
    </g>
    <g id="xtick_14">
     <g id="text_14">
      <!-- 14 -->
      <g style="fill: #262626" transform="translate(288.807673 401.313594) scale(0.11 -0.11)">
       <use xlink:href="#ArialMT-31"/>
       <use xlink:href="#ArialMT-34" transform="translate(55.615234 0)"/>
      </g>
     </g>
    </g>
    <g id="xtick_15">
     <g id="text_15">
      <!-- 15 -->
      <g style="fill: #262626" transform="translate(305.390525 401.313594) scale(0.11 -0.11)">
       <use xlink:href="#ArialMT-31"/>
       <use xlink:href="#ArialMT-35" transform="translate(55.615234 0)"/>
      </g>
     </g>
    </g>
    <g id="text_16">
     <!-- iter -->
     <g style="fill: #262626" transform="translate(187.093216 416.089219) scale(0.12 -0.12)">
      <defs>
       <path id="ArialMT-69" d="M 425 3934 
L 425 4581 
L 988 4581 
L 988 3934 
L 425 3934 
z
M 425 0 
L 425 3319 
L 988 3319 
L 988 0 
L 425 0 
z
" transform="scale(0.015625)"/>
       <path id="ArialMT-74" d="M 1650 503 
L 1731 6 
Q 1494 -44 1306 -44 
Q 1000 -44 831 53 
Q 663 150 594 308 
Q 525 466 525 972 
L 525 2881 
L 113 2881 
L 113 3319 
L 525 3319 
L 525 4141 
L 1084 4478 
L 1084 3319 
L 1650 3319 
L 1650 2881 
L 1084 2881 
L 1084 941 
Q 1084 700 1114 631 
Q 1144 563 1211 522 
Q 1278 481 1403 481 
Q 1497 481 1650 503 
z
" transform="scale(0.015625)"/>
       <path id="ArialMT-65" d="M 2694 1069 
L 3275 997 
Q 3138 488 2766 206 
Q 2394 -75 1816 -75 
Q 1088 -75 661 373 
Q 234 822 234 1631 
Q 234 2469 665 2931 
Q 1097 3394 1784 3394 
Q 2450 3394 2872 2941 
Q 3294 2488 3294 1666 
Q 3294 1616 3291 1516 
L 816 1516 
Q 847 969 1125 678 
Q 1403 388 1819 388 
Q 2128 388 2347 550 
Q 2566 713 2694 1069 
z
M 847 1978 
L 2700 1978 
Q 2663 2397 2488 2606 
Q 2219 2931 1791 2931 
Q 1403 2931 1139 2672 
Q 875 2413 847 1978 
z
" transform="scale(0.015625)"/>
       <path id="ArialMT-72" d="M 416 0 
L 416 3319 
L 922 3319 
L 922 2816 
Q 1116 3169 1280 3281 
Q 1444 3394 1641 3394 
Q 1925 3394 2219 3213 
L 2025 2691 
Q 1819 2813 1613 2813 
Q 1428 2813 1281 2702 
Q 1134 2591 1072 2394 
Q 978 2094 978 1738 
L 978 0 
L 416 0 
z
" transform="scale(0.015625)"/>
      </defs>
      <use xlink:href="#ArialMT-69"/>
      <use xlink:href="#ArialMT-74" transform="translate(22.216797 0)"/>
      <use xlink:href="#ArialMT-65" transform="translate(50 0)"/>
      <use xlink:href="#ArialMT-72" transform="translate(105.615234 0)"/>
     </g>
    </g>
   </g>
   <g id="matplotlib.axis_2">
    <g id="ytick_1">
     <g id="line2d_1">
      <path d="M 71.0562 376.060971 
L 319.798982 376.060971 
" clip-path="url(#pc3ae726b61)" style="fill: none; stroke: #cccccc; stroke-linecap: round"/>
     </g>
     <g id="text_17">
      <!-- 0.46 -->
      <g style="fill: #262626" transform="translate(40.149169 379.997768) scale(0.11 -0.11)">
       <defs>
        <path id="ArialMT-2e" d="M 581 0 
L 581 641 
L 1222 641 
L 1222 0 
L 581 0 
z
" transform="scale(0.015625)"/>
       </defs>
       <use xlink:href="#ArialMT-30"/>
       <use xlink:href="#ArialMT-2e" transform="translate(55.615234 0)"/>
       <use xlink:href="#ArialMT-34" transform="translate(83.398438 0)"/>
       <use xlink:href="#ArialMT-36" transform="translate(139.013672 0)"/>
      </g>
     </g>
    </g>
    <g id="ytick_2">
     <g id="line2d_2">
      <path d="M 71.0562 334.240235 
L 319.798982 334.240235 
" clip-path="url(#pc3ae726b61)" style="fill: none; stroke: #cccccc; stroke-linecap: round"/>
     </g>
     <g id="text_18">
      <!-- 0.48 -->
      <g style="fill: #262626" transform="translate(40.149169 338.177032) scale(0.11 -0.11)">
       <use xlink:href="#ArialMT-30"/>
       <use xlink:href="#ArialMT-2e" transform="translate(55.615234 0)"/>
       <use xlink:href="#ArialMT-34" transform="translate(83.398438 0)"/>
       <use xlink:href="#ArialMT-38" transform="translate(139.013672 0)"/>
      </g>
     </g>
    </g>
    <g id="ytick_3">
     <g id="line2d_3">
      <path d="M 71.0562 292.419499 
L 319.798982 292.419499 
" clip-path="url(#pc3ae726b61)" style="fill: none; stroke: #cccccc; stroke-linecap: round"/>
     </g>
     <g id="text_19">
      <!-- 0.50 -->
      <g style="fill: #262626" transform="translate(40.149169 296.356296) scale(0.11 -0.11)">
       <use xlink:href="#ArialMT-30"/>
       <use xlink:href="#ArialMT-2e" transform="translate(55.615234 0)"/>
       <use xlink:href="#ArialMT-35" transform="translate(83.398438 0)"/>
       <use xlink:href="#ArialMT-30" transform="translate(139.013672 0)"/>
      </g>
     </g>
    </g>
    <g id="ytick_4">
     <g id="line2d_4">
      <path d="M 71.0562 250.598763 
L 319.798982 250.598763 
" clip-path="url(#pc3ae726b61)" style="fill: none; stroke: #cccccc; stroke-linecap: round"/>
     </g>
     <g id="text_20">
      <!-- 0.52 -->
      <g style="fill: #262626" transform="translate(40.149169 254.53556) scale(0.11 -0.11)">
       <use xlink:href="#ArialMT-30"/>
       <use xlink:href="#ArialMT-2e" transform="translate(55.615234 0)"/>
       <use xlink:href="#ArialMT-35" transform="translate(83.398438 0)"/>
       <use xlink:href="#ArialMT-32" transform="translate(139.013672 0)"/>
      </g>
     </g>
    </g>
    <g id="ytick_5">
     <g id="line2d_5">
      <path d="M 71.0562 208.778027 
L 319.798982 208.778027 
" clip-path="url(#pc3ae726b61)" style="fill: none; stroke: #cccccc; stroke-linecap: round"/>
     </g>
     <g id="text_21">
      <!-- 0.54 -->
      <g style="fill: #262626" transform="translate(40.149169 212.714824) scale(0.11 -0.11)">
       <use xlink:href="#ArialMT-30"/>
       <use xlink:href="#ArialMT-2e" transform="translate(55.615234 0)"/>
       <use xlink:href="#ArialMT-35" transform="translate(83.398438 0)"/>
       <use xlink:href="#ArialMT-34" transform="translate(139.013672 0)"/>
      </g>
     </g>
    </g>
    <g id="ytick_6">
     <g id="line2d_6">
      <path d="M 71.0562 166.957291 
L 319.798982 166.957291 
" clip-path="url(#pc3ae726b61)" style="fill: none; stroke: #cccccc; stroke-linecap: round"/>
     </g>
     <g id="text_22">
      <!-- 0.56 -->
      <g style="fill: #262626" transform="translate(40.149169 170.894088) scale(0.11 -0.11)">
       <use xlink:href="#ArialMT-30"/>
       <use xlink:href="#ArialMT-2e" transform="translate(55.615234 0)"/>
       <use xlink:href="#ArialMT-35" transform="translate(83.398438 0)"/>
       <use xlink:href="#ArialMT-36" transform="translate(139.013672 0)"/>
      </g>
     </g>
    </g>
    <g id="ytick_7">
     <g id="line2d_7">
      <path d="M 71.0562 125.136555 
L 319.798982 125.136555 
" clip-path="url(#pc3ae726b61)" style="fill: none; stroke: #cccccc; stroke-linecap: round"/>
     </g>
     <g id="text_23">
      <!-- 0.58 -->
      <g style="fill: #262626" transform="translate(40.149169 129.073352) scale(0.11 -0.11)">
       <use xlink:href="#ArialMT-30"/>
       <use xlink:href="#ArialMT-2e" transform="translate(55.615234 0)"/>
       <use xlink:href="#ArialMT-35" transform="translate(83.398438 0)"/>
       <use xlink:href="#ArialMT-38" transform="translate(139.013672 0)"/>
      </g>
     </g>
    </g>
    <g id="ytick_8">
     <g id="line2d_8">
      <path d="M 71.0562 83.315819 
L 319.798982 83.315819 
" clip-path="url(#pc3ae726b61)" style="fill: none; stroke: #cccccc; stroke-linecap: round"/>
     </g>
     <g id="text_24">
      <!-- 0.60 -->
      <g style="fill: #262626" transform="translate(40.149169 87.252616) scale(0.11 -0.11)">
       <use xlink:href="#ArialMT-30"/>
       <use xlink:href="#ArialMT-2e" transform="translate(55.615234 0)"/>
       <use xlink:href="#ArialMT-36" transform="translate(83.398438 0)"/>
       <use xlink:href="#ArialMT-30" transform="translate(139.013672 0)"/>
      </g>
     </g>
    </g>
    <g id="ytick_9">
     <g id="line2d_9">
      <path d="M 71.0562 41.495083 
L 319.798982 41.495083 
" clip-path="url(#pc3ae726b61)" style="fill: none; stroke: #cccccc; stroke-linecap: round"/>
     </g>
     <g id="text_25">
      <!-- 0.62 -->
      <g style="fill: #262626" transform="translate(40.149169 45.43188) scale(0.11 -0.11)">
       <use xlink:href="#ArialMT-30"/>
       <use xlink:href="#ArialMT-2e" transform="translate(55.615234 0)"/>
       <use xlink:href="#ArialMT-36" transform="translate(83.398438 0)"/>
       <use xlink:href="#ArialMT-32" transform="translate(139.013672 0)"/>
      </g>
     </g>
    </g>
    <g id="text_26">
     <!-- acc -->
     <g style="fill: #262626" transform="translate(33.764169 207.786563) rotate(-90) scale(0.12 -0.12)">
      <defs>
       <path id="ArialMT-61" d="M 2588 409 
Q 2275 144 1986 34 
Q 1697 -75 1366 -75 
Q 819 -75 525 192 
Q 231 459 231 875 
Q 231 1119 342 1320 
Q 453 1522 633 1644 
Q 813 1766 1038 1828 
Q 1203 1872 1538 1913 
Q 2219 1994 2541 2106 
Q 2544 2222 2544 2253 
Q 2544 2597 2384 2738 
Q 2169 2928 1744 2928 
Q 1347 2928 1158 2789 
Q 969 2650 878 2297 
L 328 2372 
Q 403 2725 575 2942 
Q 747 3159 1072 3276 
Q 1397 3394 1825 3394 
Q 2250 3394 2515 3294 
Q 2781 3194 2906 3042 
Q 3031 2891 3081 2659 
Q 3109 2516 3109 2141 
L 3109 1391 
Q 3109 606 3145 398 
Q 3181 191 3288 0 
L 2700 0 
Q 2613 175 2588 409 
z
M 2541 1666 
Q 2234 1541 1622 1453 
Q 1275 1403 1131 1340 
Q 988 1278 909 1158 
Q 831 1038 831 891 
Q 831 666 1001 516 
Q 1172 366 1500 366 
Q 1825 366 2078 508 
Q 2331 650 2450 897 
Q 2541 1088 2541 1459 
L 2541 1666 
z
" transform="scale(0.015625)"/>
       <path id="ArialMT-63" d="M 2588 1216 
L 3141 1144 
Q 3050 572 2676 248 
Q 2303 -75 1759 -75 
Q 1078 -75 664 370 
Q 250 816 250 1647 
Q 250 2184 428 2587 
Q 606 2991 970 3192 
Q 1334 3394 1763 3394 
Q 2303 3394 2647 3120 
Q 2991 2847 3088 2344 
L 2541 2259 
Q 2463 2594 2264 2762 
Q 2066 2931 1784 2931 
Q 1359 2931 1093 2626 
Q 828 2322 828 1663 
Q 828 994 1084 691 
Q 1341 388 1753 388 
Q 2084 388 2306 591 
Q 2528 794 2588 1216 
z
" transform="scale(0.015625)"/>
      </defs>
      <use xlink:href="#ArialMT-61"/>
      <use xlink:href="#ArialMT-63" transform="translate(55.615234 0)"/>
      <use xlink:href="#ArialMT-63" transform="translate(105.615234 0)"/>
     </g>
    </g>
   </g>
   <g id="line2d_10">
    <path d="M 79.347626 214.719771 
L 95.930478 235.287346 
L 112.51333 229.574131 
L 129.096183 213.577128 
L 145.679035 211.291842 
L 162.261887 243.285847 
L 178.844739 244.42849 
L 195.427591 231.859417 
L 212.010443 213.577128 
L 228.593296 226.146201 
L 245.176148 230.716774 
L 261.759 237.572632 
L 278.341852 204.435983 
L 294.924704 221.575629 
L 311.507556 244.42849 
" clip-path="url(#pc3ae726b61)" style="fill: none; stroke: #479db8; stroke-width: 2.7; stroke-linecap: round"/>
    <defs>
     <path id="m3e997c36f6" d="M 0 3.383948 
C 0.897434 3.383948 1.758231 3.027394 2.392813 2.392813 
C 3.027394 1.758231 3.383948 0.897434 3.383948 0 
C 3.383948 -0.897434 3.027394 -1.758231 2.392813 -2.392813 
C 1.758231 -3.027394 0.897434 -3.383948 0 -3.383948 
C -0.897434 -3.383948 -1.758231 -3.027394 -2.392813 -2.392813 
C -3.027394 -1.758231 -3.383948 -0.897434 -3.383948 0 
C -3.383948 0.897434 -3.027394 1.758231 -2.392813 2.392813 
C -1.758231 3.027394 -0.897434 3.383948 0 3.383948 
z
" style="stroke: #479db8; stroke-width: 2.025"/>
    </defs>
    <g clip-path="url(#pc3ae726b61)">
     <use xlink:href="#m3e997c36f6" x="79.347626" y="214.719771" style="fill: #479db8; stroke: #479db8; stroke-width: 2.025"/>
     <use xlink:href="#m3e997c36f6" x="95.930478" y="235.287346" style="fill: #479db8; stroke: #479db8; stroke-width: 2.025"/>
     <use xlink:href="#m3e997c36f6" x="112.51333" y="229.574131" style="fill: #479db8; stroke: #479db8; stroke-width: 2.025"/>
     <use xlink:href="#m3e997c36f6" x="129.096183" y="213.577128" style="fill: #479db8; stroke: #479db8; stroke-width: 2.025"/>
     <use xlink:href="#m3e997c36f6" x="145.679035" y="211.291842" style="fill: #479db8; stroke: #479db8; stroke-width: 2.025"/>
     <use xlink:href="#m3e997c36f6" x="162.261887" y="243.285847" style="fill: #479db8; stroke: #479db8; stroke-width: 2.025"/>
     <use xlink:href="#m3e997c36f6" x="178.844739" y="244.42849" style="fill: #479db8; stroke: #479db8; stroke-width: 2.025"/>
     <use xlink:href="#m3e997c36f6" x="195.427591" y="231.859417" style="fill: #479db8; stroke: #479db8; stroke-width: 2.025"/>
     <use xlink:href="#m3e997c36f6" x="212.010443" y="213.577128" style="fill: #479db8; stroke: #479db8; stroke-width: 2.025"/>
     <use xlink:href="#m3e997c36f6" x="228.593296" y="226.146201" style="fill: #479db8; stroke: #479db8; stroke-width: 2.025"/>
     <use xlink:href="#m3e997c36f6" x="245.176148" y="230.716774" style="fill: #479db8; stroke: #479db8; stroke-width: 2.025"/>
     <use xlink:href="#m3e997c36f6" x="261.759" y="237.572632" style="fill: #479db8; stroke: #479db8; stroke-width: 2.025"/>
     <use xlink:href="#m3e997c36f6" x="278.341852" y="204.435983" style="fill: #479db8; stroke: #479db8; stroke-width: 2.025"/>
     <use xlink:href="#m3e997c36f6" x="294.924704" y="221.575629" style="fill: #479db8; stroke: #479db8; stroke-width: 2.025"/>
     <use xlink:href="#m3e997c36f6" x="311.507556" y="244.42849" style="fill: #479db8; stroke: #479db8; stroke-width: 2.025"/>
    </g>
   </g>
   <g id="line2d_11">
    <path d="M 77.689341 238.331322 
L 81.005911 238.331322 
M 79.347626 238.331322 
L 79.347626 191.108219 
M 77.689341 191.108219 
L 81.005911 191.108219 
" clip-path="url(#pc3ae726b61)" style="fill: none; stroke: #479db8; stroke-width: 2.7; stroke-linecap: round"/>
   </g>
   <g id="line2d_12">
    <path d="M 94.272193 265.583552 
L 97.588763 265.583552 
M 95.930478 265.583552 
L 95.930478 204.99114 
M 94.272193 204.99114 
L 97.588763 204.99114 
" clip-path="url(#pc3ae726b61)" style="fill: none; stroke: #479db8; stroke-width: 2.7; stroke-linecap: round"/>
   </g>
   <g id="line2d_13">
    <path d="M 110.855045 249.496793 
L 114.171616 249.496793 
M 112.51333 249.496793 
L 112.51333 209.651468 
M 110.855045 209.651468 
L 114.171616 209.651468 
" clip-path="url(#pc3ae726b61)" style="fill: none; stroke: #479db8; stroke-width: 2.7; stroke-linecap: round"/>
   </g>
   <g id="line2d_14">
    <path d="M 127.437897 225.615619 
L 130.754468 225.615619 
M 129.096183 225.615619 
L 129.096183 201.538636 
M 127.437897 201.538636 
L 130.754468 201.538636 
" clip-path="url(#pc3ae726b61)" style="fill: none; stroke: #479db8; stroke-width: 2.7; stroke-linecap: round"/>
   </g>
   <g id="line2d_15">
    <path d="M 144.02075 225.332875 
L 147.33732 225.332875 
M 145.679035 225.332875 
L 145.679035 197.250809 
M 144.02075 197.250809 
L 147.33732 197.250809 
" clip-path="url(#pc3ae726b61)" style="fill: none; stroke: #479db8; stroke-width: 2.7; stroke-linecap: round"/>
   </g>
   <g id="line2d_16">
    <path d="M 160.603602 262.508079 
L 163.920172 262.508079 
M 162.261887 262.508079 
L 162.261887 224.063616 
M 160.603602 224.063616 
L 163.920172 224.063616 
" clip-path="url(#pc3ae726b61)" style="fill: none; stroke: #479db8; stroke-width: 2.7; stroke-linecap: round"/>
   </g>
   <g id="line2d_17">
    <path d="M 177.186454 277.128851 
L 180.503024 277.128851 
M 178.844739 277.128851 
L 178.844739 211.72813 
M 177.186454 211.72813 
L 180.503024 211.72813 
" clip-path="url(#pc3ae726b61)" style="fill: none; stroke: #479db8; stroke-width: 2.7; stroke-linecap: round"/>
   </g>
   <g id="line2d_18">
    <path d="M 193.769306 248.338849 
L 197.085876 248.338849 
M 195.427591 248.338849 
L 195.427591 215.379984 
M 193.769306 215.379984 
L 197.085876 215.379984 
" clip-path="url(#pc3ae726b61)" style="fill: none; stroke: #479db8; stroke-width: 2.7; stroke-linecap: round"/>
   </g>
   <g id="line2d_19">
    <path d="M 210.352158 235.880631 
L 213.668729 235.880631 
M 212.010443 235.880631 
L 212.010443 191.273625 
M 210.352158 191.273625 
L 213.668729 191.273625 
" clip-path="url(#pc3ae726b61)" style="fill: none; stroke: #479db8; stroke-width: 2.7; stroke-linecap: round"/>
   </g>
   <g id="line2d_20">
    <path d="M 226.93501 235.908948 
L 230.251581 235.908948 
M 228.593296 235.908948 
L 228.593296 216.383455 
M 226.93501 216.383455 
L 230.251581 216.383455 
" clip-path="url(#pc3ae726b61)" style="fill: none; stroke: #479db8; stroke-width: 2.7; stroke-linecap: round"/>
   </g>
   <g id="line2d_21">
    <path d="M 243.517863 264.361743 
L 246.834433 264.361743 
M 245.176148 264.361743 
L 245.176148 197.071805 
M 243.517863 197.071805 
L 246.834433 197.071805 
" clip-path="url(#pc3ae726b61)" style="fill: none; stroke: #479db8; stroke-width: 2.7; stroke-linecap: round"/>
   </g>
   <g id="line2d_22">
    <path d="M 260.100715 260.051067 
L 263.417285 260.051067 
M 261.759 260.051067 
L 261.759 215.094197 
M 260.100715 215.094197 
L 263.417285 215.094197 
" clip-path="url(#pc3ae726b61)" style="fill: none; stroke: #479db8; stroke-width: 2.7; stroke-linecap: round"/>
   </g>
   <g id="line2d_23">
    <path d="M 276.683567 222.394029 
L 280.000137 222.394029 
M 278.341852 222.394029 
L 278.341852 186.477938 
M 276.683567 186.477938 
L 280.000137 186.477938 
" clip-path="url(#pc3ae726b61)" style="fill: none; stroke: #479db8; stroke-width: 2.7; stroke-linecap: round"/>
   </g>
   <g id="line2d_24">
    <path d="M 293.266419 257.546207 
L 296.582989 257.546207 
M 294.924704 257.546207 
L 294.924704 185.605052 
M 293.266419 185.605052 
L 296.582989 185.605052 
" clip-path="url(#pc3ae726b61)" style="fill: none; stroke: #479db8; stroke-width: 2.7; stroke-linecap: round"/>
   </g>
   <g id="line2d_25">
    <path d="M 309.849271 263.308052 
L 313.165842 263.308052 
M 311.507556 263.308052 
L 311.507556 225.548929 
M 309.849271 225.548929 
L 313.165842 225.548929 
" clip-path="url(#pc3ae726b61)" style="fill: none; stroke: #479db8; stroke-width: 2.7; stroke-linecap: round"/>
   </g>
   <g id="line2d_26">
    <path d="M 79.347626 285.077689 
L 95.930478 155.302332 
L 112.51333 191.225228 
L 129.096183 159.872904 
L 145.679035 183.868408 
L 162.261887 163.300833 
L 178.844739 165.75315 
L 195.427591 160.323207 
L 212.010443 136.304714 
L 228.593296 161.162212 
L 245.176148 77.849968 
L 261.759 80.201358 
L 278.341852 117.0363 
L 294.924704 131.269568 
L 311.507556 160.914428 
" clip-path="url(#pc3ae726b61)" style="fill: none; stroke: #25668c; stroke-width: 2.7; stroke-linecap: round"/>
    <defs>
     <path id="m08ea85d5c8" d="M 0 3.383948 
C 0.897434 3.383948 1.758231 3.027394 2.392813 2.392813 
C 3.027394 1.758231 3.383948 0.897434 3.383948 0 
C 3.383948 -0.897434 3.027394 -1.758231 2.392813 -2.392813 
C 1.758231 -3.027394 0.897434 -3.383948 0 -3.383948 
C -0.897434 -3.383948 -1.758231 -3.027394 -2.392813 -2.392813 
C -3.027394 -1.758231 -3.383948 -0.897434 -3.383948 0 
C -3.383948 0.897434 -3.027394 1.758231 -2.392813 2.392813 
C -1.758231 3.027394 -0.897434 3.383948 0 3.383948 
z
" style="stroke: #25668c; stroke-width: 2.025"/>
    </defs>
    <g clip-path="url(#pc3ae726b61)">
     <use xlink:href="#m08ea85d5c8" x="79.347626" y="285.077689" style="fill: #25668c; stroke: #25668c; stroke-width: 2.025"/>
     <use xlink:href="#m08ea85d5c8" x="95.930478" y="155.302332" style="fill: #25668c; stroke: #25668c; stroke-width: 2.025"/>
     <use xlink:href="#m08ea85d5c8" x="112.51333" y="191.225228" style="fill: #25668c; stroke: #25668c; stroke-width: 2.025"/>
     <use xlink:href="#m08ea85d5c8" x="129.096183" y="159.872904" style="fill: #25668c; stroke: #25668c; stroke-width: 2.025"/>
     <use xlink:href="#m08ea85d5c8" x="145.679035" y="183.868408" style="fill: #25668c; stroke: #25668c; stroke-width: 2.025"/>
     <use xlink:href="#m08ea85d5c8" x="162.261887" y="163.300833" style="fill: #25668c; stroke: #25668c; stroke-width: 2.025"/>
     <use xlink:href="#m08ea85d5c8" x="178.844739" y="165.75315" style="fill: #25668c; stroke: #25668c; stroke-width: 2.025"/>
     <use xlink:href="#m08ea85d5c8" x="195.427591" y="160.323207" style="fill: #25668c; stroke: #25668c; stroke-width: 2.025"/>
     <use xlink:href="#m08ea85d5c8" x="212.010443" y="136.304714" style="fill: #25668c; stroke: #25668c; stroke-width: 2.025"/>
     <use xlink:href="#m08ea85d5c8" x="228.593296" y="161.162212" style="fill: #25668c; stroke: #25668c; stroke-width: 2.025"/>
     <use xlink:href="#m08ea85d5c8" x="245.176148" y="77.849968" style="fill: #25668c; stroke: #25668c; stroke-width: 2.025"/>
     <use xlink:href="#m08ea85d5c8" x="261.759" y="80.201358" style="fill: #25668c; stroke: #25668c; stroke-width: 2.025"/>
     <use xlink:href="#m08ea85d5c8" x="278.341852" y="117.0363" style="fill: #25668c; stroke: #25668c; stroke-width: 2.025"/>
     <use xlink:href="#m08ea85d5c8" x="294.924704" y="131.269568" style="fill: #25668c; stroke: #25668c; stroke-width: 2.025"/>
     <use xlink:href="#m08ea85d5c8" x="311.507556" y="160.914428" style="fill: #25668c; stroke: #25668c; stroke-width: 2.025"/>
    </g>
   </g>
   <g id="line2d_27">
    <path d="M 77.689341 367.077273 
L 81.005911 367.077273 
M 79.347626 367.077273 
L 79.347626 203.078105 
M 77.689341 203.078105 
L 81.005911 203.078105 
" clip-path="url(#pc3ae726b61)" style="fill: none; stroke: #25668c; stroke-width: 2.7; stroke-linecap: round"/>
   </g>
   <g id="line2d_28">
    <path d="M 94.272193 236.879364 
L 97.588763 236.879364 
M 95.930478 236.879364 
L 95.930478 73.7253 
M 94.272193 73.7253 
L 97.588763 73.7253 
" clip-path="url(#pc3ae726b61)" style="fill: none; stroke: #25668c; stroke-width: 2.7; stroke-linecap: round"/>
   </g>
   <g id="line2d_29">
    <path d="M 110.855045 255.072618 
L 114.171616 255.072618 
M 112.51333 255.072618 
L 112.51333 127.377839 
M 110.855045 127.377839 
L 114.171616 127.377839 
" clip-path="url(#pc3ae726b61)" style="fill: none; stroke: #25668c; stroke-width: 2.7; stroke-linecap: round"/>
   </g>
   <g id="line2d_30">
    <path d="M 127.437897 247.432472 
L 130.754468 247.432472 
M 129.096183 247.432472 
L 129.096183 72.313336 
M 127.437897 72.313336 
L 130.754468 72.313336 
" clip-path="url(#pc3ae726b61)" style="fill: none; stroke: #25668c; stroke-width: 2.7; stroke-linecap: round"/>
   </g>
   <g id="line2d_31">
    <path d="M 144.02075 260.83371 
L 147.33732 260.83371 
M 145.679035 260.83371 
L 145.679035 106.903107 
M 144.02075 106.903107 
L 147.33732 106.903107 
" clip-path="url(#pc3ae726b61)" style="fill: none; stroke: #25668c; stroke-width: 2.7; stroke-linecap: round"/>
   </g>
   <g id="line2d_32">
    <path d="M 160.603602 243.359269 
L 163.920172 243.359269 
M 162.261887 243.359269 
L 162.261887 83.242397 
M 160.603602 83.242397 
L 163.920172 83.242397 
" clip-path="url(#pc3ae726b61)" style="fill: none; stroke: #25668c; stroke-width: 2.7; stroke-linecap: round"/>
   </g>
   <g id="line2d_33">
    <path d="M 177.186454 251.016615 
L 180.503024 251.016615 
M 178.844739 251.016615 
L 178.844739 80.489686 
M 177.186454 80.489686 
L 180.503024 80.489686 
" clip-path="url(#pc3ae726b61)" style="fill: none; stroke: #25668c; stroke-width: 2.7; stroke-linecap: round"/>
   </g>
   <g id="line2d_34">
    <path d="M 193.769306 227.729679 
L 197.085876 227.729679 
M 195.427591 227.729679 
L 195.427591 92.916734 
M 193.769306 92.916734 
L 197.085876 92.916734 
" clip-path="url(#pc3ae726b61)" style="fill: none; stroke: #25668c; stroke-width: 2.7; stroke-linecap: round"/>
   </g>
   <g id="line2d_35">
    <path d="M 210.352158 171.58268 
L 213.668729 171.58268 
M 212.010443 171.58268 
L 212.010443 101.026748 
M 210.352158 101.026748 
L 213.668729 101.026748 
" clip-path="url(#pc3ae726b61)" style="fill: none; stroke: #25668c; stroke-width: 2.7; stroke-linecap: round"/>
   </g>
   <g id="line2d_36">
    <path d="M 226.93501 174.515933 
L 230.251581 174.515933 
M 228.593296 174.515933 
L 228.593296 147.808491 
M 226.93501 147.808491 
L 230.251581 147.808491 
" clip-path="url(#pc3ae726b61)" style="fill: none; stroke: #25668c; stroke-width: 2.7; stroke-linecap: round"/>
   </g>
   <g id="line2d_37">
    <path d="M 243.517863 103.160149 
L 246.834433 103.160149 
M 245.176148 103.160149 
L 245.176148 52.539787 
M 243.517863 52.539787 
L 246.834433 52.539787 
" clip-path="url(#pc3ae726b61)" style="fill: none; stroke: #25668c; stroke-width: 2.7; stroke-linecap: round"/>
   </g>
   <g id="line2d_38">
    <path d="M 260.100715 130.57999 
L 263.417285 130.57999 
M 261.759 130.57999 
L 261.759 29.822727 
M 260.100715 29.822727 
L 263.417285 29.822727 
" clip-path="url(#pc3ae726b61)" style="fill: none; stroke: #25668c; stroke-width: 2.7; stroke-linecap: round"/>
   </g>
   <g id="line2d_39">
    <path d="M 276.683567 165.103778 
L 280.000137 165.103778 
M 278.341852 165.103778 
L 278.341852 68.968822 
M 276.683567 68.968822 
L 280.000137 68.968822 
" clip-path="url(#pc3ae726b61)" style="fill: none; stroke: #25668c; stroke-width: 2.7; stroke-linecap: round"/>
   </g>
   <g id="line2d_40">
    <path d="M 293.266419 169.669276 
L 296.582989 169.669276 
M 294.924704 169.669276 
L 294.924704 92.86986 
M 293.266419 92.86986 
L 296.582989 92.86986 
" clip-path="url(#pc3ae726b61)" style="fill: none; stroke: #25668c; stroke-width: 2.7; stroke-linecap: round"/>
   </g>
   <g id="line2d_41">
    <path d="M 309.849271 169.084356 
L 313.165842 169.084356 
M 311.507556 169.084356 
L 311.507556 152.7445 
M 309.849271 152.7445 
L 313.165842 152.7445 
" clip-path="url(#pc3ae726b61)" style="fill: none; stroke: #25668c; stroke-width: 2.7; stroke-linecap: round"/>
   </g>
   <g id="line2d_42"/>
   <g id="line2d_43"/>
   <g id="patch_3">
    <path d="M 71.0562 383.94 
L 319.798982 383.94 
" style="fill: none; stroke: #cccccc; stroke-width: 1.25; stroke-linejoin: miter; stroke-linecap: square"/>
   </g>
  </g>
  <g id="legend_1">
   <g id="text_27">
    <!-- type -->
    <g style="fill: #262626" transform="translate(340.149063 203.407578) scale(0.12 -0.12)">
     <defs>
      <path id="ArialMT-79" d="M 397 -1278 
L 334 -750 
Q 519 -800 656 -800 
Q 844 -800 956 -737 
Q 1069 -675 1141 -563 
Q 1194 -478 1313 -144 
Q 1328 -97 1363 -6 
L 103 3319 
L 709 3319 
L 1400 1397 
Q 1534 1031 1641 628 
Q 1738 1016 1872 1384 
L 2581 3319 
L 3144 3319 
L 1881 -56 
Q 1678 -603 1566 -809 
Q 1416 -1088 1222 -1217 
Q 1028 -1347 759 -1347 
Q 597 -1347 397 -1278 
z
" transform="scale(0.015625)"/>
      <path id="ArialMT-70" d="M 422 -1272 
L 422 3319 
L 934 3319 
L 934 2888 
Q 1116 3141 1344 3267 
Q 1572 3394 1897 3394 
Q 2322 3394 2647 3175 
Q 2972 2956 3137 2557 
Q 3303 2159 3303 1684 
Q 3303 1175 3120 767 
Q 2938 359 2589 142 
Q 2241 -75 1856 -75 
Q 1575 -75 1351 44 
Q 1128 163 984 344 
L 984 -1272 
L 422 -1272 
z
M 931 1641 
Q 931 1000 1190 694 
Q 1450 388 1819 388 
Q 2194 388 2461 705 
Q 2728 1022 2728 1688 
Q 2728 2322 2467 2637 
Q 2206 2953 1844 2953 
Q 1484 2953 1207 2617 
Q 931 2281 931 1641 
z
" transform="scale(0.015625)"/>
     </defs>
     <use xlink:href="#ArialMT-74"/>
     <use xlink:href="#ArialMT-79" transform="translate(27.783203 0)"/>
     <use xlink:href="#ArialMT-70" transform="translate(77.783203 0)"/>
     <use xlink:href="#ArialMT-65" transform="translate(133.398438 0)"/>
    </g>
   </g>
   <g id="line2d_44">
    <path d="M 322.638125 215.456797 
L 333.638125 215.456797 
L 344.638125 215.456797 
" style="fill: none; stroke: #479db8; stroke-width: 2.7; stroke-linecap: round"/>
    <g>
     <use xlink:href="#m3e997c36f6" x="333.638125" y="215.456797" style="fill: #479db8; stroke: #479db8; stroke-width: 2.025"/>
    </g>
   </g>
   <g id="text_28">
    <!-- origin -->
    <g style="fill: #262626" transform="translate(353.438125 219.306797) scale(0.11 -0.11)">
     <defs>
      <path id="ArialMT-6f" d="M 213 1659 
Q 213 2581 725 3025 
Q 1153 3394 1769 3394 
Q 2453 3394 2887 2945 
Q 3322 2497 3322 1706 
Q 3322 1066 3130 698 
Q 2938 331 2570 128 
Q 2203 -75 1769 -75 
Q 1072 -75 642 372 
Q 213 819 213 1659 
z
M 791 1659 
Q 791 1022 1069 705 
Q 1347 388 1769 388 
Q 2188 388 2466 706 
Q 2744 1025 2744 1678 
Q 2744 2294 2464 2611 
Q 2184 2928 1769 2928 
Q 1347 2928 1069 2612 
Q 791 2297 791 1659 
z
" transform="scale(0.015625)"/>
      <path id="ArialMT-67" d="M 319 -275 
L 866 -356 
Q 900 -609 1056 -725 
Q 1266 -881 1628 -881 
Q 2019 -881 2231 -725 
Q 2444 -569 2519 -288 
Q 2563 -116 2559 434 
Q 2191 0 1641 0 
Q 956 0 581 494 
Q 206 988 206 1678 
Q 206 2153 378 2554 
Q 550 2956 876 3175 
Q 1203 3394 1644 3394 
Q 2231 3394 2613 2919 
L 2613 3319 
L 3131 3319 
L 3131 450 
Q 3131 -325 2973 -648 
Q 2816 -972 2473 -1159 
Q 2131 -1347 1631 -1347 
Q 1038 -1347 672 -1080 
Q 306 -813 319 -275 
z
M 784 1719 
Q 784 1066 1043 766 
Q 1303 466 1694 466 
Q 2081 466 2343 764 
Q 2606 1063 2606 1700 
Q 2606 2309 2336 2618 
Q 2066 2928 1684 2928 
Q 1309 2928 1046 2623 
Q 784 2319 784 1719 
z
" transform="scale(0.015625)"/>
      <path id="ArialMT-6e" d="M 422 0 
L 422 3319 
L 928 3319 
L 928 2847 
Q 1294 3394 1984 3394 
Q 2284 3394 2536 3286 
Q 2788 3178 2913 3003 
Q 3038 2828 3088 2588 
Q 3119 2431 3119 2041 
L 3119 0 
L 2556 0 
L 2556 2019 
Q 2556 2363 2490 2533 
Q 2425 2703 2258 2804 
Q 2091 2906 1866 2906 
Q 1506 2906 1245 2678 
Q 984 2450 984 1813 
L 984 0 
L 422 0 
z
" transform="scale(0.015625)"/>
     </defs>
     <use xlink:href="#ArialMT-6f"/>
     <use xlink:href="#ArialMT-72" transform="translate(55.615234 0)"/>
     <use xlink:href="#ArialMT-69" transform="translate(88.916016 0)"/>
     <use xlink:href="#ArialMT-67" transform="translate(111.132812 0)"/>
     <use xlink:href="#ArialMT-69" transform="translate(166.748047 0)"/>
     <use xlink:href="#ArialMT-6e" transform="translate(188.964844 0)"/>
    </g>
   </g>
   <g id="line2d_45">
    <path d="M 322.638125 231.145547 
L 333.638125 231.145547 
L 344.638125 231.145547 
" style="fill: none; stroke: #25668c; stroke-width: 2.7; stroke-linecap: round"/>
    <g>
     <use xlink:href="#m08ea85d5c8" x="333.638125" y="231.145547" style="fill: #25668c; stroke: #25668c; stroke-width: 2.025"/>
    </g>
   </g>
   <g id="text_29">
    <!-- res -->
    <g style="fill: #262626" transform="translate(353.438125 234.995547) scale(0.11 -0.11)">
     <defs>
      <path id="ArialMT-73" d="M 197 991 
L 753 1078 
Q 800 744 1014 566 
Q 1228 388 1613 388 
Q 2000 388 2187 545 
Q 2375 703 2375 916 
Q 2375 1106 2209 1216 
Q 2094 1291 1634 1406 
Q 1016 1563 777 1677 
Q 538 1791 414 1992 
Q 291 2194 291 2438 
Q 291 2659 392 2848 
Q 494 3038 669 3163 
Q 800 3259 1026 3326 
Q 1253 3394 1513 3394 
Q 1903 3394 2198 3281 
Q 2494 3169 2634 2976 
Q 2775 2784 2828 2463 
L 2278 2388 
Q 2241 2644 2061 2787 
Q 1881 2931 1553 2931 
Q 1166 2931 1000 2803 
Q 834 2675 834 2503 
Q 834 2394 903 2306 
Q 972 2216 1119 2156 
Q 1203 2125 1616 2013 
Q 2213 1853 2448 1751 
Q 2684 1650 2818 1456 
Q 2953 1263 2953 975 
Q 2953 694 2789 445 
Q 2625 197 2315 61 
Q 2006 -75 1616 -75 
Q 969 -75 630 194 
Q 291 463 197 991 
z
" transform="scale(0.015625)"/>
     </defs>
     <use xlink:href="#ArialMT-72"/>
     <use xlink:href="#ArialMT-65" transform="translate(33.300781 0)"/>
     <use xlink:href="#ArialMT-73" transform="translate(88.916016 0)"/>
    </g>
   </g>
  </g>
 </g>
 <defs>
  <clipPath id="pc3ae726b61">
   <rect x="71.0562" y="12.96" width="248.742782" height="370.98"/>
  </clipPath>
 </defs>
</svg>
