<?xml version="1.0" encoding="utf-8" standalone="no"?>
<!DOCTYPE svg PUBLIC "-//W3C//DTD SVG 1.1//EN"
  "http://www.w3.org/Graphics/SVG/1.1/DTD/svg11.dtd">
<svg xmlns:xlink="http://www.w3.org/1999/xlink" width="432pt" height="432pt" viewBox="0 0 432 432" xmlns="http://www.w3.org/2000/svg" version="1.1">
 <metadata>
  <rdf:RDF xmlns:dc="http://purl.org/dc/elements/1.1/" xmlns:cc="http://creativecommons.org/ns#" xmlns:rdf="http://www.w3.org/1999/02/22-rdf-syntax-ns#">
   <cc:Work>
    <dc:type rdf:resource="http://purl.org/dc/dcmitype/StillImage"/>
    <dc:date>2025-01-17T20:49:44.749937</dc:date>
    <dc:format>image/svg+xml</dc:format>
    <dc:creator>
     <cc:Agent>
      <dc:title>Matplotlib v3.10.0, https://matplotlib.org/</dc:title>
     </cc:Agent>
    </dc:creator>
   </cc:Work>
  </rdf:RDF>
 </metadata>
 <defs>
  <style type="text/css">*{stroke-linejoin: round; stroke-linecap: butt}</style>
 </defs>
 <g id="figure_1">
  <g id="patch_1">
   <path d="M 0 432 
L 432 432 
L 432 0 
L 0 0 
z
" style="fill: #ffffff"/>
  </g>
  <g id="axes_1">
   <g id="patch_2">
    <path d="M 54 384.48 
L 388.8 384.48 
L 388.8 51.84 
L 54 51.84 
z
" style="fill: #ffffff"/>
   </g>
   <g id="matplotlib.axis_1">
    <g id="xtick_1">
     <g id="line2d_1">
      <defs>
       <path id="m00c9d8e441" d="M 0 0 
L 0 6 
" style="stroke: #262626; stroke-width: 1.25"/>
      </defs>
      <g>
       <use xlink:href="#m00c9d8e441" x="92.158225" y="384.48" style="fill: #262626; stroke: #262626; stroke-width: 1.25"/>
      </g>
     </g>
     <g id="text_1">
      <!-- 0.0 -->
      <g style="fill: #262626" transform="translate(84.513225 401.853594) scale(0.11 -0.11)">
       <defs>
        <path id="ArialMT-30" d="M 266 2259 
Q 266 3072 433 3567 
Q 600 4063 929 4331 
Q 1259 4600 1759 4600 
Q 2128 4600 2406 4451 
Q 2684 4303 2865 4023 
Q 3047 3744 3150 3342 
Q 3253 2941 3253 2259 
Q 3253 1453 3087 958 
Q 2922 463 2592 192 
Q 2263 -78 1759 -78 
Q 1097 -78 719 397 
Q 266 969 266 2259 
z
M 844 2259 
Q 844 1131 1108 757 
Q 1372 384 1759 384 
Q 2147 384 2411 759 
Q 2675 1134 2675 2259 
Q 2675 3391 2411 3762 
Q 2147 4134 1753 4134 
Q 1366 4134 1134 3806 
Q 844 3388 844 2259 
z
" transform="scale(0.015625)"/>
        <path id="ArialMT-2e" d="M 581 0 
L 581 641 
L 1222 641 
L 1222 0 
L 581 0 
z
" transform="scale(0.015625)"/>
       </defs>
       <use xlink:href="#ArialMT-30"/>
       <use xlink:href="#ArialMT-2e" transform="translate(55.615234 0)"/>
       <use xlink:href="#ArialMT-30" transform="translate(83.398438 0)"/>
      </g>
     </g>
    </g>
    <g id="xtick_2">
     <g id="line2d_2">
      <g>
       <use xlink:href="#m00c9d8e441" x="148.442944" y="384.48" style="fill: #262626; stroke: #262626; stroke-width: 1.25"/>
      </g>
     </g>
     <g id="text_2">
      <!-- 0.2 -->
      <g style="fill: #262626" transform="translate(140.797944 401.853594) scale(0.11 -0.11)">
       <defs>
        <path id="ArialMT-32" d="M 3222 541 
L 3222 0 
L 194 0 
Q 188 203 259 391 
Q 375 700 629 1000 
Q 884 1300 1366 1694 
Q 2113 2306 2375 2664 
Q 2638 3022 2638 3341 
Q 2638 3675 2398 3904 
Q 2159 4134 1775 4134 
Q 1369 4134 1125 3890 
Q 881 3647 878 3216 
L 300 3275 
Q 359 3922 746 4261 
Q 1134 4600 1788 4600 
Q 2447 4600 2831 4234 
Q 3216 3869 3216 3328 
Q 3216 3053 3103 2787 
Q 2991 2522 2730 2228 
Q 2469 1934 1863 1422 
Q 1356 997 1212 845 
Q 1069 694 975 541 
L 3222 541 
z
" transform="scale(0.015625)"/>
       </defs>
       <use xlink:href="#ArialMT-30"/>
       <use xlink:href="#ArialMT-2e" transform="translate(55.615234 0)"/>
       <use xlink:href="#ArialMT-32" transform="translate(83.398438 0)"/>
      </g>
     </g>
    </g>
    <g id="xtick_3">
     <g id="line2d_3">
      <g>
       <use xlink:href="#m00c9d8e441" x="204.727662" y="384.48" style="fill: #262626; stroke: #262626; stroke-width: 1.25"/>
      </g>
     </g>
     <g id="text_3">
      <!-- 0.4 -->
      <g style="fill: #262626" transform="translate(197.082662 401.853594) scale(0.11 -0.11)">
       <defs>
        <path id="ArialMT-34" d="M 2069 0 
L 2069 1097 
L 81 1097 
L 81 1613 
L 2172 4581 
L 2631 4581 
L 2631 1613 
L 3250 1613 
L 3250 1097 
L 2631 1097 
L 2631 0 
L 2069 0 
z
M 2069 1613 
L 2069 3678 
L 634 1613 
L 2069 1613 
z
" transform="scale(0.015625)"/>
       </defs>
       <use xlink:href="#ArialMT-30"/>
       <use xlink:href="#ArialMT-2e" transform="translate(55.615234 0)"/>
       <use xlink:href="#ArialMT-34" transform="translate(83.398438 0)"/>
      </g>
     </g>
    </g>
    <g id="xtick_4">
     <g id="line2d_4">
      <g>
       <use xlink:href="#m00c9d8e441" x="261.012381" y="384.48" style="fill: #262626; stroke: #262626; stroke-width: 1.25"/>
      </g>
     </g>
     <g id="text_4">
      <!-- 0.6 -->
      <g style="fill: #262626" transform="translate(253.367381 401.853594) scale(0.11 -0.11)">
       <defs>
        <path id="ArialMT-36" d="M 3184 3459 
L 2625 3416 
Q 2550 3747 2413 3897 
Q 2184 4138 1850 4138 
Q 1581 4138 1378 3988 
Q 1113 3794 959 3422 
Q 806 3050 800 2363 
Q 1003 2672 1297 2822 
Q 1591 2972 1913 2972 
Q 2475 2972 2870 2558 
Q 3266 2144 3266 1488 
Q 3266 1056 3080 686 
Q 2894 316 2569 119 
Q 2244 -78 1831 -78 
Q 1128 -78 684 439 
Q 241 956 241 2144 
Q 241 3472 731 4075 
Q 1159 4600 1884 4600 
Q 2425 4600 2770 4297 
Q 3116 3994 3184 3459 
z
M 888 1484 
Q 888 1194 1011 928 
Q 1134 663 1356 523 
Q 1578 384 1822 384 
Q 2178 384 2434 671 
Q 2691 959 2691 1453 
Q 2691 1928 2437 2201 
Q 2184 2475 1800 2475 
Q 1419 2475 1153 2201 
Q 888 1928 888 1484 
z
" transform="scale(0.015625)"/>
       </defs>
       <use xlink:href="#ArialMT-30"/>
       <use xlink:href="#ArialMT-2e" transform="translate(55.615234 0)"/>
       <use xlink:href="#ArialMT-36" transform="translate(83.398438 0)"/>
      </g>
     </g>
    </g>
    <g id="xtick_5">
     <g id="line2d_5">
      <g>
       <use xlink:href="#m00c9d8e441" x="317.2971" y="384.48" style="fill: #262626; stroke: #262626; stroke-width: 1.25"/>
      </g>
     </g>
     <g id="text_5">
      <!-- 0.8 -->
      <g style="fill: #262626" transform="translate(309.6521 401.853594) scale(0.11 -0.11)">
       <defs>
        <path id="ArialMT-38" d="M 1131 2484 
Q 781 2613 612 2850 
Q 444 3088 444 3419 
Q 444 3919 803 4259 
Q 1163 4600 1759 4600 
Q 2359 4600 2725 4251 
Q 3091 3903 3091 3403 
Q 3091 3084 2923 2848 
Q 2756 2613 2416 2484 
Q 2838 2347 3058 2040 
Q 3278 1734 3278 1309 
Q 3278 722 2862 322 
Q 2447 -78 1769 -78 
Q 1091 -78 675 323 
Q 259 725 259 1325 
Q 259 1772 486 2073 
Q 713 2375 1131 2484 
z
M 1019 3438 
Q 1019 3113 1228 2906 
Q 1438 2700 1772 2700 
Q 2097 2700 2305 2904 
Q 2513 3109 2513 3406 
Q 2513 3716 2298 3927 
Q 2084 4138 1766 4138 
Q 1444 4138 1231 3931 
Q 1019 3725 1019 3438 
z
M 838 1322 
Q 838 1081 952 856 
Q 1066 631 1291 507 
Q 1516 384 1775 384 
Q 2178 384 2440 643 
Q 2703 903 2703 1303 
Q 2703 1709 2433 1975 
Q 2163 2241 1756 2241 
Q 1359 2241 1098 1978 
Q 838 1716 838 1322 
z
" transform="scale(0.015625)"/>
       </defs>
       <use xlink:href="#ArialMT-30"/>
       <use xlink:href="#ArialMT-2e" transform="translate(55.615234 0)"/>
       <use xlink:href="#ArialMT-38" transform="translate(83.398438 0)"/>
      </g>
     </g>
    </g>
    <g id="xtick_6">
     <g id="line2d_6">
      <g>
       <use xlink:href="#m00c9d8e441" x="373.581818" y="384.48" style="fill: #262626; stroke: #262626; stroke-width: 1.25"/>
      </g>
     </g>
     <g id="text_6">
      <!-- 1.0 -->
      <g style="fill: #262626" transform="translate(365.936818 401.853594) scale(0.11 -0.11)">
       <defs>
        <path id="ArialMT-31" d="M 2384 0 
L 1822 0 
L 1822 3584 
Q 1619 3391 1289 3197 
Q 959 3003 697 2906 
L 697 3450 
Q 1169 3672 1522 3987 
Q 1875 4303 2022 4600 
L 2384 4600 
L 2384 0 
z
" transform="scale(0.015625)"/>
       </defs>
       <use xlink:href="#ArialMT-31"/>
       <use xlink:href="#ArialMT-2e" transform="translate(55.615234 0)"/>
       <use xlink:href="#ArialMT-30" transform="translate(83.398438 0)"/>
      </g>
     </g>
    </g>
   </g>
   <g id="matplotlib.axis_2">
    <g id="ytick_1">
     <g id="line2d_7">
      <defs>
       <path id="mff5a210f21" d="M 0 0 
L -6 0 
" style="stroke: #262626; stroke-width: 1.25"/>
      </defs>
      <g>
       <use xlink:href="#mff5a210f21" x="54" y="348.036923" style="fill: #262626; stroke: #262626; stroke-width: 1.25"/>
      </g>
     </g>
     <g id="text_7">
      <!-- 200 -->
      <g style="fill: #262626" transform="translate(26.148906 351.97372) scale(0.11 -0.11)">
       <use xlink:href="#ArialMT-32"/>
       <use xlink:href="#ArialMT-30" transform="translate(55.615234 0)"/>
       <use xlink:href="#ArialMT-30" transform="translate(111.230469 0)"/>
      </g>
     </g>
    </g>
    <g id="ytick_2">
     <g id="line2d_8">
      <g>
       <use xlink:href="#mff5a210f21" x="54" y="309.267692" style="fill: #262626; stroke: #262626; stroke-width: 1.25"/>
      </g>
     </g>
     <g id="text_8">
      <!-- 400 -->
      <g style="fill: #262626" transform="translate(26.148906 313.204489) scale(0.11 -0.11)">
       <use xlink:href="#ArialMT-34"/>
       <use xlink:href="#ArialMT-30" transform="translate(55.615234 0)"/>
       <use xlink:href="#ArialMT-30" transform="translate(111.230469 0)"/>
      </g>
     </g>
    </g>
    <g id="ytick_3">
     <g id="line2d_9">
      <g>
       <use xlink:href="#mff5a210f21" x="54" y="270.498462" style="fill: #262626; stroke: #262626; stroke-width: 1.25"/>
      </g>
     </g>
     <g id="text_9">
      <!-- 600 -->
      <g style="fill: #262626" transform="translate(26.148906 274.435258) scale(0.11 -0.11)">
       <use xlink:href="#ArialMT-36"/>
       <use xlink:href="#ArialMT-30" transform="translate(55.615234 0)"/>
       <use xlink:href="#ArialMT-30" transform="translate(111.230469 0)"/>
      </g>
     </g>
    </g>
    <g id="ytick_4">
     <g id="line2d_10">
      <g>
       <use xlink:href="#mff5a210f21" x="54" y="231.729231" style="fill: #262626; stroke: #262626; stroke-width: 1.25"/>
      </g>
     </g>
     <g id="text_10">
      <!-- 800 -->
      <g style="fill: #262626" transform="translate(26.148906 235.666028) scale(0.11 -0.11)">
       <use xlink:href="#ArialMT-38"/>
       <use xlink:href="#ArialMT-30" transform="translate(55.615234 0)"/>
       <use xlink:href="#ArialMT-30" transform="translate(111.230469 0)"/>
      </g>
     </g>
    </g>
    <g id="ytick_5">
     <g id="line2d_11">
      <g>
       <use xlink:href="#mff5a210f21" x="54" y="192.96" style="fill: #262626; stroke: #262626; stroke-width: 1.25"/>
      </g>
     </g>
     <g id="text_11">
      <!-- 1000 -->
      <g style="fill: #262626" transform="translate(20.031875 196.896797) scale(0.11 -0.11)">
       <use xlink:href="#ArialMT-31"/>
       <use xlink:href="#ArialMT-30" transform="translate(55.615234 0)"/>
       <use xlink:href="#ArialMT-30" transform="translate(111.230469 0)"/>
       <use xlink:href="#ArialMT-30" transform="translate(166.845703 0)"/>
      </g>
     </g>
    </g>
    <g id="ytick_6">
     <g id="line2d_12">
      <g>
       <use xlink:href="#mff5a210f21" x="54" y="154.190769" style="fill: #262626; stroke: #262626; stroke-width: 1.25"/>
      </g>
     </g>
     <g id="text_12">
      <!-- 1200 -->
      <g style="fill: #262626" transform="translate(20.031875 158.127566) scale(0.11 -0.11)">
       <use xlink:href="#ArialMT-31"/>
       <use xlink:href="#ArialMT-32" transform="translate(55.615234 0)"/>
       <use xlink:href="#ArialMT-30" transform="translate(111.230469 0)"/>
       <use xlink:href="#ArialMT-30" transform="translate(166.845703 0)"/>
      </g>
     </g>
    </g>
    <g id="ytick_7">
     <g id="line2d_13">
      <g>
       <use xlink:href="#mff5a210f21" x="54" y="115.421538" style="fill: #262626; stroke: #262626; stroke-width: 1.25"/>
      </g>
     </g>
     <g id="text_13">
      <!-- 1400 -->
      <g style="fill: #262626" transform="translate(20.031875 119.358335) scale(0.11 -0.11)">
       <use xlink:href="#ArialMT-31"/>
       <use xlink:href="#ArialMT-34" transform="translate(55.615234 0)"/>
       <use xlink:href="#ArialMT-30" transform="translate(111.230469 0)"/>
       <use xlink:href="#ArialMT-30" transform="translate(166.845703 0)"/>
      </g>
     </g>
    </g>
    <g id="ytick_8">
     <g id="line2d_14">
      <g>
       <use xlink:href="#mff5a210f21" x="54" y="76.652308" style="fill: #262626; stroke: #262626; stroke-width: 1.25"/>
      </g>
     </g>
     <g id="text_14">
      <!-- 1600 -->
      <g style="fill: #262626" transform="translate(20.031875 80.589105) scale(0.11 -0.11)">
       <use xlink:href="#ArialMT-31"/>
       <use xlink:href="#ArialMT-36" transform="translate(55.615234 0)"/>
       <use xlink:href="#ArialMT-30" transform="translate(111.230469 0)"/>
       <use xlink:href="#ArialMT-30" transform="translate(166.845703 0)"/>
      </g>
     </g>
    </g>
   </g>
   <g id="patch_3">
    <path d="M 279.328844 260.475698 
C 306.0109 233.278868 328.639051 204.170423 342.22971 179.561159 
C 355.820368 154.951895 359.263917 136.85105 351.801955 129.245125 
C 344.339993 121.6392 326.581755 125.149185 302.438288 139.002047 
C 278.294821 152.854908 249.737332 175.919621 223.055276 203.116451 
C 196.37322 230.31328 173.745069 259.421726 160.15441 284.03099 
C 146.563751 308.640253 143.120202 326.741098 150.582165 334.347023 
C 158.044127 341.952948 175.802364 338.442963 199.945831 324.590102 
C 224.089298 310.73724 252.646788 287.672527 279.328844 260.475698 
z
" clip-path="url(#pd2dd077f7e)" style="fill: #eeae53; opacity: 0.5; stroke: #eeae53; stroke-linejoin: miter"/>
   </g>
   <g id="PathCollection_1">
    <defs>
     <path id="C0_0_9c2059d2d4" d="M 0 1.581139 
C 0.419323 1.581139 0.821528 1.41454 1.118034 1.118034 
C 1.41454 0.821528 1.581139 0.419323 1.581139 -0 
C 1.581139 -0.419323 1.41454 -0.821528 1.118034 -1.118034 
C 0.821528 -1.41454 0.419323 -1.581139 0 -1.581139 
C -0.419323 -1.581139 -0.821528 -1.41454 -1.118034 -1.118034 
C -1.41454 -0.821528 -1.581139 -0.419323 -1.581139 0 
C -1.581139 0.419323 -1.41454 0.821528 -1.118034 1.118034 
C -0.821528 1.41454 -0.419323 1.581139 0 1.581139 
z
"/>
    </defs>
    <g clip-path="url(#pd2dd077f7e)">
     <use xlink:href="#C0_0_9c2059d2d4" x="159.163843" y="340.283077" style="fill: #eeae53; stroke: #eeae53"/>
    </g>
    <g clip-path="url(#pd2dd077f7e)">
     <use xlink:href="#C0_0_9c2059d2d4" x="162.514123" y="334.467692" style="fill: #eeae53; stroke: #eeae53"/>
    </g>
    <g clip-path="url(#pd2dd077f7e)">
     <use xlink:href="#C0_0_9c2059d2d4" x="129.681371" y="328.652308" style="fill: #eeae53; stroke: #eeae53"/>
    </g>
    <g clip-path="url(#pd2dd077f7e)">
     <use xlink:href="#C0_0_9c2059d2d4" x="144.925149" y="322.836923" style="fill: #eeae53; stroke: #eeae53"/>
    </g>
    <g clip-path="url(#pd2dd077f7e)">
     <use xlink:href="#C0_0_9c2059d2d4" x="170.331445" y="317.021538" style="fill: #eeae53; stroke: #eeae53"/>
    </g>
    <g clip-path="url(#pd2dd077f7e)">
     <use xlink:href="#C0_0_9c2059d2d4" x="174.92987" y="305.390769" style="fill: #eeae53; stroke: #eeae53"/>
    </g>
    <g clip-path="url(#pd2dd077f7e)">
     <use xlink:href="#C0_0_9c2059d2d4" x="185.96609" y="299.575385" style="fill: #eeae53; stroke: #eeae53"/>
    </g>
    <g clip-path="url(#pd2dd077f7e)">
     <use xlink:href="#C0_0_9c2059d2d4" x="191.484199" y="287.944615" style="fill: #eeae53; stroke: #eeae53"/>
    </g>
    <g clip-path="url(#pd2dd077f7e)">
     <use xlink:href="#C0_0_9c2059d2d4" x="174.92987" y="282.129231" style="fill: #eeae53; stroke: #eeae53"/>
    </g>
    <g clip-path="url(#pd2dd077f7e)">
     <use xlink:href="#C0_0_9c2059d2d4" x="224.592857" y="276.313846" style="fill: #eeae53; stroke: #eeae53"/>
    </g>
    <g clip-path="url(#pd2dd077f7e)">
     <use xlink:href="#C0_0_9c2059d2d4" x="271.245966" y="270.498462" style="fill: #eeae53; stroke: #eeae53"/>
    </g>
    <g clip-path="url(#pd2dd077f7e)">
     <use xlink:href="#C0_0_9c2059d2d4" x="279.773954" y="247.236923" style="fill: #eeae53; stroke: #eeae53"/>
    </g>
    <g clip-path="url(#pd2dd077f7e)">
     <use xlink:href="#C0_0_9c2059d2d4" x="210.65237" y="241.421538" style="fill: #eeae53; stroke: #eeae53"/>
    </g>
    <g clip-path="url(#pd2dd077f7e)">
     <use xlink:href="#C0_0_9c2059d2d4" x="279.773954" y="235.606154" style="fill: #eeae53; stroke: #eeae53"/>
    </g>
    <g clip-path="url(#pd2dd077f7e)">
     <use xlink:href="#C0_0_9c2059d2d4" x="232.870022" y="229.790769" style="fill: #eeae53; stroke: #eeae53"/>
    </g>
    <g clip-path="url(#pd2dd077f7e)">
     <use xlink:href="#C0_0_9c2059d2d4" x="303.22592" y="223.975385" style="fill: #eeae53; stroke: #eeae53"/>
    </g>
    <g clip-path="url(#pd2dd077f7e)">
     <use xlink:href="#C0_0_9c2059d2d4" x="265.341975" y="218.16" style="fill: #eeae53; stroke: #eeae53"/>
    </g>
    <g clip-path="url(#pd2dd077f7e)">
     <use xlink:href="#C0_0_9c2059d2d4" x="320.814895" y="212.344615" style="fill: #eeae53; stroke: #eeae53"/>
    </g>
    <g clip-path="url(#pd2dd077f7e)">
     <use xlink:href="#C0_0_9c2059d2d4" x="308.637912" y="206.529231" style="fill: #eeae53; stroke: #eeae53"/>
    </g>
    <g clip-path="url(#pd2dd077f7e)">
     <use xlink:href="#C0_0_9c2059d2d4" x="273.073392" y="200.713846" style="fill: #eeae53; stroke: #eeae53"/>
    </g>
    <g clip-path="url(#pd2dd077f7e)">
     <use xlink:href="#C0_0_9c2059d2d4" x="286.989943" y="189.083077" style="fill: #eeae53; stroke: #eeae53"/>
    </g>
    <g clip-path="url(#pd2dd077f7e)">
     <use xlink:href="#C0_0_9c2059d2d4" x="248.504666" y="177.452308" style="fill: #eeae53; stroke: #eeae53"/>
    </g>
    <g clip-path="url(#pd2dd077f7e)">
     <use xlink:href="#C0_0_9c2059d2d4" x="351.933849" y="171.636923" style="fill: #eeae53; stroke: #eeae53"/>
    </g>
    <g clip-path="url(#pd2dd077f7e)">
     <use xlink:href="#C0_0_9c2059d2d4" x="373.581818" y="165.821538" style="fill: #eeae53; stroke: #eeae53"/>
    </g>
    <g clip-path="url(#pd2dd077f7e)">
     <use xlink:href="#C0_0_9c2059d2d4" x="271.245966" y="154.190769" style="fill: #eeae53; stroke: #eeae53"/>
    </g>
    <g clip-path="url(#pd2dd077f7e)">
     <use xlink:href="#C0_0_9c2059d2d4" x="271.245966" y="148.375385" style="fill: #eeae53; stroke: #eeae53"/>
    </g>
    <g clip-path="url(#pd2dd077f7e)">
     <use xlink:href="#C0_0_9c2059d2d4" x="333.378448" y="136.744615" style="fill: #eeae53; stroke: #eeae53"/>
    </g>
    <g clip-path="url(#pd2dd077f7e)">
     <use xlink:href="#C0_0_9c2059d2d4" x="361.34601" y="130.929231" style="fill: #eeae53; stroke: #eeae53"/>
    </g>
    <g clip-path="url(#pd2dd077f7e)">
     <use xlink:href="#C0_0_9c2059d2d4" x="322.413892" y="66.96" style="fill: #eeae53; stroke: #eeae53"/>
    </g>
   </g>
   <g id="patch_4">
    <path d="M 189.820686 321.82782 
C 216.245231 306.693945 239.382196 290.91282 254.135932 277.960053 
C 268.889667 265.007287 274.055597 255.940415 268.495984 252.756312 
C 262.936372 249.572209 247.105135 252.530842 224.48892 260.980606 
C 201.872705 269.430371 174.318026 282.681382 147.89348 297.815256 
C 121.468935 312.949131 98.33197 328.730257 83.578235 341.683024 
C 68.824499 354.63579 63.658569 363.702662 69.218182 366.886765 
C 74.777794 370.070868 90.609031 367.112235 113.225246 358.662471 
C 135.841461 350.212706 163.39614 336.961695 189.820686 321.82782 
z
" clip-path="url(#pd2dd077f7e)" style="fill: #c76a72; opacity: 0.5; stroke: #c76a72; stroke-linejoin: miter"/>
   </g>
   <g id="PathCollection_2">
    <defs>
     <path id="C1_0_2ae8a949c4" d="M 0 1.581139 
C 0.419323 1.581139 0.821528 1.41454 1.118034 1.118034 
C 1.41454 0.821528 1.581139 0.419323 1.581139 -0 
C 1.581139 -0.419323 1.41454 -0.821528 1.118034 -1.118034 
C 0.821528 -1.41454 0.419323 -1.581139 0 -1.581139 
C -0.419323 -1.581139 -0.821528 -1.41454 -1.118034 -1.118034 
C -1.41454 -0.821528 -1.581139 -0.419323 -1.581139 0 
C -1.581139 0.419323 -1.41454 0.821528 -1.118034 1.118034 
C -0.821528 1.41454 -0.419323 1.581139 0 1.581139 
z
"/>
    </defs>
    <g clip-path="url(#pd2dd077f7e)">
     <use xlink:href="#C1_0_2ae8a949c4" x="92.158225" y="369.36" style="fill: #c76a72; stroke: #c76a72"/>
    </g>
    <g clip-path="url(#pd2dd077f7e)">
     <use xlink:href="#C1_0_2ae8a949c4" x="106.590204" y="363.544615" style="fill: #c76a72; stroke: #c76a72"/>
    </g>
    <g clip-path="url(#pd2dd077f7e)">
     <use xlink:href="#C1_0_2ae8a949c4" x="106.969993" y="357.729231" style="fill: #c76a72; stroke: #c76a72"/>
    </g>
    <g clip-path="url(#pd2dd077f7e)">
     <use xlink:href="#C1_0_2ae8a949c4" x="104.950207" y="351.913846" style="fill: #c76a72; stroke: #c76a72"/>
    </g>
    <g clip-path="url(#pd2dd077f7e)">
     <use xlink:href="#C1_0_2ae8a949c4" x="102.209068" y="346.098462" style="fill: #c76a72; stroke: #c76a72"/>
    </g>
    <g clip-path="url(#pd2dd077f7e)">
     <use xlink:href="#C1_0_2ae8a949c4" x="132.361596" y="340.283077" style="fill: #c76a72; stroke: #c76a72"/>
    </g>
    <g clip-path="url(#pd2dd077f7e)">
     <use xlink:href="#C1_0_2ae8a949c4" x="133.544048" y="334.467692" style="fill: #c76a72; stroke: #c76a72"/>
    </g>
    <g clip-path="url(#pd2dd077f7e)">
     <use xlink:href="#C1_0_2ae8a949c4" x="109.7472" y="328.652308" style="fill: #c76a72; stroke: #c76a72"/>
    </g>
    <g clip-path="url(#pd2dd077f7e)">
     <use xlink:href="#C1_0_2ae8a949c4" x="122.310753" y="322.836923" style="fill: #c76a72; stroke: #c76a72"/>
    </g>
    <g clip-path="url(#pd2dd077f7e)">
     <use xlink:href="#C1_0_2ae8a949c4" x="137.549127" y="317.021538" style="fill: #c76a72; stroke: #c76a72"/>
    </g>
    <g clip-path="url(#pd2dd077f7e)">
     <use xlink:href="#C1_0_2ae8a949c4" x="178.7501" y="311.206154" style="fill: #c76a72; stroke: #c76a72"/>
    </g>
    <g clip-path="url(#pd2dd077f7e)">
     <use xlink:href="#C1_0_2ae8a949c4" x="189.200843" y="305.390769" style="fill: #c76a72; stroke: #c76a72"/>
    </g>
    <g clip-path="url(#pd2dd077f7e)">
     <use xlink:href="#C1_0_2ae8a949c4" x="182.213775" y="299.575385" style="fill: #c76a72; stroke: #c76a72"/>
    </g>
    <g clip-path="url(#pd2dd077f7e)">
     <use xlink:href="#C1_0_2ae8a949c4" x="158.375541" y="293.76" style="fill: #c76a72; stroke: #c76a72"/>
    </g>
    <g clip-path="url(#pd2dd077f7e)">
     <use xlink:href="#C1_0_2ae8a949c4" x="170.956831" y="287.944615" style="fill: #c76a72; stroke: #c76a72"/>
    </g>
    <g clip-path="url(#pd2dd077f7e)">
     <use xlink:href="#C1_0_2ae8a949c4" x="264.643653" y="282.129231" style="fill: #c76a72; stroke: #c76a72"/>
    </g>
    <g clip-path="url(#pd2dd077f7e)">
     <use xlink:href="#C1_0_2ae8a949c4" x="232.870022" y="276.313846" style="fill: #c76a72; stroke: #c76a72"/>
    </g>
    <g clip-path="url(#pd2dd077f7e)">
     <use xlink:href="#C1_0_2ae8a949c4" x="185.96609" y="270.498462" style="fill: #c76a72; stroke: #c76a72"/>
    </g>
    <g clip-path="url(#pd2dd077f7e)">
     <use xlink:href="#C1_0_2ae8a949c4" x="204.727662" y="264.683077" style="fill: #c76a72; stroke: #c76a72"/>
    </g>
    <g clip-path="url(#pd2dd077f7e)">
     <use xlink:href="#C1_0_2ae8a949c4" x="279.773954" y="258.867692" style="fill: #c76a72; stroke: #c76a72"/>
    </g>
    <g clip-path="url(#pd2dd077f7e)">
     <use xlink:href="#C1_0_2ae8a949c4" x="350.129852" y="223.975385" style="fill: #c76a72; stroke: #c76a72"/>
    </g>
   </g>
   <g id="patch_5">
    <path d="M 250.471961 278.422638 
C 278.037827 250.147879 301.778878 220.258455 316.466425 195.337164 
C 331.153972 170.415873 335.588841 152.497429 328.794304 145.528161 
C 321.999766 138.558893 304.530566 143.107811 280.234092 158.173068 
C 255.937618 173.238325 226.79757 197.58991 199.231704 225.864669 
C 171.665839 254.139428 147.924787 284.028853 133.23724 308.950144 
C 118.549693 333.871434 114.114824 351.789878 120.909361 358.759147 
C 127.703899 365.728415 145.173099 361.179497 169.469573 346.11424 
C 193.766047 331.048983 222.906095 306.697398 250.471961 278.422638 
z
" clip-path="url(#pd2dd077f7e)" style="fill: #62289d; opacity: 0.5; stroke: #62289d; stroke-linejoin: miter"/>
   </g>
   <g id="PathCollection_3">
    <defs>
     <path id="C2_0_d800cb7972" d="M 0 1.581139 
C 0.419323 1.581139 0.821528 1.41454 1.118034 1.118034 
C 1.41454 0.821528 1.581139 0.419323 1.581139 -0 
C 1.581139 -0.419323 1.41454 -0.821528 1.118034 -1.118034 
C 0.821528 -1.41454 0.419323 -1.581139 0 -1.581139 
C -0.419323 -1.581139 -0.821528 -1.41454 -1.118034 -1.118034 
C -1.41454 -0.821528 -1.581139 -0.419323 -1.581139 0 
C -1.581139 0.419323 -1.41454 0.821528 -1.118034 1.118034 
C -0.821528 1.41454 -0.419323 1.581139 0 1.581139 
z
"/>
    </defs>
    <g clip-path="url(#pd2dd077f7e)">
     <use xlink:href="#C2_0_d800cb7972" x="92.158225" y="363.544615" style="fill: #62289d; stroke: #62289d"/>
    </g>
    <g clip-path="url(#pd2dd077f7e)">
     <use xlink:href="#C2_0_d800cb7972" x="92.158225" y="351.913846" style="fill: #62289d; stroke: #62289d"/>
    </g>
    <g clip-path="url(#pd2dd077f7e)">
     <use xlink:href="#C2_0_d800cb7972" x="123.427513" y="346.098462" style="fill: #62289d; stroke: #62289d"/>
    </g>
    <g clip-path="url(#pd2dd077f7e)">
     <use xlink:href="#C2_0_d800cb7972" x="154.696801" y="340.283077" style="fill: #62289d; stroke: #62289d"/>
    </g>
    <g clip-path="url(#pd2dd077f7e)">
     <use xlink:href="#C2_0_d800cb7972" x="143.326151" y="334.467692" style="fill: #62289d; stroke: #62289d"/>
    </g>
    <g clip-path="url(#pd2dd077f7e)">
     <use xlink:href="#C2_0_d800cb7972" x="201.600734" y="328.652308" style="fill: #62289d; stroke: #62289d"/>
    </g>
    <g clip-path="url(#pd2dd077f7e)">
     <use xlink:href="#C2_0_d800cb7972" x="170.331445" y="322.836923" style="fill: #62289d; stroke: #62289d"/>
    </g>
    <g clip-path="url(#pd2dd077f7e)">
     <use xlink:href="#C2_0_d800cb7972" x="170.956831" y="317.021538" style="fill: #62289d; stroke: #62289d"/>
    </g>
    <g clip-path="url(#pd2dd077f7e)">
     <use xlink:href="#C2_0_d800cb7972" x="176.585303" y="311.206154" style="fill: #62289d; stroke: #62289d"/>
    </g>
    <g clip-path="url(#pd2dd077f7e)">
     <use xlink:href="#C2_0_d800cb7972" x="209.418056" y="305.390769" style="fill: #62289d; stroke: #62289d"/>
    </g>
    <g clip-path="url(#pd2dd077f7e)">
     <use xlink:href="#C2_0_d800cb7972" x="174.92987" y="299.575385" style="fill: #62289d; stroke: #62289d"/>
    </g>
    <g clip-path="url(#pd2dd077f7e)">
     <use xlink:href="#C2_0_d800cb7972" x="174.92987" y="293.76" style="fill: #62289d; stroke: #62289d"/>
    </g>
    <g clip-path="url(#pd2dd077f7e)">
     <use xlink:href="#C2_0_d800cb7972" x="223.489235" y="287.944615" style="fill: #62289d; stroke: #62289d"/>
    </g>
    <g clip-path="url(#pd2dd077f7e)">
     <use xlink:href="#C2_0_d800cb7972" x="143.326151" y="282.129231" style="fill: #62289d; stroke: #62289d"/>
    </g>
    <g clip-path="url(#pd2dd077f7e)">
     <use xlink:href="#C2_0_d800cb7972" x="243.694006" y="270.498462" style="fill: #62289d; stroke: #62289d"/>
    </g>
    <g clip-path="url(#pd2dd077f7e)">
     <use xlink:href="#C2_0_d800cb7972" x="279.773954" y="258.867692" style="fill: #62289d; stroke: #62289d"/>
    </g>
    <g clip-path="url(#pd2dd077f7e)">
     <use xlink:href="#C2_0_d800cb7972" x="201.600734" y="253.052308" style="fill: #62289d; stroke: #62289d"/>
    </g>
    <g clip-path="url(#pd2dd077f7e)">
     <use xlink:href="#C2_0_d800cb7972" x="252.971707" y="247.236923" style="fill: #62289d; stroke: #62289d"/>
    </g>
    <g clip-path="url(#pd2dd077f7e)">
     <use xlink:href="#C2_0_d800cb7972" x="225.464138" y="241.421538" style="fill: #62289d; stroke: #62289d"/>
    </g>
    <g clip-path="url(#pd2dd077f7e)">
     <use xlink:href="#C2_0_d800cb7972" x="299.522978" y="235.606154" style="fill: #62289d; stroke: #62289d"/>
    </g>
    <g clip-path="url(#pd2dd077f7e)">
     <use xlink:href="#C2_0_d800cb7972" x="322.413892" y="223.975385" style="fill: #62289d; stroke: #62289d"/>
    </g>
    <g clip-path="url(#pd2dd077f7e)">
     <use xlink:href="#C2_0_d800cb7972" x="232.870022" y="218.16" style="fill: #62289d; stroke: #62289d"/>
    </g>
    <g clip-path="url(#pd2dd077f7e)">
     <use xlink:href="#C2_0_d800cb7972" x="252.971707" y="212.344615" style="fill: #62289d; stroke: #62289d"/>
    </g>
    <g clip-path="url(#pd2dd077f7e)">
     <use xlink:href="#C2_0_d800cb7972" x="240.275906" y="206.529231" style="fill: #62289d; stroke: #62289d"/>
    </g>
    <g clip-path="url(#pd2dd077f7e)">
     <use xlink:href="#C2_0_d800cb7972" x="208.038528" y="189.083077" style="fill: #62289d; stroke: #62289d"/>
    </g>
    <g clip-path="url(#pd2dd077f7e)">
     <use xlink:href="#C2_0_d800cb7972" x="274.255844" y="183.267692" style="fill: #62289d; stroke: #62289d"/>
    </g>
    <g clip-path="url(#pd2dd077f7e)">
     <use xlink:href="#C2_0_d800cb7972" x="286.474516" y="171.636923" style="fill: #62289d; stroke: #62289d"/>
    </g>
    <g clip-path="url(#pd2dd077f7e)">
     <use xlink:href="#C2_0_d800cb7972" x="317.2971" y="165.821538" style="fill: #62289d; stroke: #62289d"/>
    </g>
    <g clip-path="url(#pd2dd077f7e)">
     <use xlink:href="#C2_0_d800cb7972" x="289.15474" y="148.375385" style="fill: #62289d; stroke: #62289d"/>
    </g>
    <g clip-path="url(#pd2dd077f7e)">
     <use xlink:href="#C2_0_d800cb7972" x="313.276763" y="125.113846" style="fill: #62289d; stroke: #62289d"/>
    </g>
    <g clip-path="url(#pd2dd077f7e)">
     <use xlink:href="#C2_0_d800cb7972" x="351.933849" y="119.298462" style="fill: #62289d; stroke: #62289d"/>
    </g>
    <g clip-path="url(#pd2dd077f7e)">
     <use xlink:href="#C2_0_d800cb7972" x="351.933849" y="113.483077" style="fill: #62289d; stroke: #62289d"/>
    </g>
   </g>
   <g id="patch_6">
    <path d="M 54 384.48 
L 54 51.84 
" style="fill: none; stroke: #262626; stroke-width: 1.25; stroke-linejoin: miter; stroke-linecap: square"/>
   </g>
   <g id="patch_7">
    <path d="M 388.8 384.48 
L 388.8 51.84 
" style="fill: none; stroke: #262626; stroke-width: 1.25; stroke-linejoin: miter; stroke-linecap: square"/>
   </g>
   <g id="patch_8">
    <path d="M 54 384.48 
L 388.8 384.48 
" style="fill: none; stroke: #262626; stroke-width: 1.25; stroke-linejoin: miter; stroke-linecap: square"/>
   </g>
   <g id="patch_9">
    <path d="M 54 51.84 
L 388.8 51.84 
" style="fill: none; stroke: #262626; stroke-width: 1.25; stroke-linejoin: miter; stroke-linecap: square"/>
   </g>
  </g>
 </g>
 <defs>
  <clipPath id="pd2dd077f7e">
   <rect x="54" y="51.84" width="334.8" height="332.64"/>
  </clipPath>
 </defs>
</svg>
