<?xml version="1.0" encoding="utf-8" standalone="no"?>
<!DOCTYPE svg PUBLIC "-//W3C//DTD SVG 1.1//EN"
  "http://www.w3.org/Graphics/SVG/1.1/DTD/svg11.dtd">
<svg xmlns:xlink="http://www.w3.org/1999/xlink" width="428.4pt" height="360pt" viewBox="0 0 428.4 360" xmlns="http://www.w3.org/2000/svg" version="1.1">
 <metadata>
  <rdf:RDF xmlns:dc="http://purl.org/dc/elements/1.1/" xmlns:cc="http://creativecommons.org/ns#" xmlns:rdf="http://www.w3.org/1999/02/22-rdf-syntax-ns#">
   <cc:Work>
    <dc:type rdf:resource="http://purl.org/dc/dcmitype/StillImage"/>
    <dc:date>2025-01-17T13:49:19.913657</dc:date>
    <dc:format>image/svg+xml</dc:format>
    <dc:creator>
     <cc:Agent>
      <dc:title>Matplotlib v3.10.0, https://matplotlib.org/</dc:title>
     </cc:Agent>
    </dc:creator>
   </cc:Work>
  </rdf:RDF>
 </metadata>
 <defs>
  <style type="text/css">*{stroke-linejoin: round; stroke-linecap: butt}</style>
 </defs>
 <g id="figure_1">
  <g id="patch_1">
   <path d="M 0 360 
L 428.4 360 
L 428.4 0 
L 0 0 
z
" style="fill: #ffffff"/>
  </g>
  <g id="axes_1">
   <g id="patch_2">
    <path d="M 73.95255 311.94 
L 355.716 311.94 
L 355.716 12.96 
L 73.95255 12.96 
z
" style="fill: #ffffff"/>
   </g>
   <g id="matplotlib.axis_1">
    <g id="xtick_1">
     <g id="line2d_1">
      <defs>
       <path id="m782d705acd" d="M 0 0 
L 0 6 
" style="stroke: #262626; stroke-width: 1.25"/>
      </defs>
      <g>
       <use xlink:href="#m782d705acd" x="97.737776" y="311.94" style="fill: #262626; stroke: #262626; stroke-width: 1.25"/>
      </g>
     </g>
     <g id="text_1">
      <!-- 0.650 -->
      <g style="fill: #262626" transform="translate(83.975745 329.313594) scale(0.11 -0.11)">
       <defs>
        <path id="ArialMT-30" d="M 266 2259 
Q 266 3072 433 3567 
Q 600 4063 929 4331 
Q 1259 4600 1759 4600 
Q 2128 4600 2406 4451 
Q 2684 4303 2865 4023 
Q 3047 3744 3150 3342 
Q 3253 2941 3253 2259 
Q 3253 1453 3087 958 
Q 2922 463 2592 192 
Q 2263 -78 1759 -78 
Q 1097 -78 719 397 
Q 266 969 266 2259 
z
M 844 2259 
Q 844 1131 1108 757 
Q 1372 384 1759 384 
Q 2147 384 2411 759 
Q 2675 1134 2675 2259 
Q 2675 3391 2411 3762 
Q 2147 4134 1753 4134 
Q 1366 4134 1134 3806 
Q 844 3388 844 2259 
z
" transform="scale(0.015625)"/>
        <path id="ArialMT-2e" d="M 581 0 
L 581 641 
L 1222 641 
L 1222 0 
L 581 0 
z
" transform="scale(0.015625)"/>
        <path id="ArialMT-36" d="M 3184 3459 
L 2625 3416 
Q 2550 3747 2413 3897 
Q 2184 4138 1850 4138 
Q 1581 4138 1378 3988 
Q 1113 3794 959 3422 
Q 806 3050 800 2363 
Q 1003 2672 1297 2822 
Q 1591 2972 1913 2972 
Q 2475 2972 2870 2558 
Q 3266 2144 3266 1488 
Q 3266 1056 3080 686 
Q 2894 316 2569 119 
Q 2244 -78 1831 -78 
Q 1128 -78 684 439 
Q 241 956 241 2144 
Q 241 3472 731 4075 
Q 1159 4600 1884 4600 
Q 2425 4600 2770 4297 
Q 3116 3994 3184 3459 
z
M 888 1484 
Q 888 1194 1011 928 
Q 1134 663 1356 523 
Q 1578 384 1822 384 
Q 2178 384 2434 671 
Q 2691 959 2691 1453 
Q 2691 1928 2437 2201 
Q 2184 2475 1800 2475 
Q 1419 2475 1153 2201 
Q 888 1928 888 1484 
z
" transform="scale(0.015625)"/>
        <path id="ArialMT-35" d="M 266 1200 
L 856 1250 
Q 922 819 1161 601 
Q 1400 384 1738 384 
Q 2144 384 2425 690 
Q 2706 997 2706 1503 
Q 2706 1984 2436 2262 
Q 2166 2541 1728 2541 
Q 1456 2541 1237 2417 
Q 1019 2294 894 2097 
L 366 2166 
L 809 4519 
L 3088 4519 
L 3088 3981 
L 1259 3981 
L 1013 2750 
Q 1425 3038 1878 3038 
Q 2478 3038 2890 2622 
Q 3303 2206 3303 1553 
Q 3303 931 2941 478 
Q 2500 -78 1738 -78 
Q 1113 -78 717 272 
Q 322 622 266 1200 
z
" transform="scale(0.015625)"/>
       </defs>
       <use xlink:href="#ArialMT-30"/>
       <use xlink:href="#ArialMT-2e" transform="translate(55.615234 0)"/>
       <use xlink:href="#ArialMT-36" transform="translate(83.398438 0)"/>
       <use xlink:href="#ArialMT-35" transform="translate(139.013672 0)"/>
       <use xlink:href="#ArialMT-30" transform="translate(194.628906 0)"/>
      </g>
     </g>
    </g>
    <g id="xtick_2">
     <g id="line2d_2">
      <g>
       <use xlink:href="#m782d705acd" x="136.160065" y="311.94" style="fill: #262626; stroke: #262626; stroke-width: 1.25"/>
      </g>
     </g>
     <g id="text_2">
      <!-- 0.675 -->
      <g style="fill: #262626" transform="translate(122.398034 329.313594) scale(0.11 -0.11)">
       <defs>
        <path id="ArialMT-37" d="M 303 3981 
L 303 4522 
L 3269 4522 
L 3269 4084 
Q 2831 3619 2401 2847 
Q 1972 2075 1738 1259 
Q 1569 684 1522 0 
L 944 0 
Q 953 541 1156 1306 
Q 1359 2072 1739 2783 
Q 2119 3494 2547 3981 
L 303 3981 
z
" transform="scale(0.015625)"/>
       </defs>
       <use xlink:href="#ArialMT-30"/>
       <use xlink:href="#ArialMT-2e" transform="translate(55.615234 0)"/>
       <use xlink:href="#ArialMT-36" transform="translate(83.398438 0)"/>
       <use xlink:href="#ArialMT-37" transform="translate(139.013672 0)"/>
       <use xlink:href="#ArialMT-35" transform="translate(194.628906 0)"/>
      </g>
     </g>
    </g>
    <g id="xtick_3">
     <g id="line2d_3">
      <g>
       <use xlink:href="#m782d705acd" x="174.582354" y="311.94" style="fill: #262626; stroke: #262626; stroke-width: 1.25"/>
      </g>
     </g>
     <g id="text_3">
      <!-- 0.700 -->
      <g style="fill: #262626" transform="translate(160.820322 329.313594) scale(0.11 -0.11)">
       <use xlink:href="#ArialMT-30"/>
       <use xlink:href="#ArialMT-2e" transform="translate(55.615234 0)"/>
       <use xlink:href="#ArialMT-37" transform="translate(83.398438 0)"/>
       <use xlink:href="#ArialMT-30" transform="translate(139.013672 0)"/>
       <use xlink:href="#ArialMT-30" transform="translate(194.628906 0)"/>
      </g>
     </g>
    </g>
    <g id="xtick_4">
     <g id="line2d_4">
      <g>
       <use xlink:href="#m782d705acd" x="213.004642" y="311.94" style="fill: #262626; stroke: #262626; stroke-width: 1.25"/>
      </g>
     </g>
     <g id="text_4">
      <!-- 0.725 -->
      <g style="fill: #262626" transform="translate(199.242611 329.313594) scale(0.11 -0.11)">
       <defs>
        <path id="ArialMT-32" d="M 3222 541 
L 3222 0 
L 194 0 
Q 188 203 259 391 
Q 375 700 629 1000 
Q 884 1300 1366 1694 
Q 2113 2306 2375 2664 
Q 2638 3022 2638 3341 
Q 2638 3675 2398 3904 
Q 2159 4134 1775 4134 
Q 1369 4134 1125 3890 
Q 881 3647 878 3216 
L 300 3275 
Q 359 3922 746 4261 
Q 1134 4600 1788 4600 
Q 2447 4600 2831 4234 
Q 3216 3869 3216 3328 
Q 3216 3053 3103 2787 
Q 2991 2522 2730 2228 
Q 2469 1934 1863 1422 
Q 1356 997 1212 845 
Q 1069 694 975 541 
L 3222 541 
z
" transform="scale(0.015625)"/>
       </defs>
       <use xlink:href="#ArialMT-30"/>
       <use xlink:href="#ArialMT-2e" transform="translate(55.615234 0)"/>
       <use xlink:href="#ArialMT-37" transform="translate(83.398438 0)"/>
       <use xlink:href="#ArialMT-32" transform="translate(139.013672 0)"/>
       <use xlink:href="#ArialMT-35" transform="translate(194.628906 0)"/>
      </g>
     </g>
    </g>
    <g id="xtick_5">
     <g id="line2d_5">
      <g>
       <use xlink:href="#m782d705acd" x="251.426931" y="311.94" style="fill: #262626; stroke: #262626; stroke-width: 1.25"/>
      </g>
     </g>
     <g id="text_5">
      <!-- 0.750 -->
      <g style="fill: #262626" transform="translate(237.6649 329.313594) scale(0.11 -0.11)">
       <use xlink:href="#ArialMT-30"/>
       <use xlink:href="#ArialMT-2e" transform="translate(55.615234 0)"/>
       <use xlink:href="#ArialMT-37" transform="translate(83.398438 0)"/>
       <use xlink:href="#ArialMT-35" transform="translate(139.013672 0)"/>
       <use xlink:href="#ArialMT-30" transform="translate(194.628906 0)"/>
      </g>
     </g>
    </g>
    <g id="xtick_6">
     <g id="line2d_6">
      <g>
       <use xlink:href="#m782d705acd" x="289.849219" y="311.94" style="fill: #262626; stroke: #262626; stroke-width: 1.25"/>
      </g>
     </g>
     <g id="text_6">
      <!-- 0.775 -->
      <g style="fill: #262626" transform="translate(276.087188 329.313594) scale(0.11 -0.11)">
       <use xlink:href="#ArialMT-30"/>
       <use xlink:href="#ArialMT-2e" transform="translate(55.615234 0)"/>
       <use xlink:href="#ArialMT-37" transform="translate(83.398438 0)"/>
       <use xlink:href="#ArialMT-37" transform="translate(139.013672 0)"/>
       <use xlink:href="#ArialMT-35" transform="translate(194.628906 0)"/>
      </g>
     </g>
    </g>
    <g id="xtick_7">
     <g id="line2d_7">
      <g>
       <use xlink:href="#m782d705acd" x="328.271508" y="311.94" style="fill: #262626; stroke: #262626; stroke-width: 1.25"/>
      </g>
     </g>
     <g id="text_7">
      <!-- 0.800 -->
      <g style="fill: #262626" transform="translate(314.509477 329.313594) scale(0.11 -0.11)">
       <defs>
        <path id="ArialMT-38" d="M 1131 2484 
Q 781 2613 612 2850 
Q 444 3088 444 3419 
Q 444 3919 803 4259 
Q 1163 4600 1759 4600 
Q 2359 4600 2725 4251 
Q 3091 3903 3091 3403 
Q 3091 3084 2923 2848 
Q 2756 2613 2416 2484 
Q 2838 2347 3058 2040 
Q 3278 1734 3278 1309 
Q 3278 722 2862 322 
Q 2447 -78 1769 -78 
Q 1091 -78 675 323 
Q 259 725 259 1325 
Q 259 1772 486 2073 
Q 713 2375 1131 2484 
z
M 1019 3438 
Q 1019 3113 1228 2906 
Q 1438 2700 1772 2700 
Q 2097 2700 2305 2904 
Q 2513 3109 2513 3406 
Q 2513 3716 2298 3927 
Q 2084 4138 1766 4138 
Q 1444 4138 1231 3931 
Q 1019 3725 1019 3438 
z
M 838 1322 
Q 838 1081 952 856 
Q 1066 631 1291 507 
Q 1516 384 1775 384 
Q 2178 384 2440 643 
Q 2703 903 2703 1303 
Q 2703 1709 2433 1975 
Q 2163 2241 1756 2241 
Q 1359 2241 1098 1978 
Q 838 1716 838 1322 
z
" transform="scale(0.015625)"/>
       </defs>
       <use xlink:href="#ArialMT-30"/>
       <use xlink:href="#ArialMT-2e" transform="translate(55.615234 0)"/>
       <use xlink:href="#ArialMT-38" transform="translate(83.398438 0)"/>
       <use xlink:href="#ArialMT-30" transform="translate(139.013672 0)"/>
       <use xlink:href="#ArialMT-30" transform="translate(194.628906 0)"/>
      </g>
     </g>
    </g>
    <g id="text_8">
     <!-- acc -->
     <g style="fill: #262626" transform="translate(205.497713 344.089219) scale(0.12 -0.12)">
      <defs>
       <path id="ArialMT-61" d="M 2588 409 
Q 2275 144 1986 34 
Q 1697 -75 1366 -75 
Q 819 -75 525 192 
Q 231 459 231 875 
Q 231 1119 342 1320 
Q 453 1522 633 1644 
Q 813 1766 1038 1828 
Q 1203 1872 1538 1913 
Q 2219 1994 2541 2106 
Q 2544 2222 2544 2253 
Q 2544 2597 2384 2738 
Q 2169 2928 1744 2928 
Q 1347 2928 1158 2789 
Q 969 2650 878 2297 
L 328 2372 
Q 403 2725 575 2942 
Q 747 3159 1072 3276 
Q 1397 3394 1825 3394 
Q 2250 3394 2515 3294 
Q 2781 3194 2906 3042 
Q 3031 2891 3081 2659 
Q 3109 2516 3109 2141 
L 3109 1391 
Q 3109 606 3145 398 
Q 3181 191 3288 0 
L 2700 0 
Q 2613 175 2588 409 
z
M 2541 1666 
Q 2234 1541 1622 1453 
Q 1275 1403 1131 1340 
Q 988 1278 909 1158 
Q 831 1038 831 891 
Q 831 666 1001 516 
Q 1172 366 1500 366 
Q 1825 366 2078 508 
Q 2331 650 2450 897 
Q 2541 1088 2541 1459 
L 2541 1666 
z
" transform="scale(0.015625)"/>
       <path id="ArialMT-63" d="M 2588 1216 
L 3141 1144 
Q 3050 572 2676 248 
Q 2303 -75 1759 -75 
Q 1078 -75 664 370 
Q 250 816 250 1647 
Q 250 2184 428 2587 
Q 606 2991 970 3192 
Q 1334 3394 1763 3394 
Q 2303 3394 2647 3120 
Q 2991 2847 3088 2344 
L 2541 2259 
Q 2463 2594 2264 2762 
Q 2066 2931 1784 2931 
Q 1359 2931 1093 2626 
Q 828 2322 828 1663 
Q 828 994 1084 691 
Q 1341 388 1753 388 
Q 2084 388 2306 591 
Q 2528 794 2588 1216 
z
" transform="scale(0.015625)"/>
      </defs>
      <use xlink:href="#ArialMT-61"/>
      <use xlink:href="#ArialMT-63" transform="translate(55.615234 0)"/>
      <use xlink:href="#ArialMT-63" transform="translate(105.615234 0)"/>
     </g>
    </g>
   </g>
   <g id="matplotlib.axis_2">
    <g id="ytick_1">
     <g id="line2d_8">
      <defs>
       <path id="m16a22c9960" d="M 0 0 
L -6 0 
" style="stroke: #262626; stroke-width: 1.25"/>
      </defs>
      <g>
       <use xlink:href="#m16a22c9960" x="73.95255" y="296.088277" style="fill: #262626; stroke: #262626; stroke-width: 1.25"/>
      </g>
     </g>
     <g id="text_9">
      <!-- 1000 -->
      <g style="fill: #262626" transform="translate(39.984425 300.025074) scale(0.11 -0.11)">
       <defs>
        <path id="ArialMT-31" d="M 2384 0 
L 1822 0 
L 1822 3584 
Q 1619 3391 1289 3197 
Q 959 3003 697 2906 
L 697 3450 
Q 1169 3672 1522 3987 
Q 1875 4303 2022 4600 
L 2384 4600 
L 2384 0 
z
" transform="scale(0.015625)"/>
       </defs>
       <use xlink:href="#ArialMT-31"/>
       <use xlink:href="#ArialMT-30" transform="translate(55.615234 0)"/>
       <use xlink:href="#ArialMT-30" transform="translate(111.230469 0)"/>
       <use xlink:href="#ArialMT-30" transform="translate(166.845703 0)"/>
      </g>
     </g>
    </g>
    <g id="ytick_2">
     <g id="line2d_9">
      <g>
       <use xlink:href="#m16a22c9960" x="73.95255" y="234.438659" style="fill: #262626; stroke: #262626; stroke-width: 1.25"/>
      </g>
     </g>
     <g id="text_10">
      <!-- 1200 -->
      <g style="fill: #262626" transform="translate(39.984425 238.375456) scale(0.11 -0.11)">
       <use xlink:href="#ArialMT-31"/>
       <use xlink:href="#ArialMT-32" transform="translate(55.615234 0)"/>
       <use xlink:href="#ArialMT-30" transform="translate(111.230469 0)"/>
       <use xlink:href="#ArialMT-30" transform="translate(166.845703 0)"/>
      </g>
     </g>
    </g>
    <g id="ytick_3">
     <g id="line2d_10">
      <g>
       <use xlink:href="#m16a22c9960" x="73.95255" y="172.78904" style="fill: #262626; stroke: #262626; stroke-width: 1.25"/>
      </g>
     </g>
     <g id="text_11">
      <!-- 1400 -->
      <g style="fill: #262626" transform="translate(39.984425 176.725837) scale(0.11 -0.11)">
       <defs>
        <path id="ArialMT-34" d="M 2069 0 
L 2069 1097 
L 81 1097 
L 81 1613 
L 2172 4581 
L 2631 4581 
L 2631 1613 
L 3250 1613 
L 3250 1097 
L 2631 1097 
L 2631 0 
L 2069 0 
z
M 2069 1613 
L 2069 3678 
L 634 1613 
L 2069 1613 
z
" transform="scale(0.015625)"/>
       </defs>
       <use xlink:href="#ArialMT-31"/>
       <use xlink:href="#ArialMT-34" transform="translate(55.615234 0)"/>
       <use xlink:href="#ArialMT-30" transform="translate(111.230469 0)"/>
       <use xlink:href="#ArialMT-30" transform="translate(166.845703 0)"/>
      </g>
     </g>
    </g>
    <g id="ytick_4">
     <g id="line2d_11">
      <g>
       <use xlink:href="#m16a22c9960" x="73.95255" y="111.139422" style="fill: #262626; stroke: #262626; stroke-width: 1.25"/>
      </g>
     </g>
     <g id="text_12">
      <!-- 1600 -->
      <g style="fill: #262626" transform="translate(39.984425 115.076219) scale(0.11 -0.11)">
       <use xlink:href="#ArialMT-31"/>
       <use xlink:href="#ArialMT-36" transform="translate(55.615234 0)"/>
       <use xlink:href="#ArialMT-30" transform="translate(111.230469 0)"/>
       <use xlink:href="#ArialMT-30" transform="translate(166.845703 0)"/>
      </g>
     </g>
    </g>
    <g id="ytick_5">
     <g id="line2d_12">
      <g>
       <use xlink:href="#m16a22c9960" x="73.95255" y="49.489803" style="fill: #262626; stroke: #262626; stroke-width: 1.25"/>
      </g>
     </g>
     <g id="text_13">
      <!-- 1800 -->
      <g style="fill: #262626" transform="translate(39.984425 53.4266) scale(0.11 -0.11)">
       <use xlink:href="#ArialMT-31"/>
       <use xlink:href="#ArialMT-38" transform="translate(55.615234 0)"/>
       <use xlink:href="#ArialMT-30" transform="translate(111.230469 0)"/>
       <use xlink:href="#ArialMT-30" transform="translate(166.845703 0)"/>
      </g>
     </g>
    </g>
    <g id="text_14">
     <!-- p -->
     <g style="fill: #262626" transform="translate(33.599425 165.786563) rotate(-90) scale(0.12 -0.12)">
      <defs>
       <path id="ArialMT-70" d="M 422 -1272 
L 422 3319 
L 934 3319 
L 934 2888 
Q 1116 3141 1344 3267 
Q 1572 3394 1897 3394 
Q 2322 3394 2647 3175 
Q 2972 2956 3137 2557 
Q 3303 2159 3303 1684 
Q 3303 1175 3120 767 
Q 2938 359 2589 142 
Q 2241 -75 1856 -75 
Q 1575 -75 1351 44 
Q 1128 163 984 344 
L 984 -1272 
L 422 -1272 
z
M 931 1641 
Q 931 1000 1190 694 
Q 1450 388 1819 388 
Q 2194 388 2461 705 
Q 2728 1022 2728 1688 
Q 2728 2322 2467 2637 
Q 2206 2953 1844 2953 
Q 1484 2953 1207 2617 
Q 931 2281 931 1641 
z
" transform="scale(0.015625)"/>
      </defs>
      <use xlink:href="#ArialMT-70"/>
     </g>
    </g>
   </g>
   <g id="PathCollection_1">
    <defs>
     <path id="m1ff27aa75b" d="M 0 3 
C 0.795609 3 1.55874 2.683901 2.12132 2.12132 
C 2.683901 1.55874 3 0.795609 3 0 
C 3 -0.795609 2.683901 -1.55874 2.12132 -2.12132 
C 1.55874 -2.683901 0.795609 -3 0 -3 
C -0.795609 -3 -1.55874 -2.683901 -2.12132 -2.12132 
C -2.683901 -1.55874 -3 -0.795609 -3 0 
C -3 0.795609 -2.683901 1.55874 -2.12132 2.12132 
C -1.55874 2.683901 -0.795609 3 0 3 
z
" style="stroke: #eeae53; stroke-opacity: 0.8"/>
    </defs>
    <g clip-path="url(#p528339663e)">
     <use xlink:href="#m1ff27aa75b" x="86.75998" y="252.933544" style="fill: #eeae53; fill-opacity: 0.8; stroke: #eeae53; stroke-opacity: 0.8"/>
     <use xlink:href="#m1ff27aa75b" x="155.371209" y="243.686102" style="fill: #eeae53; fill-opacity: 0.8; stroke: #eeae53; stroke-opacity: 0.8"/>
     <use xlink:href="#m1ff27aa75b" x="150.315645" y="225.191216" style="fill: #eeae53; fill-opacity: 0.8; stroke: #eeae53; stroke-opacity: 0.8"/>
     <use xlink:href="#m1ff27aa75b" x="167.900216" y="215.943773" style="fill: #eeae53; fill-opacity: 0.8; stroke: #eeae53; stroke-opacity: 0.8"/>
     <use xlink:href="#m1ff27aa75b" x="174.582354" y="206.696331" style="fill: #eeae53; fill-opacity: 0.8; stroke: #eeae53; stroke-opacity: 0.8"/>
     <use xlink:href="#m1ff27aa75b" x="174.582354" y="197.448888" style="fill: #eeae53; fill-opacity: 0.8; stroke: #eeae53; stroke-opacity: 0.8"/>
     <use xlink:href="#m1ff27aa75b" x="190.760159" y="188.201445" style="fill: #eeae53; fill-opacity: 0.8; stroke: #eeae53; stroke-opacity: 0.8"/>
     <use xlink:href="#m1ff27aa75b" x="221.871324" y="178.954002" style="fill: #eeae53; fill-opacity: 0.8; stroke: #eeae53; stroke-opacity: 0.8"/>
     <use xlink:href="#m1ff27aa75b" x="211.679736" y="160.459117" style="fill: #eeae53; fill-opacity: 0.8; stroke: #eeae53; stroke-opacity: 0.8"/>
     <use xlink:href="#m1ff27aa75b" x="257.725667" y="151.211674" style="fill: #eeae53; fill-opacity: 0.8; stroke: #eeae53; stroke-opacity: 0.8"/>
     <use xlink:href="#m1ff27aa75b" x="294.118363" y="141.964231" style="fill: #eeae53; fill-opacity: 0.8; stroke: #eeae53; stroke-opacity: 0.8"/>
     <use xlink:href="#m1ff27aa75b" x="305.135506" y="123.469346" style="fill: #eeae53; fill-opacity: 0.8; stroke: #eeae53; stroke-opacity: 0.8"/>
     <use xlink:href="#m1ff27aa75b" x="285.471997" y="104.97446" style="fill: #eeae53; fill-opacity: 0.8; stroke: #eeae53; stroke-opacity: 0.8"/>
     <use xlink:href="#m1ff27aa75b" x="305.289952" y="95.727017" style="fill: #eeae53; fill-opacity: 0.8; stroke: #eeae53; stroke-opacity: 0.8"/>
     <use xlink:href="#m1ff27aa75b" x="259.601886" y="77.232132" style="fill: #eeae53; fill-opacity: 0.8; stroke: #eeae53; stroke-opacity: 0.8"/>
     <use xlink:href="#m1ff27aa75b" x="271.649188" y="58.737246" style="fill: #eeae53; fill-opacity: 0.8; stroke: #eeae53; stroke-opacity: 0.8"/>
     <use xlink:href="#m1ff27aa75b" x="342.90857" y="40.242361" style="fill: #eeae53; fill-opacity: 0.8; stroke: #eeae53; stroke-opacity: 0.8"/>
    </g>
   </g>
   <g id="FillBetweenPolyCollection_1">
    <defs>
     <path id="md2c16af5d9" d="M 86.75998 -104.821476 
L 86.75998 -61.65 
L 89.347339 -64.182649 
L 91.934699 -66.702972 
L 94.522058 -69.198202 
L 97.109418 -71.695527 
L 99.696777 -74.229752 
L 102.284137 -76.684254 
L 104.871496 -79.179123 
L 107.458856 -81.674354 
L 110.046215 -84.174607 
L 112.633575 -86.66867 
L 115.220934 -89.345686 
L 117.808294 -91.665097 
L 120.395653 -94.151338 
L 122.983013 -96.650485 
L 125.570372 -99.380815 
L 128.157732 -101.843573 
L 130.745091 -104.371371 
L 133.332451 -107.116908 
L 135.91981 -109.585916 
L 138.50717 -112.227309 
L 141.094529 -114.855312 
L 143.681889 -117.284401 
L 146.269248 -119.653669 
L 148.856608 -122.139701 
L 151.443967 -124.676039 
L 154.031327 -127.28154 
L 156.618686 -129.77555 
L 159.206046 -132.261124 
L 161.793405 -134.736535 
L 164.380765 -137.139395 
L 166.968124 -139.573996 
L 169.555484 -141.798635 
L 172.142843 -144.319116 
L 174.730203 -146.893128 
L 177.317562 -149.334589 
L 179.904922 -151.776577 
L 182.492281 -154.111056 
L 185.079641 -156.502026 
L 187.667 -158.701676 
L 190.25436 -160.949236 
L 192.841719 -163.263677 
L 195.429079 -165.388582 
L 198.016438 -167.378142 
L 200.603798 -169.418261 
L 203.191157 -171.492394 
L 205.778517 -173.419322 
L 208.365876 -175.32354 
L 210.953236 -176.83839 
L 213.540595 -178.627388 
L 216.127955 -180.503099 
L 218.715314 -182.175927 
L 221.302674 -183.95662 
L 223.890033 -185.514999 
L 226.477393 -187.067404 
L 229.064752 -188.676744 
L 231.652112 -190.512321 
L 234.239471 -192.177836 
L 236.826831 -193.745883 
L 239.41419 -195.426913 
L 242.00155 -197.158857 
L 244.588909 -198.907108 
L 247.176269 -200.627079 
L 249.763628 -202.320041 
L 252.350988 -204.032884 
L 254.938347 -205.672871 
L 257.525707 -207.266383 
L 260.113066 -208.859895 
L 262.700426 -210.453408 
L 265.287785 -212.145533 
L 267.875145 -213.857535 
L 270.462504 -215.570177 
L 273.049864 -217.284242 
L 275.637223 -218.998307 
L 278.224583 -220.712372 
L 280.811942 -222.426437 
L 283.399302 -224.141439 
L 285.986661 -225.803387 
L 288.574021 -227.503658 
L 291.16138 -229.263291 
L 293.74874 -230.974745 
L 296.336099 -232.552723 
L 298.923459 -234.246546 
L 301.510818 -235.952589 
L 304.098178 -237.555413 
L 306.685537 -239.073895 
L 309.272897 -240.629148 
L 311.860256 -242.327109 
L 314.447616 -243.973442 
L 317.034975 -245.597412 
L 319.622335 -247.348061 
L 322.209694 -248.943183 
L 324.797054 -250.472879 
L 327.384413 -252.036227 
L 329.971773 -253.756839 
L 332.559132 -255.477658 
L 335.146492 -257.198476 
L 337.733851 -258.903336 
L 340.321211 -260.394905 
L 342.90857 -261.88808 
L 342.90857 -333.45 
L 342.90857 -333.45 
L 340.321211 -330.750966 
L 337.733851 -328.099001 
L 335.146492 -325.587437 
L 332.559132 -323.075874 
L 329.971773 -320.56431 
L 327.384413 -318.016047 
L 324.797054 -315.392748 
L 322.209694 -312.764486 
L 319.622335 -310.091935 
L 317.034975 -307.521988 
L 314.447616 -304.898956 
L 311.860256 -302.273665 
L 309.272897 -299.584942 
L 306.685537 -296.894497 
L 304.098178 -294.204052 
L 301.510818 -291.615238 
L 298.923459 -289.144635 
L 296.336099 -286.535796 
L 293.74874 -283.916141 
L 291.16138 -281.296486 
L 288.574021 -278.676832 
L 285.986661 -276.057177 
L 283.399302 -273.437523 
L 280.811942 -270.817868 
L 278.224583 -268.297511 
L 275.637223 -265.86168 
L 273.049864 -263.348002 
L 270.462504 -260.46172 
L 267.875145 -257.67663 
L 265.287785 -255.050796 
L 262.700426 -252.429329 
L 260.113066 -249.803409 
L 257.525707 -246.933786 
L 254.938347 -244.009242 
L 252.350988 -241.18407 
L 249.763628 -238.465352 
L 247.176269 -236.095546 
L 244.588909 -233.725739 
L 242.00155 -231.256283 
L 239.41419 -228.815432 
L 236.826831 -226.381196 
L 234.239471 -223.812596 
L 231.652112 -221.332985 
L 229.064752 -218.851851 
L 226.477393 -216.256554 
L 223.890033 -214.117818 
L 221.302674 -211.801711 
L 218.715314 -209.411919 
L 216.127955 -206.876403 
L 213.540595 -204.33929 
L 210.953236 -201.864438 
L 208.365876 -199.401189 
L 205.778517 -196.717087 
L 203.191157 -194.646603 
L 200.603798 -192.205862 
L 198.016438 -189.668991 
L 195.429079 -187.237476 
L 192.841719 -184.885831 
L 190.25436 -182.909339 
L 187.667 -180.607786 
L 185.079641 -178.365831 
L 182.492281 -176.054502 
L 179.904922 -173.764283 
L 177.317562 -171.42413 
L 174.730203 -168.996318 
L 172.142843 -166.763133 
L 169.555484 -164.628457 
L 166.968124 -162.449194 
L 164.380765 -160.263849 
L 161.793405 -158.086831 
L 159.206046 -155.944862 
L 156.618686 -153.729028 
L 154.031327 -151.794324 
L 151.443967 -149.875971 
L 148.856608 -147.905816 
L 146.269248 -146.009373 
L 143.681889 -144.081654 
L 141.094529 -142.06755 
L 138.50717 -140.152885 
L 135.91981 -138.110579 
L 133.332451 -136.084437 
L 130.745091 -134.337366 
L 128.157732 -132.571381 
L 125.570372 -130.657232 
L 122.983013 -128.734672 
L 120.395653 -126.809475 
L 117.808294 -124.89194 
L 115.220934 -122.978121 
L 112.633575 -121.343483 
L 110.046215 -119.744284 
L 107.458856 -118.143327 
L 104.871496 -116.489961 
L 102.284137 -114.924798 
L 99.696777 -113.361589 
L 97.109418 -111.675813 
L 94.522058 -109.824793 
L 91.934699 -108.178356 
L 89.347339 -106.520787 
L 86.75998 -104.821476 
z
" style="stroke: #ffffff; stroke-opacity: 0.15"/>
    </defs>
    <g clip-path="url(#p528339663e)">
     <use xlink:href="#md2c16af5d9" x="0" y="360" style="fill: #eeae53; fill-opacity: 0.15; stroke: #ffffff; stroke-opacity: 0.15"/>
    </g>
   </g>
   <g id="line2d_13">
    <path d="M 86.75998 274.650531 
L 89.347339 272.526917 
L 91.934699 270.403304 
L 94.522058 268.279691 
L 97.109418 266.156077 
L 99.696777 264.032464 
L 102.284137 261.908851 
L 104.871496 259.785237 
L 107.458856 257.661624 
L 110.046215 255.538011 
L 112.633575 253.414397 
L 115.220934 251.290784 
L 117.808294 249.167171 
L 120.395653 247.043558 
L 122.983013 244.919944 
L 125.570372 242.796331 
L 128.157732 240.672718 
L 130.745091 238.549104 
L 133.332451 236.425491 
L 135.91981 234.301878 
L 138.50717 232.178264 
L 141.094529 230.054651 
L 143.681889 227.931038 
L 146.269248 225.807425 
L 148.856608 223.683811 
L 151.443967 221.560198 
L 154.031327 219.436585 
L 156.618686 217.312971 
L 159.206046 215.189358 
L 161.793405 213.065745 
L 164.380765 210.942131 
L 166.968124 208.818518 
L 169.555484 206.694905 
L 172.142843 204.571292 
L 174.730203 202.447678 
L 177.317562 200.324065 
L 179.904922 198.200452 
L 182.492281 196.076838 
L 185.079641 193.953225 
L 187.667 191.829612 
L 190.25436 189.705998 
L 192.841719 187.582385 
L 195.429079 185.458772 
L 198.016438 183.335158 
L 200.603798 181.211545 
L 203.191157 179.087932 
L 205.778517 176.964319 
L 208.365876 174.840705 
L 210.953236 172.717092 
L 213.540595 170.593479 
L 216.127955 168.469865 
L 218.715314 166.346252 
L 221.302674 164.222639 
L 223.890033 162.099025 
L 226.477393 159.975412 
L 229.064752 157.851799 
L 231.652112 155.728186 
L 234.239471 153.604572 
L 236.826831 151.480959 
L 239.41419 149.357346 
L 242.00155 147.233732 
L 244.588909 145.110119 
L 247.176269 142.986506 
L 249.763628 140.862892 
L 252.350988 138.739279 
L 254.938347 136.615666 
L 257.525707 134.492053 
L 260.113066 132.368439 
L 262.700426 130.244826 
L 265.287785 128.121213 
L 267.875145 125.997599 
L 270.462504 123.873986 
L 273.049864 121.750373 
L 275.637223 119.626759 
L 278.224583 117.503146 
L 280.811942 115.379533 
L 283.399302 113.255919 
L 285.986661 111.132306 
L 288.574021 109.008693 
L 291.16138 106.88508 
L 293.74874 104.761466 
L 296.336099 102.637853 
L 298.923459 100.51424 
L 301.510818 98.390626 
L 304.098178 96.267013 
L 306.685537 94.1434 
L 309.272897 92.019786 
L 311.860256 89.896173 
L 314.447616 87.77256 
L 317.034975 85.648947 
L 319.622335 83.525333 
L 322.209694 81.40172 
L 324.797054 79.278107 
L 327.384413 77.154493 
L 329.971773 75.03088 
L 332.559132 72.907267 
L 335.146492 70.783653 
L 337.733851 68.66004 
L 340.321211 66.536427 
L 342.90857 64.412814 
" clip-path="url(#p528339663e)" style="fill: none; stroke: #eeae53; stroke-width: 2.25; stroke-linecap: round"/>
   </g>
   <g id="patch_3">
    <path d="M 73.95255 311.94 
L 73.95255 12.96 
" style="fill: none; stroke: #262626; stroke-width: 1.25; stroke-linejoin: miter; stroke-linecap: square"/>
   </g>
   <g id="patch_4">
    <path d="M 73.95255 311.94 
L 355.716 311.94 
" style="fill: none; stroke: #262626; stroke-width: 1.25; stroke-linejoin: miter; stroke-linecap: square"/>
   </g>
  </g>
  <g id="legend_1">
   <g id="text_15">
    <!-- class -->
    <g style="fill: #262626" transform="translate(375.068438 175.322266) scale(0.12 -0.12)">
     <defs>
      <path id="ArialMT-6c" d="M 409 0 
L 409 4581 
L 972 4581 
L 972 0 
L 409 0 
z
" transform="scale(0.015625)"/>
      <path id="ArialMT-73" d="M 197 991 
L 753 1078 
Q 800 744 1014 566 
Q 1228 388 1613 388 
Q 2000 388 2187 545 
Q 2375 703 2375 916 
Q 2375 1106 2209 1216 
Q 2094 1291 1634 1406 
Q 1016 1563 777 1677 
Q 538 1791 414 1992 
Q 291 2194 291 2438 
Q 291 2659 392 2848 
Q 494 3038 669 3163 
Q 800 3259 1026 3326 
Q 1253 3394 1513 3394 
Q 1903 3394 2198 3281 
Q 2494 3169 2634 2976 
Q 2775 2784 2828 2463 
L 2278 2388 
Q 2241 2644 2061 2787 
Q 1881 2931 1553 2931 
Q 1166 2931 1000 2803 
Q 834 2675 834 2503 
Q 834 2394 903 2306 
Q 972 2216 1119 2156 
Q 1203 2125 1616 2013 
Q 2213 1853 2448 1751 
Q 2684 1650 2818 1456 
Q 2953 1263 2953 975 
Q 2953 694 2789 445 
Q 2625 197 2315 61 
Q 2006 -75 1616 -75 
Q 969 -75 630 194 
Q 291 463 197 991 
z
" transform="scale(0.015625)"/>
     </defs>
     <use xlink:href="#ArialMT-63"/>
     <use xlink:href="#ArialMT-6c" transform="translate(50 0)"/>
     <use xlink:href="#ArialMT-61" transform="translate(72.216797 0)"/>
     <use xlink:href="#ArialMT-73" transform="translate(127.832031 0)"/>
     <use xlink:href="#ArialMT-73" transform="translate(177.832031 0)"/>
    </g>
   </g>
   <g id="PathCollection_2">
    <g>
     <use xlink:href="#m1ff27aa75b" x="369.97625" y="188.193359" style="fill: #eeae53; fill-opacity: 0.8; stroke: #eeae53; stroke-opacity: 0.8"/>
    </g>
   </g>
   <g id="text_16">
    <!-- icl-cot -->
    <g style="fill: #262626" transform="translate(389.77625 191.080859) scale(0.11 -0.11)">
     <defs>
      <path id="ArialMT-69" d="M 425 3934 
L 425 4581 
L 988 4581 
L 988 3934 
L 425 3934 
z
M 425 0 
L 425 3319 
L 988 3319 
L 988 0 
L 425 0 
z
" transform="scale(0.015625)"/>
      <path id="ArialMT-2d" d="M 203 1375 
L 203 1941 
L 1931 1941 
L 1931 1375 
L 203 1375 
z
" transform="scale(0.015625)"/>
      <path id="ArialMT-6f" d="M 213 1659 
Q 213 2581 725 3025 
Q 1153 3394 1769 3394 
Q 2453 3394 2887 2945 
Q 3322 2497 3322 1706 
Q 3322 1066 3130 698 
Q 2938 331 2570 128 
Q 2203 -75 1769 -75 
Q 1072 -75 642 372 
Q 213 819 213 1659 
z
M 791 1659 
Q 791 1022 1069 705 
Q 1347 388 1769 388 
Q 2188 388 2466 706 
Q 2744 1025 2744 1678 
Q 2744 2294 2464 2611 
Q 2184 2928 1769 2928 
Q 1347 2928 1069 2612 
Q 791 2297 791 1659 
z
" transform="scale(0.015625)"/>
      <path id="ArialMT-74" d="M 1650 503 
L 1731 6 
Q 1494 -44 1306 -44 
Q 1000 -44 831 53 
Q 663 150 594 308 
Q 525 466 525 972 
L 525 2881 
L 113 2881 
L 113 3319 
L 525 3319 
L 525 4141 
L 1084 4478 
L 1084 3319 
L 1650 3319 
L 1650 2881 
L 1084 2881 
L 1084 941 
Q 1084 700 1114 631 
Q 1144 563 1211 522 
Q 1278 481 1403 481 
Q 1497 481 1650 503 
z
" transform="scale(0.015625)"/>
     </defs>
     <use xlink:href="#ArialMT-69"/>
     <use xlink:href="#ArialMT-63" transform="translate(22.216797 0)"/>
     <use xlink:href="#ArialMT-6c" transform="translate(72.216797 0)"/>
     <use xlink:href="#ArialMT-2d" transform="translate(94.433594 0)"/>
     <use xlink:href="#ArialMT-63" transform="translate(127.734375 0)"/>
     <use xlink:href="#ArialMT-6f" transform="translate(177.734375 0)"/>
     <use xlink:href="#ArialMT-74" transform="translate(233.349609 0)"/>
    </g>
   </g>
  </g>
 </g>
 <defs>
  <clipPath id="p528339663e">
   <rect x="73.95255" y="12.96" width="281.76345" height="298.98"/>
  </clipPath>
 </defs>
</svg>
