<?xml version="1.0" encoding="utf-8" standalone="no"?>
<!DOCTYPE svg PUBLIC "-//W3C//DTD SVG 1.1//EN"
  "http://www.w3.org/Graphics/SVG/1.1/DTD/svg11.dtd">
<svg xmlns:xlink="http://www.w3.org/1999/xlink" width="460.8pt" height="345.6pt" viewBox="0 0 460.8 345.6" xmlns="http://www.w3.org/2000/svg" version="1.1">
 <metadata>
  <rdf:RDF xmlns:dc="http://purl.org/dc/elements/1.1/" xmlns:cc="http://creativecommons.org/ns#" xmlns:rdf="http://www.w3.org/1999/02/22-rdf-syntax-ns#">
   <cc:Work>
    <dc:type rdf:resource="http://purl.org/dc/dcmitype/StillImage"/>
    <dc:date>2025-01-17T18:53:53.119728</dc:date>
    <dc:format>image/svg+xml</dc:format>
    <dc:creator>
     <cc:Agent>
      <dc:title>Matplotlib v3.10.0, https://matplotlib.org/</dc:title>
     </cc:Agent>
    </dc:creator>
   </cc:Work>
  </rdf:RDF>
 </metadata>
 <defs>
  <style type="text/css">*{stroke-linejoin: round; stroke-linecap: butt}</style>
 </defs>
 <g id="figure_1">
  <g id="patch_1">
   <path d="M 0 345.6 
L 460.8 345.6 
L 460.8 0 
L 0 0 
z
" style="fill: #ffffff"/>
  </g>
  <g id="axes_1">
   <g id="patch_2">
    <path d="M 57.6 307.584 
L 414.72 307.584 
L 414.72 41.472 
L 57.6 41.472 
z
" style="fill: #eaeaf2"/>
   </g>
   <g id="matplotlib.axis_1">
    <g id="xtick_1">
     <g id="line2d_1">
      <path d="M 70.553388 307.584 
L 70.553388 41.472 
" clip-path="url(#p270edeacdc)" style="fill: none; stroke: #ffffff; stroke-linecap: round"/>
     </g>
     <g id="text_1">
      <!-- 0 -->
      <g style="fill: #262626" transform="translate(67.494873 324.957594) scale(0.11 -0.11)">
       <defs>
        <path id="ArialMT-30" d="M 266 2259 
Q 266 3072 433 3567 
Q 600 4063 929 4331 
Q 1259 4600 1759 4600 
Q 2128 4600 2406 4451 
Q 2684 4303 2865 4023 
Q 3047 3744 3150 3342 
Q 3253 2941 3253 2259 
Q 3253 1453 3087 958 
Q 2922 463 2592 192 
Q 2263 -78 1759 -78 
Q 1097 -78 719 397 
Q 266 969 266 2259 
z
M 844 2259 
Q 844 1131 1108 757 
Q 1372 384 1759 384 
Q 2147 384 2411 759 
Q 2675 1134 2675 2259 
Q 2675 3391 2411 3762 
Q 2147 4134 1753 4134 
Q 1366 4134 1134 3806 
Q 844 3388 844 2259 
z
" transform="scale(0.015625)"/>
       </defs>
       <use xlink:href="#ArialMT-30"/>
      </g>
     </g>
    </g>
    <g id="xtick_2">
     <g id="line2d_2">
      <path d="M 136.140165 307.584 
L 136.140165 41.472 
" clip-path="url(#p270edeacdc)" style="fill: none; stroke: #ffffff; stroke-linecap: round"/>
     </g>
     <g id="text_2">
      <!-- 20 -->
      <g style="fill: #262626" transform="translate(130.023134 324.957594) scale(0.11 -0.11)">
       <defs>
        <path id="ArialMT-32" d="M 3222 541 
L 3222 0 
L 194 0 
Q 188 203 259 391 
Q 375 700 629 1000 
Q 884 1300 1366 1694 
Q 2113 2306 2375 2664 
Q 2638 3022 2638 3341 
Q 2638 3675 2398 3904 
Q 2159 4134 1775 4134 
Q 1369 4134 1125 3890 
Q 881 3647 878 3216 
L 300 3275 
Q 359 3922 746 4261 
Q 1134 4600 1788 4600 
Q 2447 4600 2831 4234 
Q 3216 3869 3216 3328 
Q 3216 3053 3103 2787 
Q 2991 2522 2730 2228 
Q 2469 1934 1863 1422 
Q 1356 997 1212 845 
Q 1069 694 975 541 
L 3222 541 
z
" transform="scale(0.015625)"/>
       </defs>
       <use xlink:href="#ArialMT-32"/>
       <use xlink:href="#ArialMT-30" transform="translate(55.615234 0)"/>
      </g>
     </g>
    </g>
    <g id="xtick_3">
     <g id="line2d_3">
      <path d="M 201.726942 307.584 
L 201.726942 41.472 
" clip-path="url(#p270edeacdc)" style="fill: none; stroke: #ffffff; stroke-linecap: round"/>
     </g>
     <g id="text_3">
      <!-- 40 -->
      <g style="fill: #262626" transform="translate(195.609911 324.957594) scale(0.11 -0.11)">
       <defs>
        <path id="ArialMT-34" d="M 2069 0 
L 2069 1097 
L 81 1097 
L 81 1613 
L 2172 4581 
L 2631 4581 
L 2631 1613 
L 3250 1613 
L 3250 1097 
L 2631 1097 
L 2631 0 
L 2069 0 
z
M 2069 1613 
L 2069 3678 
L 634 1613 
L 2069 1613 
z
" transform="scale(0.015625)"/>
       </defs>
       <use xlink:href="#ArialMT-34"/>
       <use xlink:href="#ArialMT-30" transform="translate(55.615234 0)"/>
      </g>
     </g>
    </g>
    <g id="xtick_4">
     <g id="line2d_4">
      <path d="M 267.313719 307.584 
L 267.313719 41.472 
" clip-path="url(#p270edeacdc)" style="fill: none; stroke: #ffffff; stroke-linecap: round"/>
     </g>
     <g id="text_4">
      <!-- 60 -->
      <g style="fill: #262626" transform="translate(261.196688 324.957594) scale(0.11 -0.11)">
       <defs>
        <path id="ArialMT-36" d="M 3184 3459 
L 2625 3416 
Q 2550 3747 2413 3897 
Q 2184 4138 1850 4138 
Q 1581 4138 1378 3988 
Q 1113 3794 959 3422 
Q 806 3050 800 2363 
Q 1003 2672 1297 2822 
Q 1591 2972 1913 2972 
Q 2475 2972 2870 2558 
Q 3266 2144 3266 1488 
Q 3266 1056 3080 686 
Q 2894 316 2569 119 
Q 2244 -78 1831 -78 
Q 1128 -78 684 439 
Q 241 956 241 2144 
Q 241 3472 731 4075 
Q 1159 4600 1884 4600 
Q 2425 4600 2770 4297 
Q 3116 3994 3184 3459 
z
M 888 1484 
Q 888 1194 1011 928 
Q 1134 663 1356 523 
Q 1578 384 1822 384 
Q 2178 384 2434 671 
Q 2691 959 2691 1453 
Q 2691 1928 2437 2201 
Q 2184 2475 1800 2475 
Q 1419 2475 1153 2201 
Q 888 1928 888 1484 
z
" transform="scale(0.015625)"/>
       </defs>
       <use xlink:href="#ArialMT-36"/>
       <use xlink:href="#ArialMT-30" transform="translate(55.615234 0)"/>
      </g>
     </g>
    </g>
    <g id="xtick_5">
     <g id="line2d_5">
      <path d="M 332.900496 307.584 
L 332.900496 41.472 
" clip-path="url(#p270edeacdc)" style="fill: none; stroke: #ffffff; stroke-linecap: round"/>
     </g>
     <g id="text_5">
      <!-- 80 -->
      <g style="fill: #262626" transform="translate(326.783465 324.957594) scale(0.11 -0.11)">
       <defs>
        <path id="ArialMT-38" d="M 1131 2484 
Q 781 2613 612 2850 
Q 444 3088 444 3419 
Q 444 3919 803 4259 
Q 1163 4600 1759 4600 
Q 2359 4600 2725 4251 
Q 3091 3903 3091 3403 
Q 3091 3084 2923 2848 
Q 2756 2613 2416 2484 
Q 2838 2347 3058 2040 
Q 3278 1734 3278 1309 
Q 3278 722 2862 322 
Q 2447 -78 1769 -78 
Q 1091 -78 675 323 
Q 259 725 259 1325 
Q 259 1772 486 2073 
Q 713 2375 1131 2484 
z
M 1019 3438 
Q 1019 3113 1228 2906 
Q 1438 2700 1772 2700 
Q 2097 2700 2305 2904 
Q 2513 3109 2513 3406 
Q 2513 3716 2298 3927 
Q 2084 4138 1766 4138 
Q 1444 4138 1231 3931 
Q 1019 3725 1019 3438 
z
M 838 1322 
Q 838 1081 952 856 
Q 1066 631 1291 507 
Q 1516 384 1775 384 
Q 2178 384 2440 643 
Q 2703 903 2703 1303 
Q 2703 1709 2433 1975 
Q 2163 2241 1756 2241 
Q 1359 2241 1098 1978 
Q 838 1716 838 1322 
z
" transform="scale(0.015625)"/>
       </defs>
       <use xlink:href="#ArialMT-38"/>
       <use xlink:href="#ArialMT-30" transform="translate(55.615234 0)"/>
      </g>
     </g>
    </g>
    <g id="xtick_6">
     <g id="line2d_6">
      <path d="M 398.487273 307.584 
L 398.487273 41.472 
" clip-path="url(#p270edeacdc)" style="fill: none; stroke: #ffffff; stroke-linecap: round"/>
     </g>
     <g id="text_6">
      <!-- 100 -->
      <g style="fill: #262626" transform="translate(389.311726 324.957594) scale(0.11 -0.11)">
       <defs>
        <path id="ArialMT-31" d="M 2384 0 
L 1822 0 
L 1822 3584 
Q 1619 3391 1289 3197 
Q 959 3003 697 2906 
L 697 3450 
Q 1169 3672 1522 3987 
Q 1875 4303 2022 4600 
L 2384 4600 
L 2384 0 
z
" transform="scale(0.015625)"/>
       </defs>
       <use xlink:href="#ArialMT-31"/>
       <use xlink:href="#ArialMT-30" transform="translate(55.615234 0)"/>
       <use xlink:href="#ArialMT-30" transform="translate(111.230469 0)"/>
      </g>
     </g>
    </g>
    <g id="text_7">
     <!-- size -->
     <g style="fill: #262626" transform="translate(225.490312 339.733219) scale(0.12 -0.12)">
      <defs>
       <path id="ArialMT-73" d="M 197 991 
L 753 1078 
Q 800 744 1014 566 
Q 1228 388 1613 388 
Q 2000 388 2187 545 
Q 2375 703 2375 916 
Q 2375 1106 2209 1216 
Q 2094 1291 1634 1406 
Q 1016 1563 777 1677 
Q 538 1791 414 1992 
Q 291 2194 291 2438 
Q 291 2659 392 2848 
Q 494 3038 669 3163 
Q 800 3259 1026 3326 
Q 1253 3394 1513 3394 
Q 1903 3394 2198 3281 
Q 2494 3169 2634 2976 
Q 2775 2784 2828 2463 
L 2278 2388 
Q 2241 2644 2061 2787 
Q 1881 2931 1553 2931 
Q 1166 2931 1000 2803 
Q 834 2675 834 2503 
Q 834 2394 903 2306 
Q 972 2216 1119 2156 
Q 1203 2125 1616 2013 
Q 2213 1853 2448 1751 
Q 2684 1650 2818 1456 
Q 2953 1263 2953 975 
Q 2953 694 2789 445 
Q 2625 197 2315 61 
Q 2006 -75 1616 -75 
Q 969 -75 630 194 
Q 291 463 197 991 
z
" transform="scale(0.015625)"/>
       <path id="ArialMT-69" d="M 425 3934 
L 425 4581 
L 988 4581 
L 988 3934 
L 425 3934 
z
M 425 0 
L 425 3319 
L 988 3319 
L 988 0 
L 425 0 
z
" transform="scale(0.015625)"/>
       <path id="ArialMT-7a" d="M 125 0 
L 125 456 
L 2238 2881 
Q 1878 2863 1603 2863 
L 250 2863 
L 250 3319 
L 2963 3319 
L 2963 2947 
L 1166 841 
L 819 456 
Q 1197 484 1528 484 
L 3063 484 
L 3063 0 
L 125 0 
z
" transform="scale(0.015625)"/>
       <path id="ArialMT-65" d="M 2694 1069 
L 3275 997 
Q 3138 488 2766 206 
Q 2394 -75 1816 -75 
Q 1088 -75 661 373 
Q 234 822 234 1631 
Q 234 2469 665 2931 
Q 1097 3394 1784 3394 
Q 2450 3394 2872 2941 
Q 3294 2488 3294 1666 
Q 3294 1616 3291 1516 
L 816 1516 
Q 847 969 1125 678 
Q 1403 388 1819 388 
Q 2128 388 2347 550 
Q 2566 713 2694 1069 
z
M 847 1978 
L 2700 1978 
Q 2663 2397 2488 2606 
Q 2219 2931 1791 2931 
Q 1403 2931 1139 2672 
Q 875 2413 847 1978 
z
" transform="scale(0.015625)"/>
      </defs>
      <use xlink:href="#ArialMT-73"/>
      <use xlink:href="#ArialMT-69" transform="translate(50 0)"/>
      <use xlink:href="#ArialMT-7a" transform="translate(72.216797 0)"/>
      <use xlink:href="#ArialMT-65" transform="translate(122.216797 0)"/>
     </g>
    </g>
   </g>
   <g id="matplotlib.axis_2">
    <g id="ytick_1">
     <g id="line2d_7">
      <path d="M 57.6 307.584 
L 414.72 307.584 
" clip-path="url(#p270edeacdc)" style="fill: none; stroke: #ffffff; stroke-linecap: round"/>
     </g>
     <g id="line2d_8">
      <defs>
       <path id="m924a354e73" d="M 0 0 
L -6 0 
" style="stroke: #262626; stroke-width: 1.25"/>
      </defs>
      <g>
       <use xlink:href="#m924a354e73" x="57.6" y="307.584" style="fill: #262626; stroke: #262626; stroke-width: 1.25"/>
      </g>
     </g>
     <g id="text_8">
      <!-- 0.3 -->
      <g style="fill: #262626" transform="translate(32.81 311.520797) scale(0.11 -0.11)">
       <defs>
        <path id="ArialMT-2e" d="M 581 0 
L 581 641 
L 1222 641 
L 1222 0 
L 581 0 
z
" transform="scale(0.015625)"/>
        <path id="ArialMT-33" d="M 269 1209 
L 831 1284 
Q 928 806 1161 595 
Q 1394 384 1728 384 
Q 2125 384 2398 659 
Q 2672 934 2672 1341 
Q 2672 1728 2419 1979 
Q 2166 2231 1775 2231 
Q 1616 2231 1378 2169 
L 1441 2663 
Q 1497 2656 1531 2656 
Q 1891 2656 2178 2843 
Q 2466 3031 2466 3422 
Q 2466 3731 2256 3934 
Q 2047 4138 1716 4138 
Q 1388 4138 1169 3931 
Q 950 3725 888 3313 
L 325 3413 
Q 428 3978 793 4289 
Q 1159 4600 1703 4600 
Q 2078 4600 2393 4439 
Q 2709 4278 2876 4000 
Q 3044 3722 3044 3409 
Q 3044 3113 2884 2869 
Q 2725 2625 2413 2481 
Q 2819 2388 3044 2092 
Q 3269 1797 3269 1353 
Q 3269 753 2831 336 
Q 2394 -81 1725 -81 
Q 1122 -81 723 278 
Q 325 638 269 1209 
z
" transform="scale(0.015625)"/>
       </defs>
       <use xlink:href="#ArialMT-30"/>
       <use xlink:href="#ArialMT-2e" transform="translate(55.615234 0)"/>
       <use xlink:href="#ArialMT-33" transform="translate(83.398438 0)"/>
      </g>
     </g>
    </g>
    <g id="ytick_2">
     <g id="line2d_9">
      <path d="M 57.6 263.232 
L 414.72 263.232 
" clip-path="url(#p270edeacdc)" style="fill: none; stroke: #ffffff; stroke-linecap: round"/>
     </g>
     <g id="line2d_10">
      <g>
       <use xlink:href="#m924a354e73" x="57.6" y="263.232" style="fill: #262626; stroke: #262626; stroke-width: 1.25"/>
      </g>
     </g>
     <g id="text_9">
      <!-- 0.4 -->
      <g style="fill: #262626" transform="translate(32.81 267.168797) scale(0.11 -0.11)">
       <use xlink:href="#ArialMT-30"/>
       <use xlink:href="#ArialMT-2e" transform="translate(55.615234 0)"/>
       <use xlink:href="#ArialMT-34" transform="translate(83.398438 0)"/>
      </g>
     </g>
    </g>
    <g id="ytick_3">
     <g id="line2d_11">
      <path d="M 57.6 218.88 
L 414.72 218.88 
" clip-path="url(#p270edeacdc)" style="fill: none; stroke: #ffffff; stroke-linecap: round"/>
     </g>
     <g id="line2d_12">
      <g>
       <use xlink:href="#m924a354e73" x="57.6" y="218.88" style="fill: #262626; stroke: #262626; stroke-width: 1.25"/>
      </g>
     </g>
     <g id="text_10">
      <!-- 0.5 -->
      <g style="fill: #262626" transform="translate(32.81 222.816797) scale(0.11 -0.11)">
       <defs>
        <path id="ArialMT-35" d="M 266 1200 
L 856 1250 
Q 922 819 1161 601 
Q 1400 384 1738 384 
Q 2144 384 2425 690 
Q 2706 997 2706 1503 
Q 2706 1984 2436 2262 
Q 2166 2541 1728 2541 
Q 1456 2541 1237 2417 
Q 1019 2294 894 2097 
L 366 2166 
L 809 4519 
L 3088 4519 
L 3088 3981 
L 1259 3981 
L 1013 2750 
Q 1425 3038 1878 3038 
Q 2478 3038 2890 2622 
Q 3303 2206 3303 1553 
Q 3303 931 2941 478 
Q 2500 -78 1738 -78 
Q 1113 -78 717 272 
Q 322 622 266 1200 
z
" transform="scale(0.015625)"/>
       </defs>
       <use xlink:href="#ArialMT-30"/>
       <use xlink:href="#ArialMT-2e" transform="translate(55.615234 0)"/>
       <use xlink:href="#ArialMT-35" transform="translate(83.398438 0)"/>
      </g>
     </g>
    </g>
    <g id="ytick_4">
     <g id="line2d_13">
      <path d="M 57.6 174.528 
L 414.72 174.528 
" clip-path="url(#p270edeacdc)" style="fill: none; stroke: #ffffff; stroke-linecap: round"/>
     </g>
     <g id="line2d_14">
      <g>
       <use xlink:href="#m924a354e73" x="57.6" y="174.528" style="fill: #262626; stroke: #262626; stroke-width: 1.25"/>
      </g>
     </g>
     <g id="text_11">
      <!-- 0.6 -->
      <g style="fill: #262626" transform="translate(32.81 178.464797) scale(0.11 -0.11)">
       <use xlink:href="#ArialMT-30"/>
       <use xlink:href="#ArialMT-2e" transform="translate(55.615234 0)"/>
       <use xlink:href="#ArialMT-36" transform="translate(83.398438 0)"/>
      </g>
     </g>
    </g>
    <g id="ytick_5">
     <g id="line2d_15">
      <path d="M 57.6 130.176 
L 414.72 130.176 
" clip-path="url(#p270edeacdc)" style="fill: none; stroke: #ffffff; stroke-linecap: round"/>
     </g>
     <g id="line2d_16">
      <g>
       <use xlink:href="#m924a354e73" x="57.6" y="130.176" style="fill: #262626; stroke: #262626; stroke-width: 1.25"/>
      </g>
     </g>
     <g id="text_12">
      <!-- 0.7 -->
      <g style="fill: #262626" transform="translate(32.81 134.112797) scale(0.11 -0.11)">
       <defs>
        <path id="ArialMT-37" d="M 303 3981 
L 303 4522 
L 3269 4522 
L 3269 4084 
Q 2831 3619 2401 2847 
Q 1972 2075 1738 1259 
Q 1569 684 1522 0 
L 944 0 
Q 953 541 1156 1306 
Q 1359 2072 1739 2783 
Q 2119 3494 2547 3981 
L 303 3981 
z
" transform="scale(0.015625)"/>
       </defs>
       <use xlink:href="#ArialMT-30"/>
       <use xlink:href="#ArialMT-2e" transform="translate(55.615234 0)"/>
       <use xlink:href="#ArialMT-37" transform="translate(83.398438 0)"/>
      </g>
     </g>
    </g>
    <g id="ytick_6">
     <g id="line2d_17">
      <path d="M 57.6 85.824 
L 414.72 85.824 
" clip-path="url(#p270edeacdc)" style="fill: none; stroke: #ffffff; stroke-linecap: round"/>
     </g>
     <g id="line2d_18">
      <g>
       <use xlink:href="#m924a354e73" x="57.6" y="85.824" style="fill: #262626; stroke: #262626; stroke-width: 1.25"/>
      </g>
     </g>
     <g id="text_13">
      <!-- 0.8 -->
      <g style="fill: #262626" transform="translate(32.81 89.760797) scale(0.11 -0.11)">
       <use xlink:href="#ArialMT-30"/>
       <use xlink:href="#ArialMT-2e" transform="translate(55.615234 0)"/>
       <use xlink:href="#ArialMT-38" transform="translate(83.398438 0)"/>
      </g>
     </g>
    </g>
    <g id="ytick_7">
     <g id="line2d_19">
      <path d="M 57.6 41.472 
L 414.72 41.472 
" clip-path="url(#p270edeacdc)" style="fill: none; stroke: #ffffff; stroke-linecap: round"/>
     </g>
     <g id="line2d_20">
      <g>
       <use xlink:href="#m924a354e73" x="57.6" y="41.472" style="fill: #262626; stroke: #262626; stroke-width: 1.25"/>
      </g>
     </g>
     <g id="text_14">
      <!-- 0.9 -->
      <g style="fill: #262626" transform="translate(32.81 45.408797) scale(0.11 -0.11)">
       <defs>
        <path id="ArialMT-39" d="M 350 1059 
L 891 1109 
Q 959 728 1153 556 
Q 1347 384 1650 384 
Q 1909 384 2104 503 
Q 2300 622 2425 820 
Q 2550 1019 2634 1356 
Q 2719 1694 2719 2044 
Q 2719 2081 2716 2156 
Q 2547 1888 2255 1720 
Q 1963 1553 1622 1553 
Q 1053 1553 659 1965 
Q 266 2378 266 3053 
Q 266 3750 677 4175 
Q 1088 4600 1706 4600 
Q 2153 4600 2523 4359 
Q 2894 4119 3086 3673 
Q 3278 3228 3278 2384 
Q 3278 1506 3087 986 
Q 2897 466 2520 194 
Q 2144 -78 1638 -78 
Q 1100 -78 759 220 
Q 419 519 350 1059 
z
M 2653 3081 
Q 2653 3566 2395 3850 
Q 2138 4134 1775 4134 
Q 1400 4134 1122 3828 
Q 844 3522 844 3034 
Q 844 2597 1108 2323 
Q 1372 2050 1759 2050 
Q 2150 2050 2401 2323 
Q 2653 2597 2653 3081 
z
" transform="scale(0.015625)"/>
       </defs>
       <use xlink:href="#ArialMT-30"/>
       <use xlink:href="#ArialMT-2e" transform="translate(55.615234 0)"/>
       <use xlink:href="#ArialMT-39" transform="translate(83.398438 0)"/>
      </g>
     </g>
    </g>
    <g id="text_15">
     <!-- value -->
     <g style="fill: #262626" transform="translate(26.425 188.870812) rotate(-90) scale(0.12 -0.12)">
      <defs>
       <path id="ArialMT-76" d="M 1344 0 
L 81 3319 
L 675 3319 
L 1388 1331 
Q 1503 1009 1600 663 
Q 1675 925 1809 1294 
L 2547 3319 
L 3125 3319 
L 1869 0 
L 1344 0 
z
" transform="scale(0.015625)"/>
       <path id="ArialMT-61" d="M 2588 409 
Q 2275 144 1986 34 
Q 1697 -75 1366 -75 
Q 819 -75 525 192 
Q 231 459 231 875 
Q 231 1119 342 1320 
Q 453 1522 633 1644 
Q 813 1766 1038 1828 
Q 1203 1872 1538 1913 
Q 2219 1994 2541 2106 
Q 2544 2222 2544 2253 
Q 2544 2597 2384 2738 
Q 2169 2928 1744 2928 
Q 1347 2928 1158 2789 
Q 969 2650 878 2297 
L 328 2372 
Q 403 2725 575 2942 
Q 747 3159 1072 3276 
Q 1397 3394 1825 3394 
Q 2250 3394 2515 3294 
Q 2781 3194 2906 3042 
Q 3031 2891 3081 2659 
Q 3109 2516 3109 2141 
L 3109 1391 
Q 3109 606 3145 398 
Q 3181 191 3288 0 
L 2700 0 
Q 2613 175 2588 409 
z
M 2541 1666 
Q 2234 1541 1622 1453 
Q 1275 1403 1131 1340 
Q 988 1278 909 1158 
Q 831 1038 831 891 
Q 831 666 1001 516 
Q 1172 366 1500 366 
Q 1825 366 2078 508 
Q 2331 650 2450 897 
Q 2541 1088 2541 1459 
L 2541 1666 
z
" transform="scale(0.015625)"/>
       <path id="ArialMT-6c" d="M 409 0 
L 409 4581 
L 972 4581 
L 972 0 
L 409 0 
z
" transform="scale(0.015625)"/>
       <path id="ArialMT-75" d="M 2597 0 
L 2597 488 
Q 2209 -75 1544 -75 
Q 1250 -75 995 37 
Q 741 150 617 320 
Q 494 491 444 738 
Q 409 903 409 1263 
L 409 3319 
L 972 3319 
L 972 1478 
Q 972 1038 1006 884 
Q 1059 663 1231 536 
Q 1403 409 1656 409 
Q 1909 409 2131 539 
Q 2353 669 2445 892 
Q 2538 1116 2538 1541 
L 2538 3319 
L 3100 3319 
L 3100 0 
L 2597 0 
z
" transform="scale(0.015625)"/>
      </defs>
      <use xlink:href="#ArialMT-76"/>
      <use xlink:href="#ArialMT-61" transform="translate(50 0)"/>
      <use xlink:href="#ArialMT-6c" transform="translate(105.615234 0)"/>
      <use xlink:href="#ArialMT-75" transform="translate(127.832031 0)"/>
      <use xlink:href="#ArialMT-65" transform="translate(183.447266 0)"/>
     </g>
    </g>
   </g>
   <g id="FillBetweenPolyCollection_1">
    <defs>
     <path id="mc5fb7ebfdd" d="M 73.832727 -147.407921 
L 73.832727 -127.808838 
L 77.112066 -127.808838 
L 80.391405 -129.986514 
L 83.670744 -136.519542 
L 86.950083 -135.956975 
L 90.229421 -132.890082 
L 93.50876 -137.245434 
L 96.788099 -137.245434 
L 100.067438 -138.697218 
L 103.346777 -137.245434 
L 106.626116 -136.519542 
L 109.905455 -138.697218 
L 113.184793 -139.42311 
L 116.464132 -138.697218 
L 119.743471 -136.519542 
L 123.02281 -137.971326 
L 126.302149 -137.971326 
L 129.581488 -137.971326 
L 132.860826 -136.519542 
L 136.140165 -137.245434 
L 139.419504 -141.600786 
L 142.698843 -140.149002 
L 145.978182 -140.874894 
L 149.257521 -141.600786 
L 152.53686 -141.600786 
L 155.816198 -141.600786 
L 159.095537 -141.600786 
L 162.374876 -140.874894 
L 165.654215 -141.600786 
L 168.933554 -142.326678 
L 172.212893 -142.762213 
L 175.492231 -141.600786 
L 178.77157 -140.874894 
L 182.050909 -140.874894 
L 185.330248 -140.874894 
L 188.609587 -142.326678 
L 191.888926 -141.600786 
L 195.168264 -141.600786 
L 198.447603 -143.294534 
L 201.726942 -141.600786 
L 205.006281 -141.600786 
L 208.28562 -141.600786 
L 211.564959 -140.874894 
L 214.844298 -141.600786 
L 218.123636 -141.600786 
L 221.402975 -141.600786 
L 224.682314 -141.600786 
L 227.961653 -141.600786 
L 231.240992 -141.600786 
L 234.520331 -141.600786 
L 237.799669 -141.600786 
L 241.079008 -141.600786 
L 244.358347 -141.600786 
L 247.637686 -143.536498 
L 250.917025 -141.600786 
L 254.196364 -140.874894 
L 257.475702 -140.874894 
L 260.755041 -142.810606 
L 264.03438 -140.874894 
L 267.313719 -140.874894 
L 270.593058 -140.874894 
L 273.872397 -141.600786 
L 277.151736 -141.600786 
L 280.431074 -141.600786 
L 283.710413 -140.874894 
L 286.989752 -140.874894 
L 290.269091 -141.600786 
L 293.54843 -140.149002 
L 296.827769 -140.874894 
L 300.107107 -140.874894 
L 303.386446 -141.600786 
L 306.665785 -140.149002 
L 309.945124 -141.600786 
L 313.224463 -141.600786 
L 316.503802 -141.600786 
L 319.78314 -142.326678 
L 323.062479 -141.600786 
L 326.341818 -141.600786 
L 329.621157 -141.600786 
L 332.900496 -140.874894 
L 336.179835 -141.600786 
L 339.459174 -141.600786 
L 342.738512 -143.506252 
L 346.017851 -142.326678 
L 349.29719 -142.326678 
L 352.576529 -140.149002 
L 355.855868 -141.600786 
L 359.135207 -141.600786 
L 362.414545 -141.600786 
L 365.693884 -141.600786 
L 368.973223 -141.600786 
L 372.252562 -142.326678 
L 375.531901 -142.326678 
L 378.81124 -142.326678 
L 382.090579 -141.600786 
L 385.369917 -141.600786 
L 388.649256 -140.874894 
L 391.928595 -141.600786 
L 395.207934 -141.600786 
L 398.487273 -140.874894 
L 398.487273 -148.133813 
L 398.487273 -148.133813 
L 395.207934 -147.407921 
L 391.928595 -147.407921 
L 388.649256 -147.407921 
L 385.369917 -147.407921 
L 382.090579 -147.407921 
L 378.81124 -147.407921 
L 375.531901 -147.407921 
L 372.252562 -147.407921 
L 368.973223 -147.407921 
L 365.693884 -147.407921 
L 362.414545 -146.682029 
L 359.135207 -147.407921 
L 355.855868 -147.407921 
L 352.576529 -148.133813 
L 349.29719 -148.133813 
L 346.017851 -148.133813 
L 342.738512 -148.133813 
L 339.459174 -148.133813 
L 336.179835 -146.682029 
L 332.900496 -146.682029 
L 329.621157 -146.682029 
L 326.341818 -146.682029 
L 323.062479 -146.682029 
L 319.78314 -146.682029 
L 316.503802 -146.682029 
L 313.224463 -146.682029 
L 309.945124 -147.407921 
L 306.665785 -146.682029 
L 303.386446 -146.682029 
L 300.107107 -145.956137 
L 296.827769 -147.407921 
L 293.54843 -146.682029 
L 290.269091 -147.407921 
L 286.989752 -147.407921 
L 283.710413 -148.133813 
L 280.431074 -148.133813 
L 277.151736 -148.133813 
L 273.872397 -147.407921 
L 270.593058 -148.859705 
L 267.313719 -150.311489 
L 264.03438 -148.859705 
L 260.755041 -148.617741 
L 257.475702 -149.585597 
L 254.196364 -148.859705 
L 250.917025 -148.859705 
L 247.637686 -149.585597 
L 244.358347 -150.311489 
L 241.079008 -149.36783 
L 237.799669 -151.037381 
L 234.520331 -151.037381 
L 231.240992 -150.311489 
L 227.961653 -151.763273 
L 224.682314 -151.037381 
L 221.402975 -151.037381 
L 218.123636 -151.763273 
L 214.844298 -150.311489 
L 211.564959 -151.037381 
L 208.28562 -150.311489 
L 205.006281 -148.133813 
L 201.726942 -148.133813 
L 198.447603 -146.682029 
L 195.168264 -148.133813 
L 191.888926 -148.859705 
L 188.609587 -148.859705 
L 185.330248 -148.859705 
L 182.050909 -146.682029 
L 178.77157 -148.859705 
L 175.492231 -147.407921 
L 172.212893 -148.859705 
L 168.933554 -146.682029 
L 165.654215 -148.859705 
L 162.374876 -147.407921 
L 159.095537 -146.682029 
L 155.816198 -148.859705 
L 152.53686 -147.407921 
L 149.257521 -148.133813 
L 145.978182 -147.407921 
L 142.698843 -149.585597 
L 139.419504 -148.133813 
L 136.140165 -148.133813 
L 132.860826 -148.133813 
L 129.581488 -146.682029 
L 126.302149 -146.682029 
L 123.02281 -145.956137 
L 119.743471 -146.682029 
L 116.464132 -145.956137 
L 113.184793 -143.778462 
L 109.905455 -145.956137 
L 106.626116 -147.407921 
L 103.346777 -144.504354 
L 100.067438 -145.956137 
L 96.788099 -148.133813 
L 93.50876 -145.230245 
L 90.229421 -145.230245 
L 86.950083 -147.407921 
L 83.670744 -147.407921 
L 80.391405 -148.133813 
L 77.112066 -147.407921 
L 73.832727 -147.407921 
z
" style="stroke: #4c72b0; stroke-opacity: 0.2"/>
    </defs>
    <g clip-path="url(#p270edeacdc)">
     <use xlink:href="#mc5fb7ebfdd" x="0" y="345.6" style="fill: #4c72b0; fill-opacity: 0.2; stroke: #4c72b0; stroke-opacity: 0.2"/>
    </g>
   </g>
   <g id="FillBetweenPolyCollection_2">
    <defs>
     <path id="md0f53c2679" d="M 73.832727 -147.407921 
L 73.832727 -127.808838 
L 77.112066 -151.037381 
L 80.391405 -157.570409 
L 83.670744 -160.473977 
L 86.950083 -163.377545 
L 90.229421 -165.555221 
L 93.50876 -167.007005 
L 96.788099 -167.732897 
L 100.067438 -169.910573 
L 103.346777 -173.540033 
L 106.626116 -173.540033 
L 109.905455 -174.991817 
L 113.184793 -174.991817 
L 116.464132 -174.991817 
L 119.743471 -175.717709 
L 123.02281 -175.717709 
L 126.302149 -175.717709 
L 129.581488 -175.717709 
L 132.860826 -177.169493 
L 136.140165 -178.621277 
L 139.419504 -178.621277 
L 142.698843 -178.621277 
L 145.978182 -178.621277 
L 149.257521 -178.621277 
L 152.53686 -179.347169 
L 155.816198 -180.073061 
L 159.095537 -180.073061 
L 162.374876 -180.073061 
L 165.654215 -180.798953 
L 168.933554 -181.524845 
L 172.212893 -181.524845 
L 175.492231 -181.524845 
L 178.77157 -181.524845 
L 182.050909 -181.524845 
L 185.330248 -181.524845 
L 188.609587 -182.250736 
L 191.888926 -182.250736 
L 195.168264 -182.250736 
L 198.447603 -182.250736 
L 201.726942 -182.976628 
L 205.006281 -182.976628 
L 208.28562 -182.976628 
L 211.564959 -182.976628 
L 214.844298 -182.976628 
L 218.123636 -182.976628 
L 221.402975 -182.976628 
L 224.682314 -182.976628 
L 227.961653 -182.976628 
L 231.240992 -182.976628 
L 234.520331 -182.976628 
L 237.799669 -184.428412 
L 241.079008 -184.428412 
L 244.358347 -184.428412 
L 247.637686 -184.428412 
L 250.917025 -184.428412 
L 254.196364 -184.428412 
L 257.475702 -184.428412 
L 260.755041 -184.428412 
L 264.03438 -184.428412 
L 267.313719 -184.428412 
L 270.593058 -185.154304 
L 273.872397 -185.154304 
L 277.151736 -185.154304 
L 280.431074 -185.154304 
L 283.710413 -185.880196 
L 286.989752 -185.880196 
L 290.269091 -185.880196 
L 293.54843 -185.880196 
L 296.827769 -185.880196 
L 300.107107 -185.880196 
L 303.386446 -185.880196 
L 306.665785 -185.880196 
L 309.945124 -186.606088 
L 313.224463 -186.606088 
L 316.503802 -186.606088 
L 319.78314 -186.606088 
L 323.062479 -186.606088 
L 326.341818 -186.606088 
L 329.621157 -199.188216 
L 332.900496 -186.606088 
L 336.179835 -186.606088 
L 339.459174 -186.606088 
L 342.738512 -186.606088 
L 346.017851 -187.33198 
L 349.29719 -188.057872 
L 352.576529 -188.057872 
L 355.855868 -188.057872 
L 359.135207 -188.057872 
L 362.414545 -188.057872 
L 365.693884 -188.057872 
L 368.973223 -188.057872 
L 372.252562 -188.057872 
L 375.531901 -188.057872 
L 378.81124 -188.057872 
L 382.090579 -188.783764 
L 385.369917 -188.783764 
L 388.649256 -188.783764 
L 391.928595 -188.783764 
L 395.207934 -188.783764 
L 398.487273 -188.783764 
L 398.487273 -249.758691 
L 398.487273 -249.758691 
L 395.207934 -249.758691 
L 391.928595 -249.758691 
L 388.649256 -249.758691 
L 385.369917 -249.758691 
L 382.090579 -249.758691 
L 378.81124 -249.032799 
L 375.531901 -248.306907 
L 372.252562 -248.306907 
L 368.973223 -248.306907 
L 365.693884 -248.306907 
L 362.414545 -248.306907 
L 359.135207 -248.306907 
L 355.855868 -247.581015 
L 352.576529 -240.080131 
L 349.29719 -247.581015 
L 346.017851 -247.581015 
L 342.738512 -239.596203 
L 339.459174 -246.855123 
L 336.179835 -246.129231 
L 332.900496 -246.129231 
L 329.621157 -246.129231 
L 326.341818 -244.677447 
L 323.062479 -244.677447 
L 319.78314 -244.677447 
L 316.503802 -244.677447 
L 313.224463 -244.677447 
L 309.945124 -243.951555 
L 306.665785 -243.951555 
L 303.386446 -243.951555 
L 300.107107 -243.951555 
L 296.827769 -243.951555 
L 293.54843 -243.951555 
L 290.269091 -243.951555 
L 286.989752 -243.225663 
L 283.710413 -243.225663 
L 280.431074 -243.225663 
L 277.151736 -243.225663 
L 273.872397 -243.225663 
L 270.593058 -243.225663 
L 267.313719 -241.773879 
L 264.03438 -241.773879 
L 260.755041 -241.773879 
L 257.475702 -241.773879 
L 254.196364 -241.773879 
L 250.917025 -241.773879 
L 247.637686 -241.773879 
L 244.358347 -241.773879 
L 241.079008 -241.773879 
L 237.799669 -241.773879 
L 234.520331 -239.596203 
L 231.240992 -239.596203 
L 227.961653 -238.144419 
L 224.682314 -238.144419 
L 221.402975 -238.144419 
L 218.123636 -238.144419 
L 214.844298 -238.144419 
L 211.564959 -237.418527 
L 208.28562 -235.966743 
L 205.006281 -234.514959 
L 201.726942 -234.514959 
L 198.447603 -233.789067 
L 195.168264 -233.789067 
L 191.888926 -233.063175 
L 188.609587 -233.063175 
L 185.330248 -233.063175 
L 182.050909 -231.611391 
L 178.77157 -230.159607 
L 175.492231 -229.433715 
L 172.212893 -228.707823 
L 168.933554 -228.707823 
L 165.654215 -228.707823 
L 162.374876 -227.981931 
L 159.095537 -226.530147 
L 155.816198 -226.530147 
L 152.53686 -225.804255 
L 149.257521 -224.352471 
L 145.978182 -223.626579 
L 142.698843 -222.174795 
L 139.419504 -219.271227 
L 136.140165 -217.819444 
L 132.860826 -217.093552 
L 129.581488 -215.641768 
L 126.302149 -213.464092 
L 123.02281 -212.7382 
L 119.743471 -212.012308 
L 116.464132 -210.560524 
L 113.184793 -210.560524 
L 109.905455 -209.834632 
L 106.626116 -206.205172 
L 103.346777 -202.575712 
L 100.067438 -201.84982 
L 96.788099 -198.946252 
L 93.50876 -195.316792 
L 90.229421 -192.413224 
L 86.950083 -185.880196 
L 83.670744 -177.895385 
L 80.391405 -169.910573 
L 77.112066 -156.844517 
L 73.832727 -147.407921 
z
" style="stroke: #dd8452; stroke-opacity: 0.2"/>
    </defs>
    <g clip-path="url(#p270edeacdc)">
     <use xlink:href="#md0f53c2679" x="0" y="345.6" style="fill: #dd8452; fill-opacity: 0.2; stroke: #dd8452; stroke-opacity: 0.2"/>
    </g>
   </g>
   <g id="line2d_21">
    <path d="M 73.832727 208.838494 
L 77.112066 208.838494 
L 80.391405 206.418854 
L 83.670744 203.75725 
L 86.950083 204.725106 
L 90.229421 205.209034 
L 93.50876 203.031358 
L 96.788099 201.821538 
L 100.067438 202.54743 
L 103.346777 203.515286 
L 106.626116 202.54743 
L 109.905455 202.305466 
L 113.184793 203.515286 
L 116.464132 202.789394 
L 119.743471 203.031358 
L 123.02281 202.54743 
L 126.302149 202.54743 
L 129.581488 202.305466 
L 132.860826 202.305466 
L 136.140165 202.54743 
L 139.419504 200.369755 
L 142.698843 200.853682 
L 145.978182 201.33761 
L 149.257521 200.369755 
L 152.53686 200.853682 
L 155.816198 200.611718 
L 159.095537 200.611718 
L 162.374876 200.611718 
L 165.654215 199.885827 
L 168.933554 200.369755 
L 172.212893 200.127791 
L 175.492231 200.127791 
L 178.77157 200.127791 
L 182.050909 200.853682 
L 185.330248 200.127791 
L 188.609587 199.643863 
L 191.888926 199.885827 
L 195.168264 200.127791 
L 198.447603 200.611718 
L 201.726942 200.127791 
L 205.006281 200.127791 
L 208.28562 199.401899 
L 211.564959 199.401899 
L 214.844298 199.401899 
L 218.123636 198.917971 
L 221.402975 199.159935 
L 224.682314 199.159935 
L 227.961653 198.676007 
L 231.240992 199.401899 
L 234.520331 198.676007 
L 237.799669 198.917971 
L 241.079008 199.159935 
L 244.358347 199.159935 
L 247.637686 199.401899 
L 250.917025 199.885827 
L 254.196364 200.127791 
L 257.475702 199.885827 
L 260.755041 199.885827 
L 264.03438 200.127791 
L 267.313719 199.643863 
L 270.593058 199.885827 
L 273.872397 200.127791 
L 277.151736 199.885827 
L 280.431074 199.885827 
L 283.710413 200.127791 
L 286.989752 200.369755 
L 290.269091 200.127791 
L 293.54843 201.33761 
L 296.827769 200.853682 
L 300.107107 201.33761 
L 303.386446 201.095646 
L 306.665785 201.33761 
L 309.945124 200.853682 
L 313.224463 201.095646 
L 316.503802 201.33761 
L 319.78314 201.095646 
L 323.062479 201.33761 
L 326.341818 201.33761 
L 329.621157 201.095646 
L 332.900496 201.095646 
L 336.179835 200.853682 
L 339.459174 200.369755 
L 342.738512 200.127791 
L 346.017851 200.127791 
L 349.29719 200.127791 
L 352.576529 200.853682 
L 355.855868 200.611718 
L 359.135207 200.611718 
L 362.414545 200.853682 
L 365.693884 200.611718 
L 368.973223 200.611718 
L 372.252562 200.369755 
L 375.531901 200.369755 
L 378.81124 200.127791 
L 382.090579 200.369755 
L 385.369917 200.127791 
L 388.649256 200.611718 
L 391.928595 200.369755 
L 395.207934 200.369755 
L 398.487273 200.369755 
" clip-path="url(#p270edeacdc)" style="fill: none; stroke: #4c72b0; stroke-width: 1.5; stroke-linecap: round"/>
   </g>
   <g id="line2d_22">
    <path d="M 73.832727 208.838494 
L 77.112066 191.417087 
L 80.391405 182.464419 
L 83.670744 176.899247 
L 86.950083 170.850147 
L 90.229421 166.736759 
L 93.50876 163.1073 
L 96.788099 160.929624 
L 100.067438 158.993912 
L 103.346777 157.0582 
L 106.626116 155.364452 
L 109.905455 153.42874 
L 113.184793 152.944812 
L 116.464132 152.702848 
L 119.743471 151.0091 
L 123.02281 150.041244 
L 126.302149 149.557316 
L 129.581488 148.58946 
L 132.860826 147.37964 
L 136.140165 146.653748 
L 139.419504 145.927856 
L 142.698843 144.718036 
L 145.978182 144.234108 
L 149.257521 143.508216 
L 152.53686 142.54036 
L 155.816198 141.814468 
L 159.095537 141.814468 
L 162.374876 141.33054 
L 165.654215 140.604648 
L 168.933554 140.362684 
L 172.212893 140.362684 
L 175.492231 139.878756 
L 178.77157 139.394828 
L 182.050909 138.9109 
L 185.330248 138.185008 
L 188.609587 137.70108 
L 191.888926 137.459116 
L 195.168264 136.975188 
L 198.447603 136.49126 
L 201.726942 136.007332 
L 205.006281 136.007332 
L 208.28562 135.28144 
L 211.564959 134.555548 
L 214.844298 134.313584 
L 218.123636 133.829656 
L 221.402975 133.587692 
L 224.682314 133.587692 
L 227.961653 133.587692 
L 231.240992 133.103764 
L 234.520331 133.103764 
L 237.799669 131.893944 
L 241.079008 131.65198 
L 244.358347 131.410016 
L 247.637686 131.410016 
L 250.917025 131.168052 
L 254.196364 131.168052 
L 257.475702 131.168052 
L 260.755041 130.926088 
L 264.03438 130.684124 
L 267.313719 130.200196 
L 270.593058 129.23234 
L 273.872397 128.990376 
L 277.151736 128.748412 
L 280.431074 128.748412 
L 283.710413 128.506448 
L 286.989752 128.506448 
L 290.269091 128.264484 
L 293.54843 128.264484 
L 296.827769 128.02252 
L 300.107107 128.02252 
L 303.386446 128.02252 
L 306.665785 127.780556 
L 309.945124 127.296628 
L 313.224463 127.054664 
L 316.503802 127.054664 
L 319.78314 127.054664 
L 323.062479 127.054664 
L 326.341818 127.054664 
L 329.621157 126.570736 
L 332.900496 126.570736 
L 336.179835 126.570736 
L 339.459174 126.086809 
L 342.738512 126.086809 
L 346.017851 125.602881 
L 349.29719 125.360917 
L 352.576529 125.360917 
L 355.855868 125.360917 
L 359.135207 124.635025 
L 362.414545 124.393061 
L 365.693884 124.393061 
L 368.973223 124.393061 
L 372.252562 124.393061 
L 375.531901 124.393061 
L 378.81124 124.151097 
L 382.090579 123.667169 
L 385.369917 123.183241 
L 388.649256 123.183241 
L 391.928595 123.183241 
L 395.207934 123.183241 
L 398.487273 123.183241 
" clip-path="url(#p270edeacdc)" style="fill: none; stroke: #dd8452; stroke-width: 1.5; stroke-linecap: round"/>
   </g>
   <g id="line2d_23"/>
   <g id="line2d_24"/>
   <g id="patch_3">
    <path d="M 57.6 307.584 
L 57.6 41.472 
" style="fill: none; stroke: #ffffff; stroke-width: 1.25; stroke-linejoin: miter; stroke-linecap: square"/>
   </g>
   <g id="patch_4">
    <path d="M 414.72 307.584 
L 414.72 41.472 
" style="fill: none; stroke: #ffffff; stroke-width: 1.25; stroke-linejoin: miter; stroke-linecap: square"/>
   </g>
   <g id="patch_5">
    <path d="M 57.6 307.584 
L 414.72 307.584 
" style="fill: none; stroke: #ffffff; stroke-width: 1.25; stroke-linejoin: miter; stroke-linecap: square"/>
   </g>
   <g id="patch_6">
    <path d="M 57.6 41.472 
L 414.72 41.472 
" style="fill: none; stroke: #ffffff; stroke-width: 1.25; stroke-linejoin: miter; stroke-linecap: square"/>
   </g>
   <g id="legend_1">
    <g id="patch_7">
     <path d="M 65.3 97.866062 
L 146.968125 97.866062 
Q 149.168125 97.866062 149.168125 95.666062 
L 149.168125 49.172 
Q 149.168125 46.972 146.968125 46.972 
L 65.3 46.972 
Q 63.1 46.972 63.1 49.172 
L 63.1 95.666062 
Q 63.1 97.866062 65.3 97.866062 
z
" style="fill: #eaeaf2; opacity: 0.8; stroke: #cccccc; stroke-linejoin: miter"/>
    </g>
    <g id="text_16">
     <!-- class -->
     <g style="fill: #262626" transform="translate(92.464375 59.961375) scale(0.12 -0.12)">
      <defs>
       <path id="ArialMT-63" d="M 2588 1216 
L 3141 1144 
Q 3050 572 2676 248 
Q 2303 -75 1759 -75 
Q 1078 -75 664 370 
Q 250 816 250 1647 
Q 250 2184 428 2587 
Q 606 2991 970 3192 
Q 1334 3394 1763 3394 
Q 2303 3394 2647 3120 
Q 2991 2847 3088 2344 
L 2541 2259 
Q 2463 2594 2264 2762 
Q 2066 2931 1784 2931 
Q 1359 2931 1093 2626 
Q 828 2322 828 1663 
Q 828 994 1084 691 
Q 1341 388 1753 388 
Q 2084 388 2306 591 
Q 2528 794 2588 1216 
z
" transform="scale(0.015625)"/>
      </defs>
      <use xlink:href="#ArialMT-63"/>
      <use xlink:href="#ArialMT-6c" transform="translate(50 0)"/>
      <use xlink:href="#ArialMT-61" transform="translate(72.216797 0)"/>
      <use xlink:href="#ArialMT-73" transform="translate(127.832031 0)"/>
      <use xlink:href="#ArialMT-73" transform="translate(177.832031 0)"/>
     </g>
    </g>
    <g id="line2d_25">
     <path d="M 67.5 71.869969 
L 78.5 71.869969 
L 89.5 71.869969 
" style="fill: none; stroke: #4c72b0; stroke-width: 1.5; stroke-linecap: round"/>
    </g>
    <g id="text_17">
     <!-- acc -->
     <g style="fill: #262626" transform="translate(98.3 75.719969) scale(0.11 -0.11)">
      <use xlink:href="#ArialMT-61"/>
      <use xlink:href="#ArialMT-63" transform="translate(55.615234 0)"/>
      <use xlink:href="#ArialMT-63" transform="translate(105.615234 0)"/>
     </g>
    </g>
    <g id="line2d_26">
     <path d="M 67.5 87.429812 
L 78.5 87.429812 
L 89.5 87.429812 
" style="fill: none; stroke: #dd8452; stroke-width: 1.5; stroke-linecap: round"/>
    </g>
    <g id="text_18">
     <!-- pass_acc -->
     <g style="fill: #262626" transform="translate(98.3 91.279812) scale(0.11 -0.11)">
      <defs>
       <path id="ArialMT-70" d="M 422 -1272 
L 422 3319 
L 934 3319 
L 934 2888 
Q 1116 3141 1344 3267 
Q 1572 3394 1897 3394 
Q 2322 3394 2647 3175 
Q 2972 2956 3137 2557 
Q 3303 2159 3303 1684 
Q 3303 1175 3120 767 
Q 2938 359 2589 142 
Q 2241 -75 1856 -75 
Q 1575 -75 1351 44 
Q 1128 163 984 344 
L 984 -1272 
L 422 -1272 
z
M 931 1641 
Q 931 1000 1190 694 
Q 1450 388 1819 388 
Q 2194 388 2461 705 
Q 2728 1022 2728 1688 
Q 2728 2322 2467 2637 
Q 2206 2953 1844 2953 
Q 1484 2953 1207 2617 
Q 931 2281 931 1641 
z
" transform="scale(0.015625)"/>
       <path id="ArialMT-5f" d="M -97 -1272 
L -97 -866 
L 3631 -866 
L 3631 -1272 
L -97 -1272 
z
" transform="scale(0.015625)"/>
      </defs>
      <use xlink:href="#ArialMT-70"/>
      <use xlink:href="#ArialMT-61" transform="translate(55.615234 0)"/>
      <use xlink:href="#ArialMT-73" transform="translate(111.230469 0)"/>
      <use xlink:href="#ArialMT-73" transform="translate(161.230469 0)"/>
      <use xlink:href="#ArialMT-5f" transform="translate(211.230469 0)"/>
      <use xlink:href="#ArialMT-61" transform="translate(266.845703 0)"/>
      <use xlink:href="#ArialMT-63" transform="translate(322.460938 0)"/>
      <use xlink:href="#ArialMT-63" transform="translate(372.460938 0)"/>
     </g>
    </g>
   </g>
  </g>
  <g id="axes_2">
   <g id="matplotlib.axis_3">
    <g id="ytick_8">
     <g id="line2d_27">
      <path d="M 57.6 300.192 
L 414.72 300.192 
" clip-path="url(#p270edeacdc)" style="fill: none; stroke: #ffffff; stroke-linecap: round"/>
     </g>
     <g id="line2d_28">
      <defs>
       <path id="m9c4a597d67" d="M 0 0 
L 6 0 
" style="stroke: #262626; stroke-width: 1.25"/>
      </defs>
      <g>
       <use xlink:href="#m9c4a597d67" x="414.72" y="300.192" style="fill: #262626; stroke: #262626; stroke-width: 1.25"/>
      </g>
     </g>
     <g id="text_19">
      <!-- −2000 -->
      <g style="fill: #262626" transform="translate(424.22 304.128797) scale(0.11 -0.11)">
       <defs>
        <path id="ArialMT-2212" d="M 3381 1997 
L 356 1997 
L 356 2522 
L 3381 2522 
L 3381 1997 
z
" transform="scale(0.015625)"/>
       </defs>
       <use xlink:href="#ArialMT-2212"/>
       <use xlink:href="#ArialMT-32" transform="translate(58.398438 0)"/>
       <use xlink:href="#ArialMT-30" transform="translate(114.013672 0)"/>
       <use xlink:href="#ArialMT-30" transform="translate(169.628906 0)"/>
       <use xlink:href="#ArialMT-30" transform="translate(225.244141 0)"/>
      </g>
     </g>
    </g>
    <g id="ytick_9">
     <g id="line2d_29">
      <path d="M 57.6 263.232 
L 414.72 263.232 
" clip-path="url(#p270edeacdc)" style="fill: none; stroke: #ffffff; stroke-linecap: round"/>
     </g>
     <g id="line2d_30">
      <g>
       <use xlink:href="#m9c4a597d67" x="414.72" y="263.232" style="fill: #262626; stroke: #262626; stroke-width: 1.25"/>
      </g>
     </g>
     <g id="text_20">
      <!-- −1000 -->
      <g style="fill: #262626" transform="translate(424.22 267.168797) scale(0.11 -0.11)">
       <use xlink:href="#ArialMT-2212"/>
       <use xlink:href="#ArialMT-31" transform="translate(58.398438 0)"/>
       <use xlink:href="#ArialMT-30" transform="translate(114.013672 0)"/>
       <use xlink:href="#ArialMT-30" transform="translate(169.628906 0)"/>
       <use xlink:href="#ArialMT-30" transform="translate(225.244141 0)"/>
      </g>
     </g>
    </g>
    <g id="ytick_10">
     <g id="line2d_31">
      <path d="M 57.6 226.272 
L 414.72 226.272 
" clip-path="url(#p270edeacdc)" style="fill: none; stroke: #ffffff; stroke-linecap: round"/>
     </g>
     <g id="line2d_32">
      <g>
       <use xlink:href="#m9c4a597d67" x="414.72" y="226.272" style="fill: #262626; stroke: #262626; stroke-width: 1.25"/>
      </g>
     </g>
     <g id="text_21">
      <!-- 0 -->
      <g style="fill: #262626" transform="translate(424.22 230.208797) scale(0.11 -0.11)">
       <use xlink:href="#ArialMT-30"/>
      </g>
     </g>
    </g>
    <g id="ytick_11">
     <g id="line2d_33">
      <path d="M 57.6 189.312 
L 414.72 189.312 
" clip-path="url(#p270edeacdc)" style="fill: none; stroke: #ffffff; stroke-linecap: round"/>
     </g>
     <g id="line2d_34">
      <g>
       <use xlink:href="#m9c4a597d67" x="414.72" y="189.312" style="fill: #262626; stroke: #262626; stroke-width: 1.25"/>
      </g>
     </g>
     <g id="text_22">
      <!-- 1000 -->
      <g style="fill: #262626" transform="translate(424.22 193.248797) scale(0.11 -0.11)">
       <use xlink:href="#ArialMT-31"/>
       <use xlink:href="#ArialMT-30" transform="translate(55.615234 0)"/>
       <use xlink:href="#ArialMT-30" transform="translate(111.230469 0)"/>
       <use xlink:href="#ArialMT-30" transform="translate(166.845703 0)"/>
      </g>
     </g>
    </g>
    <g id="ytick_12">
     <g id="line2d_35">
      <path d="M 57.6 152.352 
L 414.72 152.352 
" clip-path="url(#p270edeacdc)" style="fill: none; stroke: #ffffff; stroke-linecap: round"/>
     </g>
     <g id="line2d_36">
      <g>
       <use xlink:href="#m9c4a597d67" x="414.72" y="152.352" style="fill: #262626; stroke: #262626; stroke-width: 1.25"/>
      </g>
     </g>
     <g id="text_23">
      <!-- 2000 -->
      <g style="fill: #262626" transform="translate(424.22 156.288797) scale(0.11 -0.11)">
       <use xlink:href="#ArialMT-32"/>
       <use xlink:href="#ArialMT-30" transform="translate(55.615234 0)"/>
       <use xlink:href="#ArialMT-30" transform="translate(111.230469 0)"/>
       <use xlink:href="#ArialMT-30" transform="translate(166.845703 0)"/>
      </g>
     </g>
    </g>
    <g id="ytick_13">
     <g id="line2d_37">
      <path d="M 57.6 115.392 
L 414.72 115.392 
" clip-path="url(#p270edeacdc)" style="fill: none; stroke: #ffffff; stroke-linecap: round"/>
     </g>
     <g id="line2d_38">
      <g>
       <use xlink:href="#m9c4a597d67" x="414.72" y="115.392" style="fill: #262626; stroke: #262626; stroke-width: 1.25"/>
      </g>
     </g>
     <g id="text_24">
      <!-- 3000 -->
      <g style="fill: #262626" transform="translate(424.22 119.328797) scale(0.11 -0.11)">
       <use xlink:href="#ArialMT-33"/>
       <use xlink:href="#ArialMT-30" transform="translate(55.615234 0)"/>
       <use xlink:href="#ArialMT-30" transform="translate(111.230469 0)"/>
       <use xlink:href="#ArialMT-30" transform="translate(166.845703 0)"/>
      </g>
     </g>
    </g>
    <g id="ytick_14">
     <g id="line2d_39">
      <path d="M 57.6 78.432 
L 414.72 78.432 
" clip-path="url(#p270edeacdc)" style="fill: none; stroke: #ffffff; stroke-linecap: round"/>
     </g>
     <g id="line2d_40">
      <g>
       <use xlink:href="#m9c4a597d67" x="414.72" y="78.432" style="fill: #262626; stroke: #262626; stroke-width: 1.25"/>
      </g>
     </g>
     <g id="text_25">
      <!-- 4000 -->
      <g style="fill: #262626" transform="translate(424.22 82.368797) scale(0.11 -0.11)">
       <use xlink:href="#ArialMT-34"/>
       <use xlink:href="#ArialMT-30" transform="translate(55.615234 0)"/>
       <use xlink:href="#ArialMT-30" transform="translate(111.230469 0)"/>
       <use xlink:href="#ArialMT-30" transform="translate(166.845703 0)"/>
      </g>
     </g>
    </g>
    <g id="ytick_15">
     <g id="line2d_41">
      <path d="M 57.6 41.472 
L 414.72 41.472 
" clip-path="url(#p270edeacdc)" style="fill: none; stroke: #ffffff; stroke-linecap: round"/>
     </g>
     <g id="line2d_42">
      <g>
       <use xlink:href="#m9c4a597d67" x="414.72" y="41.472" style="fill: #262626; stroke: #262626; stroke-width: 1.25"/>
      </g>
     </g>
     <g id="text_26">
      <!-- 5000 -->
      <g style="fill: #262626" transform="translate(424.22 45.408797) scale(0.11 -0.11)">
       <use xlink:href="#ArialMT-35"/>
       <use xlink:href="#ArialMT-30" transform="translate(55.615234 0)"/>
       <use xlink:href="#ArialMT-30" transform="translate(111.230469 0)"/>
       <use xlink:href="#ArialMT-30" transform="translate(166.845703 0)"/>
      </g>
     </g>
    </g>
    <g id="text_27">
     <!-- value -->
     <g style="fill: #262626" transform="translate(467.702188 188.870812) rotate(-90) scale(0.12 -0.12)">
      <use xlink:href="#ArialMT-76"/>
      <use xlink:href="#ArialMT-61" transform="translate(50 0)"/>
      <use xlink:href="#ArialMT-6c" transform="translate(105.615234 0)"/>
      <use xlink:href="#ArialMT-75" transform="translate(127.832031 0)"/>
      <use xlink:href="#ArialMT-65" transform="translate(183.447266 0)"/>
     </g>
    </g>
   </g>
   <g id="FillBetweenPolyCollection_3">
    <defs>
     <path id="m81df4096b0" d="M 73.832727 -133.593129 
L 73.832727 -133.593129 
L 77.112066 -137.636438 
L 80.391405 -139.813547 
L 83.670744 -141.179707 
L 86.950083 -142.117516 
L 90.229421 -142.801254 
L 93.50876 -143.321885 
L 96.788099 -143.731564 
L 100.067438 -144.062346 
L 103.346777 -144.335023 
L 106.626116 -144.563669 
L 109.905455 -144.758152 
L 113.184793 -144.925597 
L 116.464132 -145.071276 
L 119.743471 -145.199174 
L 123.02281 -145.312359 
L 126.302149 -145.413232 
L 129.581488 -145.503698 
L 132.860826 -145.585289 
L 136.140165 -145.659249 
L 139.419504 -145.726602 
L 142.698843 -145.788194 
L 145.978182 -145.844735 
L 149.257521 -145.896821 
L 152.53686 -145.94496 
L 155.816198 -145.989582 
L 159.095537 -146.031061 
L 162.374876 -146.069717 
L 165.654215 -146.105828 
L 168.933554 -146.139638 
L 172.212893 -146.17136 
L 175.492231 -146.201182 
L 178.77157 -146.22927 
L 182.050909 -146.255769 
L 185.330248 -146.280813 
L 188.609587 -146.304516 
L 191.888926 -146.326984 
L 195.168264 -146.348312 
L 198.447603 -146.368583 
L 201.726942 -146.387875 
L 205.006281 -146.406256 
L 208.28562 -146.42379 
L 211.564959 -146.440534 
L 214.844298 -146.45654 
L 218.123636 -146.471856 
L 221.402975 -146.486526 
L 224.682314 -146.500589 
L 227.961653 -146.514083 
L 231.240992 -146.527041 
L 234.520331 -146.539494 
L 237.799669 -146.551472 
L 241.079008 -146.563002 
L 244.358347 -146.574107 
L 247.637686 -146.584812 
L 250.917025 -146.595137 
L 254.196364 -146.605102 
L 257.475702 -146.614725 
L 260.755041 -146.624025 
L 264.03438 -146.633016 
L 267.313719 -146.641714 
L 270.593058 -146.650134 
L 273.872397 -146.658288 
L 277.151736 -146.666189 
L 280.431074 -146.673848 
L 283.710413 -146.681276 
L 286.989752 -146.688484 
L 290.269091 -146.695481 
L 293.54843 -146.702276 
L 296.827769 -146.708878 
L 300.107107 -146.715296 
L 303.386446 -146.721536 
L 306.665785 -146.727606 
L 309.945124 -146.733512 
L 313.224463 -146.739262 
L 316.503802 -146.744862 
L 319.78314 -146.750316 
L 323.062479 -146.755632 
L 326.341818 -146.760814 
L 329.621157 -146.765866 
L 332.900496 -146.770795 
L 336.179835 -146.775604 
L 339.459174 -146.780297 
L 342.738512 -146.78488 
L 346.017851 -146.789354 
L 349.29719 -146.793726 
L 352.576529 -146.797997 
L 355.855868 -146.802172 
L 359.135207 -146.806253 
L 362.414545 -146.810244 
L 365.693884 -146.814148 
L 368.973223 -146.817967 
L 372.252562 -146.821704 
L 375.531901 -146.825362 
L 378.81124 -146.828944 
L 382.090579 -146.832451 
L 385.369917 -146.835886 
L 388.649256 -146.839251 
L 391.928595 -146.842549 
L 395.207934 -146.84578 
L 398.487273 -146.848948 
L 398.487273 -146.848948 
L 398.487273 -146.848948 
L 395.207934 -146.84578 
L 391.928595 -146.842549 
L 388.649256 -146.839251 
L 385.369917 -146.835886 
L 382.090579 -146.832451 
L 378.81124 -146.828944 
L 375.531901 -146.825362 
L 372.252562 -146.821704 
L 368.973223 -146.817967 
L 365.693884 -146.814148 
L 362.414545 -146.810244 
L 359.135207 -146.806253 
L 355.855868 -146.802172 
L 352.576529 -146.797997 
L 349.29719 -146.793726 
L 346.017851 -146.789354 
L 342.738512 -146.78488 
L 339.459174 -146.780297 
L 336.179835 -146.775604 
L 332.900496 -146.770795 
L 329.621157 -146.765866 
L 326.341818 -146.760814 
L 323.062479 -146.755632 
L 319.78314 -146.750316 
L 316.503802 -146.744862 
L 313.224463 -146.739262 
L 309.945124 -146.733512 
L 306.665785 -146.727606 
L 303.386446 -146.721536 
L 300.107107 -146.715296 
L 296.827769 -146.708878 
L 293.54843 -146.702276 
L 290.269091 -146.695481 
L 286.989752 -146.688484 
L 283.710413 -146.681276 
L 280.431074 -146.673848 
L 277.151736 -146.666189 
L 273.872397 -146.658288 
L 270.593058 -146.650134 
L 267.313719 -146.641714 
L 264.03438 -146.633016 
L 260.755041 -146.624025 
L 257.475702 -146.614725 
L 254.196364 -146.605102 
L 250.917025 -146.595137 
L 247.637686 -146.584812 
L 244.358347 -146.574107 
L 241.079008 -146.563002 
L 237.799669 -146.551472 
L 234.520331 -146.539494 
L 231.240992 -146.527041 
L 227.961653 -146.514083 
L 224.682314 -146.500589 
L 221.402975 -146.486526 
L 218.123636 -146.471856 
L 214.844298 -146.45654 
L 211.564959 -146.440534 
L 208.28562 -146.42379 
L 205.006281 -146.406256 
L 201.726942 -146.387875 
L 198.447603 -146.368583 
L 195.168264 -146.348312 
L 191.888926 -146.326984 
L 188.609587 -146.304516 
L 185.330248 -146.280813 
L 182.050909 -146.255769 
L 178.77157 -146.22927 
L 175.492231 -146.201182 
L 172.212893 -146.17136 
L 168.933554 -146.139638 
L 165.654215 -146.105828 
L 162.374876 -146.069717 
L 159.095537 -146.031061 
L 155.816198 -145.989582 
L 152.53686 -145.94496 
L 149.257521 -145.896821 
L 145.978182 -145.844735 
L 142.698843 -145.788194 
L 139.419504 -145.726602 
L 136.140165 -145.659249 
L 132.860826 -145.585289 
L 129.581488 -145.503698 
L 126.302149 -145.413232 
L 123.02281 -145.312359 
L 119.743471 -145.199174 
L 116.464132 -145.071276 
L 113.184793 -144.925597 
L 109.905455 -144.758152 
L 106.626116 -144.563669 
L 103.346777 -144.335023 
L 100.067438 -144.062346 
L 96.788099 -143.731564 
L 93.50876 -143.321885 
L 90.229421 -142.801254 
L 86.950083 -142.117516 
L 83.670744 -141.179707 
L 80.391405 -139.813547 
L 77.112066 -137.636438 
L 73.832727 -133.593129 
z
" style="stroke: #4c72b0; stroke-opacity: 0.2"/>
    </defs>
    <g clip-path="url(#p270edeacdc)">
     <use xlink:href="#m81df4096b0" x="0" y="345.6" style="fill: #4c72b0; fill-opacity: 0.2; stroke: #4c72b0; stroke-opacity: 0.2"/>
    </g>
   </g>
   <g id="FillBetweenPolyCollection_4">
    <defs>
     <path id="mcb22240780" d="M 73.832727 -161.215387 
L 73.832727 -161.215387 
L 77.112066 -176.388515 
L 80.391405 -185.915844 
L 83.670744 -192.561752 
L 86.950083 -197.479575 
L 90.229421 -201.270186 
L 93.50876 -204.28267 
L 96.788099 -206.73483 
L 100.067438 -208.769905 
L 103.346777 -210.486064 
L 106.626116 -211.952872 
L 109.905455 -213.221016 
L 113.184793 -214.32831 
L 116.464132 -215.30354 
L 119.743471 -216.169006 
L 123.02281 -216.942255 
L 126.302149 -217.637281 
L 129.581488 -218.265385 
L 132.860826 -218.835787 
L 136.140165 -219.356092 
L 139.419504 -219.83262 
L 142.698843 -220.270675 
L 145.978182 -220.674734 
L 149.257521 -221.048608 
L 152.53686 -221.395557 
L 155.816198 -221.718388 
L 159.095537 -222.019533 
L 162.374876 -222.301104 
L 165.654215 -222.564951 
L 168.933554 -222.812696 
L 172.212893 -223.04577 
L 175.492231 -223.265437 
L 178.77157 -223.472822 
L 182.050909 -223.668928 
L 185.330248 -223.854651 
L 188.609587 -224.030793 
L 191.888926 -224.198077 
L 195.168264 -224.357155 
L 198.447603 -224.508617 
L 201.726942 -224.652997 
L 205.006281 -224.790779 
L 208.28562 -224.922407 
L 211.564959 -225.048283 
L 214.844298 -225.168777 
L 218.123636 -225.284226 
L 221.402975 -225.39494 
L 224.682314 -225.501206 
L 227.961653 -225.603286 
L 231.240992 -225.701422 
L 234.520331 -225.795839 
L 237.799669 -225.886744 
L 241.079008 -225.97433 
L 244.358347 -226.058775 
L 247.637686 -226.140245 
L 250.917025 -226.218894 
L 254.196364 -226.294867 
L 257.475702 -226.368298 
L 260.755041 -226.439312 
L 264.03438 -226.508027 
L 267.313719 -226.574553 
L 270.593058 -226.638992 
L 273.872397 -226.701442 
L 277.151736 -226.761992 
L 280.431074 -226.820729 
L 283.710413 -226.877733 
L 286.989752 -226.933078 
L 290.269091 -226.986838 
L 293.54843 -227.039078 
L 296.827769 -227.089862 
L 300.107107 -227.13925 
L 303.386446 -227.1873 
L 306.665785 -227.234064 
L 309.945124 -227.279594 
L 313.224463 -227.323938 
L 316.503802 -227.367141 
L 319.78314 -227.409248 
L 323.062479 -227.450299 
L 326.341818 -227.490333 
L 329.621157 -227.529388 
L 332.900496 -227.5675 
L 336.179835 -227.604701 
L 339.459174 -227.641025 
L 342.738512 -227.676502 
L 346.017851 -227.711161 
L 349.29719 -227.745031 
L 352.576529 -227.778137 
L 355.855868 -227.810506 
L 359.135207 -227.842161 
L 362.414545 -227.873127 
L 365.693884 -227.903425 
L 368.973223 -227.933077 
L 372.252562 -227.962103 
L 375.531901 -227.990523 
L 378.81124 -228.018356 
L 382.090579 -228.045619 
L 385.369917 -228.07233 
L 388.649256 -228.098506 
L 391.928595 -228.124162 
L 395.207934 -228.149314 
L 398.487273 -228.173977 
L 398.487273 -228.173977 
L 398.487273 -228.173977 
L 395.207934 -228.149314 
L 391.928595 -228.124162 
L 388.649256 -228.098506 
L 385.369917 -228.07233 
L 382.090579 -228.045619 
L 378.81124 -228.018356 
L 375.531901 -227.990523 
L 372.252562 -227.962103 
L 368.973223 -227.933077 
L 365.693884 -227.903425 
L 362.414545 -227.873127 
L 359.135207 -227.842161 
L 355.855868 -227.810506 
L 352.576529 -227.778137 
L 349.29719 -227.745031 
L 346.017851 -227.711161 
L 342.738512 -227.676502 
L 339.459174 -227.641025 
L 336.179835 -227.604701 
L 332.900496 -227.5675 
L 329.621157 -227.529388 
L 326.341818 -227.490333 
L 323.062479 -227.450299 
L 319.78314 -227.409248 
L 316.503802 -227.367141 
L 313.224463 -227.323938 
L 309.945124 -227.279594 
L 306.665785 -227.234064 
L 303.386446 -227.1873 
L 300.107107 -227.13925 
L 296.827769 -227.089862 
L 293.54843 -227.039078 
L 290.269091 -226.986838 
L 286.989752 -226.933078 
L 283.710413 -226.877733 
L 280.431074 -226.820729 
L 277.151736 -226.761992 
L 273.872397 -226.701442 
L 270.593058 -226.638992 
L 267.313719 -226.574553 
L 264.03438 -226.508027 
L 260.755041 -226.439312 
L 257.475702 -226.368298 
L 254.196364 -226.294867 
L 250.917025 -226.218894 
L 247.637686 -226.140245 
L 244.358347 -226.058775 
L 241.079008 -225.97433 
L 237.799669 -225.886744 
L 234.520331 -225.795839 
L 231.240992 -225.701422 
L 227.961653 -225.603286 
L 224.682314 -225.501206 
L 221.402975 -225.39494 
L 218.123636 -225.284226 
L 214.844298 -225.168777 
L 211.564959 -225.048283 
L 208.28562 -224.922407 
L 205.006281 -224.790779 
L 201.726942 -224.652997 
L 198.447603 -224.508617 
L 195.168264 -224.357155 
L 191.888926 -224.198077 
L 188.609587 -224.030793 
L 185.330248 -223.854651 
L 182.050909 -223.668928 
L 178.77157 -223.472822 
L 175.492231 -223.265437 
L 172.212893 -223.04577 
L 168.933554 -222.812696 
L 165.654215 -222.564951 
L 162.374876 -222.301104 
L 159.095537 -222.019533 
L 155.816198 -221.718388 
L 152.53686 -221.395557 
L 149.257521 -221.048608 
L 145.978182 -220.674734 
L 142.698843 -220.270675 
L 139.419504 -219.83262 
L 136.140165 -219.356092 
L 132.860826 -218.835787 
L 129.581488 -218.265385 
L 126.302149 -217.637281 
L 123.02281 -216.942255 
L 119.743471 -216.169006 
L 116.464132 -215.30354 
L 113.184793 -214.32831 
L 109.905455 -213.221016 
L 106.626116 -211.952872 
L 103.346777 -210.486064 
L 100.067438 -208.769905 
L 96.788099 -206.73483 
L 93.50876 -204.28267 
L 90.229421 -201.270186 
L 86.950083 -197.479575 
L 83.670744 -192.561752 
L 80.391405 -185.915844 
L 77.112066 -176.388515 
L 73.832727 -161.215387 
z
" style="stroke: #dd8452; stroke-opacity: 0.2"/>
    </defs>
    <g clip-path="url(#p270edeacdc)">
     <use xlink:href="#mcb22240780" x="0" y="345.6" style="fill: #dd8452; fill-opacity: 0.2; stroke: #dd8452; stroke-opacity: 0.2"/>
    </g>
   </g>
   <g id="line2d_43">
    <path d="M 73.832727 212.006871 
L 77.112066 207.963562 
L 80.391405 205.786453 
L 83.670744 204.420293 
L 86.950083 203.482484 
L 90.229421 202.798746 
L 93.50876 202.278115 
L 96.788099 201.868436 
L 100.067438 201.537654 
L 103.346777 201.264977 
L 106.626116 201.036331 
L 109.905455 200.841848 
L 113.184793 200.674403 
L 116.464132 200.528724 
L 119.743471 200.400826 
L 123.02281 200.287641 
L 126.302149 200.186768 
L 129.581488 200.096302 
L 132.860826 200.014711 
L 136.140165 199.940751 
L 139.419504 199.873398 
L 142.698843 199.811806 
L 145.978182 199.755265 
L 149.257521 199.703179 
L 152.53686 199.65504 
L 155.816198 199.610418 
L 159.095537 199.568939 
L 162.374876 199.530283 
L 165.654215 199.494172 
L 168.933554 199.460362 
L 172.212893 199.42864 
L 175.492231 199.398818 
L 178.77157 199.37073 
L 182.050909 199.344231 
L 185.330248 199.319187 
L 188.609587 199.295484 
L 191.888926 199.273016 
L 195.168264 199.251688 
L 198.447603 199.231417 
L 201.726942 199.212125 
L 205.006281 199.193744 
L 208.28562 199.17621 
L 211.564959 199.159466 
L 214.844298 199.14346 
L 218.123636 199.128144 
L 221.402975 199.113474 
L 224.682314 199.099411 
L 227.961653 199.085917 
L 231.240992 199.072959 
L 234.520331 199.060506 
L 237.799669 199.048528 
L 241.079008 199.036998 
L 244.358347 199.025893 
L 247.637686 199.015188 
L 250.917025 199.004863 
L 254.196364 198.994898 
L 257.475702 198.985275 
L 260.755041 198.975975 
L 264.03438 198.966984 
L 267.313719 198.958286 
L 270.593058 198.949866 
L 273.872397 198.941712 
L 277.151736 198.933811 
L 280.431074 198.926152 
L 283.710413 198.918724 
L 286.989752 198.911516 
L 290.269091 198.904519 
L 293.54843 198.897724 
L 296.827769 198.891122 
L 300.107107 198.884704 
L 303.386446 198.878464 
L 306.665785 198.872394 
L 309.945124 198.866488 
L 313.224463 198.860738 
L 316.503802 198.855138 
L 319.78314 198.849684 
L 323.062479 198.844368 
L 326.341818 198.839186 
L 329.621157 198.834134 
L 332.900496 198.829205 
L 336.179835 198.824396 
L 339.459174 198.819703 
L 342.738512 198.81512 
L 346.017851 198.810646 
L 349.29719 198.806274 
L 352.576529 198.802003 
L 355.855868 198.797828 
L 359.135207 198.793747 
L 362.414545 198.789756 
L 365.693884 198.785852 
L 368.973223 198.782033 
L 372.252562 198.778296 
L 375.531901 198.774638 
L 378.81124 198.771056 
L 382.090579 198.767549 
L 385.369917 198.764114 
L 388.649256 198.760749 
L 391.928595 198.757451 
L 395.207934 198.75422 
L 398.487273 198.751052 
" clip-path="url(#p270edeacdc)" style="fill: none; stroke: #4c72b0; stroke-width: 1.5; stroke-linecap: round"/>
   </g>
   <g id="line2d_44">
    <path d="M 73.832727 184.384613 
L 77.112066 169.211485 
L 80.391405 159.684156 
L 83.670744 153.038248 
L 86.950083 148.120425 
L 90.229421 144.329814 
L 93.50876 141.31733 
L 96.788099 138.86517 
L 100.067438 136.830095 
L 103.346777 135.113936 
L 106.626116 133.647128 
L 109.905455 132.378984 
L 113.184793 131.27169 
L 116.464132 130.29646 
L 119.743471 129.430994 
L 123.02281 128.657745 
L 126.302149 127.962719 
L 129.581488 127.334615 
L 132.860826 126.764213 
L 136.140165 126.243908 
L 139.419504 125.76738 
L 142.698843 125.329325 
L 145.978182 124.925266 
L 149.257521 124.551392 
L 152.53686 124.204443 
L 155.816198 123.881612 
L 159.095537 123.580467 
L 162.374876 123.298896 
L 165.654215 123.035049 
L 168.933554 122.787304 
L 172.212893 122.55423 
L 175.492231 122.334563 
L 178.77157 122.127178 
L 182.050909 121.931072 
L 185.330248 121.745349 
L 188.609587 121.569207 
L 191.888926 121.401923 
L 195.168264 121.242845 
L 198.447603 121.091383 
L 201.726942 120.947003 
L 205.006281 120.809221 
L 208.28562 120.677593 
L 211.564959 120.551717 
L 214.844298 120.431223 
L 218.123636 120.315774 
L 221.402975 120.20506 
L 224.682314 120.098794 
L 227.961653 119.996714 
L 231.240992 119.898578 
L 234.520331 119.804161 
L 237.799669 119.713256 
L 241.079008 119.62567 
L 244.358347 119.541225 
L 247.637686 119.459755 
L 250.917025 119.381106 
L 254.196364 119.305133 
L 257.475702 119.231702 
L 260.755041 119.160688 
L 264.03438 119.091973 
L 267.313719 119.025447 
L 270.593058 118.961008 
L 273.872397 118.898558 
L 277.151736 118.838008 
L 280.431074 118.779271 
L 283.710413 118.722267 
L 286.989752 118.666922 
L 290.269091 118.613162 
L 293.54843 118.560922 
L 296.827769 118.510138 
L 300.107107 118.46075 
L 303.386446 118.4127 
L 306.665785 118.365936 
L 309.945124 118.320406 
L 313.224463 118.276062 
L 316.503802 118.232859 
L 319.78314 118.190752 
L 323.062479 118.149701 
L 326.341818 118.109667 
L 329.621157 118.070612 
L 332.900496 118.0325 
L 336.179835 117.995299 
L 339.459174 117.958975 
L 342.738512 117.923498 
L 346.017851 117.888839 
L 349.29719 117.854969 
L 352.576529 117.821863 
L 355.855868 117.789494 
L 359.135207 117.757839 
L 362.414545 117.726873 
L 365.693884 117.696575 
L 368.973223 117.666923 
L 372.252562 117.637897 
L 375.531901 117.609477 
L 378.81124 117.581644 
L 382.090579 117.554381 
L 385.369917 117.52767 
L 388.649256 117.501494 
L 391.928595 117.475838 
L 395.207934 117.450686 
L 398.487273 117.426023 
" clip-path="url(#p270edeacdc)" style="fill: none; stroke: #dd8452; stroke-width: 1.5; stroke-linecap: round"/>
   </g>
   <g id="line2d_45"/>
   <g id="line2d_46"/>
   <g id="patch_8">
    <path d="M 57.6 307.584 
L 57.6 41.472 
" style="fill: none; stroke: #ffffff; stroke-width: 1.25; stroke-linejoin: miter; stroke-linecap: square"/>
   </g>
   <g id="patch_9">
    <path d="M 414.72 307.584 
L 414.72 41.472 
" style="fill: none; stroke: #ffffff; stroke-width: 1.25; stroke-linejoin: miter; stroke-linecap: square"/>
   </g>
   <g id="patch_10">
    <path d="M 57.6 307.584 
L 414.72 307.584 
" style="fill: none; stroke: #ffffff; stroke-width: 1.25; stroke-linejoin: miter; stroke-linecap: square"/>
   </g>
   <g id="patch_11">
    <path d="M 57.6 41.472 
L 414.72 41.472 
" style="fill: none; stroke: #ffffff; stroke-width: 1.25; stroke-linejoin: miter; stroke-linecap: square"/>
   </g>
   <g id="legend_2">
    <g id="patch_12">
     <path d="M 336.351875 97.866062 
L 407.02 97.866062 
Q 409.22 97.866062 409.22 95.666062 
L 409.22 49.172 
Q 409.22 46.972 407.02 46.972 
L 336.351875 46.972 
Q 334.151875 46.972 334.151875 49.172 
L 334.151875 95.666062 
Q 334.151875 97.866062 336.351875 97.866062 
z
" style="fill: #eaeaf2; opacity: 0.8; stroke: #cccccc; stroke-linejoin: miter"/>
    </g>
    <g id="text_28">
     <!-- class -->
     <g style="fill: #262626" transform="translate(358.01625 59.961375) scale(0.12 -0.12)">
      <use xlink:href="#ArialMT-63"/>
      <use xlink:href="#ArialMT-6c" transform="translate(50 0)"/>
      <use xlink:href="#ArialMT-61" transform="translate(72.216797 0)"/>
      <use xlink:href="#ArialMT-73" transform="translate(127.832031 0)"/>
      <use xlink:href="#ArialMT-73" transform="translate(177.832031 0)"/>
     </g>
    </g>
    <g id="line2d_47">
     <path d="M 338.551875 71.869969 
L 349.551875 71.869969 
L 360.551875 71.869969 
" style="fill: none; stroke: #4c72b0; stroke-width: 1.5; stroke-linecap: round"/>
    </g>
    <g id="text_29">
     <!-- p -->
     <g style="fill: #262626" transform="translate(369.351875 75.719969) scale(0.11 -0.11)">
      <use xlink:href="#ArialMT-70"/>
     </g>
    </g>
    <g id="line2d_48">
     <path d="M 338.551875 87.429812 
L 349.551875 87.429812 
L 360.551875 87.429812 
" style="fill: none; stroke: #dd8452; stroke-width: 1.5; stroke-linecap: round"/>
    </g>
    <g id="text_30">
     <!-- pass_p -->
     <g style="fill: #262626" transform="translate(369.351875 91.279812) scale(0.11 -0.11)">
      <use xlink:href="#ArialMT-70"/>
      <use xlink:href="#ArialMT-61" transform="translate(55.615234 0)"/>
      <use xlink:href="#ArialMT-73" transform="translate(111.230469 0)"/>
      <use xlink:href="#ArialMT-73" transform="translate(161.230469 0)"/>
      <use xlink:href="#ArialMT-5f" transform="translate(211.230469 0)"/>
      <use xlink:href="#ArialMT-70" transform="translate(266.845703 0)"/>
     </g>
    </g>
   </g>
  </g>
 </g>
 <defs>
  <clipPath id="p270edeacdc">
   <rect x="57.6" y="41.472" width="357.12" height="266.112"/>
  </clipPath>
 </defs>
</svg>
