<?xml version="1.0" encoding="utf-8" standalone="no"?>
<!DOCTYPE svg PUBLIC "-//W3C//DTD SVG 1.1//EN"
  "http://www.w3.org/Graphics/SVG/1.1/DTD/svg11.dtd">
<svg xmlns:xlink="http://www.w3.org/1999/xlink" width="432pt" height="432pt" viewBox="0 0 432 432" xmlns="http://www.w3.org/2000/svg" version="1.1">
 <metadata>
  <rdf:RDF xmlns:dc="http://purl.org/dc/elements/1.1/" xmlns:cc="http://creativecommons.org/ns#" xmlns:rdf="http://www.w3.org/1999/02/22-rdf-syntax-ns#">
   <cc:Work>
    <dc:type rdf:resource="http://purl.org/dc/dcmitype/StillImage"/>
    <dc:date>2025-01-17T16:26:59.430559</dc:date>
    <dc:format>image/svg+xml</dc:format>
    <dc:creator>
     <cc:Agent>
      <dc:title>Matplotlib v3.10.0, https://matplotlib.org/</dc:title>
     </cc:Agent>
    </dc:creator>
   </cc:Work>
  </rdf:RDF>
 </metadata>
 <defs>
  <style type="text/css">*{stroke-linejoin: round; stroke-linecap: butt}</style>
 </defs>
 <g id="figure_1">
  <g id="patch_1">
   <path d="M 0 432 
L 432 432 
L 432 0 
L 0 0 
z
" style="fill: #ffffff"/>
  </g>
  <g id="axes_1">
   <g id="patch_2">
    <path d="M 54 384.48 
L 388.8 384.48 
L 388.8 51.84 
L 54 51.84 
z
" style="fill: #ffffff"/>
   </g>
   <g id="matplotlib.axis_1">
    <g id="xtick_1">
     <g id="line2d_1">
      <defs>
       <path id="mee0565f843" d="M 0 0 
L 0 6 
" style="stroke: #262626; stroke-width: 1.25"/>
      </defs>
      <g>
       <use xlink:href="#mee0565f843" x="93.914779" y="384.48" style="fill: #262626; stroke: #262626; stroke-width: 1.25"/>
      </g>
     </g>
     <g id="text_1">
      <!-- 0.0 -->
      <g style="fill: #262626" transform="translate(86.269779 401.853594) scale(0.11 -0.11)">
       <defs>
        <path id="ArialMT-30" d="M 266 2259 
Q 266 3072 433 3567 
Q 600 4063 929 4331 
Q 1259 4600 1759 4600 
Q 2128 4600 2406 4451 
Q 2684 4303 2865 4023 
Q 3047 3744 3150 3342 
Q 3253 2941 3253 2259 
Q 3253 1453 3087 958 
Q 2922 463 2592 192 
Q 2263 -78 1759 -78 
Q 1097 -78 719 397 
Q 266 969 266 2259 
z
M 844 2259 
Q 844 1131 1108 757 
Q 1372 384 1759 384 
Q 2147 384 2411 759 
Q 2675 1134 2675 2259 
Q 2675 3391 2411 3762 
Q 2147 4134 1753 4134 
Q 1366 4134 1134 3806 
Q 844 3388 844 2259 
z
" transform="scale(0.015625)"/>
        <path id="ArialMT-2e" d="M 581 0 
L 581 641 
L 1222 641 
L 1222 0 
L 581 0 
z
" transform="scale(0.015625)"/>
       </defs>
       <use xlink:href="#ArialMT-30"/>
       <use xlink:href="#ArialMT-2e" transform="translate(55.615234 0)"/>
       <use xlink:href="#ArialMT-30" transform="translate(83.398438 0)"/>
      </g>
     </g>
    </g>
    <g id="xtick_2">
     <g id="line2d_2">
      <g>
       <use xlink:href="#mee0565f843" x="154.509304" y="384.48" style="fill: #262626; stroke: #262626; stroke-width: 1.25"/>
      </g>
     </g>
     <g id="text_2">
      <!-- 0.2 -->
      <g style="fill: #262626" transform="translate(146.864304 401.853594) scale(0.11 -0.11)">
       <defs>
        <path id="ArialMT-32" d="M 3222 541 
L 3222 0 
L 194 0 
Q 188 203 259 391 
Q 375 700 629 1000 
Q 884 1300 1366 1694 
Q 2113 2306 2375 2664 
Q 2638 3022 2638 3341 
Q 2638 3675 2398 3904 
Q 2159 4134 1775 4134 
Q 1369 4134 1125 3890 
Q 881 3647 878 3216 
L 300 3275 
Q 359 3922 746 4261 
Q 1134 4600 1788 4600 
Q 2447 4600 2831 4234 
Q 3216 3869 3216 3328 
Q 3216 3053 3103 2787 
Q 2991 2522 2730 2228 
Q 2469 1934 1863 1422 
Q 1356 997 1212 845 
Q 1069 694 975 541 
L 3222 541 
z
" transform="scale(0.015625)"/>
       </defs>
       <use xlink:href="#ArialMT-30"/>
       <use xlink:href="#ArialMT-2e" transform="translate(55.615234 0)"/>
       <use xlink:href="#ArialMT-32" transform="translate(83.398438 0)"/>
      </g>
     </g>
    </g>
    <g id="xtick_3">
     <g id="line2d_3">
      <g>
       <use xlink:href="#mee0565f843" x="215.103829" y="384.48" style="fill: #262626; stroke: #262626; stroke-width: 1.25"/>
      </g>
     </g>
     <g id="text_3">
      <!-- 0.4 -->
      <g style="fill: #262626" transform="translate(207.458829 401.853594) scale(0.11 -0.11)">
       <defs>
        <path id="ArialMT-34" d="M 2069 0 
L 2069 1097 
L 81 1097 
L 81 1613 
L 2172 4581 
L 2631 4581 
L 2631 1613 
L 3250 1613 
L 3250 1097 
L 2631 1097 
L 2631 0 
L 2069 0 
z
M 2069 1613 
L 2069 3678 
L 634 1613 
L 2069 1613 
z
" transform="scale(0.015625)"/>
       </defs>
       <use xlink:href="#ArialMT-30"/>
       <use xlink:href="#ArialMT-2e" transform="translate(55.615234 0)"/>
       <use xlink:href="#ArialMT-34" transform="translate(83.398438 0)"/>
      </g>
     </g>
    </g>
    <g id="xtick_4">
     <g id="line2d_4">
      <g>
       <use xlink:href="#mee0565f843" x="275.698355" y="384.48" style="fill: #262626; stroke: #262626; stroke-width: 1.25"/>
      </g>
     </g>
     <g id="text_4">
      <!-- 0.6 -->
      <g style="fill: #262626" transform="translate(268.053355 401.853594) scale(0.11 -0.11)">
       <defs>
        <path id="ArialMT-36" d="M 3184 3459 
L 2625 3416 
Q 2550 3747 2413 3897 
Q 2184 4138 1850 4138 
Q 1581 4138 1378 3988 
Q 1113 3794 959 3422 
Q 806 3050 800 2363 
Q 1003 2672 1297 2822 
Q 1591 2972 1913 2972 
Q 2475 2972 2870 2558 
Q 3266 2144 3266 1488 
Q 3266 1056 3080 686 
Q 2894 316 2569 119 
Q 2244 -78 1831 -78 
Q 1128 -78 684 439 
Q 241 956 241 2144 
Q 241 3472 731 4075 
Q 1159 4600 1884 4600 
Q 2425 4600 2770 4297 
Q 3116 3994 3184 3459 
z
M 888 1484 
Q 888 1194 1011 928 
Q 1134 663 1356 523 
Q 1578 384 1822 384 
Q 2178 384 2434 671 
Q 2691 959 2691 1453 
Q 2691 1928 2437 2201 
Q 2184 2475 1800 2475 
Q 1419 2475 1153 2201 
Q 888 1928 888 1484 
z
" transform="scale(0.015625)"/>
       </defs>
       <use xlink:href="#ArialMT-30"/>
       <use xlink:href="#ArialMT-2e" transform="translate(55.615234 0)"/>
       <use xlink:href="#ArialMT-36" transform="translate(83.398438 0)"/>
      </g>
     </g>
    </g>
    <g id="xtick_5">
     <g id="line2d_5">
      <g>
       <use xlink:href="#mee0565f843" x="336.29288" y="384.48" style="fill: #262626; stroke: #262626; stroke-width: 1.25"/>
      </g>
     </g>
     <g id="text_5">
      <!-- 0.8 -->
      <g style="fill: #262626" transform="translate(328.64788 401.853594) scale(0.11 -0.11)">
       <defs>
        <path id="ArialMT-38" d="M 1131 2484 
Q 781 2613 612 2850 
Q 444 3088 444 3419 
Q 444 3919 803 4259 
Q 1163 4600 1759 4600 
Q 2359 4600 2725 4251 
Q 3091 3903 3091 3403 
Q 3091 3084 2923 2848 
Q 2756 2613 2416 2484 
Q 2838 2347 3058 2040 
Q 3278 1734 3278 1309 
Q 3278 722 2862 322 
Q 2447 -78 1769 -78 
Q 1091 -78 675 323 
Q 259 725 259 1325 
Q 259 1772 486 2073 
Q 713 2375 1131 2484 
z
M 1019 3438 
Q 1019 3113 1228 2906 
Q 1438 2700 1772 2700 
Q 2097 2700 2305 2904 
Q 2513 3109 2513 3406 
Q 2513 3716 2298 3927 
Q 2084 4138 1766 4138 
Q 1444 4138 1231 3931 
Q 1019 3725 1019 3438 
z
M 838 1322 
Q 838 1081 952 856 
Q 1066 631 1291 507 
Q 1516 384 1775 384 
Q 2178 384 2440 643 
Q 2703 903 2703 1303 
Q 2703 1709 2433 1975 
Q 2163 2241 1756 2241 
Q 1359 2241 1098 1978 
Q 838 1716 838 1322 
z
" transform="scale(0.015625)"/>
       </defs>
       <use xlink:href="#ArialMT-30"/>
       <use xlink:href="#ArialMT-2e" transform="translate(55.615234 0)"/>
       <use xlink:href="#ArialMT-38" transform="translate(83.398438 0)"/>
      </g>
     </g>
    </g>
   </g>
   <g id="matplotlib.axis_2">
    <g id="ytick_1">
     <g id="line2d_6">
      <defs>
       <path id="me34da5d471" d="M 0 0 
L -6 0 
" style="stroke: #262626; stroke-width: 1.25"/>
      </defs>
      <g>
       <use xlink:href="#me34da5d471" x="54" y="383.76" style="fill: #262626; stroke: #262626; stroke-width: 1.25"/>
      </g>
     </g>
     <g id="text_6">
      <!-- 0 -->
      <g style="fill: #262626" transform="translate(38.382969 387.696797) scale(0.11 -0.11)">
       <use xlink:href="#ArialMT-30"/>
      </g>
     </g>
    </g>
    <g id="ytick_2">
     <g id="line2d_7">
      <g>
       <use xlink:href="#me34da5d471" x="54" y="343.76" style="fill: #262626; stroke: #262626; stroke-width: 1.25"/>
      </g>
     </g>
     <g id="text_7">
      <!-- 250 -->
      <g style="fill: #262626" transform="translate(26.148906 347.696797) scale(0.11 -0.11)">
       <defs>
        <path id="ArialMT-35" d="M 266 1200 
L 856 1250 
Q 922 819 1161 601 
Q 1400 384 1738 384 
Q 2144 384 2425 690 
Q 2706 997 2706 1503 
Q 2706 1984 2436 2262 
Q 2166 2541 1728 2541 
Q 1456 2541 1237 2417 
Q 1019 2294 894 2097 
L 366 2166 
L 809 4519 
L 3088 4519 
L 3088 3981 
L 1259 3981 
L 1013 2750 
Q 1425 3038 1878 3038 
Q 2478 3038 2890 2622 
Q 3303 2206 3303 1553 
Q 3303 931 2941 478 
Q 2500 -78 1738 -78 
Q 1113 -78 717 272 
Q 322 622 266 1200 
z
" transform="scale(0.015625)"/>
       </defs>
       <use xlink:href="#ArialMT-32"/>
       <use xlink:href="#ArialMT-35" transform="translate(55.615234 0)"/>
       <use xlink:href="#ArialMT-30" transform="translate(111.230469 0)"/>
      </g>
     </g>
    </g>
    <g id="ytick_3">
     <g id="line2d_8">
      <g>
       <use xlink:href="#me34da5d471" x="54" y="303.76" style="fill: #262626; stroke: #262626; stroke-width: 1.25"/>
      </g>
     </g>
     <g id="text_8">
      <!-- 500 -->
      <g style="fill: #262626" transform="translate(26.148906 307.696797) scale(0.11 -0.11)">
       <use xlink:href="#ArialMT-35"/>
       <use xlink:href="#ArialMT-30" transform="translate(55.615234 0)"/>
       <use xlink:href="#ArialMT-30" transform="translate(111.230469 0)"/>
      </g>
     </g>
    </g>
    <g id="ytick_4">
     <g id="line2d_9">
      <g>
       <use xlink:href="#me34da5d471" x="54" y="263.76" style="fill: #262626; stroke: #262626; stroke-width: 1.25"/>
      </g>
     </g>
     <g id="text_9">
      <!-- 750 -->
      <g style="fill: #262626" transform="translate(26.148906 267.696797) scale(0.11 -0.11)">
       <defs>
        <path id="ArialMT-37" d="M 303 3981 
L 303 4522 
L 3269 4522 
L 3269 4084 
Q 2831 3619 2401 2847 
Q 1972 2075 1738 1259 
Q 1569 684 1522 0 
L 944 0 
Q 953 541 1156 1306 
Q 1359 2072 1739 2783 
Q 2119 3494 2547 3981 
L 303 3981 
z
" transform="scale(0.015625)"/>
       </defs>
       <use xlink:href="#ArialMT-37"/>
       <use xlink:href="#ArialMT-35" transform="translate(55.615234 0)"/>
       <use xlink:href="#ArialMT-30" transform="translate(111.230469 0)"/>
      </g>
     </g>
    </g>
    <g id="ytick_5">
     <g id="line2d_10">
      <g>
       <use xlink:href="#me34da5d471" x="54" y="223.76" style="fill: #262626; stroke: #262626; stroke-width: 1.25"/>
      </g>
     </g>
     <g id="text_10">
      <!-- 1000 -->
      <g style="fill: #262626" transform="translate(20.031875 227.696797) scale(0.11 -0.11)">
       <defs>
        <path id="ArialMT-31" d="M 2384 0 
L 1822 0 
L 1822 3584 
Q 1619 3391 1289 3197 
Q 959 3003 697 2906 
L 697 3450 
Q 1169 3672 1522 3987 
Q 1875 4303 2022 4600 
L 2384 4600 
L 2384 0 
z
" transform="scale(0.015625)"/>
       </defs>
       <use xlink:href="#ArialMT-31"/>
       <use xlink:href="#ArialMT-30" transform="translate(55.615234 0)"/>
       <use xlink:href="#ArialMT-30" transform="translate(111.230469 0)"/>
       <use xlink:href="#ArialMT-30" transform="translate(166.845703 0)"/>
      </g>
     </g>
    </g>
    <g id="ytick_6">
     <g id="line2d_11">
      <g>
       <use xlink:href="#me34da5d471" x="54" y="183.76" style="fill: #262626; stroke: #262626; stroke-width: 1.25"/>
      </g>
     </g>
     <g id="text_11">
      <!-- 1250 -->
      <g style="fill: #262626" transform="translate(20.031875 187.696797) scale(0.11 -0.11)">
       <use xlink:href="#ArialMT-31"/>
       <use xlink:href="#ArialMT-32" transform="translate(55.615234 0)"/>
       <use xlink:href="#ArialMT-35" transform="translate(111.230469 0)"/>
       <use xlink:href="#ArialMT-30" transform="translate(166.845703 0)"/>
      </g>
     </g>
    </g>
    <g id="ytick_7">
     <g id="line2d_12">
      <g>
       <use xlink:href="#me34da5d471" x="54" y="143.76" style="fill: #262626; stroke: #262626; stroke-width: 1.25"/>
      </g>
     </g>
     <g id="text_12">
      <!-- 1500 -->
      <g style="fill: #262626" transform="translate(20.031875 147.696797) scale(0.11 -0.11)">
       <use xlink:href="#ArialMT-31"/>
       <use xlink:href="#ArialMT-35" transform="translate(55.615234 0)"/>
       <use xlink:href="#ArialMT-30" transform="translate(111.230469 0)"/>
       <use xlink:href="#ArialMT-30" transform="translate(166.845703 0)"/>
      </g>
     </g>
    </g>
    <g id="ytick_8">
     <g id="line2d_13">
      <g>
       <use xlink:href="#me34da5d471" x="54" y="103.76" style="fill: #262626; stroke: #262626; stroke-width: 1.25"/>
      </g>
     </g>
     <g id="text_13">
      <!-- 1750 -->
      <g style="fill: #262626" transform="translate(20.031875 107.696797) scale(0.11 -0.11)">
       <use xlink:href="#ArialMT-31"/>
       <use xlink:href="#ArialMT-37" transform="translate(55.615234 0)"/>
       <use xlink:href="#ArialMT-35" transform="translate(111.230469 0)"/>
       <use xlink:href="#ArialMT-30" transform="translate(166.845703 0)"/>
      </g>
     </g>
    </g>
    <g id="ytick_9">
     <g id="line2d_14">
      <g>
       <use xlink:href="#me34da5d471" x="54" y="63.76" style="fill: #262626; stroke: #262626; stroke-width: 1.25"/>
      </g>
     </g>
     <g id="text_14">
      <!-- 2000 -->
      <g style="fill: #262626" transform="translate(20.031875 67.696797) scale(0.11 -0.11)">
       <use xlink:href="#ArialMT-32"/>
       <use xlink:href="#ArialMT-30" transform="translate(55.615234 0)"/>
       <use xlink:href="#ArialMT-30" transform="translate(111.230469 0)"/>
       <use xlink:href="#ArialMT-30" transform="translate(166.845703 0)"/>
      </g>
     </g>
    </g>
   </g>
   <g id="patch_3">
    <path d="M 271.38817 246.604149 
C 299.256605 212.57685 322.93734 176.214557 337.21497 145.525644 
C 351.4926 114.836731 355.201418 92.326811 347.5246 82.953433 
C 339.847782 73.580055 321.412107 78.108514 296.277818 95.541469 
C 271.143529 112.974424 241.362729 141.888552 213.494294 175.915851 
C 185.625859 209.94315 161.945124 246.305443 147.667494 276.994356 
C 133.389865 307.683269 129.681047 330.193189 137.357864 339.566567 
C 145.034682 348.939945 163.470357 344.411486 188.604646 326.978531 
C 213.738935 309.545576 243.519735 280.631448 271.38817 246.604149 
z
" clip-path="url(#p1622007c88)" style="fill: #eeae53; opacity: 0.5; stroke: #eeae53; stroke-linejoin: miter"/>
   </g>
   <g id="PathCollection_1">
    <defs>
     <path id="C0_0_90aab6480c" d="M 0 1.581139 
C 0.419323 1.581139 0.821528 1.41454 1.118034 1.118034 
C 1.41454 0.821528 1.581139 0.419323 1.581139 -0 
C 1.581139 -0.419323 1.41454 -0.821528 1.118034 -1.118034 
C 0.821528 -1.41454 0.419323 -1.581139 0 -1.581139 
C -0.419323 -1.581139 -0.821528 -1.41454 -1.118034 -1.118034 
C -1.41454 -0.821528 -1.581139 -0.419323 -1.581139 0 
C -1.581139 0.419323 -1.41454 0.821528 -1.118034 1.118034 
C -0.821528 1.41454 -0.419323 1.581139 0 1.581139 
z
"/>
    </defs>
    <g clip-path="url(#p1622007c88)">
     <use xlink:href="#C0_0_90aab6480c" x="149.000711" y="321.36" style="fill: #eeae53; stroke: #eeae53"/>
    </g>
    <g clip-path="url(#p1622007c88)">
     <use xlink:href="#C0_0_90aab6480c" x="144.410217" y="311.76" style="fill: #eeae53; stroke: #eeae53"/>
    </g>
    <g clip-path="url(#p1622007c88)">
     <use xlink:href="#C0_0_90aab6480c" x="215.103829" y="306.96" style="fill: #eeae53; stroke: #eeae53"/>
    </g>
    <g clip-path="url(#p1622007c88)">
     <use xlink:href="#C0_0_90aab6480c" x="140.525952" y="302.16" style="fill: #eeae53; stroke: #eeae53"/>
    </g>
    <g clip-path="url(#p1622007c88)">
     <use xlink:href="#C0_0_90aab6480c" x="121.457745" y="282.96" style="fill: #eeae53; stroke: #eeae53"/>
    </g>
    <g clip-path="url(#p1622007c88)">
     <use xlink:href="#C0_0_90aab6480c" x="202.119288" y="273.36" style="fill: #eeae53; stroke: #eeae53"/>
    </g>
    <g clip-path="url(#p1622007c88)">
     <use xlink:href="#C0_0_90aab6480c" x="245.401092" y="268.56" style="fill: #eeae53; stroke: #eeae53"/>
    </g>
    <g clip-path="url(#p1622007c88)">
     <use xlink:href="#C0_0_90aab6480c" x="259.172575" y="239.76" style="fill: #eeae53; stroke: #eeae53"/>
    </g>
    <g clip-path="url(#p1622007c88)">
     <use xlink:href="#C0_0_90aab6480c" x="286.715541" y="225.36" style="fill: #eeae53; stroke: #eeae53"/>
    </g>
    <g clip-path="url(#p1622007c88)">
     <use xlink:href="#C0_0_90aab6480c" x="286.715541" y="162.96" style="fill: #eeae53; stroke: #eeae53"/>
    </g>
    <g clip-path="url(#p1622007c88)">
     <use xlink:href="#C0_0_90aab6480c" x="280.359472" y="158.16" style="fill: #eeae53; stroke: #eeae53"/>
    </g>
    <g clip-path="url(#p1622007c88)">
     <use xlink:href="#C0_0_90aab6480c" x="286.715541" y="153.36" style="fill: #eeae53; stroke: #eeae53"/>
    </g>
    <g clip-path="url(#p1622007c88)">
     <use xlink:href="#C0_0_90aab6480c" x="275.698355" y="110.16" style="fill: #eeae53; stroke: #eeae53"/>
    </g>
    <g clip-path="url(#p1622007c88)">
     <use xlink:href="#C0_0_90aab6480c" x="369.344439" y="100.56" style="fill: #eeae53; stroke: #eeae53"/>
    </g>
    <g clip-path="url(#p1622007c88)">
     <use xlink:href="#C0_0_90aab6480c" x="310.323797" y="95.76" style="fill: #eeae53; stroke: #eeae53"/>
    </g>
    <g clip-path="url(#p1622007c88)">
     <use xlink:href="#C0_0_90aab6480c" x="305.995617" y="66.96" style="fill: #eeae53; stroke: #eeae53"/>
    </g>
   </g>
   <g id="patch_4">
    <path d="M 259.86269 240.335179 
C 287.971189 206.659021 312.75174 171.745233 328.746714 143.283172 
C 344.741688 114.82111 350.645167 95.134576 345.156977 88.5593 
C 339.668787 81.984024 323.237016 89.056848 299.480569 108.220065 
C 275.724123 127.383282 246.58261 157.0723 218.474111 190.748458 
C 190.365612 224.424615 165.585061 259.338403 149.590087 287.800465 
C 133.595113 316.262526 127.691635 335.94906 133.179824 342.524336 
C 138.668014 349.099612 155.099786 342.026788 178.856232 322.863571 
C 202.612678 303.700354 231.754191 274.011336 259.86269 240.335179 
z
" clip-path="url(#p1622007c88)" style="fill: #c76a72; opacity: 0.5; stroke: #c76a72; stroke-linejoin: miter"/>
   </g>
   <g id="PathCollection_2">
    <defs>
     <path id="C1_0_a94eee3b6b" d="M 0 1.581139 
C 0.419323 1.581139 0.821528 1.41454 1.118034 1.118034 
C 1.41454 0.821528 1.581139 0.419323 1.581139 -0 
C 1.581139 -0.419323 1.41454 -0.821528 1.118034 -1.118034 
C 0.821528 -1.41454 0.419323 -1.581139 0 -1.581139 
C -0.419323 -1.581139 -0.821528 -1.41454 -1.118034 -1.118034 
C -1.41454 -0.821528 -1.581139 -0.419323 -1.581139 0 
C -1.581139 0.419323 -1.41454 0.821528 -1.118034 1.118034 
C -0.821528 1.41454 -0.419323 1.581139 0 1.581139 
z
"/>
    </defs>
    <g clip-path="url(#p1622007c88)">
     <use xlink:href="#C1_0_a94eee3b6b" x="117.220366" y="330.96" style="fill: #c76a72; stroke: #c76a72"/>
    </g>
    <g clip-path="url(#p1622007c88)">
     <use xlink:href="#C1_0_a94eee3b6b" x="150.722147" y="321.36" style="fill: #c76a72; stroke: #c76a72"/>
    </g>
    <g clip-path="url(#p1622007c88)">
     <use xlink:href="#C1_0_a94eee3b6b" x="147.380537" y="316.56" style="fill: #c76a72; stroke: #c76a72"/>
    </g>
    <g clip-path="url(#p1622007c88)">
     <use xlink:href="#C1_0_a94eee3b6b" x="204.086643" y="311.76" style="fill: #c76a72; stroke: #c76a72"/>
    </g>
    <g clip-path="url(#p1622007c88)">
     <use xlink:href="#C1_0_a94eee3b6b" x="144.410217" y="306.96" style="fill: #c76a72; stroke: #c76a72"/>
    </g>
    <g clip-path="url(#p1622007c88)">
     <use xlink:href="#C1_0_a94eee3b6b" x="149.000711" y="297.36" style="fill: #c76a72; stroke: #c76a72"/>
    </g>
    <g clip-path="url(#p1622007c88)">
     <use xlink:href="#C1_0_a94eee3b6b" x="199.955198" y="287.76" style="fill: #c76a72; stroke: #c76a72"/>
    </g>
    <g clip-path="url(#p1622007c88)">
     <use xlink:href="#C1_0_a94eee3b6b" x="231.629609" y="282.96" style="fill: #c76a72; stroke: #c76a72"/>
    </g>
    <g clip-path="url(#p1622007c88)">
     <use xlink:href="#C1_0_a94eee3b6b" x="204.086643" y="263.76" style="fill: #c76a72; stroke: #c76a72"/>
    </g>
    <g clip-path="url(#p1622007c88)">
     <use xlink:href="#C1_0_a94eee3b6b" x="233.748299" y="249.36" style="fill: #c76a72; stroke: #c76a72"/>
    </g>
    <g clip-path="url(#p1622007c88)">
     <use xlink:href="#C1_0_a94eee3b6b" x="184.806567" y="244.56" style="fill: #c76a72; stroke: #c76a72"/>
    </g>
    <g clip-path="url(#p1622007c88)">
     <use xlink:href="#C1_0_a94eee3b6b" x="259.172575" y="196.56" style="fill: #c76a72; stroke: #c76a72"/>
    </g>
    <g clip-path="url(#p1622007c88)">
     <use xlink:href="#C1_0_a94eee3b6b" x="295.89653" y="191.76" style="fill: #c76a72; stroke: #c76a72"/>
    </g>
    <g clip-path="url(#p1622007c88)">
     <use xlink:href="#C1_0_a94eee3b6b" x="255.50018" y="186.96" style="fill: #c76a72; stroke: #c76a72"/>
    </g>
    <g clip-path="url(#p1622007c88)">
     <use xlink:href="#C1_0_a94eee3b6b" x="275.698355" y="172.56" style="fill: #c76a72; stroke: #c76a72"/>
    </g>
    <g clip-path="url(#p1622007c88)">
     <use xlink:href="#C1_0_a94eee3b6b" x="270.648811" y="148.56" style="fill: #c76a72; stroke: #c76a72"/>
    </g>
    <g clip-path="url(#p1622007c88)">
     <use xlink:href="#C1_0_a94eee3b6b" x="336.29288" y="138.96" style="fill: #c76a72; stroke: #c76a72"/>
    </g>
    <g clip-path="url(#p1622007c88)">
     <use xlink:href="#C1_0_a94eee3b6b" x="295.89653" y="114.96" style="fill: #c76a72; stroke: #c76a72"/>
    </g>
    <g clip-path="url(#p1622007c88)">
     <use xlink:href="#C1_0_a94eee3b6b" x="336.29288" y="110.16" style="fill: #c76a72; stroke: #c76a72"/>
    </g>
    <g clip-path="url(#p1622007c88)">
     <use xlink:href="#C1_0_a94eee3b6b" x="275.698355" y="100.56" style="fill: #c76a72; stroke: #c76a72"/>
    </g>
    <g clip-path="url(#p1622007c88)">
     <use xlink:href="#C1_0_a94eee3b6b" x="326.970645" y="86.16" style="fill: #c76a72; stroke: #c76a72"/>
    </g>
    <g clip-path="url(#p1622007c88)">
     <use xlink:href="#C1_0_a94eee3b6b" x="366.590142" y="81.36" style="fill: #c76a72; stroke: #c76a72"/>
    </g>
   </g>
   <g id="patch_5">
    <path d="M 264.350838 294.30059 
C 294.027464 270.962694 319.586405 246.292058 335.398599 225.722104 
C 351.210794 205.15215 355.985248 190.362323 348.670442 184.609911 
C 341.355637 178.857499 322.548794 182.612161 296.391902 195.046977 
C 270.23501 207.481792 238.863663 227.581513 209.187038 250.91941 
C 179.510412 274.257306 153.951471 298.927942 138.139277 319.497896 
C 122.327082 340.06785 117.552628 354.857677 124.867434 360.610089 
C 132.182239 366.362501 150.989082 362.607839 177.145974 350.173023 
C 203.302866 337.738208 234.674213 317.638487 264.350838 294.30059 
z
" clip-path="url(#p1622007c88)" style="fill: #954987; opacity: 0.5; stroke: #954987; stroke-linejoin: miter"/>
   </g>
   <g id="PathCollection_3">
    <defs>
     <path id="C2_0_b5c932c276" d="M 0 1.581139 
C 0.419323 1.581139 0.821528 1.41454 1.118034 1.118034 
C 1.41454 0.821528 1.581139 0.419323 1.581139 -0 
C 1.581139 -0.419323 1.41454 -0.821528 1.118034 -1.118034 
C 0.821528 -1.41454 0.419323 -1.581139 0 -1.581139 
C -0.419323 -1.581139 -0.821528 -1.41454 -1.118034 -1.118034 
C -1.41454 -0.821528 -1.581139 -0.419323 -1.581139 0 
C -1.581139 0.419323 -1.41454 0.821528 -1.118034 1.118034 
C -0.821528 1.41454 -0.419323 1.581139 0 1.581139 
z
"/>
    </defs>
    <g clip-path="url(#p1622007c88)">
     <use xlink:href="#C2_0_b5c932c276" x="93.914779" y="364.56" style="fill: #954987; stroke: #954987"/>
    </g>
    <g clip-path="url(#p1622007c88)">
     <use xlink:href="#C2_0_b5c932c276" x="93.914779" y="354.96" style="fill: #954987; stroke: #954987"/>
    </g>
    <g clip-path="url(#p1622007c88)">
     <use xlink:href="#C2_0_b5c932c276" x="127.578404" y="350.16" style="fill: #954987; stroke: #954987"/>
    </g>
    <g clip-path="url(#p1622007c88)">
     <use xlink:href="#C2_0_b5c932c276" x="161.242029" y="345.36" style="fill: #954987; stroke: #954987"/>
    </g>
    <g clip-path="url(#p1622007c88)">
     <use xlink:href="#C2_0_b5c932c276" x="149.000711" y="340.56" style="fill: #954987; stroke: #954987"/>
    </g>
    <g clip-path="url(#p1622007c88)">
     <use xlink:href="#C2_0_b5c932c276" x="211.737467" y="335.76" style="fill: #954987; stroke: #954987"/>
    </g>
    <g clip-path="url(#p1622007c88)">
     <use xlink:href="#C2_0_b5c932c276" x="178.073842" y="330.96" style="fill: #954987; stroke: #954987"/>
    </g>
    <g clip-path="url(#p1622007c88)">
     <use xlink:href="#C2_0_b5c932c276" x="178.747114" y="326.16" style="fill: #954987; stroke: #954987"/>
    </g>
    <g clip-path="url(#p1622007c88)">
     <use xlink:href="#C2_0_b5c932c276" x="184.806567" y="321.36" style="fill: #954987; stroke: #954987"/>
    </g>
    <g clip-path="url(#p1622007c88)">
     <use xlink:href="#C2_0_b5c932c276" x="220.153373" y="316.56" style="fill: #954987; stroke: #954987"/>
    </g>
    <g clip-path="url(#p1622007c88)">
     <use xlink:href="#C2_0_b5c932c276" x="183.024375" y="311.76" style="fill: #954987; stroke: #954987"/>
    </g>
    <g clip-path="url(#p1622007c88)">
     <use xlink:href="#C2_0_b5c932c276" x="183.024375" y="306.96" style="fill: #954987; stroke: #954987"/>
    </g>
    <g clip-path="url(#p1622007c88)">
     <use xlink:href="#C2_0_b5c932c276" x="235.302004" y="302.16" style="fill: #954987; stroke: #954987"/>
    </g>
    <g clip-path="url(#p1622007c88)">
     <use xlink:href="#C2_0_b5c932c276" x="149.000711" y="297.36" style="fill: #954987; stroke: #954987"/>
    </g>
    <g clip-path="url(#p1622007c88)">
     <use xlink:href="#C2_0_b5c932c276" x="257.053885" y="287.76" style="fill: #954987; stroke: #954987"/>
    </g>
    <g clip-path="url(#p1622007c88)">
     <use xlink:href="#C2_0_b5c932c276" x="295.89653" y="278.16" style="fill: #954987; stroke: #954987"/>
    </g>
    <g clip-path="url(#p1622007c88)">
     <use xlink:href="#C2_0_b5c932c276" x="211.737467" y="273.36" style="fill: #954987; stroke: #954987"/>
    </g>
    <g clip-path="url(#p1622007c88)">
     <use xlink:href="#C2_0_b5c932c276" x="267.041994" y="268.56" style="fill: #954987; stroke: #954987"/>
    </g>
    <g clip-path="url(#p1622007c88)">
     <use xlink:href="#C2_0_b5c932c276" x="237.428128" y="263.76" style="fill: #954987; stroke: #954987"/>
    </g>
    <g clip-path="url(#p1622007c88)">
     <use xlink:href="#C2_0_b5c932c276" x="317.157766" y="258.96" style="fill: #954987; stroke: #954987"/>
    </g>
    <g clip-path="url(#p1622007c88)">
     <use xlink:href="#C2_0_b5c932c276" x="341.801473" y="249.36" style="fill: #954987; stroke: #954987"/>
    </g>
    <g clip-path="url(#p1622007c88)">
     <use xlink:href="#C2_0_b5c932c276" x="245.401092" y="244.56" style="fill: #954987; stroke: #954987"/>
    </g>
    <g clip-path="url(#p1622007c88)">
     <use xlink:href="#C2_0_b5c932c276" x="267.041994" y="239.76" style="fill: #954987; stroke: #954987"/>
    </g>
    <g clip-path="url(#p1622007c88)">
     <use xlink:href="#C2_0_b5c932c276" x="253.374056" y="234.96" style="fill: #954987; stroke: #954987"/>
    </g>
    <g clip-path="url(#p1622007c88)">
     <use xlink:href="#C2_0_b5c932c276" x="218.668213" y="220.56" style="fill: #954987; stroke: #954987"/>
    </g>
    <g clip-path="url(#p1622007c88)">
     <use xlink:href="#C2_0_b5c932c276" x="289.95589" y="215.76" style="fill: #954987; stroke: #954987"/>
    </g>
    <g clip-path="url(#p1622007c88)">
     <use xlink:href="#C2_0_b5c932c276" x="303.110164" y="206.16" style="fill: #954987; stroke: #954987"/>
    </g>
    <g clip-path="url(#p1622007c88)">
     <use xlink:href="#C2_0_b5c932c276" x="336.29288" y="201.36" style="fill: #954987; stroke: #954987"/>
    </g>
    <g clip-path="url(#p1622007c88)">
     <use xlink:href="#C2_0_b5c932c276" x="305.995617" y="186.96" style="fill: #954987; stroke: #954987"/>
    </g>
    <g clip-path="url(#p1622007c88)">
     <use xlink:href="#C2_0_b5c932c276" x="331.964699" y="167.76" style="fill: #954987; stroke: #954987"/>
    </g>
    <g clip-path="url(#p1622007c88)">
     <use xlink:href="#C2_0_b5c932c276" x="373.581818" y="162.96" style="fill: #954987; stroke: #954987"/>
    </g>
    <g clip-path="url(#p1622007c88)">
     <use xlink:href="#C2_0_b5c932c276" x="373.581818" y="158.16" style="fill: #954987; stroke: #954987"/>
    </g>
   </g>
   <g id="patch_6">
    <path d="M 199.055403 330.12709 
C 227.503316 317.635638 252.411913 304.609946 268.295365 293.918774 
C 284.178817 283.227602 289.740309 275.743835 283.754989 273.115686 
C 277.769668 270.487537 260.72621 272.929584 236.378237 279.903993 
C 212.030264 286.878402 182.365681 297.815743 153.917768 310.307196 
C 125.469854 322.798648 100.561257 335.824339 84.677806 346.515512 
C 68.794354 357.206684 63.232861 364.690451 69.218182 367.3186 
C 75.203502 369.946748 92.246961 367.504702 116.594934 360.530293 
C 140.942907 353.555884 170.60749 342.618542 199.055403 330.12709 
z
" clip-path="url(#p1622007c88)" style="fill: #62289d; opacity: 0.5; stroke: #62289d; stroke-linejoin: miter"/>
   </g>
   <g id="PathCollection_4">
    <defs>
     <path id="C3_0_5b7e9d4151" d="M 0 1.581139 
C 0.419323 1.581139 0.821528 1.41454 1.118034 1.118034 
C 1.41454 0.821528 1.581139 0.419323 1.581139 -0 
C 1.581139 -0.419323 1.41454 -0.821528 1.118034 -1.118034 
C 0.821528 -1.41454 0.419323 -1.581139 0 -1.581139 
C -0.419323 -1.581139 -0.821528 -1.41454 -1.118034 -1.118034 
C -1.41454 -0.821528 -1.581139 -0.419323 -1.581139 0 
C -1.581139 0.419323 -1.41454 0.821528 -1.118034 1.118034 
C -0.821528 1.41454 -0.419323 1.581139 0 1.581139 
z
"/>
    </defs>
    <g clip-path="url(#p1622007c88)">
     <use xlink:href="#C3_0_5b7e9d4151" x="93.914779" y="369.36" style="fill: #62289d; stroke: #62289d"/>
    </g>
    <g clip-path="url(#p1622007c88)">
     <use xlink:href="#C3_0_5b7e9d4151" x="109.451837" y="364.56" style="fill: #62289d; stroke: #62289d"/>
    </g>
    <g clip-path="url(#p1622007c88)">
     <use xlink:href="#C3_0_5b7e9d4151" x="109.860707" y="359.76" style="fill: #62289d; stroke: #62289d"/>
    </g>
    <g clip-path="url(#p1622007c88)">
     <use xlink:href="#C3_0_5b7e9d4151" x="107.686262" y="354.96" style="fill: #62289d; stroke: #62289d"/>
    </g>
    <g clip-path="url(#p1622007c88)">
     <use xlink:href="#C3_0_5b7e9d4151" x="104.73523" y="350.16" style="fill: #62289d; stroke: #62289d"/>
    </g>
    <g clip-path="url(#p1622007c88)">
     <use xlink:href="#C3_0_5b7e9d4151" x="137.196583" y="345.36" style="fill: #62289d; stroke: #62289d"/>
    </g>
    <g clip-path="url(#p1622007c88)">
     <use xlink:href="#C3_0_5b7e9d4151" x="138.469577" y="340.56" style="fill: #62289d; stroke: #62289d"/>
    </g>
    <g clip-path="url(#p1622007c88)">
     <use xlink:href="#C3_0_5b7e9d4151" x="112.850568" y="335.76" style="fill: #62289d; stroke: #62289d"/>
    </g>
    <g clip-path="url(#p1622007c88)">
     <use xlink:href="#C3_0_5b7e9d4151" x="126.376132" y="330.96" style="fill: #62289d; stroke: #62289d"/>
    </g>
    <g clip-path="url(#p1622007c88)">
     <use xlink:href="#C3_0_5b7e9d4151" x="142.781332" y="326.16" style="fill: #62289d; stroke: #62289d"/>
    </g>
    <g clip-path="url(#p1622007c88)">
     <use xlink:href="#C3_0_5b7e9d4151" x="187.137126" y="321.36" style="fill: #62289d; stroke: #62289d"/>
    </g>
    <g clip-path="url(#p1622007c88)">
     <use xlink:href="#C3_0_5b7e9d4151" x="198.388098" y="316.56" style="fill: #62289d; stroke: #62289d"/>
    </g>
    <g clip-path="url(#p1622007c88)">
     <use xlink:href="#C3_0_5b7e9d4151" x="190.866019" y="311.76" style="fill: #62289d; stroke: #62289d"/>
    </g>
    <g clip-path="url(#p1622007c88)">
     <use xlink:href="#C3_0_5b7e9d4151" x="165.202456" y="306.96" style="fill: #62289d; stroke: #62289d"/>
    </g>
    <g clip-path="url(#p1622007c88)">
     <use xlink:href="#C3_0_5b7e9d4151" x="178.747114" y="302.16" style="fill: #62289d; stroke: #62289d"/>
    </g>
    <g clip-path="url(#p1622007c88)">
     <use xlink:href="#C3_0_5b7e9d4151" x="279.607679" y="297.36" style="fill: #62289d; stroke: #62289d"/>
    </g>
    <g clip-path="url(#p1622007c88)">
     <use xlink:href="#C3_0_5b7e9d4151" x="245.401092" y="292.56" style="fill: #62289d; stroke: #62289d"/>
    </g>
    <g clip-path="url(#p1622007c88)">
     <use xlink:href="#C3_0_5b7e9d4151" x="194.905654" y="287.76" style="fill: #62289d; stroke: #62289d"/>
    </g>
    <g clip-path="url(#p1622007c88)">
     <use xlink:href="#C3_0_5b7e9d4151" x="215.103829" y="282.96" style="fill: #62289d; stroke: #62289d"/>
    </g>
    <g clip-path="url(#p1622007c88)">
     <use xlink:href="#C3_0_5b7e9d4151" x="295.89653" y="278.16" style="fill: #62289d; stroke: #62289d"/>
    </g>
    <g clip-path="url(#p1622007c88)">
     <use xlink:href="#C3_0_5b7e9d4151" x="371.639686" y="249.36" style="fill: #62289d; stroke: #62289d"/>
    </g>
   </g>
   <g id="patch_7">
    <path d="M 54 384.48 
L 54 51.84 
" style="fill: none; stroke: #262626; stroke-width: 1.25; stroke-linejoin: miter; stroke-linecap: square"/>
   </g>
   <g id="patch_8">
    <path d="M 388.8 384.48 
L 388.8 51.84 
" style="fill: none; stroke: #262626; stroke-width: 1.25; stroke-linejoin: miter; stroke-linecap: square"/>
   </g>
   <g id="patch_9">
    <path d="M 54 384.48 
L 388.8 384.48 
" style="fill: none; stroke: #262626; stroke-width: 1.25; stroke-linejoin: miter; stroke-linecap: square"/>
   </g>
   <g id="patch_10">
    <path d="M 54 51.84 
L 388.8 51.84 
" style="fill: none; stroke: #262626; stroke-width: 1.25; stroke-linejoin: miter; stroke-linecap: square"/>
   </g>
  </g>
 </g>
 <defs>
  <clipPath id="p1622007c88">
   <rect x="54" y="51.84" width="334.8" height="332.64"/>
  </clipPath>
 </defs>
</svg>
