<?xml version="1.0" encoding="utf-8" standalone="no"?>
<!DOCTYPE svg PUBLIC "-//W3C//DTD SVG 1.1//EN"
  "http://www.w3.org/Graphics/SVG/1.1/DTD/svg11.dtd">
<svg xmlns:xlink="http://www.w3.org/1999/xlink" width="439.2pt" height="360pt" viewBox="0 0 439.2 360" xmlns="http://www.w3.org/2000/svg" version="1.1">
 <metadata>
  <rdf:RDF xmlns:dc="http://purl.org/dc/elements/1.1/" xmlns:cc="http://creativecommons.org/ns#" xmlns:rdf="http://www.w3.org/1999/02/22-rdf-syntax-ns#">
   <cc:Work>
    <dc:type rdf:resource="http://purl.org/dc/dcmitype/StillImage"/>
    <dc:date>2025-01-17T11:04:09.061723</dc:date>
    <dc:format>image/svg+xml</dc:format>
    <dc:creator>
     <cc:Agent>
      <dc:title>Matplotlib v3.10.0, https://matplotlib.org/</dc:title>
     </cc:Agent>
    </dc:creator>
   </cc:Work>
  </rdf:RDF>
 </metadata>
 <defs>
  <style type="text/css">*{stroke-linejoin: round; stroke-linecap: butt}</style>
 </defs>
 <g id="figure_1">
  <g id="patch_1">
   <path d="M 0 360 
L 439.2 360 
L 439.2 0 
L 0 0 
z
" style="fill: #ffffff"/>
  </g>
  <g id="axes_1">
   <g id="patch_2">
    <path d="M 75.8169 311.94 
L 355.460519 311.94 
L 355.460519 12.96 
L 75.8169 12.96 
z
" style="fill: #ffffff"/>
   </g>
   <g id="matplotlib.axis_1">
    <g id="xtick_1">
     <g id="line2d_1">
      <defs>
       <path id="m19369ee9ce" d="M 0 0 
L 0 6 
" style="stroke: #262626; stroke-width: 1.25"/>
      </defs>
      <g>
       <use xlink:href="#m19369ee9ce" x="88.527974" y="311.94" style="fill: #262626; stroke: #262626; stroke-width: 1.25"/>
      </g>
     </g>
     <g id="text_1">
      <!-- 0.0 -->
      <g style="fill: #262626" transform="translate(80.882974 329.313594) scale(0.11 -0.11)">
       <defs>
        <path id="ArialMT-30" d="M 266 2259 
Q 266 3072 433 3567 
Q 600 4063 929 4331 
Q 1259 4600 1759 4600 
Q 2128 4600 2406 4451 
Q 2684 4303 2865 4023 
Q 3047 3744 3150 3342 
Q 3253 2941 3253 2259 
Q 3253 1453 3087 958 
Q 2922 463 2592 192 
Q 2263 -78 1759 -78 
Q 1097 -78 719 397 
Q 266 969 266 2259 
z
M 844 2259 
Q 844 1131 1108 757 
Q 1372 384 1759 384 
Q 2147 384 2411 759 
Q 2675 1134 2675 2259 
Q 2675 3391 2411 3762 
Q 2147 4134 1753 4134 
Q 1366 4134 1134 3806 
Q 844 3388 844 2259 
z
" transform="scale(0.015625)"/>
        <path id="ArialMT-2e" d="M 581 0 
L 581 641 
L 1222 641 
L 1222 0 
L 581 0 
z
" transform="scale(0.015625)"/>
       </defs>
       <use xlink:href="#ArialMT-30"/>
       <use xlink:href="#ArialMT-2e" transform="translate(55.615234 0)"/>
       <use xlink:href="#ArialMT-30" transform="translate(83.398438 0)"/>
      </g>
     </g>
    </g>
    <g id="xtick_2">
     <g id="line2d_2">
      <g>
       <use xlink:href="#m19369ee9ce" x="143.609293" y="311.94" style="fill: #262626; stroke: #262626; stroke-width: 1.25"/>
      </g>
     </g>
     <g id="text_2">
      <!-- 0.2 -->
      <g style="fill: #262626" transform="translate(135.964293 329.313594) scale(0.11 -0.11)">
       <defs>
        <path id="ArialMT-32" d="M 3222 541 
L 3222 0 
L 194 0 
Q 188 203 259 391 
Q 375 700 629 1000 
Q 884 1300 1366 1694 
Q 2113 2306 2375 2664 
Q 2638 3022 2638 3341 
Q 2638 3675 2398 3904 
Q 2159 4134 1775 4134 
Q 1369 4134 1125 3890 
Q 881 3647 878 3216 
L 300 3275 
Q 359 3922 746 4261 
Q 1134 4600 1788 4600 
Q 2447 4600 2831 4234 
Q 3216 3869 3216 3328 
Q 3216 3053 3103 2787 
Q 2991 2522 2730 2228 
Q 2469 1934 1863 1422 
Q 1356 997 1212 845 
Q 1069 694 975 541 
L 3222 541 
z
" transform="scale(0.015625)"/>
       </defs>
       <use xlink:href="#ArialMT-30"/>
       <use xlink:href="#ArialMT-2e" transform="translate(55.615234 0)"/>
       <use xlink:href="#ArialMT-32" transform="translate(83.398438 0)"/>
      </g>
     </g>
    </g>
    <g id="xtick_3">
     <g id="line2d_3">
      <g>
       <use xlink:href="#m19369ee9ce" x="198.690612" y="311.94" style="fill: #262626; stroke: #262626; stroke-width: 1.25"/>
      </g>
     </g>
     <g id="text_3">
      <!-- 0.4 -->
      <g style="fill: #262626" transform="translate(191.045612 329.313594) scale(0.11 -0.11)">
       <defs>
        <path id="ArialMT-34" d="M 2069 0 
L 2069 1097 
L 81 1097 
L 81 1613 
L 2172 4581 
L 2631 4581 
L 2631 1613 
L 3250 1613 
L 3250 1097 
L 2631 1097 
L 2631 0 
L 2069 0 
z
M 2069 1613 
L 2069 3678 
L 634 1613 
L 2069 1613 
z
" transform="scale(0.015625)"/>
       </defs>
       <use xlink:href="#ArialMT-30"/>
       <use xlink:href="#ArialMT-2e" transform="translate(55.615234 0)"/>
       <use xlink:href="#ArialMT-34" transform="translate(83.398438 0)"/>
      </g>
     </g>
    </g>
    <g id="xtick_4">
     <g id="line2d_4">
      <g>
       <use xlink:href="#m19369ee9ce" x="253.771931" y="311.94" style="fill: #262626; stroke: #262626; stroke-width: 1.25"/>
      </g>
     </g>
     <g id="text_4">
      <!-- 0.6 -->
      <g style="fill: #262626" transform="translate(246.126931 329.313594) scale(0.11 -0.11)">
       <defs>
        <path id="ArialMT-36" d="M 3184 3459 
L 2625 3416 
Q 2550 3747 2413 3897 
Q 2184 4138 1850 4138 
Q 1581 4138 1378 3988 
Q 1113 3794 959 3422 
Q 806 3050 800 2363 
Q 1003 2672 1297 2822 
Q 1591 2972 1913 2972 
Q 2475 2972 2870 2558 
Q 3266 2144 3266 1488 
Q 3266 1056 3080 686 
Q 2894 316 2569 119 
Q 2244 -78 1831 -78 
Q 1128 -78 684 439 
Q 241 956 241 2144 
Q 241 3472 731 4075 
Q 1159 4600 1884 4600 
Q 2425 4600 2770 4297 
Q 3116 3994 3184 3459 
z
M 888 1484 
Q 888 1194 1011 928 
Q 1134 663 1356 523 
Q 1578 384 1822 384 
Q 2178 384 2434 671 
Q 2691 959 2691 1453 
Q 2691 1928 2437 2201 
Q 2184 2475 1800 2475 
Q 1419 2475 1153 2201 
Q 888 1928 888 1484 
z
" transform="scale(0.015625)"/>
       </defs>
       <use xlink:href="#ArialMT-30"/>
       <use xlink:href="#ArialMT-2e" transform="translate(55.615234 0)"/>
       <use xlink:href="#ArialMT-36" transform="translate(83.398438 0)"/>
      </g>
     </g>
    </g>
    <g id="xtick_5">
     <g id="line2d_5">
      <g>
       <use xlink:href="#m19369ee9ce" x="308.85325" y="311.94" style="fill: #262626; stroke: #262626; stroke-width: 1.25"/>
      </g>
     </g>
     <g id="text_5">
      <!-- 0.8 -->
      <g style="fill: #262626" transform="translate(301.20825 329.313594) scale(0.11 -0.11)">
       <defs>
        <path id="ArialMT-38" d="M 1131 2484 
Q 781 2613 612 2850 
Q 444 3088 444 3419 
Q 444 3919 803 4259 
Q 1163 4600 1759 4600 
Q 2359 4600 2725 4251 
Q 3091 3903 3091 3403 
Q 3091 3084 2923 2848 
Q 2756 2613 2416 2484 
Q 2838 2347 3058 2040 
Q 3278 1734 3278 1309 
Q 3278 722 2862 322 
Q 2447 -78 1769 -78 
Q 1091 -78 675 323 
Q 259 725 259 1325 
Q 259 1772 486 2073 
Q 713 2375 1131 2484 
z
M 1019 3438 
Q 1019 3113 1228 2906 
Q 1438 2700 1772 2700 
Q 2097 2700 2305 2904 
Q 2513 3109 2513 3406 
Q 2513 3716 2298 3927 
Q 2084 4138 1766 4138 
Q 1444 4138 1231 3931 
Q 1019 3725 1019 3438 
z
M 838 1322 
Q 838 1081 952 856 
Q 1066 631 1291 507 
Q 1516 384 1775 384 
Q 2178 384 2440 643 
Q 2703 903 2703 1303 
Q 2703 1709 2433 1975 
Q 2163 2241 1756 2241 
Q 1359 2241 1098 1978 
Q 838 1716 838 1322 
z
" transform="scale(0.015625)"/>
       </defs>
       <use xlink:href="#ArialMT-30"/>
       <use xlink:href="#ArialMT-2e" transform="translate(55.615234 0)"/>
       <use xlink:href="#ArialMT-38" transform="translate(83.398438 0)"/>
      </g>
     </g>
    </g>
    <g id="text_6">
     <!-- acc -->
     <g style="fill: #262626" transform="translate(206.302147 344.089219) scale(0.12 -0.12)">
      <defs>
       <path id="ArialMT-61" d="M 2588 409 
Q 2275 144 1986 34 
Q 1697 -75 1366 -75 
Q 819 -75 525 192 
Q 231 459 231 875 
Q 231 1119 342 1320 
Q 453 1522 633 1644 
Q 813 1766 1038 1828 
Q 1203 1872 1538 1913 
Q 2219 1994 2541 2106 
Q 2544 2222 2544 2253 
Q 2544 2597 2384 2738 
Q 2169 2928 1744 2928 
Q 1347 2928 1158 2789 
Q 969 2650 878 2297 
L 328 2372 
Q 403 2725 575 2942 
Q 747 3159 1072 3276 
Q 1397 3394 1825 3394 
Q 2250 3394 2515 3294 
Q 2781 3194 2906 3042 
Q 3031 2891 3081 2659 
Q 3109 2516 3109 2141 
L 3109 1391 
Q 3109 606 3145 398 
Q 3181 191 3288 0 
L 2700 0 
Q 2613 175 2588 409 
z
M 2541 1666 
Q 2234 1541 1622 1453 
Q 1275 1403 1131 1340 
Q 988 1278 909 1158 
Q 831 1038 831 891 
Q 831 666 1001 516 
Q 1172 366 1500 366 
Q 1825 366 2078 508 
Q 2331 650 2450 897 
Q 2541 1088 2541 1459 
L 2541 1666 
z
" transform="scale(0.015625)"/>
       <path id="ArialMT-63" d="M 2588 1216 
L 3141 1144 
Q 3050 572 2676 248 
Q 2303 -75 1759 -75 
Q 1078 -75 664 370 
Q 250 816 250 1647 
Q 250 2184 428 2587 
Q 606 2991 970 3192 
Q 1334 3394 1763 3394 
Q 2303 3394 2647 3120 
Q 2991 2847 3088 2344 
L 2541 2259 
Q 2463 2594 2264 2762 
Q 2066 2931 1784 2931 
Q 1359 2931 1093 2626 
Q 828 2322 828 1663 
Q 828 994 1084 691 
Q 1341 388 1753 388 
Q 2084 388 2306 591 
Q 2528 794 2588 1216 
z
" transform="scale(0.015625)"/>
      </defs>
      <use xlink:href="#ArialMT-61"/>
      <use xlink:href="#ArialMT-63" transform="translate(55.615234 0)"/>
      <use xlink:href="#ArialMT-63" transform="translate(105.615234 0)"/>
     </g>
    </g>
   </g>
   <g id="matplotlib.axis_2">
    <g id="ytick_1">
     <g id="line2d_6">
      <defs>
       <path id="m1d92d2706f" d="M 0 0 
L -6 0 
" style="stroke: #262626; stroke-width: 1.25"/>
      </defs>
      <g>
       <use xlink:href="#m1d92d2706f" x="75.8169" y="288.696312" style="fill: #262626; stroke: #262626; stroke-width: 1.25"/>
      </g>
     </g>
     <g id="text_7">
      <!-- 0 -->
      <g style="fill: #262626" transform="translate(60.199869 292.633109) scale(0.11 -0.11)">
       <use xlink:href="#ArialMT-30"/>
      </g>
     </g>
    </g>
    <g id="ytick_2">
     <g id="line2d_7">
      <g>
       <use xlink:href="#m1d92d2706f" x="75.8169" y="252.315426" style="fill: #262626; stroke: #262626; stroke-width: 1.25"/>
      </g>
     </g>
     <g id="text_8">
      <!-- 200 -->
      <g style="fill: #262626" transform="translate(47.965806 256.252223) scale(0.11 -0.11)">
       <use xlink:href="#ArialMT-32"/>
       <use xlink:href="#ArialMT-30" transform="translate(55.615234 0)"/>
       <use xlink:href="#ArialMT-30" transform="translate(111.230469 0)"/>
      </g>
     </g>
    </g>
    <g id="ytick_3">
     <g id="line2d_8">
      <g>
       <use xlink:href="#m1d92d2706f" x="75.8169" y="215.93454" style="fill: #262626; stroke: #262626; stroke-width: 1.25"/>
      </g>
     </g>
     <g id="text_9">
      <!-- 400 -->
      <g style="fill: #262626" transform="translate(47.965806 219.871337) scale(0.11 -0.11)">
       <use xlink:href="#ArialMT-34"/>
       <use xlink:href="#ArialMT-30" transform="translate(55.615234 0)"/>
       <use xlink:href="#ArialMT-30" transform="translate(111.230469 0)"/>
      </g>
     </g>
    </g>
    <g id="ytick_4">
     <g id="line2d_9">
      <g>
       <use xlink:href="#m1d92d2706f" x="75.8169" y="179.553654" style="fill: #262626; stroke: #262626; stroke-width: 1.25"/>
      </g>
     </g>
     <g id="text_10">
      <!-- 600 -->
      <g style="fill: #262626" transform="translate(47.965806 183.490451) scale(0.11 -0.11)">
       <use xlink:href="#ArialMT-36"/>
       <use xlink:href="#ArialMT-30" transform="translate(55.615234 0)"/>
       <use xlink:href="#ArialMT-30" transform="translate(111.230469 0)"/>
      </g>
     </g>
    </g>
    <g id="ytick_5">
     <g id="line2d_10">
      <g>
       <use xlink:href="#m1d92d2706f" x="75.8169" y="143.172768" style="fill: #262626; stroke: #262626; stroke-width: 1.25"/>
      </g>
     </g>
     <g id="text_11">
      <!-- 800 -->
      <g style="fill: #262626" transform="translate(47.965806 147.109565) scale(0.11 -0.11)">
       <use xlink:href="#ArialMT-38"/>
       <use xlink:href="#ArialMT-30" transform="translate(55.615234 0)"/>
       <use xlink:href="#ArialMT-30" transform="translate(111.230469 0)"/>
      </g>
     </g>
    </g>
    <g id="ytick_6">
     <g id="line2d_11">
      <g>
       <use xlink:href="#m1d92d2706f" x="75.8169" y="106.791882" style="fill: #262626; stroke: #262626; stroke-width: 1.25"/>
      </g>
     </g>
     <g id="text_12">
      <!-- 1000 -->
      <g style="fill: #262626" transform="translate(41.848775 110.728679) scale(0.11 -0.11)">
       <defs>
        <path id="ArialMT-31" d="M 2384 0 
L 1822 0 
L 1822 3584 
Q 1619 3391 1289 3197 
Q 959 3003 697 2906 
L 697 3450 
Q 1169 3672 1522 3987 
Q 1875 4303 2022 4600 
L 2384 4600 
L 2384 0 
z
" transform="scale(0.015625)"/>
       </defs>
       <use xlink:href="#ArialMT-31"/>
       <use xlink:href="#ArialMT-30" transform="translate(55.615234 0)"/>
       <use xlink:href="#ArialMT-30" transform="translate(111.230469 0)"/>
       <use xlink:href="#ArialMT-30" transform="translate(166.845703 0)"/>
      </g>
     </g>
    </g>
    <g id="ytick_7">
     <g id="line2d_12">
      <g>
       <use xlink:href="#m1d92d2706f" x="75.8169" y="70.410996" style="fill: #262626; stroke: #262626; stroke-width: 1.25"/>
      </g>
     </g>
     <g id="text_13">
      <!-- 1200 -->
      <g style="fill: #262626" transform="translate(41.848775 74.347793) scale(0.11 -0.11)">
       <use xlink:href="#ArialMT-31"/>
       <use xlink:href="#ArialMT-32" transform="translate(55.615234 0)"/>
       <use xlink:href="#ArialMT-30" transform="translate(111.230469 0)"/>
       <use xlink:href="#ArialMT-30" transform="translate(166.845703 0)"/>
      </g>
     </g>
    </g>
    <g id="ytick_8">
     <g id="line2d_13">
      <g>
       <use xlink:href="#m1d92d2706f" x="75.8169" y="34.030111" style="fill: #262626; stroke: #262626; stroke-width: 1.25"/>
      </g>
     </g>
     <g id="text_14">
      <!-- 1400 -->
      <g style="fill: #262626" transform="translate(41.848775 37.966908) scale(0.11 -0.11)">
       <use xlink:href="#ArialMT-31"/>
       <use xlink:href="#ArialMT-34" transform="translate(55.615234 0)"/>
       <use xlink:href="#ArialMT-30" transform="translate(111.230469 0)"/>
       <use xlink:href="#ArialMT-30" transform="translate(166.845703 0)"/>
      </g>
     </g>
    </g>
    <g id="text_15">
     <!-- p -->
     <g style="fill: #262626" transform="translate(35.463775 165.786563) rotate(-90) scale(0.12 -0.12)">
      <defs>
       <path id="ArialMT-70" d="M 422 -1272 
L 422 3319 
L 934 3319 
L 934 2888 
Q 1116 3141 1344 3267 
Q 1572 3394 1897 3394 
Q 2322 3394 2647 3175 
Q 2972 2956 3137 2557 
Q 3303 2159 3303 1684 
Q 3303 1175 3120 767 
Q 2938 359 2589 142 
Q 2241 -75 1856 -75 
Q 1575 -75 1351 44 
Q 1128 163 984 344 
L 984 -1272 
L 422 -1272 
z
M 931 1641 
Q 931 1000 1190 694 
Q 1450 388 1819 388 
Q 2194 388 2461 705 
Q 2728 1022 2728 1688 
Q 2728 2322 2467 2637 
Q 2206 2953 1844 2953 
Q 1484 2953 1207 2617 
Q 931 2281 931 1641 
z
" transform="scale(0.015625)"/>
      </defs>
      <use xlink:href="#ArialMT-70"/>
     </g>
    </g>
   </g>
   <g id="PathCollection_1">
    <defs>
     <path id="mf12fa7ec4c" d="M 0 3 
C 0.795609 3 1.55874 2.683901 2.12132 2.12132 
C 2.683901 1.55874 3 0.795609 3 0 
C 3 -0.795609 2.683901 -1.55874 2.12132 -2.12132 
C 1.55874 -2.683901 0.795609 -3 0 -3 
C -0.795609 -3 -1.55874 -2.683901 -2.12132 -2.12132 
C -2.683901 -1.55874 -3 -0.795609 -3 0 
C -3 0.795609 -2.683901 1.55874 -2.12132 2.12132 
C -1.55874 2.683901 -0.795609 3 0 3 
z
" style="stroke: #eeae53; stroke-opacity: 0.8"/>
    </defs>
    <g clip-path="url(#p92f66b17e9)">
     <use xlink:href="#mf12fa7ec4c" x="88.527974" y="266.86778" style="fill: #eeae53; fill-opacity: 0.8; stroke: #eeae53; stroke-opacity: 0.8"/>
     <use xlink:href="#mf12fa7ec4c" x="88.527974" y="255.953514" style="fill: #eeae53; fill-opacity: 0.8; stroke: #eeae53; stroke-opacity: 0.8"/>
     <use xlink:href="#mf12fa7ec4c" x="119.128706" y="250.496382" style="fill: #eeae53; fill-opacity: 0.8; stroke: #eeae53; stroke-opacity: 0.8"/>
     <use xlink:href="#mf12fa7ec4c" x="149.729439" y="245.039249" style="fill: #eeae53; fill-opacity: 0.8; stroke: #eeae53; stroke-opacity: 0.8"/>
     <use xlink:href="#mf12fa7ec4c" x="138.6019" y="239.582116" style="fill: #eeae53; fill-opacity: 0.8; stroke: #eeae53; stroke-opacity: 0.8"/>
     <use xlink:href="#mf12fa7ec4c" x="195.630538" y="234.124983" style="fill: #eeae53; fill-opacity: 0.8; stroke: #eeae53; stroke-opacity: 0.8"/>
     <use xlink:href="#mf12fa7ec4c" x="165.029806" y="228.66785" style="fill: #eeae53; fill-opacity: 0.8; stroke: #eeae53; stroke-opacity: 0.8"/>
     <use xlink:href="#mf12fa7ec4c" x="165.64182" y="223.210717" style="fill: #eeae53; fill-opacity: 0.8; stroke: #eeae53; stroke-opacity: 0.8"/>
     <use xlink:href="#mf12fa7ec4c" x="171.149952" y="217.753584" style="fill: #eeae53; fill-opacity: 0.8; stroke: #eeae53; stroke-opacity: 0.8"/>
     <use xlink:href="#mf12fa7ec4c" x="203.280721" y="212.296451" style="fill: #eeae53; fill-opacity: 0.8; stroke: #eeae53; stroke-opacity: 0.8"/>
     <use xlink:href="#mf12fa7ec4c" x="169.529913" y="206.839319" style="fill: #eeae53; fill-opacity: 0.8; stroke: #eeae53; stroke-opacity: 0.8"/>
     <use xlink:href="#mf12fa7ec4c" x="169.529913" y="201.382186" style="fill: #eeae53; fill-opacity: 0.8; stroke: #eeae53; stroke-opacity: 0.8"/>
     <use xlink:href="#mf12fa7ec4c" x="217.051051" y="195.925053" style="fill: #eeae53; fill-opacity: 0.8; stroke: #eeae53; stroke-opacity: 0.8"/>
     <use xlink:href="#mf12fa7ec4c" x="138.6019" y="190.46792" style="fill: #eeae53; fill-opacity: 0.8; stroke: #eeae53; stroke-opacity: 0.8"/>
     <use xlink:href="#mf12fa7ec4c" x="236.823832" y="179.553654" style="fill: #eeae53; fill-opacity: 0.8; stroke: #eeae53; stroke-opacity: 0.8"/>
     <use xlink:href="#mf12fa7ec4c" x="272.13237" y="168.639388" style="fill: #eeae53; fill-opacity: 0.8; stroke: #eeae53; stroke-opacity: 0.8"/>
     <use xlink:href="#mf12fa7ec4c" x="195.630538" y="163.182255" style="fill: #eeae53; fill-opacity: 0.8; stroke: #eeae53; stroke-opacity: 0.8"/>
     <use xlink:href="#mf12fa7ec4c" x="245.903171" y="157.725123" style="fill: #eeae53; fill-opacity: 0.8; stroke: #eeae53; stroke-opacity: 0.8"/>
     <use xlink:href="#mf12fa7ec4c" x="218.983729" y="152.26799" style="fill: #eeae53; fill-opacity: 0.8; stroke: #eeae53; stroke-opacity: 0.8"/>
     <use xlink:href="#mf12fa7ec4c" x="291.459149" y="146.810857" style="fill: #eeae53; fill-opacity: 0.8; stroke: #eeae53; stroke-opacity: 0.8"/>
     <use xlink:href="#mf12fa7ec4c" x="313.860642" y="135.896591" style="fill: #eeae53; fill-opacity: 0.8; stroke: #eeae53; stroke-opacity: 0.8"/>
     <use xlink:href="#mf12fa7ec4c" x="226.231271" y="130.439458" style="fill: #eeae53; fill-opacity: 0.8; stroke: #eeae53; stroke-opacity: 0.8"/>
     <use xlink:href="#mf12fa7ec4c" x="245.903171" y="124.982325" style="fill: #eeae53; fill-opacity: 0.8; stroke: #eeae53; stroke-opacity: 0.8"/>
     <use xlink:href="#mf12fa7ec4c" x="233.478813" y="119.525192" style="fill: #eeae53; fill-opacity: 0.8; stroke: #eeae53; stroke-opacity: 0.8"/>
     <use xlink:href="#mf12fa7ec4c" x="201.930689" y="103.153794" style="fill: #eeae53; fill-opacity: 0.8; stroke: #eeae53; stroke-opacity: 0.8"/>
     <use xlink:href="#mf12fa7ec4c" x="266.732241" y="97.696661" style="fill: #eeae53; fill-opacity: 0.8; stroke: #eeae53; stroke-opacity: 0.8"/>
     <use xlink:href="#mf12fa7ec4c" x="278.68967" y="86.782395" style="fill: #eeae53; fill-opacity: 0.8; stroke: #eeae53; stroke-opacity: 0.8"/>
     <use xlink:href="#mf12fa7ec4c" x="308.85325" y="81.325262" style="fill: #eeae53; fill-opacity: 0.8; stroke: #eeae53; stroke-opacity: 0.8"/>
     <use xlink:href="#mf12fa7ec4c" x="281.31259" y="64.953864" style="fill: #eeae53; fill-opacity: 0.8; stroke: #eeae53; stroke-opacity: 0.8"/>
     <use xlink:href="#mf12fa7ec4c" x="304.91887" y="43.125332" style="fill: #eeae53; fill-opacity: 0.8; stroke: #eeae53; stroke-opacity: 0.8"/>
     <use xlink:href="#mf12fa7ec4c" x="342.749446" y="37.668199" style="fill: #eeae53; fill-opacity: 0.8; stroke: #eeae53; stroke-opacity: 0.8"/>
     <use xlink:href="#mf12fa7ec4c" x="342.749446" y="32.211066" style="fill: #eeae53; fill-opacity: 0.8; stroke: #eeae53; stroke-opacity: 0.8"/>
    </g>
   </g>
   <g id="FillBetweenPolyCollection_1">
    <defs>
     <path id="m3e5e145de7" d="M 88.527974 -101.581949 
L 88.527974 -61.65 
L 91.095867 -64.290916 
L 93.663761 -66.931832 
L 96.231655 -69.508396 
L 98.799548 -71.909933 
L 101.367442 -74.31943 
L 103.935336 -77.117246 
L 106.503229 -80.002403 
L 109.071123 -82.706238 
L 111.639017 -85.328418 
L 114.20691 -87.950598 
L 116.774804 -90.572778 
L 119.342698 -93.194958 
L 121.910591 -95.817138 
L 124.478485 -98.439318 
L 127.046378 -101.061498 
L 129.614272 -103.683678 
L 132.182166 -106.305858 
L 134.750059 -108.928038 
L 137.317953 -111.50715 
L 139.885847 -114.079573 
L 142.45374 -116.673641 
L 145.021634 -119.171293 
L 147.589528 -121.448134 
L 150.157421 -123.839618 
L 152.725315 -126.446355 
L 155.293209 -129.188084 
L 157.861102 -131.887622 
L 160.428996 -134.151155 
L 162.99689 -136.381367 
L 165.564783 -138.865852 
L 168.132677 -140.929797 
L 170.700571 -143.449315 
L 173.268464 -146.178007 
L 175.836358 -148.300303 
L 178.404252 -150.423608 
L 180.972145 -153.196205 
L 183.540039 -155.564823 
L 186.107933 -157.855323 
L 188.675826 -160.075302 
L 191.24372 -162.617552 
L 193.811614 -165.038206 
L 196.379507 -167.159475 
L 198.947401 -169.380871 
L 201.515295 -171.35757 
L 204.083188 -173.609437 
L 206.651082 -175.648799 
L 209.218976 -177.644342 
L 211.786869 -179.721225 
L 214.354763 -182.046049 
L 216.922657 -184.046405 
L 219.49055 -185.980096 
L 222.058444 -188.028524 
L 224.626338 -189.921201 
L 227.194231 -191.974817 
L 229.762125 -194.050472 
L 232.330019 -195.831092 
L 234.897912 -197.680909 
L 237.465806 -199.532358 
L 240.033699 -201.456831 
L 242.601593 -203.389057 
L 245.169487 -205.361293 
L 247.73738 -207.254169 
L 250.305274 -209.184382 
L 252.873168 -211.118072 
L 255.441061 -213.051763 
L 258.008955 -214.905067 
L 260.576849 -216.863255 
L 263.144742 -218.628209 
L 265.712636 -220.647431 
L 268.28053 -222.411731 
L 270.848423 -224.321557 
L 273.416317 -226.278721 
L 275.984211 -228.235885 
L 278.552104 -230.194609 
L 281.119998 -232.159292 
L 283.687892 -233.789701 
L 286.255785 -235.682263 
L 288.823679 -237.728249 
L 291.391573 -239.492271 
L 293.959466 -241.214251 
L 296.52736 -242.936231 
L 299.095254 -244.658211 
L 301.663147 -246.381121 
L 304.231041 -248.104745 
L 306.798935 -250.013768 
L 309.366828 -251.943392 
L 311.934722 -253.690501 
L 314.502616 -255.492785 
L 317.070509 -257.443374 
L 319.638403 -259.393963 
L 322.206297 -261.344552 
L 324.77419 -263.295141 
L 327.342084 -265.24573 
L 329.909978 -267.196319 
L 332.477871 -269.146908 
L 335.045765 -270.809814 
L 337.613659 -272.472151 
L 340.181552 -274.134487 
L 342.749446 -275.962016 
L 342.749446 -333.45 
L 342.749446 -333.45 
L 340.181552 -330.843436 
L 337.613659 -328.236872 
L 335.045765 -325.630307 
L 332.477871 -323.018801 
L 329.909978 -320.341859 
L 327.342084 -317.646018 
L 324.77419 -314.950177 
L 322.206297 -312.254336 
L 319.638403 -309.558387 
L 317.070509 -306.855482 
L 314.502616 -304.262086 
L 311.934722 -301.71011 
L 309.366828 -299.144253 
L 306.798935 -296.702349 
L 304.231041 -294.242877 
L 301.663147 -291.545178 
L 299.095254 -288.898995 
L 296.52736 -286.375215 
L 293.959466 -283.83494 
L 291.391573 -281.303864 
L 288.823679 -278.725242 
L 286.255785 -276.145974 
L 283.687892 -273.513871 
L 281.119998 -270.859502 
L 278.552104 -268.301237 
L 275.984211 -265.704924 
L 273.416317 -263.131782 
L 270.848423 -260.48475 
L 268.28053 -257.941651 
L 265.712636 -255.282966 
L 263.144742 -252.66719 
L 260.576849 -250.087375 
L 258.008955 -247.621465 
L 255.441061 -245.125545 
L 252.873168 -242.57358 
L 250.305274 -239.968215 
L 247.73738 -237.41045 
L 245.169487 -234.843509 
L 242.601593 -232.274502 
L 240.033699 -229.701063 
L 237.465806 -227.14997 
L 234.897912 -224.680594 
L 232.330019 -222.275527 
L 229.762125 -219.969007 
L 227.194231 -217.595179 
L 224.626338 -215.223897 
L 222.058444 -212.832764 
L 219.49055 -210.420415 
L 216.922657 -207.94156 
L 214.354763 -205.557428 
L 211.786869 -203.200539 
L 209.218976 -201.007864 
L 206.651082 -198.675321 
L 204.083188 -196.401092 
L 201.515295 -194.100976 
L 198.947401 -191.789449 
L 196.379507 -189.391666 
L 193.811614 -187.041169 
L 191.24372 -184.691209 
L 188.675826 -182.335426 
L 186.107933 -180.119015 
L 183.540039 -177.886506 
L 180.972145 -175.617809 
L 178.404252 -173.42694 
L 175.836358 -171.03593 
L 173.268464 -168.857903 
L 170.700571 -166.54319 
L 168.132677 -164.431527 
L 165.564783 -162.188872 
L 162.99689 -160.031255 
L 160.428996 -157.801889 
L 157.861102 -155.748169 
L 155.293209 -153.671999 
L 152.725315 -151.317512 
L 150.157421 -149.252108 
L 147.589528 -147.529276 
L 145.021634 -145.540683 
L 142.45374 -143.367946 
L 139.885847 -141.122808 
L 137.317953 -139.096526 
L 134.750059 -136.994435 
L 132.182166 -135.022551 
L 129.614272 -133.071312 
L 127.046378 -130.913872 
L 124.478485 -128.912969 
L 121.910591 -126.876818 
L 119.342698 -124.876064 
L 116.774804 -122.870134 
L 114.20691 -121.004655 
L 111.639017 -119.157972 
L 109.071123 -117.233049 
L 106.503229 -115.305782 
L 103.935336 -113.378516 
L 101.367442 -111.449212 
L 98.799548 -109.457541 
L 96.231655 -107.316976 
L 93.663761 -105.378989 
L 91.095867 -103.480469 
L 88.527974 -101.581949 
z
" style="stroke: #ffffff; stroke-opacity: 0.15"/>
    </defs>
    <g clip-path="url(#p92f66b17e9)">
     <use xlink:href="#m3e5e145de7" x="0" y="360" style="fill: #eeae53; fill-opacity: 0.15; stroke: #ffffff; stroke-opacity: 0.15"/>
    </g>
   </g>
   <g id="line2d_14">
    <path d="M 88.527974 277.695736 
L 91.095867 275.404423 
L 93.663761 273.11311 
L 96.231655 270.821797 
L 98.799548 268.530484 
L 101.367442 266.239171 
L 103.935336 263.947858 
L 106.503229 261.656545 
L 109.071123 259.365233 
L 111.639017 257.07392 
L 114.20691 254.782607 
L 116.774804 252.491294 
L 119.342698 250.199981 
L 121.910591 247.908668 
L 124.478485 245.617355 
L 127.046378 243.326042 
L 129.614272 241.034729 
L 132.182166 238.743417 
L 134.750059 236.452104 
L 137.317953 234.160791 
L 139.885847 231.869478 
L 142.45374 229.578165 
L 145.021634 227.286852 
L 147.589528 224.995539 
L 150.157421 222.704226 
L 152.725315 220.412913 
L 155.293209 218.121601 
L 157.861102 215.830288 
L 160.428996 213.538975 
L 162.99689 211.247662 
L 165.564783 208.956349 
L 168.132677 206.665036 
L 170.700571 204.373723 
L 173.268464 202.08241 
L 175.836358 199.791098 
L 178.404252 197.499785 
L 180.972145 195.208472 
L 183.540039 192.917159 
L 186.107933 190.625846 
L 188.675826 188.334533 
L 191.24372 186.04322 
L 193.811614 183.751907 
L 196.379507 181.460594 
L 198.947401 179.169282 
L 201.515295 176.877969 
L 204.083188 174.586656 
L 206.651082 172.295343 
L 209.218976 170.00403 
L 211.786869 167.712717 
L 214.354763 165.421404 
L 216.922657 163.130091 
L 219.49055 160.838778 
L 222.058444 158.547466 
L 224.626338 156.256153 
L 227.194231 153.96484 
L 229.762125 151.673527 
L 232.330019 149.382214 
L 234.897912 147.090901 
L 237.465806 144.799588 
L 240.033699 142.508275 
L 242.601593 140.216962 
L 245.169487 137.92565 
L 247.73738 135.634337 
L 250.305274 133.343024 
L 252.873168 131.051711 
L 255.441061 128.760398 
L 258.008955 126.469085 
L 260.576849 124.177772 
L 263.144742 121.886459 
L 265.712636 119.595147 
L 268.28053 117.303834 
L 270.848423 115.012521 
L 273.416317 112.721208 
L 275.984211 110.429895 
L 278.552104 108.138582 
L 281.119998 105.847269 
L 283.687892 103.555956 
L 286.255785 101.264643 
L 288.823679 98.973331 
L 291.391573 96.682018 
L 293.959466 94.390705 
L 296.52736 92.099392 
L 299.095254 89.808079 
L 301.663147 87.516766 
L 304.231041 85.225453 
L 306.798935 82.93414 
L 309.366828 80.642827 
L 311.934722 78.351515 
L 314.502616 76.060202 
L 317.070509 73.768889 
L 319.638403 71.477576 
L 322.206297 69.186263 
L 324.77419 66.89495 
L 327.342084 64.603637 
L 329.909978 62.312324 
L 332.477871 60.021011 
L 335.045765 57.729699 
L 337.613659 55.438386 
L 340.181552 53.147073 
L 342.749446 50.85576 
" clip-path="url(#p92f66b17e9)" style="fill: none; stroke: #eeae53; stroke-width: 2.25; stroke-linecap: round"/>
   </g>
   <g id="patch_3">
    <path d="M 75.8169 311.94 
L 75.8169 12.96 
" style="fill: none; stroke: #262626; stroke-width: 1.25; stroke-linejoin: miter; stroke-linecap: square"/>
   </g>
   <g id="patch_4">
    <path d="M 75.8169 311.94 
L 355.460519 311.94 
" style="fill: none; stroke: #262626; stroke-width: 1.25; stroke-linejoin: miter; stroke-linecap: square"/>
   </g>
  </g>
  <g id="legend_1">
   <g id="text_16">
    <!-- class -->
    <g style="fill: #262626" transform="translate(380.364141 175.322266) scale(0.12 -0.12)">
     <defs>
      <path id="ArialMT-6c" d="M 409 0 
L 409 4581 
L 972 4581 
L 972 0 
L 409 0 
z
" transform="scale(0.015625)"/>
      <path id="ArialMT-73" d="M 197 991 
L 753 1078 
Q 800 744 1014 566 
Q 1228 388 1613 388 
Q 2000 388 2187 545 
Q 2375 703 2375 916 
Q 2375 1106 2209 1216 
Q 2094 1291 1634 1406 
Q 1016 1563 777 1677 
Q 538 1791 414 1992 
Q 291 2194 291 2438 
Q 291 2659 392 2848 
Q 494 3038 669 3163 
Q 800 3259 1026 3326 
Q 1253 3394 1513 3394 
Q 1903 3394 2198 3281 
Q 2494 3169 2634 2976 
Q 2775 2784 2828 2463 
L 2278 2388 
Q 2241 2644 2061 2787 
Q 1881 2931 1553 2931 
Q 1166 2931 1000 2803 
Q 834 2675 834 2503 
Q 834 2394 903 2306 
Q 972 2216 1119 2156 
Q 1203 2125 1616 2013 
Q 2213 1853 2448 1751 
Q 2684 1650 2818 1456 
Q 2953 1263 2953 975 
Q 2953 694 2789 445 
Q 2625 197 2315 61 
Q 2006 -75 1616 -75 
Q 969 -75 630 194 
Q 291 463 197 991 
z
" transform="scale(0.015625)"/>
     </defs>
     <use xlink:href="#ArialMT-63"/>
     <use xlink:href="#ArialMT-6c" transform="translate(50 0)"/>
     <use xlink:href="#ArialMT-61" transform="translate(72.216797 0)"/>
     <use xlink:href="#ArialMT-73" transform="translate(127.832031 0)"/>
     <use xlink:href="#ArialMT-73" transform="translate(177.832031 0)"/>
    </g>
   </g>
   <g id="PathCollection_2">
    <g>
     <use xlink:href="#mf12fa7ec4c" x="369.767656" y="188.193359" style="fill: #eeae53; fill-opacity: 0.8; stroke: #eeae53; stroke-opacity: 0.8"/>
    </g>
   </g>
   <g id="text_17">
    <!-- zero-cot -->
    <g style="fill: #262626" transform="translate(389.567656 191.080859) scale(0.11 -0.11)">
     <defs>
      <path id="ArialMT-7a" d="M 125 0 
L 125 456 
L 2238 2881 
Q 1878 2863 1603 2863 
L 250 2863 
L 250 3319 
L 2963 3319 
L 2963 2947 
L 1166 841 
L 819 456 
Q 1197 484 1528 484 
L 3063 484 
L 3063 0 
L 125 0 
z
" transform="scale(0.015625)"/>
      <path id="ArialMT-65" d="M 2694 1069 
L 3275 997 
Q 3138 488 2766 206 
Q 2394 -75 1816 -75 
Q 1088 -75 661 373 
Q 234 822 234 1631 
Q 234 2469 665 2931 
Q 1097 3394 1784 3394 
Q 2450 3394 2872 2941 
Q 3294 2488 3294 1666 
Q 3294 1616 3291 1516 
L 816 1516 
Q 847 969 1125 678 
Q 1403 388 1819 388 
Q 2128 388 2347 550 
Q 2566 713 2694 1069 
z
M 847 1978 
L 2700 1978 
Q 2663 2397 2488 2606 
Q 2219 2931 1791 2931 
Q 1403 2931 1139 2672 
Q 875 2413 847 1978 
z
" transform="scale(0.015625)"/>
      <path id="ArialMT-72" d="M 416 0 
L 416 3319 
L 922 3319 
L 922 2816 
Q 1116 3169 1280 3281 
Q 1444 3394 1641 3394 
Q 1925 3394 2219 3213 
L 2025 2691 
Q 1819 2813 1613 2813 
Q 1428 2813 1281 2702 
Q 1134 2591 1072 2394 
Q 978 2094 978 1738 
L 978 0 
L 416 0 
z
" transform="scale(0.015625)"/>
      <path id="ArialMT-6f" d="M 213 1659 
Q 213 2581 725 3025 
Q 1153 3394 1769 3394 
Q 2453 3394 2887 2945 
Q 3322 2497 3322 1706 
Q 3322 1066 3130 698 
Q 2938 331 2570 128 
Q 2203 -75 1769 -75 
Q 1072 -75 642 372 
Q 213 819 213 1659 
z
M 791 1659 
Q 791 1022 1069 705 
Q 1347 388 1769 388 
Q 2188 388 2466 706 
Q 2744 1025 2744 1678 
Q 2744 2294 2464 2611 
Q 2184 2928 1769 2928 
Q 1347 2928 1069 2612 
Q 791 2297 791 1659 
z
" transform="scale(0.015625)"/>
      <path id="ArialMT-2d" d="M 203 1375 
L 203 1941 
L 1931 1941 
L 1931 1375 
L 203 1375 
z
" transform="scale(0.015625)"/>
      <path id="ArialMT-74" d="M 1650 503 
L 1731 6 
Q 1494 -44 1306 -44 
Q 1000 -44 831 53 
Q 663 150 594 308 
Q 525 466 525 972 
L 525 2881 
L 113 2881 
L 113 3319 
L 525 3319 
L 525 4141 
L 1084 4478 
L 1084 3319 
L 1650 3319 
L 1650 2881 
L 1084 2881 
L 1084 941 
Q 1084 700 1114 631 
Q 1144 563 1211 522 
Q 1278 481 1403 481 
Q 1497 481 1650 503 
z
" transform="scale(0.015625)"/>
     </defs>
     <use xlink:href="#ArialMT-7a"/>
     <use xlink:href="#ArialMT-65" transform="translate(50 0)"/>
     <use xlink:href="#ArialMT-72" transform="translate(105.615234 0)"/>
     <use xlink:href="#ArialMT-6f" transform="translate(138.916016 0)"/>
     <use xlink:href="#ArialMT-2d" transform="translate(194.53125 0)"/>
     <use xlink:href="#ArialMT-63" transform="translate(227.832031 0)"/>
     <use xlink:href="#ArialMT-6f" transform="translate(277.832031 0)"/>
     <use xlink:href="#ArialMT-74" transform="translate(333.447266 0)"/>
    </g>
   </g>
  </g>
 </g>
 <defs>
  <clipPath id="p92f66b17e9">
   <rect x="75.8169" y="12.96" width="279.643619" height="298.98"/>
  </clipPath>
 </defs>
</svg>
