<?xml version="1.0" encoding="utf-8" standalone="no"?>
<!DOCTYPE svg PUBLIC "-//W3C//DTD SVG 1.1//EN"
  "http://www.w3.org/Graphics/SVG/1.1/DTD/svg11.dtd">
<svg xmlns:xlink="http://www.w3.org/1999/xlink" width="533.52pt" height="360pt" viewBox="0 0 533.52 360" xmlns="http://www.w3.org/2000/svg" version="1.1">
 <metadata>
  <rdf:RDF xmlns:dc="http://purl.org/dc/elements/1.1/" xmlns:cc="http://creativecommons.org/ns#" xmlns:rdf="http://www.w3.org/1999/02/22-rdf-syntax-ns#">
   <cc:Work>
    <dc:type rdf:resource="http://purl.org/dc/dcmitype/StillImage"/>
    <dc:date>2025-01-17T14:13:15.925076</dc:date>
    <dc:format>image/svg+xml</dc:format>
    <dc:creator>
     <cc:Agent>
      <dc:title>Matplotlib v3.10.0, https://matplotlib.org/</dc:title>
     </cc:Agent>
    </dc:creator>
   </cc:Work>
  </rdf:RDF>
 </metadata>
 <defs>
  <style type="text/css">*{stroke-linejoin: round; stroke-linecap: butt}</style>
 </defs>
 <g id="figure_1">
  <g id="patch_1">
   <path d="M 0 360 
L 533.52 360 
L 533.52 0 
L 0 0 
z
" style="fill: #ffffff"/>
  </g>
  <g id="axes_1">
   <g id="patch_2">
    <path d="M 92.09889 311.94 
L 354.6648 311.94 
L 354.6648 12.96 
L 92.09889 12.96 
z
" style="fill: #ffffff"/>
   </g>
   <g id="matplotlib.axis_1">
    <g id="xtick_1">
     <g id="line2d_1">
      <defs>
       <path id="m22a31ae140" d="M 0 0 
L 0 6 
" style="stroke: #262626; stroke-width: 1.25"/>
      </defs>
      <g>
       <use xlink:href="#m22a31ae140" x="104.033704" y="311.94" style="fill: #262626; stroke: #262626; stroke-width: 1.25"/>
      </g>
     </g>
     <g id="text_1">
      <!-- 0.0 -->
      <g style="fill: #262626" transform="translate(96.388704 329.313594) scale(0.11 -0.11)">
       <defs>
        <path id="ArialMT-30" d="M 266 2259 
Q 266 3072 433 3567 
Q 600 4063 929 4331 
Q 1259 4600 1759 4600 
Q 2128 4600 2406 4451 
Q 2684 4303 2865 4023 
Q 3047 3744 3150 3342 
Q 3253 2941 3253 2259 
Q 3253 1453 3087 958 
Q 2922 463 2592 192 
Q 2263 -78 1759 -78 
Q 1097 -78 719 397 
Q 266 969 266 2259 
z
M 844 2259 
Q 844 1131 1108 757 
Q 1372 384 1759 384 
Q 2147 384 2411 759 
Q 2675 1134 2675 2259 
Q 2675 3391 2411 3762 
Q 2147 4134 1753 4134 
Q 1366 4134 1134 3806 
Q 844 3388 844 2259 
z
" transform="scale(0.015625)"/>
        <path id="ArialMT-2e" d="M 581 0 
L 581 641 
L 1222 641 
L 1222 0 
L 581 0 
z
" transform="scale(0.015625)"/>
       </defs>
       <use xlink:href="#ArialMT-30"/>
       <use xlink:href="#ArialMT-2e" transform="translate(55.615234 0)"/>
       <use xlink:href="#ArialMT-30" transform="translate(83.398438 0)"/>
      </g>
     </g>
    </g>
    <g id="xtick_2">
     <g id="line2d_2">
      <g>
       <use xlink:href="#m22a31ae140" x="154.285553" y="311.94" style="fill: #262626; stroke: #262626; stroke-width: 1.25"/>
      </g>
     </g>
     <g id="text_2">
      <!-- 0.2 -->
      <g style="fill: #262626" transform="translate(146.640553 329.313594) scale(0.11 -0.11)">
       <defs>
        <path id="ArialMT-32" d="M 3222 541 
L 3222 0 
L 194 0 
Q 188 203 259 391 
Q 375 700 629 1000 
Q 884 1300 1366 1694 
Q 2113 2306 2375 2664 
Q 2638 3022 2638 3341 
Q 2638 3675 2398 3904 
Q 2159 4134 1775 4134 
Q 1369 4134 1125 3890 
Q 881 3647 878 3216 
L 300 3275 
Q 359 3922 746 4261 
Q 1134 4600 1788 4600 
Q 2447 4600 2831 4234 
Q 3216 3869 3216 3328 
Q 3216 3053 3103 2787 
Q 2991 2522 2730 2228 
Q 2469 1934 1863 1422 
Q 1356 997 1212 845 
Q 1069 694 975 541 
L 3222 541 
z
" transform="scale(0.015625)"/>
       </defs>
       <use xlink:href="#ArialMT-30"/>
       <use xlink:href="#ArialMT-2e" transform="translate(55.615234 0)"/>
       <use xlink:href="#ArialMT-32" transform="translate(83.398438 0)"/>
      </g>
     </g>
    </g>
    <g id="xtick_3">
     <g id="line2d_3">
      <g>
       <use xlink:href="#m22a31ae140" x="204.537402" y="311.94" style="fill: #262626; stroke: #262626; stroke-width: 1.25"/>
      </g>
     </g>
     <g id="text_3">
      <!-- 0.4 -->
      <g style="fill: #262626" transform="translate(196.892402 329.313594) scale(0.11 -0.11)">
       <defs>
        <path id="ArialMT-34" d="M 2069 0 
L 2069 1097 
L 81 1097 
L 81 1613 
L 2172 4581 
L 2631 4581 
L 2631 1613 
L 3250 1613 
L 3250 1097 
L 2631 1097 
L 2631 0 
L 2069 0 
z
M 2069 1613 
L 2069 3678 
L 634 1613 
L 2069 1613 
z
" transform="scale(0.015625)"/>
       </defs>
       <use xlink:href="#ArialMT-30"/>
       <use xlink:href="#ArialMT-2e" transform="translate(55.615234 0)"/>
       <use xlink:href="#ArialMT-34" transform="translate(83.398438 0)"/>
      </g>
     </g>
    </g>
    <g id="xtick_4">
     <g id="line2d_4">
      <g>
       <use xlink:href="#m22a31ae140" x="254.789251" y="311.94" style="fill: #262626; stroke: #262626; stroke-width: 1.25"/>
      </g>
     </g>
     <g id="text_4">
      <!-- 0.6 -->
      <g style="fill: #262626" transform="translate(247.144251 329.313594) scale(0.11 -0.11)">
       <defs>
        <path id="ArialMT-36" d="M 3184 3459 
L 2625 3416 
Q 2550 3747 2413 3897 
Q 2184 4138 1850 4138 
Q 1581 4138 1378 3988 
Q 1113 3794 959 3422 
Q 806 3050 800 2363 
Q 1003 2672 1297 2822 
Q 1591 2972 1913 2972 
Q 2475 2972 2870 2558 
Q 3266 2144 3266 1488 
Q 3266 1056 3080 686 
Q 2894 316 2569 119 
Q 2244 -78 1831 -78 
Q 1128 -78 684 439 
Q 241 956 241 2144 
Q 241 3472 731 4075 
Q 1159 4600 1884 4600 
Q 2425 4600 2770 4297 
Q 3116 3994 3184 3459 
z
M 888 1484 
Q 888 1194 1011 928 
Q 1134 663 1356 523 
Q 1578 384 1822 384 
Q 2178 384 2434 671 
Q 2691 959 2691 1453 
Q 2691 1928 2437 2201 
Q 2184 2475 1800 2475 
Q 1419 2475 1153 2201 
Q 888 1928 888 1484 
z
" transform="scale(0.015625)"/>
       </defs>
       <use xlink:href="#ArialMT-30"/>
       <use xlink:href="#ArialMT-2e" transform="translate(55.615234 0)"/>
       <use xlink:href="#ArialMT-36" transform="translate(83.398438 0)"/>
      </g>
     </g>
    </g>
    <g id="xtick_5">
     <g id="line2d_5">
      <g>
       <use xlink:href="#m22a31ae140" x="305.041099" y="311.94" style="fill: #262626; stroke: #262626; stroke-width: 1.25"/>
      </g>
     </g>
     <g id="text_5">
      <!-- 0.8 -->
      <g style="fill: #262626" transform="translate(297.396099 329.313594) scale(0.11 -0.11)">
       <defs>
        <path id="ArialMT-38" d="M 1131 2484 
Q 781 2613 612 2850 
Q 444 3088 444 3419 
Q 444 3919 803 4259 
Q 1163 4600 1759 4600 
Q 2359 4600 2725 4251 
Q 3091 3903 3091 3403 
Q 3091 3084 2923 2848 
Q 2756 2613 2416 2484 
Q 2838 2347 3058 2040 
Q 3278 1734 3278 1309 
Q 3278 722 2862 322 
Q 2447 -78 1769 -78 
Q 1091 -78 675 323 
Q 259 725 259 1325 
Q 259 1772 486 2073 
Q 713 2375 1131 2484 
z
M 1019 3438 
Q 1019 3113 1228 2906 
Q 1438 2700 1772 2700 
Q 2097 2700 2305 2904 
Q 2513 3109 2513 3406 
Q 2513 3716 2298 3927 
Q 2084 4138 1766 4138 
Q 1444 4138 1231 3931 
Q 1019 3725 1019 3438 
z
M 838 1322 
Q 838 1081 952 856 
Q 1066 631 1291 507 
Q 1516 384 1775 384 
Q 2178 384 2440 643 
Q 2703 903 2703 1303 
Q 2703 1709 2433 1975 
Q 2163 2241 1756 2241 
Q 1359 2241 1098 1978 
Q 838 1716 838 1322 
z
" transform="scale(0.015625)"/>
       </defs>
       <use xlink:href="#ArialMT-30"/>
       <use xlink:href="#ArialMT-2e" transform="translate(55.615234 0)"/>
       <use xlink:href="#ArialMT-38" transform="translate(83.398438 0)"/>
      </g>
     </g>
    </g>
    <g id="text_6">
     <!-- acc -->
     <g style="fill: #262626" transform="translate(214.045282 344.089219) scale(0.12 -0.12)">
      <defs>
       <path id="ArialMT-61" d="M 2588 409 
Q 2275 144 1986 34 
Q 1697 -75 1366 -75 
Q 819 -75 525 192 
Q 231 459 231 875 
Q 231 1119 342 1320 
Q 453 1522 633 1644 
Q 813 1766 1038 1828 
Q 1203 1872 1538 1913 
Q 2219 1994 2541 2106 
Q 2544 2222 2544 2253 
Q 2544 2597 2384 2738 
Q 2169 2928 1744 2928 
Q 1347 2928 1158 2789 
Q 969 2650 878 2297 
L 328 2372 
Q 403 2725 575 2942 
Q 747 3159 1072 3276 
Q 1397 3394 1825 3394 
Q 2250 3394 2515 3294 
Q 2781 3194 2906 3042 
Q 3031 2891 3081 2659 
Q 3109 2516 3109 2141 
L 3109 1391 
Q 3109 606 3145 398 
Q 3181 191 3288 0 
L 2700 0 
Q 2613 175 2588 409 
z
M 2541 1666 
Q 2234 1541 1622 1453 
Q 1275 1403 1131 1340 
Q 988 1278 909 1158 
Q 831 1038 831 891 
Q 831 666 1001 516 
Q 1172 366 1500 366 
Q 1825 366 2078 508 
Q 2331 650 2450 897 
Q 2541 1088 2541 1459 
L 2541 1666 
z
" transform="scale(0.015625)"/>
       <path id="ArialMT-63" d="M 2588 1216 
L 3141 1144 
Q 3050 572 2676 248 
Q 2303 -75 1759 -75 
Q 1078 -75 664 370 
Q 250 816 250 1647 
Q 250 2184 428 2587 
Q 606 2991 970 3192 
Q 1334 3394 1763 3394 
Q 2303 3394 2647 3120 
Q 2991 2847 3088 2344 
L 2541 2259 
Q 2463 2594 2264 2762 
Q 2066 2931 1784 2931 
Q 1359 2931 1093 2626 
Q 828 2322 828 1663 
Q 828 994 1084 691 
Q 1341 388 1753 388 
Q 2084 388 2306 591 
Q 2528 794 2588 1216 
z
" transform="scale(0.015625)"/>
      </defs>
      <use xlink:href="#ArialMT-61"/>
      <use xlink:href="#ArialMT-63" transform="translate(55.615234 0)"/>
      <use xlink:href="#ArialMT-63" transform="translate(105.615234 0)"/>
     </g>
    </g>
   </g>
   <g id="matplotlib.axis_2">
    <g id="ytick_1">
     <g id="line2d_6">
      <defs>
       <path id="ma5ae80a972" d="M 0 0 
L -6 0 
" style="stroke: #262626; stroke-width: 1.25"/>
      </defs>
      <g>
       <use xlink:href="#ma5ae80a972" x="92.09889" y="278.145645" style="fill: #262626; stroke: #262626; stroke-width: 1.25"/>
      </g>
     </g>
     <g id="text_7">
      <!-- 200 -->
      <g style="fill: #262626" transform="translate(64.247796 282.082442) scale(0.11 -0.11)">
       <use xlink:href="#ArialMT-32"/>
       <use xlink:href="#ArialMT-30" transform="translate(55.615234 0)"/>
       <use xlink:href="#ArialMT-30" transform="translate(111.230469 0)"/>
      </g>
     </g>
    </g>
    <g id="ytick_2">
     <g id="line2d_7">
      <g>
       <use xlink:href="#ma5ae80a972" x="92.09889" y="221.253722" style="fill: #262626; stroke: #262626; stroke-width: 1.25"/>
      </g>
     </g>
     <g id="text_8">
      <!-- 400 -->
      <g style="fill: #262626" transform="translate(64.247796 225.190519) scale(0.11 -0.11)">
       <use xlink:href="#ArialMT-34"/>
       <use xlink:href="#ArialMT-30" transform="translate(55.615234 0)"/>
       <use xlink:href="#ArialMT-30" transform="translate(111.230469 0)"/>
      </g>
     </g>
    </g>
    <g id="ytick_3">
     <g id="line2d_8">
      <g>
       <use xlink:href="#ma5ae80a972" x="92.09889" y="164.361799" style="fill: #262626; stroke: #262626; stroke-width: 1.25"/>
      </g>
     </g>
     <g id="text_9">
      <!-- 600 -->
      <g style="fill: #262626" transform="translate(64.247796 168.298596) scale(0.11 -0.11)">
       <use xlink:href="#ArialMT-36"/>
       <use xlink:href="#ArialMT-30" transform="translate(55.615234 0)"/>
       <use xlink:href="#ArialMT-30" transform="translate(111.230469 0)"/>
      </g>
     </g>
    </g>
    <g id="ytick_4">
     <g id="line2d_9">
      <g>
       <use xlink:href="#ma5ae80a972" x="92.09889" y="107.469877" style="fill: #262626; stroke: #262626; stroke-width: 1.25"/>
      </g>
     </g>
     <g id="text_10">
      <!-- 800 -->
      <g style="fill: #262626" transform="translate(64.247796 111.406673) scale(0.11 -0.11)">
       <use xlink:href="#ArialMT-38"/>
       <use xlink:href="#ArialMT-30" transform="translate(55.615234 0)"/>
       <use xlink:href="#ArialMT-30" transform="translate(111.230469 0)"/>
      </g>
     </g>
    </g>
    <g id="ytick_5">
     <g id="line2d_10">
      <g>
       <use xlink:href="#ma5ae80a972" x="92.09889" y="50.577954" style="fill: #262626; stroke: #262626; stroke-width: 1.25"/>
      </g>
     </g>
     <g id="text_11">
      <!-- 1000 -->
      <g style="fill: #262626" transform="translate(58.130765 54.51475) scale(0.11 -0.11)">
       <defs>
        <path id="ArialMT-31" d="M 2384 0 
L 1822 0 
L 1822 3584 
Q 1619 3391 1289 3197 
Q 959 3003 697 2906 
L 697 3450 
Q 1169 3672 1522 3987 
Q 1875 4303 2022 4600 
L 2384 4600 
L 2384 0 
z
" transform="scale(0.015625)"/>
       </defs>
       <use xlink:href="#ArialMT-31"/>
       <use xlink:href="#ArialMT-30" transform="translate(55.615234 0)"/>
       <use xlink:href="#ArialMT-30" transform="translate(111.230469 0)"/>
       <use xlink:href="#ArialMT-30" transform="translate(166.845703 0)"/>
      </g>
     </g>
    </g>
    <g id="text_12">
     <!-- p -->
     <g style="fill: #262626" transform="translate(51.745765 165.786563) rotate(-90) scale(0.12 -0.12)">
      <defs>
       <path id="ArialMT-70" d="M 422 -1272 
L 422 3319 
L 934 3319 
L 934 2888 
Q 1116 3141 1344 3267 
Q 1572 3394 1897 3394 
Q 2322 3394 2647 3175 
Q 2972 2956 3137 2557 
Q 3303 2159 3303 1684 
Q 3303 1175 3120 767 
Q 2938 359 2589 142 
Q 2241 -75 1856 -75 
Q 1575 -75 1351 44 
Q 1128 163 984 344 
L 984 -1272 
L 422 -1272 
z
M 931 1641 
Q 931 1000 1190 694 
Q 1450 388 1819 388 
Q 2194 388 2461 705 
Q 2728 1022 2728 1688 
Q 2728 2322 2467 2637 
Q 2206 2953 1844 2953 
Q 1484 2953 1207 2617 
Q 931 2281 931 1641 
z
" transform="scale(0.015625)"/>
      </defs>
      <use xlink:href="#ArialMT-70"/>
     </g>
    </g>
   </g>
   <g id="PathCollection_1">
    <defs>
     <path id="me38d432ad2" d="M 0 3 
C 0.795609 3 1.55874 2.683901 2.12132 2.12132 
C 2.683901 1.55874 3 0.795609 3 0 
C 3 -0.795609 2.683901 -1.55874 2.12132 -2.12132 
C 1.55874 -2.683901 0.795609 -3 0 -3 
C -0.795609 -3 -1.55874 -2.683901 -2.12132 -2.12132 
C -2.683901 -1.55874 -3 -0.795609 -3 0 
C -3 0.795609 -2.683901 1.55874 -2.12132 2.12132 
C -1.55874 2.683901 -0.795609 3 0 3 
z
" style="stroke: #eeae53; stroke-opacity: 0.8"/>
    </defs>
    <g clip-path="url(#pd942ed1ec4)">
     <use xlink:href="#me38d432ad2" x="104.033704" y="292.084166" style="fill: #eeae53; fill-opacity: 0.8; stroke: #eeae53; stroke-opacity: 0.8"/>
     <use xlink:href="#me38d432ad2" x="124.406075" y="285.826055" style="fill: #eeae53; fill-opacity: 0.8; stroke: #eeae53; stroke-opacity: 0.8"/>
     <use xlink:href="#me38d432ad2" x="130.682412" y="278.430105" style="fill: #eeae53; fill-opacity: 0.8; stroke: #eeae53; stroke-opacity: 0.8"/>
     <use xlink:href="#me38d432ad2" x="121.563419" y="269.042938" style="fill: #eeae53; fill-opacity: 0.8; stroke: #eeae53; stroke-opacity: 0.8"/>
     <use xlink:href="#me38d432ad2" x="146.620017" y="257.095634" style="fill: #eeae53; fill-opacity: 0.8; stroke: #eeae53; stroke-opacity: 0.8"/>
     <use xlink:href="#me38d432ad2" x="143.118475" y="241.450355" style="fill: #eeae53; fill-opacity: 0.8; stroke: #eeae53; stroke-opacity: 0.8"/>
     <use xlink:href="#me38d432ad2" x="161.613948" y="220.969263" style="fill: #eeae53; fill-opacity: 0.8; stroke: #eeae53; stroke-opacity: 0.8"/>
     <use xlink:href="#me38d432ad2" x="189.461847" y="192.807761" style="fill: #eeae53; fill-opacity: 0.8; stroke: #eeae53; stroke-opacity: 0.8"/>
     <use xlink:href="#me38d432ad2" x="231.947501" y="152.983415" style="fill: #eeae53; fill-opacity: 0.8; stroke: #eeae53; stroke-opacity: 0.8"/>
     <use xlink:href="#me38d432ad2" x="299.457561" y="152.698955" style="fill: #eeae53; fill-opacity: 0.8; stroke: #eeae53; stroke-opacity: 0.8"/>
     <use xlink:href="#me38d432ad2" x="313.416407" y="93.246896" style="fill: #eeae53; fill-opacity: 0.8; stroke: #eeae53; stroke-opacity: 0.8"/>
     <use xlink:href="#me38d432ad2" x="342.729986" y="92.962436" style="fill: #eeae53; fill-opacity: 0.8; stroke: #eeae53; stroke-opacity: 0.8"/>
    </g>
   </g>
   <g id="FillBetweenPolyCollection_1">
    <defs>
     <path id="mdf67856087" d="M 104.033704 -88.744749 
L 104.033704 -61.65 
L 106.444778 -64.273354 
L 108.855851 -66.440639 
L 111.266925 -68.843379 
L 113.677998 -71.200755 
L 116.089072 -73.711919 
L 118.500145 -76.158223 
L 120.911219 -78.411949 
L 123.322293 -80.667655 
L 125.733366 -82.672942 
L 128.14444 -84.841376 
L 130.555513 -86.837954 
L 132.966587 -88.676484 
L 135.37766 -90.805114 
L 137.788734 -92.792922 
L 140.199807 -94.803992 
L 142.610881 -96.868517 
L 145.021955 -99.052921 
L 147.433028 -101.114654 
L 149.844102 -103.320336 
L 152.255175 -105.489964 
L 154.666249 -107.497898 
L 157.077322 -109.337367 
L 159.488396 -111.324833 
L 161.899469 -113.177728 
L 164.310543 -115.02433 
L 166.721616 -116.880269 
L 169.13269 -118.911528 
L 171.543764 -120.734323 
L 173.954837 -122.695315 
L 176.365911 -124.707096 
L 178.776984 -126.708461 
L 181.188058 -128.690597 
L 183.599131 -130.507498 
L 186.010205 -132.323879 
L 188.421278 -134.147491 
L 190.832352 -135.972681 
L 193.243426 -137.926307 
L 195.654499 -139.886719 
L 198.065573 -141.84975 
L 200.476646 -143.903787 
L 202.88772 -145.857778 
L 205.298793 -147.728391 
L 207.709867 -149.683929 
L 210.12094 -151.639466 
L 212.532014 -153.559064 
L 214.943088 -155.36586 
L 217.354161 -157.33444 
L 219.765235 -159.391794 
L 222.176308 -161.200513 
L 224.587382 -162.982039 
L 226.998455 -164.673583 
L 229.409529 -166.401722 
L 231.820602 -167.968892 
L 234.231676 -169.763933 
L 236.64275 -171.443222 
L 239.053823 -173.005593 
L 241.464897 -174.439042 
L 243.87597 -176.075298 
L 246.287044 -177.871255 
L 248.698117 -179.693611 
L 251.109191 -181.382941 
L 253.520264 -183.079855 
L 255.931338 -184.849356 
L 258.342412 -186.620951 
L 260.753485 -188.394954 
L 263.164559 -190.168957 
L 265.575632 -191.94296 
L 267.986706 -193.774411 
L 270.397779 -195.608425 
L 272.808853 -197.442439 
L 275.219926 -199.276568 
L 277.631 -200.900568 
L 280.042074 -202.761902 
L 282.453147 -204.624268 
L 284.864221 -206.341791 
L 287.275294 -207.987396 
L 289.686368 -209.747779 
L 292.097441 -211.562953 
L 294.508515 -213.378127 
L 296.919588 -215.109121 
L 299.330662 -216.823806 
L 301.741735 -218.538491 
L 304.152809 -220.300558 
L 306.563883 -222.071501 
L 308.974956 -223.842444 
L 311.38603 -225.613388 
L 313.797103 -227.384331 
L 316.208177 -229.155274 
L 318.61925 -230.926217 
L 321.030324 -232.69716 
L 323.441397 -234.468103 
L 325.852471 -236.239046 
L 328.263545 -238.00999 
L 330.674618 -239.741471 
L 333.085692 -241.447468 
L 335.496765 -243.156569 
L 337.907839 -244.866669 
L 340.318912 -246.57677 
L 342.729986 -248.277328 
L 342.729986 -333.45 
L 342.729986 -333.45 
L 340.318912 -330.730881 
L 337.907839 -328.011762 
L 335.496765 -325.292644 
L 333.085692 -322.573525 
L 330.674618 -319.854406 
L 328.263545 -317.135287 
L 325.852471 -314.416169 
L 323.441397 -311.69705 
L 321.030324 -308.941017 
L 318.61925 -306.261598 
L 316.208177 -303.546052 
L 313.797103 -300.830505 
L 311.38603 -298.114958 
L 308.974956 -295.399411 
L 306.563883 -292.683864 
L 304.152809 -289.967165 
L 301.741735 -287.248022 
L 299.330662 -284.528362 
L 296.919588 -281.808303 
L 294.508515 -279.088244 
L 292.097441 -276.368185 
L 289.686368 -273.639008 
L 287.275294 -270.830585 
L 284.864221 -268.022161 
L 282.453147 -265.213455 
L 280.042074 -262.403622 
L 277.631 -259.59379 
L 275.219926 -256.783958 
L 272.808853 -253.974125 
L 270.397779 -251.164293 
L 267.986706 -248.35446 
L 265.575632 -245.544628 
L 263.164559 -242.734795 
L 260.753485 -239.924963 
L 258.342412 -237.11513 
L 255.931338 -234.49017 
L 253.520264 -231.867663 
L 251.109191 -229.245156 
L 248.698117 -226.622649 
L 246.287044 -223.770659 
L 243.87597 -221.006171 
L 241.464897 -218.254838 
L 239.053823 -215.412808 
L 236.64275 -212.618718 
L 234.231676 -209.96755 
L 231.820602 -207.230198 
L 229.409529 -204.459259 
L 226.998455 -201.817781 
L 224.587382 -199.279955 
L 222.176308 -196.726984 
L 219.765235 -194.081794 
L 217.354161 -191.436603 
L 214.943088 -188.791412 
L 212.532014 -186.142051 
L 210.12094 -183.489744 
L 207.709867 -180.79746 
L 205.298793 -177.982105 
L 202.88772 -175.166749 
L 200.476646 -172.658335 
L 198.065573 -169.919417 
L 195.654499 -167.382247 
L 193.243426 -164.939307 
L 190.832352 -162.303158 
L 188.421278 -159.728231 
L 186.010205 -157.414542 
L 183.599131 -155.238133 
L 181.188058 -152.657682 
L 178.776984 -150.394871 
L 176.365911 -147.855017 
L 173.954837 -145.446573 
L 171.543764 -142.836293 
L 169.13269 -140.471149 
L 166.721616 -138.381175 
L 164.310543 -135.906017 
L 161.899469 -133.755171 
L 159.488396 -131.781593 
L 157.077322 -129.791625 
L 154.666249 -127.546995 
L 152.255175 -125.533561 
L 149.844102 -123.567294 
L 147.433028 -121.485283 
L 145.021955 -119.630518 
L 142.610881 -117.691554 
L 140.199807 -115.825902 
L 137.788734 -114.061502 
L 135.37766 -112.231359 
L 132.966587 -110.554426 
L 130.555513 -108.804509 
L 128.14444 -107.054592 
L 125.733366 -105.406616 
L 123.322293 -103.699163 
L 120.911219 -101.93071 
L 118.500145 -100.019681 
L 116.089072 -97.959658 
L 113.677998 -95.899636 
L 111.266925 -93.850192 
L 108.855851 -92.14526 
L 106.444778 -90.573294 
L 104.033704 -88.744749 
z
" style="stroke: #ffffff; stroke-opacity: 0.15"/>
    </defs>
    <g clip-path="url(#pd942ed1ec4)">
     <use xlink:href="#mdf67856087" x="0" y="360" style="fill: #eeae53; fill-opacity: 0.15; stroke: #ffffff; stroke-opacity: 0.15"/>
    </g>
   </g>
   <g id="line2d_11">
    <path d="M 104.033704 285.396982 
L 106.444778 283.357253 
L 108.855851 281.317523 
L 111.266925 279.277794 
L 113.677998 277.238065 
L 116.089072 275.198336 
L 118.500145 273.158607 
L 120.911219 271.118878 
L 123.322293 269.079149 
L 125.733366 267.03942 
L 128.14444 264.999691 
L 130.555513 262.959962 
L 132.966587 260.920232 
L 135.37766 258.880503 
L 137.788734 256.840774 
L 140.199807 254.801045 
L 142.610881 252.761316 
L 145.021955 250.721587 
L 147.433028 248.681858 
L 149.844102 246.642129 
L 152.255175 244.6024 
L 154.666249 242.562671 
L 157.077322 240.522942 
L 159.488396 238.483212 
L 161.899469 236.443483 
L 164.310543 234.403754 
L 166.721616 232.364025 
L 169.13269 230.324296 
L 171.543764 228.284567 
L 173.954837 226.244838 
L 176.365911 224.205109 
L 178.776984 222.16538 
L 181.188058 220.125651 
L 183.599131 218.085921 
L 186.010205 216.046192 
L 188.421278 214.006463 
L 190.832352 211.966734 
L 193.243426 209.927005 
L 195.654499 207.887276 
L 198.065573 205.847547 
L 200.476646 203.807818 
L 202.88772 201.768089 
L 205.298793 199.72836 
L 207.709867 197.688631 
L 210.12094 195.648901 
L 212.532014 193.609172 
L 214.943088 191.569443 
L 217.354161 189.529714 
L 219.765235 187.489985 
L 222.176308 185.450256 
L 224.587382 183.410527 
L 226.998455 181.370798 
L 229.409529 179.331069 
L 231.820602 177.29134 
L 234.231676 175.25161 
L 236.64275 173.211881 
L 239.053823 171.172152 
L 241.464897 169.132423 
L 243.87597 167.092694 
L 246.287044 165.052965 
L 248.698117 163.013236 
L 251.109191 160.973507 
L 253.520264 158.933778 
L 255.931338 156.894049 
L 258.342412 154.854319 
L 260.753485 152.81459 
L 263.164559 150.774861 
L 265.575632 148.735132 
L 267.986706 146.695403 
L 270.397779 144.655674 
L 272.808853 142.615945 
L 275.219926 140.576216 
L 277.631 138.536487 
L 280.042074 136.496758 
L 282.453147 134.457029 
L 284.864221 132.417299 
L 287.275294 130.37757 
L 289.686368 128.337841 
L 292.097441 126.298112 
L 294.508515 124.258383 
L 296.919588 122.218654 
L 299.330662 120.178925 
L 301.741735 118.139196 
L 304.152809 116.099467 
L 306.563883 114.059738 
L 308.974956 112.020008 
L 311.38603 109.980279 
L 313.797103 107.94055 
L 316.208177 105.900821 
L 318.61925 103.861092 
L 321.030324 101.821363 
L 323.441397 99.781634 
L 325.852471 97.741905 
L 328.263545 95.702176 
L 330.674618 93.662447 
L 333.085692 91.622717 
L 335.496765 89.582988 
L 337.907839 87.543259 
L 340.318912 85.50353 
L 342.729986 83.463801 
" clip-path="url(#pd942ed1ec4)" style="fill: none; stroke: #eeae53; stroke-width: 2.25; stroke-linecap: round"/>
   </g>
   <g id="patch_3">
    <path d="M 92.09889 311.94 
L 92.09889 12.96 
" style="fill: none; stroke: #262626; stroke-width: 1.25; stroke-linejoin: miter; stroke-linecap: square"/>
   </g>
   <g id="patch_4">
    <path d="M 92.09889 311.94 
L 354.6648 311.94 
" style="fill: none; stroke: #262626; stroke-width: 1.25; stroke-linejoin: miter; stroke-linecap: square"/>
   </g>
  </g>
  <g id="legend_1">
   <g id="text_13">
    <!-- class -->
    <g style="fill: #262626" transform="translate(427.588672 175.257812) scale(0.12 -0.12)">
     <defs>
      <path id="ArialMT-6c" d="M 409 0 
L 409 4581 
L 972 4581 
L 972 0 
L 409 0 
z
" transform="scale(0.015625)"/>
      <path id="ArialMT-73" d="M 197 991 
L 753 1078 
Q 800 744 1014 566 
Q 1228 388 1613 388 
Q 2000 388 2187 545 
Q 2375 703 2375 916 
Q 2375 1106 2209 1216 
Q 2094 1291 1634 1406 
Q 1016 1563 777 1677 
Q 538 1791 414 1992 
Q 291 2194 291 2438 
Q 291 2659 392 2848 
Q 494 3038 669 3163 
Q 800 3259 1026 3326 
Q 1253 3394 1513 3394 
Q 1903 3394 2198 3281 
Q 2494 3169 2634 2976 
Q 2775 2784 2828 2463 
L 2278 2388 
Q 2241 2644 2061 2787 
Q 1881 2931 1553 2931 
Q 1166 2931 1000 2803 
Q 834 2675 834 2503 
Q 834 2394 903 2306 
Q 972 2216 1119 2156 
Q 1203 2125 1616 2013 
Q 2213 1853 2448 1751 
Q 2684 1650 2818 1456 
Q 2953 1263 2953 975 
Q 2953 694 2789 445 
Q 2625 197 2315 61 
Q 2006 -75 1616 -75 
Q 969 -75 630 194 
Q 291 463 197 991 
z
" transform="scale(0.015625)"/>
     </defs>
     <use xlink:href="#ArialMT-63"/>
     <use xlink:href="#ArialMT-6c" transform="translate(50 0)"/>
     <use xlink:href="#ArialMT-61" transform="translate(72.216797 0)"/>
     <use xlink:href="#ArialMT-73" transform="translate(127.832031 0)"/>
     <use xlink:href="#ArialMT-73" transform="translate(177.832031 0)"/>
    </g>
   </g>
   <g id="PathCollection_2">
    <g>
     <use xlink:href="#me38d432ad2" x="369.896719" y="188.128906" style="fill: #eeae53; fill-opacity: 0.8; stroke: #eeae53; stroke-opacity: 0.8"/>
    </g>
   </g>
   <g id="text_14">
    <!-- task_5_plan_generalization -->
    <g style="fill: #262626" transform="translate(389.696719 191.016406) scale(0.11 -0.11)">
     <defs>
      <path id="ArialMT-74" d="M 1650 503 
L 1731 6 
Q 1494 -44 1306 -44 
Q 1000 -44 831 53 
Q 663 150 594 308 
Q 525 466 525 972 
L 525 2881 
L 113 2881 
L 113 3319 
L 525 3319 
L 525 4141 
L 1084 4478 
L 1084 3319 
L 1650 3319 
L 1650 2881 
L 1084 2881 
L 1084 941 
Q 1084 700 1114 631 
Q 1144 563 1211 522 
Q 1278 481 1403 481 
Q 1497 481 1650 503 
z
" transform="scale(0.015625)"/>
      <path id="ArialMT-6b" d="M 425 0 
L 425 4581 
L 988 4581 
L 988 1969 
L 2319 3319 
L 3047 3319 
L 1778 2088 
L 3175 0 
L 2481 0 
L 1384 1697 
L 988 1316 
L 988 0 
L 425 0 
z
" transform="scale(0.015625)"/>
      <path id="ArialMT-5f" d="M -97 -1272 
L -97 -866 
L 3631 -866 
L 3631 -1272 
L -97 -1272 
z
" transform="scale(0.015625)"/>
      <path id="ArialMT-35" d="M 266 1200 
L 856 1250 
Q 922 819 1161 601 
Q 1400 384 1738 384 
Q 2144 384 2425 690 
Q 2706 997 2706 1503 
Q 2706 1984 2436 2262 
Q 2166 2541 1728 2541 
Q 1456 2541 1237 2417 
Q 1019 2294 894 2097 
L 366 2166 
L 809 4519 
L 3088 4519 
L 3088 3981 
L 1259 3981 
L 1013 2750 
Q 1425 3038 1878 3038 
Q 2478 3038 2890 2622 
Q 3303 2206 3303 1553 
Q 3303 931 2941 478 
Q 2500 -78 1738 -78 
Q 1113 -78 717 272 
Q 322 622 266 1200 
z
" transform="scale(0.015625)"/>
      <path id="ArialMT-6e" d="M 422 0 
L 422 3319 
L 928 3319 
L 928 2847 
Q 1294 3394 1984 3394 
Q 2284 3394 2536 3286 
Q 2788 3178 2913 3003 
Q 3038 2828 3088 2588 
Q 3119 2431 3119 2041 
L 3119 0 
L 2556 0 
L 2556 2019 
Q 2556 2363 2490 2533 
Q 2425 2703 2258 2804 
Q 2091 2906 1866 2906 
Q 1506 2906 1245 2678 
Q 984 2450 984 1813 
L 984 0 
L 422 0 
z
" transform="scale(0.015625)"/>
      <path id="ArialMT-67" d="M 319 -275 
L 866 -356 
Q 900 -609 1056 -725 
Q 1266 -881 1628 -881 
Q 2019 -881 2231 -725 
Q 2444 -569 2519 -288 
Q 2563 -116 2559 434 
Q 2191 0 1641 0 
Q 956 0 581 494 
Q 206 988 206 1678 
Q 206 2153 378 2554 
Q 550 2956 876 3175 
Q 1203 3394 1644 3394 
Q 2231 3394 2613 2919 
L 2613 3319 
L 3131 3319 
L 3131 450 
Q 3131 -325 2973 -648 
Q 2816 -972 2473 -1159 
Q 2131 -1347 1631 -1347 
Q 1038 -1347 672 -1080 
Q 306 -813 319 -275 
z
M 784 1719 
Q 784 1066 1043 766 
Q 1303 466 1694 466 
Q 2081 466 2343 764 
Q 2606 1063 2606 1700 
Q 2606 2309 2336 2618 
Q 2066 2928 1684 2928 
Q 1309 2928 1046 2623 
Q 784 2319 784 1719 
z
" transform="scale(0.015625)"/>
      <path id="ArialMT-65" d="M 2694 1069 
L 3275 997 
Q 3138 488 2766 206 
Q 2394 -75 1816 -75 
Q 1088 -75 661 373 
Q 234 822 234 1631 
Q 234 2469 665 2931 
Q 1097 3394 1784 3394 
Q 2450 3394 2872 2941 
Q 3294 2488 3294 1666 
Q 3294 1616 3291 1516 
L 816 1516 
Q 847 969 1125 678 
Q 1403 388 1819 388 
Q 2128 388 2347 550 
Q 2566 713 2694 1069 
z
M 847 1978 
L 2700 1978 
Q 2663 2397 2488 2606 
Q 2219 2931 1791 2931 
Q 1403 2931 1139 2672 
Q 875 2413 847 1978 
z
" transform="scale(0.015625)"/>
      <path id="ArialMT-72" d="M 416 0 
L 416 3319 
L 922 3319 
L 922 2816 
Q 1116 3169 1280 3281 
Q 1444 3394 1641 3394 
Q 1925 3394 2219 3213 
L 2025 2691 
Q 1819 2813 1613 2813 
Q 1428 2813 1281 2702 
Q 1134 2591 1072 2394 
Q 978 2094 978 1738 
L 978 0 
L 416 0 
z
" transform="scale(0.015625)"/>
      <path id="ArialMT-69" d="M 425 3934 
L 425 4581 
L 988 4581 
L 988 3934 
L 425 3934 
z
M 425 0 
L 425 3319 
L 988 3319 
L 988 0 
L 425 0 
z
" transform="scale(0.015625)"/>
      <path id="ArialMT-7a" d="M 125 0 
L 125 456 
L 2238 2881 
Q 1878 2863 1603 2863 
L 250 2863 
L 250 3319 
L 2963 3319 
L 2963 2947 
L 1166 841 
L 819 456 
Q 1197 484 1528 484 
L 3063 484 
L 3063 0 
L 125 0 
z
" transform="scale(0.015625)"/>
      <path id="ArialMT-6f" d="M 213 1659 
Q 213 2581 725 3025 
Q 1153 3394 1769 3394 
Q 2453 3394 2887 2945 
Q 3322 2497 3322 1706 
Q 3322 1066 3130 698 
Q 2938 331 2570 128 
Q 2203 -75 1769 -75 
Q 1072 -75 642 372 
Q 213 819 213 1659 
z
M 791 1659 
Q 791 1022 1069 705 
Q 1347 388 1769 388 
Q 2188 388 2466 706 
Q 2744 1025 2744 1678 
Q 2744 2294 2464 2611 
Q 2184 2928 1769 2928 
Q 1347 2928 1069 2612 
Q 791 2297 791 1659 
z
" transform="scale(0.015625)"/>
     </defs>
     <use xlink:href="#ArialMT-74"/>
     <use xlink:href="#ArialMT-61" transform="translate(27.783203 0)"/>
     <use xlink:href="#ArialMT-73" transform="translate(83.398438 0)"/>
     <use xlink:href="#ArialMT-6b" transform="translate(133.398438 0)"/>
     <use xlink:href="#ArialMT-5f" transform="translate(183.398438 0)"/>
     <use xlink:href="#ArialMT-35" transform="translate(239.013672 0)"/>
     <use xlink:href="#ArialMT-5f" transform="translate(294.628906 0)"/>
     <use xlink:href="#ArialMT-70" transform="translate(350.244141 0)"/>
     <use xlink:href="#ArialMT-6c" transform="translate(405.859375 0)"/>
     <use xlink:href="#ArialMT-61" transform="translate(428.076172 0)"/>
     <use xlink:href="#ArialMT-6e" transform="translate(483.691406 0)"/>
     <use xlink:href="#ArialMT-5f" transform="translate(539.306641 0)"/>
     <use xlink:href="#ArialMT-67" transform="translate(594.921875 0)"/>
     <use xlink:href="#ArialMT-65" transform="translate(650.537109 0)"/>
     <use xlink:href="#ArialMT-6e" transform="translate(706.152344 0)"/>
     <use xlink:href="#ArialMT-65" transform="translate(761.767578 0)"/>
     <use xlink:href="#ArialMT-72" transform="translate(817.382812 0)"/>
     <use xlink:href="#ArialMT-61" transform="translate(850.683594 0)"/>
     <use xlink:href="#ArialMT-6c" transform="translate(906.298828 0)"/>
     <use xlink:href="#ArialMT-69" transform="translate(928.515625 0)"/>
     <use xlink:href="#ArialMT-7a" transform="translate(950.732422 0)"/>
     <use xlink:href="#ArialMT-61" transform="translate(1000.732422 0)"/>
     <use xlink:href="#ArialMT-74" transform="translate(1056.347656 0)"/>
     <use xlink:href="#ArialMT-69" transform="translate(1084.130859 0)"/>
     <use xlink:href="#ArialMT-6f" transform="translate(1106.347656 0)"/>
     <use xlink:href="#ArialMT-6e" transform="translate(1161.962891 0)"/>
    </g>
   </g>
  </g>
 </g>
 <defs>
  <clipPath id="pd942ed1ec4">
   <rect x="92.09889" y="12.96" width="262.56591" height="298.98"/>
  </clipPath>
 </defs>
</svg>
