<?xml version="1.0" encoding="utf-8" standalone="no"?>
<!DOCTYPE svg PUBLIC "-//W3C//DTD SVG 1.1//EN"
  "http://www.w3.org/Graphics/SVG/1.1/DTD/svg11.dtd">
<svg xmlns:xlink="http://www.w3.org/1999/xlink" width="439.2pt" height="360pt" viewBox="0 0 439.2 360" xmlns="http://www.w3.org/2000/svg" version="1.1">
 <metadata>
  <rdf:RDF xmlns:dc="http://purl.org/dc/elements/1.1/" xmlns:cc="http://creativecommons.org/ns#" xmlns:rdf="http://www.w3.org/1999/02/22-rdf-syntax-ns#">
   <cc:Work>
    <dc:type rdf:resource="http://purl.org/dc/dcmitype/StillImage"/>
    <dc:date>2025-01-17T18:46:08.374009</dc:date>
    <dc:format>image/svg+xml</dc:format>
    <dc:creator>
     <cc:Agent>
      <dc:title>Matplotlib v3.10.0, https://matplotlib.org/</dc:title>
     </cc:Agent>
    </dc:creator>
   </cc:Work>
  </rdf:RDF>
 </metadata>
 <defs>
  <style type="text/css">*{stroke-linejoin: round; stroke-linecap: butt}</style>
 </defs>
 <g id="figure_1">
  <g id="patch_1">
   <path d="M 0 360 
L 439.2 360 
L 439.2 0 
L 0 0 
z
" style="fill: #ffffff"/>
  </g>
  <g id="axes_1">
   <g id="patch_2">
    <path d="M 75.8169 311.94 
L 355.460519 311.94 
L 355.460519 12.96 
L 75.8169 12.96 
z
" style="fill: #ffffff"/>
   </g>
   <g id="matplotlib.axis_1">
    <g id="xtick_1">
     <g id="line2d_1">
      <defs>
       <path id="m5f8dfb5737" d="M 0 0 
L 0 6 
" style="stroke: #262626; stroke-width: 1.25"/>
      </defs>
      <g>
       <use xlink:href="#m5f8dfb5737" x="88.527974" y="311.94" style="fill: #262626; stroke: #262626; stroke-width: 1.25"/>
      </g>
     </g>
     <g id="text_1">
      <!-- 0.0 -->
      <g style="fill: #262626" transform="translate(80.882974 329.313594) scale(0.11 -0.11)">
       <defs>
        <path id="ArialMT-30" d="M 266 2259 
Q 266 3072 433 3567 
Q 600 4063 929 4331 
Q 1259 4600 1759 4600 
Q 2128 4600 2406 4451 
Q 2684 4303 2865 4023 
Q 3047 3744 3150 3342 
Q 3253 2941 3253 2259 
Q 3253 1453 3087 958 
Q 2922 463 2592 192 
Q 2263 -78 1759 -78 
Q 1097 -78 719 397 
Q 266 969 266 2259 
z
M 844 2259 
Q 844 1131 1108 757 
Q 1372 384 1759 384 
Q 2147 384 2411 759 
Q 2675 1134 2675 2259 
Q 2675 3391 2411 3762 
Q 2147 4134 1753 4134 
Q 1366 4134 1134 3806 
Q 844 3388 844 2259 
z
" transform="scale(0.015625)"/>
        <path id="ArialMT-2e" d="M 581 0 
L 581 641 
L 1222 641 
L 1222 0 
L 581 0 
z
" transform="scale(0.015625)"/>
       </defs>
       <use xlink:href="#ArialMT-30"/>
       <use xlink:href="#ArialMT-2e" transform="translate(55.615234 0)"/>
       <use xlink:href="#ArialMT-30" transform="translate(83.398438 0)"/>
      </g>
     </g>
    </g>
    <g id="xtick_2">
     <g id="line2d_2">
      <g>
       <use xlink:href="#m5f8dfb5737" x="143.283368" y="311.94" style="fill: #262626; stroke: #262626; stroke-width: 1.25"/>
      </g>
     </g>
     <g id="text_2">
      <!-- 0.2 -->
      <g style="fill: #262626" transform="translate(135.638368 329.313594) scale(0.11 -0.11)">
       <defs>
        <path id="ArialMT-32" d="M 3222 541 
L 3222 0 
L 194 0 
Q 188 203 259 391 
Q 375 700 629 1000 
Q 884 1300 1366 1694 
Q 2113 2306 2375 2664 
Q 2638 3022 2638 3341 
Q 2638 3675 2398 3904 
Q 2159 4134 1775 4134 
Q 1369 4134 1125 3890 
Q 881 3647 878 3216 
L 300 3275 
Q 359 3922 746 4261 
Q 1134 4600 1788 4600 
Q 2447 4600 2831 4234 
Q 3216 3869 3216 3328 
Q 3216 3053 3103 2787 
Q 2991 2522 2730 2228 
Q 2469 1934 1863 1422 
Q 1356 997 1212 845 
Q 1069 694 975 541 
L 3222 541 
z
" transform="scale(0.015625)"/>
       </defs>
       <use xlink:href="#ArialMT-30"/>
       <use xlink:href="#ArialMT-2e" transform="translate(55.615234 0)"/>
       <use xlink:href="#ArialMT-32" transform="translate(83.398438 0)"/>
      </g>
     </g>
    </g>
    <g id="xtick_3">
     <g id="line2d_3">
      <g>
       <use xlink:href="#m5f8dfb5737" x="198.038762" y="311.94" style="fill: #262626; stroke: #262626; stroke-width: 1.25"/>
      </g>
     </g>
     <g id="text_3">
      <!-- 0.4 -->
      <g style="fill: #262626" transform="translate(190.393762 329.313594) scale(0.11 -0.11)">
       <defs>
        <path id="ArialMT-34" d="M 2069 0 
L 2069 1097 
L 81 1097 
L 81 1613 
L 2172 4581 
L 2631 4581 
L 2631 1613 
L 3250 1613 
L 3250 1097 
L 2631 1097 
L 2631 0 
L 2069 0 
z
M 2069 1613 
L 2069 3678 
L 634 1613 
L 2069 1613 
z
" transform="scale(0.015625)"/>
       </defs>
       <use xlink:href="#ArialMT-30"/>
       <use xlink:href="#ArialMT-2e" transform="translate(55.615234 0)"/>
       <use xlink:href="#ArialMT-34" transform="translate(83.398438 0)"/>
      </g>
     </g>
    </g>
    <g id="xtick_4">
     <g id="line2d_4">
      <g>
       <use xlink:href="#m5f8dfb5737" x="252.794156" y="311.94" style="fill: #262626; stroke: #262626; stroke-width: 1.25"/>
      </g>
     </g>
     <g id="text_4">
      <!-- 0.6 -->
      <g style="fill: #262626" transform="translate(245.149156 329.313594) scale(0.11 -0.11)">
       <defs>
        <path id="ArialMT-36" d="M 3184 3459 
L 2625 3416 
Q 2550 3747 2413 3897 
Q 2184 4138 1850 4138 
Q 1581 4138 1378 3988 
Q 1113 3794 959 3422 
Q 806 3050 800 2363 
Q 1003 2672 1297 2822 
Q 1591 2972 1913 2972 
Q 2475 2972 2870 2558 
Q 3266 2144 3266 1488 
Q 3266 1056 3080 686 
Q 2894 316 2569 119 
Q 2244 -78 1831 -78 
Q 1128 -78 684 439 
Q 241 956 241 2144 
Q 241 3472 731 4075 
Q 1159 4600 1884 4600 
Q 2425 4600 2770 4297 
Q 3116 3994 3184 3459 
z
M 888 1484 
Q 888 1194 1011 928 
Q 1134 663 1356 523 
Q 1578 384 1822 384 
Q 2178 384 2434 671 
Q 2691 959 2691 1453 
Q 2691 1928 2437 2201 
Q 2184 2475 1800 2475 
Q 1419 2475 1153 2201 
Q 888 1928 888 1484 
z
" transform="scale(0.015625)"/>
       </defs>
       <use xlink:href="#ArialMT-30"/>
       <use xlink:href="#ArialMT-2e" transform="translate(55.615234 0)"/>
       <use xlink:href="#ArialMT-36" transform="translate(83.398438 0)"/>
      </g>
     </g>
    </g>
    <g id="xtick_5">
     <g id="line2d_5">
      <g>
       <use xlink:href="#m5f8dfb5737" x="307.54955" y="311.94" style="fill: #262626; stroke: #262626; stroke-width: 1.25"/>
      </g>
     </g>
     <g id="text_5">
      <!-- 0.8 -->
      <g style="fill: #262626" transform="translate(299.90455 329.313594) scale(0.11 -0.11)">
       <defs>
        <path id="ArialMT-38" d="M 1131 2484 
Q 781 2613 612 2850 
Q 444 3088 444 3419 
Q 444 3919 803 4259 
Q 1163 4600 1759 4600 
Q 2359 4600 2725 4251 
Q 3091 3903 3091 3403 
Q 3091 3084 2923 2848 
Q 2756 2613 2416 2484 
Q 2838 2347 3058 2040 
Q 3278 1734 3278 1309 
Q 3278 722 2862 322 
Q 2447 -78 1769 -78 
Q 1091 -78 675 323 
Q 259 725 259 1325 
Q 259 1772 486 2073 
Q 713 2375 1131 2484 
z
M 1019 3438 
Q 1019 3113 1228 2906 
Q 1438 2700 1772 2700 
Q 2097 2700 2305 2904 
Q 2513 3109 2513 3406 
Q 2513 3716 2298 3927 
Q 2084 4138 1766 4138 
Q 1444 4138 1231 3931 
Q 1019 3725 1019 3438 
z
M 838 1322 
Q 838 1081 952 856 
Q 1066 631 1291 507 
Q 1516 384 1775 384 
Q 2178 384 2440 643 
Q 2703 903 2703 1303 
Q 2703 1709 2433 1975 
Q 2163 2241 1756 2241 
Q 1359 2241 1098 1978 
Q 838 1716 838 1322 
z
" transform="scale(0.015625)"/>
       </defs>
       <use xlink:href="#ArialMT-30"/>
       <use xlink:href="#ArialMT-2e" transform="translate(55.615234 0)"/>
       <use xlink:href="#ArialMT-38" transform="translate(83.398438 0)"/>
      </g>
     </g>
    </g>
    <g id="text_6">
     <!-- acc -->
     <g style="fill: #262626" transform="translate(206.302147 344.089219) scale(0.12 -0.12)">
      <defs>
       <path id="ArialMT-61" d="M 2588 409 
Q 2275 144 1986 34 
Q 1697 -75 1366 -75 
Q 819 -75 525 192 
Q 231 459 231 875 
Q 231 1119 342 1320 
Q 453 1522 633 1644 
Q 813 1766 1038 1828 
Q 1203 1872 1538 1913 
Q 2219 1994 2541 2106 
Q 2544 2222 2544 2253 
Q 2544 2597 2384 2738 
Q 2169 2928 1744 2928 
Q 1347 2928 1158 2789 
Q 969 2650 878 2297 
L 328 2372 
Q 403 2725 575 2942 
Q 747 3159 1072 3276 
Q 1397 3394 1825 3394 
Q 2250 3394 2515 3294 
Q 2781 3194 2906 3042 
Q 3031 2891 3081 2659 
Q 3109 2516 3109 2141 
L 3109 1391 
Q 3109 606 3145 398 
Q 3181 191 3288 0 
L 2700 0 
Q 2613 175 2588 409 
z
M 2541 1666 
Q 2234 1541 1622 1453 
Q 1275 1403 1131 1340 
Q 988 1278 909 1158 
Q 831 1038 831 891 
Q 831 666 1001 516 
Q 1172 366 1500 366 
Q 1825 366 2078 508 
Q 2331 650 2450 897 
Q 2541 1088 2541 1459 
L 2541 1666 
z
" transform="scale(0.015625)"/>
       <path id="ArialMT-63" d="M 2588 1216 
L 3141 1144 
Q 3050 572 2676 248 
Q 2303 -75 1759 -75 
Q 1078 -75 664 370 
Q 250 816 250 1647 
Q 250 2184 428 2587 
Q 606 2991 970 3192 
Q 1334 3394 1763 3394 
Q 2303 3394 2647 3120 
Q 2991 2847 3088 2344 
L 2541 2259 
Q 2463 2594 2264 2762 
Q 2066 2931 1784 2931 
Q 1359 2931 1093 2626 
Q 828 2322 828 1663 
Q 828 994 1084 691 
Q 1341 388 1753 388 
Q 2084 388 2306 591 
Q 2528 794 2588 1216 
z
" transform="scale(0.015625)"/>
      </defs>
      <use xlink:href="#ArialMT-61"/>
      <use xlink:href="#ArialMT-63" transform="translate(55.615234 0)"/>
      <use xlink:href="#ArialMT-63" transform="translate(105.615234 0)"/>
     </g>
    </g>
   </g>
   <g id="matplotlib.axis_2">
    <g id="ytick_1">
     <g id="line2d_6">
      <defs>
       <path id="mc682379070" d="M 0 0 
L -6 0 
" style="stroke: #262626; stroke-width: 1.25"/>
      </defs>
      <g>
       <use xlink:href="#mc682379070" x="75.8169" y="280.895384" style="fill: #262626; stroke: #262626; stroke-width: 1.25"/>
      </g>
     </g>
     <g id="text_7">
      <!-- 0 -->
      <g style="fill: #262626" transform="translate(60.199869 284.83218) scale(0.11 -0.11)">
       <use xlink:href="#ArialMT-30"/>
      </g>
     </g>
    </g>
    <g id="ytick_2">
     <g id="line2d_7">
      <g>
       <use xlink:href="#mc682379070" x="75.8169" y="244.990018" style="fill: #262626; stroke: #262626; stroke-width: 1.25"/>
      </g>
     </g>
     <g id="text_8">
      <!-- 200 -->
      <g style="fill: #262626" transform="translate(47.965806 248.926814) scale(0.11 -0.11)">
       <use xlink:href="#ArialMT-32"/>
       <use xlink:href="#ArialMT-30" transform="translate(55.615234 0)"/>
       <use xlink:href="#ArialMT-30" transform="translate(111.230469 0)"/>
      </g>
     </g>
    </g>
    <g id="ytick_3">
     <g id="line2d_8">
      <g>
       <use xlink:href="#mc682379070" x="75.8169" y="209.084652" style="fill: #262626; stroke: #262626; stroke-width: 1.25"/>
      </g>
     </g>
     <g id="text_9">
      <!-- 400 -->
      <g style="fill: #262626" transform="translate(47.965806 213.021449) scale(0.11 -0.11)">
       <use xlink:href="#ArialMT-34"/>
       <use xlink:href="#ArialMT-30" transform="translate(55.615234 0)"/>
       <use xlink:href="#ArialMT-30" transform="translate(111.230469 0)"/>
      </g>
     </g>
    </g>
    <g id="ytick_4">
     <g id="line2d_9">
      <g>
       <use xlink:href="#mc682379070" x="75.8169" y="173.179286" style="fill: #262626; stroke: #262626; stroke-width: 1.25"/>
      </g>
     </g>
     <g id="text_10">
      <!-- 600 -->
      <g style="fill: #262626" transform="translate(47.965806 177.116083) scale(0.11 -0.11)">
       <use xlink:href="#ArialMT-36"/>
       <use xlink:href="#ArialMT-30" transform="translate(55.615234 0)"/>
       <use xlink:href="#ArialMT-30" transform="translate(111.230469 0)"/>
      </g>
     </g>
    </g>
    <g id="ytick_5">
     <g id="line2d_10">
      <g>
       <use xlink:href="#mc682379070" x="75.8169" y="137.27392" style="fill: #262626; stroke: #262626; stroke-width: 1.25"/>
      </g>
     </g>
     <g id="text_11">
      <!-- 800 -->
      <g style="fill: #262626" transform="translate(47.965806 141.210717) scale(0.11 -0.11)">
       <use xlink:href="#ArialMT-38"/>
       <use xlink:href="#ArialMT-30" transform="translate(55.615234 0)"/>
       <use xlink:href="#ArialMT-30" transform="translate(111.230469 0)"/>
      </g>
     </g>
    </g>
    <g id="ytick_6">
     <g id="line2d_11">
      <g>
       <use xlink:href="#mc682379070" x="75.8169" y="101.368554" style="fill: #262626; stroke: #262626; stroke-width: 1.25"/>
      </g>
     </g>
     <g id="text_12">
      <!-- 1000 -->
      <g style="fill: #262626" transform="translate(41.848775 105.305351) scale(0.11 -0.11)">
       <defs>
        <path id="ArialMT-31" d="M 2384 0 
L 1822 0 
L 1822 3584 
Q 1619 3391 1289 3197 
Q 959 3003 697 2906 
L 697 3450 
Q 1169 3672 1522 3987 
Q 1875 4303 2022 4600 
L 2384 4600 
L 2384 0 
z
" transform="scale(0.015625)"/>
       </defs>
       <use xlink:href="#ArialMT-31"/>
       <use xlink:href="#ArialMT-30" transform="translate(55.615234 0)"/>
       <use xlink:href="#ArialMT-30" transform="translate(111.230469 0)"/>
       <use xlink:href="#ArialMT-30" transform="translate(166.845703 0)"/>
      </g>
     </g>
    </g>
    <g id="ytick_7">
     <g id="line2d_12">
      <g>
       <use xlink:href="#mc682379070" x="75.8169" y="65.463188" style="fill: #262626; stroke: #262626; stroke-width: 1.25"/>
      </g>
     </g>
     <g id="text_13">
      <!-- 1200 -->
      <g style="fill: #262626" transform="translate(41.848775 69.399985) scale(0.11 -0.11)">
       <use xlink:href="#ArialMT-31"/>
       <use xlink:href="#ArialMT-32" transform="translate(55.615234 0)"/>
       <use xlink:href="#ArialMT-30" transform="translate(111.230469 0)"/>
       <use xlink:href="#ArialMT-30" transform="translate(166.845703 0)"/>
      </g>
     </g>
    </g>
    <g id="ytick_8">
     <g id="line2d_13">
      <g>
       <use xlink:href="#mc682379070" x="75.8169" y="29.557822" style="fill: #262626; stroke: #262626; stroke-width: 1.25"/>
      </g>
     </g>
     <g id="text_14">
      <!-- 1400 -->
      <g style="fill: #262626" transform="translate(41.848775 33.494619) scale(0.11 -0.11)">
       <use xlink:href="#ArialMT-31"/>
       <use xlink:href="#ArialMT-34" transform="translate(55.615234 0)"/>
       <use xlink:href="#ArialMT-30" transform="translate(111.230469 0)"/>
       <use xlink:href="#ArialMT-30" transform="translate(166.845703 0)"/>
      </g>
     </g>
    </g>
    <g id="text_15">
     <!-- p -->
     <g style="fill: #262626" transform="translate(35.463775 165.786563) rotate(-90) scale(0.12 -0.12)">
      <defs>
       <path id="ArialMT-70" d="M 422 -1272 
L 422 3319 
L 934 3319 
L 934 2888 
Q 1116 3141 1344 3267 
Q 1572 3394 1897 3394 
Q 2322 3394 2647 3175 
Q 2972 2956 3137 2557 
Q 3303 2159 3303 1684 
Q 3303 1175 3120 767 
Q 2938 359 2589 142 
Q 2241 -75 1856 -75 
Q 1575 -75 1351 44 
Q 1128 163 984 344 
L 984 -1272 
L 422 -1272 
z
M 931 1641 
Q 931 1000 1190 694 
Q 1450 388 1819 388 
Q 2194 388 2461 705 
Q 2728 1022 2728 1688 
Q 2728 2322 2467 2637 
Q 2206 2953 1844 2953 
Q 1484 2953 1207 2617 
Q 931 2281 931 1641 
z
" transform="scale(0.015625)"/>
      </defs>
      <use xlink:href="#ArialMT-70"/>
     </g>
    </g>
   </g>
   <g id="PathCollection_1">
    <defs>
     <path id="m426031d3dc" d="M 0 3 
C 0.795609 3 1.55874 2.683901 2.12132 2.12132 
C 2.683901 1.55874 3 0.795609 3 0 
C 3 -0.795609 2.683901 -1.55874 2.12132 -2.12132 
C 1.55874 -2.683901 0.795609 -3 0 -3 
C -0.795609 -3 -1.55874 -2.683901 -2.12132 -2.12132 
C -2.683901 -1.55874 -3 -0.795609 -3 0 
C -3 0.795609 -2.683901 1.55874 -2.12132 2.12132 
C -1.55874 2.683901 -0.795609 3 0 3 
z
" style="stroke: #eeae53; stroke-opacity: 0.8"/>
    </defs>
    <g clip-path="url(#p6b92a564b0)">
     <use xlink:href="#m426031d3dc" x="88.527974" y="244.990018" style="fill: #eeae53; fill-opacity: 0.8; stroke: #eeae53; stroke-opacity: 0.8"/>
     <use xlink:href="#m426031d3dc" x="122.750095" y="241.399481" style="fill: #eeae53; fill-opacity: 0.8; stroke: #eeae53; stroke-opacity: 0.8"/>
     <use xlink:href="#m426031d3dc" x="150.750012" y="237.808944" style="fill: #eeae53; fill-opacity: 0.8; stroke: #eeae53; stroke-opacity: 0.8"/>
     <use xlink:href="#m426031d3dc" x="143.283368" y="234.218408" style="fill: #eeae53; fill-opacity: 0.8; stroke: #eeae53; stroke-opacity: 0.8"/>
     <use xlink:href="#m426031d3dc" x="186.305463" y="227.037335" style="fill: #eeae53; fill-opacity: 0.8; stroke: #eeae53; stroke-opacity: 0.8"/>
     <use xlink:href="#m426031d3dc" x="198.038762" y="223.446798" style="fill: #eeae53; fill-opacity: 0.8; stroke: #eeae53; stroke-opacity: 0.8"/>
     <use xlink:href="#m426031d3dc" x="156.972216" y="219.856261" style="fill: #eeae53; fill-opacity: 0.8; stroke: #eeae53; stroke-opacity: 0.8"/>
     <use xlink:href="#m426031d3dc" x="149.3673" y="216.265725" style="fill: #eeae53; fill-opacity: 0.8; stroke: #eeae53; stroke-opacity: 0.8"/>
     <use xlink:href="#m426031d3dc" x="212.972051" y="205.494115" style="fill: #eeae53; fill-opacity: 0.8; stroke: #eeae53; stroke-opacity: 0.8"/>
     <use xlink:href="#m426031d3dc" x="202.601711" y="194.722505" style="fill: #eeae53; fill-opacity: 0.8; stroke: #eeae53; stroke-opacity: 0.8"/>
     <use xlink:href="#m426031d3dc" x="134.157469" y="191.131969" style="fill: #eeae53; fill-opacity: 0.8; stroke: #eeae53; stroke-opacity: 0.8"/>
     <use xlink:href="#m426031d3dc" x="262.749682" y="173.179286" style="fill: #eeae53; fill-opacity: 0.8; stroke: #eeae53; stroke-opacity: 0.8"/>
     <use xlink:href="#m426031d3dc" x="280.171853" y="158.817139" style="fill: #eeae53; fill-opacity: 0.8; stroke: #eeae53; stroke-opacity: 0.8"/>
     <use xlink:href="#m426031d3dc" x="172.767041" y="155.226603" style="fill: #eeae53; fill-opacity: 0.8; stroke: #eeae53; stroke-opacity: 0.8"/>
     <use xlink:href="#m426031d3dc" x="234.542358" y="151.636066" style="fill: #eeae53; fill-opacity: 0.8; stroke: #eeae53; stroke-opacity: 0.8"/>
     <use xlink:href="#m426031d3dc" x="237.860866" y="148.04553" style="fill: #eeae53; fill-opacity: 0.8; stroke: #eeae53; stroke-opacity: 0.8"/>
     <use xlink:href="#m426031d3dc" x="225.416459" y="144.454993" style="fill: #eeae53; fill-opacity: 0.8; stroke: #eeae53; stroke-opacity: 0.8"/>
     <use xlink:href="#m426031d3dc" x="293.860701" y="140.864456" style="fill: #eeae53; fill-opacity: 0.8; stroke: #eeae53; stroke-opacity: 0.8"/>
     <use xlink:href="#m426031d3dc" x="280.171853" y="126.50231" style="fill: #eeae53; fill-opacity: 0.8; stroke: #eeae53; stroke-opacity: 0.8"/>
     <use xlink:href="#m426031d3dc" x="249.57325" y="115.7307" style="fill: #eeae53; fill-opacity: 0.8; stroke: #eeae53; stroke-opacity: 0.8"/>
     <use xlink:href="#m426031d3dc" x="193.826808" y="97.778017" style="fill: #eeae53; fill-opacity: 0.8; stroke: #eeae53; stroke-opacity: 0.8"/>
     <use xlink:href="#m426031d3dc" x="257.006109" y="90.596944" style="fill: #eeae53; fill-opacity: 0.8; stroke: #eeae53; stroke-opacity: 0.8"/>
     <use xlink:href="#m426031d3dc" x="235.946342" y="83.415871" style="fill: #eeae53; fill-opacity: 0.8; stroke: #eeae53; stroke-opacity: 0.8"/>
     <use xlink:href="#m426031d3dc" x="287.638497" y="79.825334" style="fill: #eeae53; fill-opacity: 0.8; stroke: #eeae53; stroke-opacity: 0.8"/>
     <use xlink:href="#m426031d3dc" x="307.54955" y="76.234798" style="fill: #eeae53; fill-opacity: 0.8; stroke: #eeae53; stroke-opacity: 0.8"/>
     <use xlink:href="#m426031d3dc" x="307.54955" y="36.738895" style="fill: #eeae53; fill-opacity: 0.8; stroke: #eeae53; stroke-opacity: 0.8"/>
     <use xlink:href="#m426031d3dc" x="334.927247" y="33.148359" style="fill: #eeae53; fill-opacity: 0.8; stroke: #eeae53; stroke-opacity: 0.8"/>
     <use xlink:href="#m426031d3dc" x="342.749446" y="29.557822" style="fill: #eeae53; fill-opacity: 0.8; stroke: #eeae53; stroke-opacity: 0.8"/>
    </g>
   </g>
   <g id="FillBetweenPolyCollection_1">
    <defs>
     <path id="m1fd2ecfc6f" d="M 88.527974 -116.459688 
L 88.527974 -61.65 
L 91.095867 -64.410664 
L 93.663761 -67.152118 
L 96.231655 -69.877189 
L 98.799548 -72.459898 
L 101.367442 -75.042608 
L 103.935336 -77.653034 
L 106.503229 -80.341798 
L 109.071123 -83.030562 
L 111.639017 -85.638278 
L 114.20691 -88.127748 
L 116.774804 -90.665684 
L 119.342698 -93.176385 
L 121.910591 -95.689087 
L 124.478485 -98.262344 
L 127.046378 -100.840539 
L 129.614272 -103.418734 
L 132.182166 -105.996929 
L 134.750059 -108.579933 
L 137.317953 -111.163453 
L 139.885847 -113.880908 
L 142.45374 -116.601297 
L 145.021634 -119.096266 
L 147.589528 -121.559143 
L 150.157421 -124.06207 
L 152.725315 -126.638987 
L 155.293209 -129.216359 
L 157.861102 -131.799983 
L 160.428996 -134.414387 
L 162.99689 -136.96129 
L 165.564783 -139.541869 
L 168.132677 -142.225076 
L 170.700571 -144.701714 
L 173.268464 -147.40513 
L 175.836358 -149.878361 
L 178.404252 -152.477282 
L 180.972145 -154.61993 
L 183.540039 -157.349026 
L 186.107933 -159.816307 
L 188.675826 -162.534096 
L 191.24372 -165.206862 
L 193.811614 -167.211463 
L 196.379507 -169.704992 
L 198.947401 -171.773028 
L 201.515295 -174.063655 
L 204.083188 -176.375534 
L 206.651082 -178.548569 
L 209.218976 -180.892387 
L 211.786869 -183.054749 
L 214.354763 -185.124878 
L 216.922657 -187.516224 
L 219.49055 -189.547907 
L 222.058444 -191.626679 
L 224.626338 -193.933132 
L 227.194231 -195.587556 
L 229.762125 -197.832297 
L 232.330019 -200.06291 
L 234.897912 -202.162775 
L 237.465806 -204.014558 
L 240.033699 -205.916987 
L 242.601593 -208.114518 
L 245.169487 -210.157918 
L 247.73738 -212.049083 
L 250.305274 -213.944185 
L 252.873168 -215.840695 
L 255.441061 -217.737204 
L 258.008955 -219.633713 
L 260.576849 -221.525535 
L 263.144742 -223.437692 
L 265.712636 -225.528353 
L 268.28053 -227.499198 
L 270.848423 -229.25632 
L 273.416317 -231.013442 
L 275.984211 -232.945745 
L 278.552104 -234.944873 
L 281.119998 -236.944001 
L 283.687892 -238.631465 
L 286.255785 -240.44501 
L 288.823679 -242.273024 
L 291.391573 -243.954052 
L 293.959466 -245.640484 
L 296.52736 -247.33431 
L 299.095254 -249.26534 
L 301.663147 -250.890077 
L 304.231041 -252.388186 
L 306.798935 -254.066169 
L 309.366828 -255.752829 
L 311.934722 -257.529494 
L 314.502616 -259.399888 
L 317.070509 -261.135811 
L 319.638403 -262.96365 
L 322.206297 -264.818468 
L 324.77419 -266.658927 
L 327.342084 -268.502192 
L 329.909978 -270.228437 
L 332.477871 -271.93678 
L 335.045765 -273.645124 
L 337.613659 -275.50137 
L 340.181552 -277.388558 
L 342.749446 -279.269825 
L 342.749446 -333.45 
L 342.749446 -333.45 
L 340.181552 -330.865435 
L 337.613659 -328.207582 
L 335.045765 -325.714368 
L 332.477871 -323.145579 
L 329.909978 -320.639207 
L 327.342084 -318.127681 
L 324.77419 -315.513132 
L 322.206297 -312.856873 
L 319.638403 -310.343456 
L 317.070509 -307.908419 
L 314.502616 -305.232574 
L 311.934722 -302.803069 
L 309.366828 -300.139774 
L 306.798935 -297.902175 
L 304.231041 -295.130944 
L 301.663147 -292.662663 
L 299.095254 -290.323598 
L 296.52736 -287.850347 
L 293.959466 -285.292649 
L 291.391573 -282.91594 
L 288.823679 -280.515523 
L 286.255785 -278.053589 
L 283.687892 -275.795723 
L 281.119998 -273.570606 
L 278.552104 -271.153645 
L 275.984211 -268.675017 
L 273.416317 -266.306118 
L 270.848423 -263.931287 
L 268.28053 -261.554862 
L 265.712636 -259.129327 
L 263.144742 -256.806793 
L 260.576849 -254.452588 
L 258.008955 -252.130097 
L 255.441061 -249.808757 
L 252.873168 -247.533086 
L 250.305274 -245.29926 
L 247.73738 -243.064161 
L 245.169487 -240.809237 
L 242.601593 -238.36533 
L 240.033699 -235.919836 
L 237.465806 -233.614025 
L 234.897912 -231.360156 
L 232.330019 -229.108998 
L 229.762125 -226.714482 
L 227.194231 -224.356848 
L 224.626338 -221.938376 
L 222.058444 -219.610684 
L 219.49055 -217.289003 
L 216.922657 -214.96831 
L 214.354763 -212.887571 
L 211.786869 -210.735555 
L 209.218976 -208.666067 
L 206.651082 -206.523117 
L 204.083188 -204.361632 
L 201.515295 -202.192368 
L 198.947401 -199.863416 
L 196.379507 -197.643707 
L 193.811614 -195.372629 
L 191.24372 -193.311259 
L 188.675826 -191.419692 
L 186.107933 -189.30061 
L 183.540039 -187.212141 
L 180.972145 -185.001028 
L 178.404252 -182.844187 
L 175.836358 -180.690812 
L 173.268464 -178.543981 
L 170.700571 -176.685522 
L 168.132677 -174.791115 
L 165.564783 -172.992492 
L 162.99689 -171.02672 
L 160.428996 -169.018229 
L 157.861102 -166.813463 
L 155.293209 -164.841401 
L 152.725315 -163.25796 
L 150.157421 -161.594324 
L 147.589528 -159.69001 
L 145.021634 -157.713146 
L 142.45374 -155.836261 
L 139.885847 -153.939926 
L 137.317953 -152.026015 
L 134.750059 -149.991502 
L 132.182166 -147.909154 
L 129.614272 -146.277178 
L 127.046378 -144.36269 
L 124.478485 -142.344392 
L 121.910591 -140.519239 
L 119.342698 -138.616499 
L 116.774804 -136.700998 
L 114.20691 -134.782237 
L 111.639017 -132.797446 
L 109.071123 -130.761487 
L 106.503229 -128.871361 
L 103.935336 -127.094979 
L 101.367442 -125.205485 
L 98.799548 -123.419971 
L 96.231655 -121.712936 
L 93.663761 -120.003214 
L 91.095867 -118.23209 
L 88.527974 -116.459688 
z
" style="stroke: #ffffff; stroke-opacity: 0.15"/>
    </defs>
    <g clip-path="url(#p6b92a564b0)">
     <use xlink:href="#m1fd2ecfc6f" x="0" y="360" style="fill: #eeae53; fill-opacity: 0.15; stroke: #ffffff; stroke-opacity: 0.15"/>
    </g>
   </g>
   <g id="PathCollection_2">
    <defs>
     <path id="m2ca42fd8bd" d="M 0 3 
C 0.795609 3 1.55874 2.683901 2.12132 2.12132 
C 2.683901 1.55874 3 0.795609 3 0 
C 3 -0.795609 2.683901 -1.55874 2.12132 -2.12132 
C 1.55874 -2.683901 0.795609 -3 0 -3 
C -0.795609 -3 -1.55874 -2.683901 -2.12132 -2.12132 
C -2.683901 -1.55874 -3 -0.795609 -3 0 
C -3 0.795609 -2.683901 1.55874 -2.12132 2.12132 
C -1.55874 2.683901 -0.795609 3 0 3 
z
" style="stroke: #c76a72; stroke-opacity: 0.8"/>
    </defs>
    <g clip-path="url(#p6b92a564b0)">
     <use xlink:href="#m2ca42fd8bd" x="91.50381" y="280.895384" style="fill: #c76a72; fill-opacity: 0.8; stroke: #c76a72; stroke-opacity: 0.8"/>
     <use xlink:href="#m2ca42fd8bd" x="119.521593" y="277.304847" style="fill: #c76a72; fill-opacity: 0.8; stroke: #c76a72; stroke-opacity: 0.8"/>
     <use xlink:href="#m2ca42fd8bd" x="122.223601" y="273.71431" style="fill: #c76a72; fill-opacity: 0.8; stroke: #c76a72; stroke-opacity: 0.8"/>
     <use xlink:href="#m2ca42fd8bd" x="111.342721" y="270.123774" style="fill: #c76a72; fill-opacity: 0.8; stroke: #c76a72; stroke-opacity: 0.8"/>
     <use xlink:href="#m2ca42fd8bd" x="104.024783" y="266.533237" style="fill: #c76a72; fill-opacity: 0.8; stroke: #c76a72; stroke-opacity: 0.8"/>
     <use xlink:href="#m2ca42fd8bd" x="93.505737" y="262.942701" style="fill: #c76a72; fill-opacity: 0.8; stroke: #c76a72; stroke-opacity: 0.8"/>
     <use xlink:href="#m2ca42fd8bd" x="115.022519" y="259.352164" style="fill: #c76a72; fill-opacity: 0.8; stroke: #c76a72; stroke-opacity: 0.8"/>
     <use xlink:href="#m2ca42fd8bd" x="143.283368" y="255.761627" style="fill: #c76a72; fill-opacity: 0.8; stroke: #c76a72; stroke-opacity: 0.8"/>
     <use xlink:href="#m2ca42fd8bd" x="141.517065" y="252.171091" style="fill: #c76a72; fill-opacity: 0.8; stroke: #c76a72; stroke-opacity: 0.8"/>
     <use xlink:href="#m2ca42fd8bd" x="143.283368" y="244.990018" style="fill: #c76a72; fill-opacity: 0.8; stroke: #c76a72; stroke-opacity: 0.8"/>
     <use xlink:href="#m2ca42fd8bd" x="121.713061" y="241.399481" style="fill: #c76a72; fill-opacity: 0.8; stroke: #c76a72; stroke-opacity: 0.8"/>
    </g>
   </g>
   <g id="FillBetweenPolyCollection_2">
    <defs>
     <path id="mb8c7b49b34" d="M 91.50381 -96.723405 
L 91.50381 -76.614542 
L 92.026836 -77.074603 
L 92.549862 -77.564284 
L 93.072888 -77.878966 
L 93.595914 -78.176297 
L 94.118939 -78.413517 
L 94.641965 -78.650738 
L 95.164991 -78.968378 
L 95.688017 -79.30181 
L 96.211043 -79.636058 
L 96.734069 -79.9719 
L 97.257094 -80.307743 
L 97.78012 -80.567004 
L 98.303146 -80.711802 
L 98.826172 -81.037684 
L 99.349198 -81.366333 
L 99.872224 -81.696972 
L 100.395249 -82.02761 
L 100.918275 -82.358249 
L 101.441301 -82.688888 
L 101.964327 -83.019527 
L 102.487353 -83.320847 
L 103.010379 -83.573157 
L 103.533404 -83.815725 
L 104.05643 -84.142571 
L 104.579456 -84.545728 
L 105.102482 -84.747306 
L 105.625508 -84.948884 
L 106.148534 -85.211327 
L 106.671559 -85.481642 
L 107.194585 -85.804335 
L 107.717611 -86.141084 
L 108.240637 -86.477834 
L 108.763663 -86.814584 
L 109.286689 -87.080083 
L 109.809714 -87.321283 
L 110.33274 -87.61029 
L 110.855766 -87.818005 
L 111.378792 -88.045397 
L 111.901818 -88.232041 
L 112.424844 -88.533304 
L 112.947869 -88.835614 
L 113.470895 -89.09829 
L 113.993921 -89.242517 
L 114.516947 -89.212504 
L 115.039973 -89.196995 
L 115.562999 -89.29201 
L 116.086024 -89.442382 
L 116.60905 -89.638026 
L 117.132076 -89.820434 
L 117.655102 -89.978168 
L 118.178128 -90.218971 
L 118.701154 -90.502398 
L 119.224179 -90.77325 
L 119.747205 -90.918313 
L 120.270231 -91.044788 
L 120.793257 -91.15684 
L 121.316283 -91.226723 
L 121.839309 -91.300176 
L 122.362334 -91.37063 
L 122.88536 -91.541449 
L 123.408386 -91.739228 
L 123.931412 -91.939947 
L 124.454438 -92.140666 
L 124.977464 -92.327155 
L 125.500489 -92.497058 
L 126.023515 -92.605571 
L 126.546541 -92.740514 
L 127.069567 -92.842658 
L 127.592593 -92.893701 
L 128.115618 -92.944743 
L 128.638644 -92.995786 
L 129.16167 -93.046829 
L 129.684696 -93.043181 
L 130.207722 -93.010233 
L 130.730748 -92.977285 
L 131.253773 -92.944336 
L 131.776799 -92.911881 
L 132.299825 -92.880035 
L 132.822851 -92.848189 
L 133.345877 -92.854171 
L 133.868903 -92.922202 
L 134.391928 -92.991568 
L 134.914954 -93.063228 
L 135.43798 -93.134888 
L 135.961006 -93.206548 
L 136.484032 -93.278208 
L 137.007058 -93.353037 
L 137.530083 -93.462708 
L 138.053109 -93.57238 
L 138.576135 -93.682051 
L 139.099161 -93.791723 
L 139.622187 -93.901395 
L 140.145213 -94.011066 
L 140.668238 -94.120738 
L 141.191264 -94.198806 
L 141.71429 -94.226237 
L 142.237316 -94.253667 
L 142.760342 -94.281097 
L 143.283368 -94.308527 
L 143.283368 -117.716532 
L 143.283368 -117.716532 
L 142.760342 -117.389854 
L 142.237316 -117.104197 
L 141.71429 -116.871013 
L 141.191264 -116.588246 
L 140.668238 -116.295711 
L 140.145213 -116.003176 
L 139.622187 -115.710641 
L 139.099161 -115.418105 
L 138.576135 -115.125177 
L 138.053109 -114.830163 
L 137.530083 -114.535149 
L 137.007058 -114.240135 
L 136.484032 -114.009506 
L 135.961006 -113.811522 
L 135.43798 -113.484265 
L 134.914954 -113.24911 
L 134.391928 -112.979946 
L 133.868903 -112.628143 
L 133.345877 -112.315185 
L 132.822851 -112.043575 
L 132.299825 -111.770397 
L 131.776799 -111.52665 
L 131.253773 -111.309494 
L 130.730748 -111.092339 
L 130.207722 -110.875184 
L 129.684696 -110.658028 
L 129.16167 -110.352032 
L 128.638644 -109.948744 
L 128.115618 -109.730319 
L 127.592593 -109.420405 
L 127.069567 -109.101126 
L 126.546541 -108.841591 
L 126.023515 -108.583882 
L 125.500489 -108.326173 
L 124.977464 -108.068463 
L 124.454438 -107.743009 
L 123.931412 -107.406344 
L 123.408386 -107.176302 
L 122.88536 -106.901787 
L 122.362334 -106.548933 
L 121.839309 -106.169863 
L 121.316283 -105.954371 
L 120.793257 -105.737499 
L 120.270231 -105.471925 
L 119.747205 -105.179711 
L 119.224179 -104.974008 
L 118.701154 -104.631524 
L 118.178128 -104.356456 
L 117.655102 -104.11292 
L 117.132076 -103.844831 
L 116.60905 -103.606669 
L 116.086024 -103.483105 
L 115.562999 -103.359541 
L 115.039973 -103.11036 
L 114.516947 -102.653042 
L 113.993921 -102.469323 
L 113.470895 -102.210739 
L 112.947869 -102.046447 
L 112.424844 -101.636482 
L 111.901818 -101.48269 
L 111.378792 -101.345699 
L 110.855766 -101.139867 
L 110.33274 -100.885392 
L 109.809714 -100.715188 
L 109.286689 -100.596188 
L 108.763663 -100.455451 
L 108.240637 -100.300484 
L 107.717611 -100.145517 
L 107.194585 -99.990549 
L 106.671559 -99.83479 
L 106.148534 -99.673064 
L 105.625508 -99.458031 
L 105.102482 -99.242998 
L 104.579456 -99.089449 
L 104.05643 -98.950118 
L 103.533404 -98.810786 
L 103.010379 -98.671455 
L 102.487353 -98.556925 
L 101.964327 -98.464617 
L 101.441301 -98.368916 
L 100.918275 -98.247823 
L 100.395249 -98.153561 
L 99.872224 -98.075987 
L 99.349198 -97.97336 
L 98.826172 -97.817274 
L 98.303146 -97.660635 
L 97.78012 -97.504969 
L 97.257094 -97.346963 
L 96.734069 -97.147922 
L 96.211043 -97.095595 
L 95.688017 -97.030703 
L 95.164991 -96.894215 
L 94.641965 -96.802387 
L 94.118939 -96.859163 
L 93.595914 -97.027159 
L 93.072888 -96.985198 
L 92.549862 -96.897934 
L 92.026836 -96.817507 
L 91.50381 -96.723405 
z
" style="stroke: #ffffff; stroke-opacity: 0.15"/>
    </defs>
    <g clip-path="url(#p6b92a564b0)">
     <use xlink:href="#mb8c7b49b34" x="0" y="360" style="fill: #c76a72; fill-opacity: 0.15; stroke: #ffffff; stroke-opacity: 0.15"/>
    </g>
   </g>
   <g id="line2d_14">
    <path d="M 88.527974 269.75636 
L 91.095867 267.549516 
L 93.663761 265.342673 
L 96.231655 263.135829 
L 98.799548 260.928985 
L 101.367442 258.722142 
L 103.935336 256.515298 
L 106.503229 254.308454 
L 109.071123 252.101611 
L 111.639017 249.894767 
L 114.20691 247.687923 
L 116.774804 245.481079 
L 119.342698 243.274236 
L 121.910591 241.067392 
L 124.478485 238.860548 
L 127.046378 236.653705 
L 129.614272 234.446861 
L 132.182166 232.240017 
L 134.750059 230.033174 
L 137.317953 227.82633 
L 139.885847 225.619486 
L 142.45374 223.412642 
L 145.021634 221.205799 
L 147.589528 218.998955 
L 150.157421 216.792111 
L 152.725315 214.585268 
L 155.293209 212.378424 
L 157.861102 210.17158 
L 160.428996 207.964737 
L 162.99689 205.757893 
L 165.564783 203.551049 
L 168.132677 201.344205 
L 170.700571 199.137362 
L 173.268464 196.930518 
L 175.836358 194.723674 
L 178.404252 192.516831 
L 180.972145 190.309987 
L 183.540039 188.103143 
L 186.107933 185.8963 
L 188.675826 183.689456 
L 191.24372 181.482612 
L 193.811614 179.275768 
L 196.379507 177.068925 
L 198.947401 174.862081 
L 201.515295 172.655237 
L 204.083188 170.448394 
L 206.651082 168.24155 
L 209.218976 166.034706 
L 211.786869 163.827862 
L 214.354763 161.621019 
L 216.922657 159.414175 
L 219.49055 157.207331 
L 222.058444 155.000488 
L 224.626338 152.793644 
L 227.194231 150.5868 
L 229.762125 148.379957 
L 232.330019 146.173113 
L 234.897912 143.966269 
L 237.465806 141.759425 
L 240.033699 139.552582 
L 242.601593 137.345738 
L 245.169487 135.138894 
L 247.73738 132.932051 
L 250.305274 130.725207 
L 252.873168 128.518363 
L 255.441061 126.31152 
L 258.008955 124.104676 
L 260.576849 121.897832 
L 263.144742 119.690988 
L 265.712636 117.484145 
L 268.28053 115.277301 
L 270.848423 113.070457 
L 273.416317 110.863614 
L 275.984211 108.65677 
L 278.552104 106.449926 
L 281.119998 104.243083 
L 283.687892 102.036239 
L 286.255785 99.829395 
L 288.823679 97.622551 
L 291.391573 95.415708 
L 293.959466 93.208864 
L 296.52736 91.00202 
L 299.095254 88.795177 
L 301.663147 86.588333 
L 304.231041 84.381489 
L 306.798935 82.174646 
L 309.366828 79.967802 
L 311.934722 77.760958 
L 314.502616 75.554114 
L 317.070509 73.347271 
L 319.638403 71.140427 
L 322.206297 68.933583 
L 324.77419 66.72674 
L 327.342084 64.519896 
L 329.909978 62.313052 
L 332.477871 60.106208 
L 335.045765 57.899365 
L 337.613659 55.692521 
L 340.181552 53.485677 
L 342.749446 51.278834 
" clip-path="url(#p6b92a564b0)" style="fill: none; stroke: #eeae53; stroke-width: 2.25; stroke-linecap: round"/>
   </g>
   <g id="line2d_15">
    <path d="M 91.50381 274.305395 
L 92.026836 274.084533 
L 92.549862 273.863671 
L 93.072888 273.642808 
L 93.595914 273.421946 
L 94.118939 273.201083 
L 94.641965 272.980221 
L 95.164991 272.759358 
L 95.688017 272.538496 
L 96.211043 272.317633 
L 96.734069 272.096771 
L 97.257094 271.875909 
L 97.78012 271.655046 
L 98.303146 271.434184 
L 98.826172 271.213321 
L 99.349198 270.992459 
L 99.872224 270.771596 
L 100.395249 270.550734 
L 100.918275 270.329871 
L 101.441301 270.109009 
L 101.964327 269.888147 
L 102.487353 269.667284 
L 103.010379 269.446422 
L 103.533404 269.225559 
L 104.05643 269.004697 
L 104.579456 268.783834 
L 105.102482 268.562972 
L 105.625508 268.342109 
L 106.148534 268.121247 
L 106.671559 267.900385 
L 107.194585 267.679522 
L 107.717611 267.45866 
L 108.240637 267.237797 
L 108.763663 267.016935 
L 109.286689 266.796072 
L 109.809714 266.57521 
L 110.33274 266.354347 
L 110.855766 266.133485 
L 111.378792 265.912622 
L 111.901818 265.69176 
L 112.424844 265.470898 
L 112.947869 265.250035 
L 113.470895 265.029173 
L 113.993921 264.80831 
L 114.516947 264.587448 
L 115.039973 264.366585 
L 115.562999 264.145723 
L 116.086024 263.92486 
L 116.60905 263.703998 
L 117.132076 263.483136 
L 117.655102 263.262273 
L 118.178128 263.041411 
L 118.701154 262.820548 
L 119.224179 262.599686 
L 119.747205 262.378823 
L 120.270231 262.157961 
L 120.793257 261.937098 
L 121.316283 261.716236 
L 121.839309 261.495374 
L 122.362334 261.274511 
L 122.88536 261.053649 
L 123.408386 260.832786 
L 123.931412 260.611924 
L 124.454438 260.391061 
L 124.977464 260.170199 
L 125.500489 259.949336 
L 126.023515 259.728474 
L 126.546541 259.507612 
L 127.069567 259.286749 
L 127.592593 259.065887 
L 128.115618 258.845024 
L 128.638644 258.624162 
L 129.16167 258.403299 
L 129.684696 258.182437 
L 130.207722 257.961574 
L 130.730748 257.740712 
L 131.253773 257.51985 
L 131.776799 257.298987 
L 132.299825 257.078125 
L 132.822851 256.857262 
L 133.345877 256.6364 
L 133.868903 256.415537 
L 134.391928 256.194675 
L 134.914954 255.973812 
L 135.43798 255.75295 
L 135.961006 255.532088 
L 136.484032 255.311225 
L 137.007058 255.090363 
L 137.530083 254.8695 
L 138.053109 254.648638 
L 138.576135 254.427775 
L 139.099161 254.206913 
L 139.622187 253.98605 
L 140.145213 253.765188 
L 140.668238 253.544326 
L 141.191264 253.323463 
L 141.71429 253.102601 
L 142.237316 252.881738 
L 142.760342 252.660876 
L 143.283368 252.440013 
" clip-path="url(#p6b92a564b0)" style="fill: none; stroke: #c76a72; stroke-width: 2.25; stroke-linecap: round"/>
   </g>
   <g id="patch_3">
    <path d="M 75.8169 311.94 
L 75.8169 12.96 
" style="fill: none; stroke: #262626; stroke-width: 1.25; stroke-linejoin: miter; stroke-linecap: square"/>
   </g>
   <g id="patch_4">
    <path d="M 75.8169 311.94 
L 355.460519 311.94 
" style="fill: none; stroke: #262626; stroke-width: 1.25; stroke-linejoin: miter; stroke-linecap: square"/>
   </g>
  </g>
  <g id="legend_1">
   <g id="text_16">
    <!-- class -->
    <g style="fill: #262626" transform="translate(380.364141 167.542344) scale(0.12 -0.12)">
     <defs>
      <path id="ArialMT-6c" d="M 409 0 
L 409 4581 
L 972 4581 
L 972 0 
L 409 0 
z
" transform="scale(0.015625)"/>
      <path id="ArialMT-73" d="M 197 991 
L 753 1078 
Q 800 744 1014 566 
Q 1228 388 1613 388 
Q 2000 388 2187 545 
Q 2375 703 2375 916 
Q 2375 1106 2209 1216 
Q 2094 1291 1634 1406 
Q 1016 1563 777 1677 
Q 538 1791 414 1992 
Q 291 2194 291 2438 
Q 291 2659 392 2848 
Q 494 3038 669 3163 
Q 800 3259 1026 3326 
Q 1253 3394 1513 3394 
Q 1903 3394 2198 3281 
Q 2494 3169 2634 2976 
Q 2775 2784 2828 2463 
L 2278 2388 
Q 2241 2644 2061 2787 
Q 1881 2931 1553 2931 
Q 1166 2931 1000 2803 
Q 834 2675 834 2503 
Q 834 2394 903 2306 
Q 972 2216 1119 2156 
Q 1203 2125 1616 2013 
Q 2213 1853 2448 1751 
Q 2684 1650 2818 1456 
Q 2953 1263 2953 975 
Q 2953 694 2789 445 
Q 2625 197 2315 61 
Q 2006 -75 1616 -75 
Q 969 -75 630 194 
Q 291 463 197 991 
z
" transform="scale(0.015625)"/>
     </defs>
     <use xlink:href="#ArialMT-63"/>
     <use xlink:href="#ArialMT-6c" transform="translate(50 0)"/>
     <use xlink:href="#ArialMT-61" transform="translate(72.216797 0)"/>
     <use xlink:href="#ArialMT-73" transform="translate(127.832031 0)"/>
     <use xlink:href="#ArialMT-73" transform="translate(177.832031 0)"/>
    </g>
   </g>
   <g id="PathCollection_3">
    <g>
     <use xlink:href="#m426031d3dc" x="369.767656" y="180.413438" style="fill: #eeae53; fill-opacity: 0.8; stroke: #eeae53; stroke-opacity: 0.8"/>
    </g>
   </g>
   <g id="text_17">
    <!-- zero-cot -->
    <g style="fill: #262626" transform="translate(389.567656 183.300938) scale(0.11 -0.11)">
     <defs>
      <path id="ArialMT-7a" d="M 125 0 
L 125 456 
L 2238 2881 
Q 1878 2863 1603 2863 
L 250 2863 
L 250 3319 
L 2963 3319 
L 2963 2947 
L 1166 841 
L 819 456 
Q 1197 484 1528 484 
L 3063 484 
L 3063 0 
L 125 0 
z
" transform="scale(0.015625)"/>
      <path id="ArialMT-65" d="M 2694 1069 
L 3275 997 
Q 3138 488 2766 206 
Q 2394 -75 1816 -75 
Q 1088 -75 661 373 
Q 234 822 234 1631 
Q 234 2469 665 2931 
Q 1097 3394 1784 3394 
Q 2450 3394 2872 2941 
Q 3294 2488 3294 1666 
Q 3294 1616 3291 1516 
L 816 1516 
Q 847 969 1125 678 
Q 1403 388 1819 388 
Q 2128 388 2347 550 
Q 2566 713 2694 1069 
z
M 847 1978 
L 2700 1978 
Q 2663 2397 2488 2606 
Q 2219 2931 1791 2931 
Q 1403 2931 1139 2672 
Q 875 2413 847 1978 
z
" transform="scale(0.015625)"/>
      <path id="ArialMT-72" d="M 416 0 
L 416 3319 
L 922 3319 
L 922 2816 
Q 1116 3169 1280 3281 
Q 1444 3394 1641 3394 
Q 1925 3394 2219 3213 
L 2025 2691 
Q 1819 2813 1613 2813 
Q 1428 2813 1281 2702 
Q 1134 2591 1072 2394 
Q 978 2094 978 1738 
L 978 0 
L 416 0 
z
" transform="scale(0.015625)"/>
      <path id="ArialMT-6f" d="M 213 1659 
Q 213 2581 725 3025 
Q 1153 3394 1769 3394 
Q 2453 3394 2887 2945 
Q 3322 2497 3322 1706 
Q 3322 1066 3130 698 
Q 2938 331 2570 128 
Q 2203 -75 1769 -75 
Q 1072 -75 642 372 
Q 213 819 213 1659 
z
M 791 1659 
Q 791 1022 1069 705 
Q 1347 388 1769 388 
Q 2188 388 2466 706 
Q 2744 1025 2744 1678 
Q 2744 2294 2464 2611 
Q 2184 2928 1769 2928 
Q 1347 2928 1069 2612 
Q 791 2297 791 1659 
z
" transform="scale(0.015625)"/>
      <path id="ArialMT-2d" d="M 203 1375 
L 203 1941 
L 1931 1941 
L 1931 1375 
L 203 1375 
z
" transform="scale(0.015625)"/>
      <path id="ArialMT-74" d="M 1650 503 
L 1731 6 
Q 1494 -44 1306 -44 
Q 1000 -44 831 53 
Q 663 150 594 308 
Q 525 466 525 972 
L 525 2881 
L 113 2881 
L 113 3319 
L 525 3319 
L 525 4141 
L 1084 4478 
L 1084 3319 
L 1650 3319 
L 1650 2881 
L 1084 2881 
L 1084 941 
Q 1084 700 1114 631 
Q 1144 563 1211 522 
Q 1278 481 1403 481 
Q 1497 481 1650 503 
z
" transform="scale(0.015625)"/>
     </defs>
     <use xlink:href="#ArialMT-7a"/>
     <use xlink:href="#ArialMT-65" transform="translate(50 0)"/>
     <use xlink:href="#ArialMT-72" transform="translate(105.615234 0)"/>
     <use xlink:href="#ArialMT-6f" transform="translate(138.916016 0)"/>
     <use xlink:href="#ArialMT-2d" transform="translate(194.53125 0)"/>
     <use xlink:href="#ArialMT-63" transform="translate(227.832031 0)"/>
     <use xlink:href="#ArialMT-6f" transform="translate(277.832031 0)"/>
     <use xlink:href="#ArialMT-74" transform="translate(333.447266 0)"/>
    </g>
   </g>
   <g id="PathCollection_4">
    <g>
     <use xlink:href="#m2ca42fd8bd" x="369.767656" y="195.973281" style="fill: #c76a72; fill-opacity: 0.8; stroke: #c76a72; stroke-opacity: 0.8"/>
    </g>
   </g>
   <g id="text_18">
    <!-- no-cot -->
    <g style="fill: #262626" transform="translate(389.567656 198.860781) scale(0.11 -0.11)">
     <defs>
      <path id="ArialMT-6e" d="M 422 0 
L 422 3319 
L 928 3319 
L 928 2847 
Q 1294 3394 1984 3394 
Q 2284 3394 2536 3286 
Q 2788 3178 2913 3003 
Q 3038 2828 3088 2588 
Q 3119 2431 3119 2041 
L 3119 0 
L 2556 0 
L 2556 2019 
Q 2556 2363 2490 2533 
Q 2425 2703 2258 2804 
Q 2091 2906 1866 2906 
Q 1506 2906 1245 2678 
Q 984 2450 984 1813 
L 984 0 
L 422 0 
z
" transform="scale(0.015625)"/>
     </defs>
     <use xlink:href="#ArialMT-6e"/>
     <use xlink:href="#ArialMT-6f" transform="translate(55.615234 0)"/>
     <use xlink:href="#ArialMT-2d" transform="translate(111.230469 0)"/>
     <use xlink:href="#ArialMT-63" transform="translate(144.53125 0)"/>
     <use xlink:href="#ArialMT-6f" transform="translate(194.53125 0)"/>
     <use xlink:href="#ArialMT-74" transform="translate(250.146484 0)"/>
    </g>
   </g>
  </g>
 </g>
 <defs>
  <clipPath id="p6b92a564b0">
   <rect x="75.8169" y="12.96" width="279.643619" height="298.98"/>
  </clipPath>
 </defs>
</svg>
