<?xml version="1.0" encoding="utf-8" standalone="no"?>
<!DOCTYPE svg PUBLIC "-//W3C//DTD SVG 1.1//EN"
  "http://www.w3.org/Graphics/SVG/1.1/DTD/svg11.dtd">
<svg xmlns:xlink="http://www.w3.org/1999/xlink" width="432pt" height="360pt" viewBox="0 0 432 360" xmlns="http://www.w3.org/2000/svg" version="1.1">
 <metadata>
  <rdf:RDF xmlns:dc="http://purl.org/dc/elements/1.1/" xmlns:cc="http://creativecommons.org/ns#" xmlns:rdf="http://www.w3.org/1999/02/22-rdf-syntax-ns#">
   <cc:Work>
    <dc:type rdf:resource="http://purl.org/dc/dcmitype/StillImage"/>
    <dc:date>2025-01-17T18:46:11.942827</dc:date>
    <dc:format>image/svg+xml</dc:format>
    <dc:creator>
     <cc:Agent>
      <dc:title>Matplotlib v3.10.0, https://matplotlib.org/</dc:title>
     </cc:Agent>
    </dc:creator>
   </cc:Work>
  </rdf:RDF>
 </metadata>
 <defs>
  <style type="text/css">*{stroke-linejoin: round; stroke-linecap: butt}</style>
 </defs>
 <g id="figure_1">
  <g id="patch_1">
   <path d="M 0 360 
L 432 360 
L 432 0 
L 0 0 
z
" style="fill: #ffffff"/>
  </g>
  <g id="axes_1">
   <g id="patch_2">
    <path d="M 74.574 311.94 
L 355.567535 311.94 
L 355.567535 12.96 
L 74.574 12.96 
z
" style="fill: #ffffff"/>
   </g>
   <g id="matplotlib.axis_1">
    <g id="xtick_1">
     <g id="line2d_1">
      <defs>
       <path id="m641476901e" d="M 0 0 
L 0 6 
" style="stroke: #262626; stroke-width: 1.25"/>
      </defs>
      <g>
       <use xlink:href="#m641476901e" x="87.346433" y="311.94" style="fill: #262626; stroke: #262626; stroke-width: 1.25"/>
      </g>
     </g>
     <g id="text_1">
      <!-- 0.0 -->
      <g style="fill: #262626" transform="translate(79.701433 329.313594) scale(0.11 -0.11)">
       <defs>
        <path id="ArialMT-30" d="M 266 2259 
Q 266 3072 433 3567 
Q 600 4063 929 4331 
Q 1259 4600 1759 4600 
Q 2128 4600 2406 4451 
Q 2684 4303 2865 4023 
Q 3047 3744 3150 3342 
Q 3253 2941 3253 2259 
Q 3253 1453 3087 958 
Q 2922 463 2592 192 
Q 2263 -78 1759 -78 
Q 1097 -78 719 397 
Q 266 969 266 2259 
z
M 844 2259 
Q 844 1131 1108 757 
Q 1372 384 1759 384 
Q 2147 384 2411 759 
Q 2675 1134 2675 2259 
Q 2675 3391 2411 3762 
Q 2147 4134 1753 4134 
Q 1366 4134 1134 3806 
Q 844 3388 844 2259 
z
" transform="scale(0.015625)"/>
        <path id="ArialMT-2e" d="M 581 0 
L 581 641 
L 1222 641 
L 1222 0 
L 581 0 
z
" transform="scale(0.015625)"/>
       </defs>
       <use xlink:href="#ArialMT-30"/>
       <use xlink:href="#ArialMT-2e" transform="translate(55.615234 0)"/>
       <use xlink:href="#ArialMT-30" transform="translate(83.398438 0)"/>
      </g>
     </g>
    </g>
    <g id="xtick_2">
     <g id="line2d_2">
      <g>
       <use xlink:href="#m641476901e" x="142.366147" y="311.94" style="fill: #262626; stroke: #262626; stroke-width: 1.25"/>
      </g>
     </g>
     <g id="text_2">
      <!-- 0.2 -->
      <g style="fill: #262626" transform="translate(134.721147 329.313594) scale(0.11 -0.11)">
       <defs>
        <path id="ArialMT-32" d="M 3222 541 
L 3222 0 
L 194 0 
Q 188 203 259 391 
Q 375 700 629 1000 
Q 884 1300 1366 1694 
Q 2113 2306 2375 2664 
Q 2638 3022 2638 3341 
Q 2638 3675 2398 3904 
Q 2159 4134 1775 4134 
Q 1369 4134 1125 3890 
Q 881 3647 878 3216 
L 300 3275 
Q 359 3922 746 4261 
Q 1134 4600 1788 4600 
Q 2447 4600 2831 4234 
Q 3216 3869 3216 3328 
Q 3216 3053 3103 2787 
Q 2991 2522 2730 2228 
Q 2469 1934 1863 1422 
Q 1356 997 1212 845 
Q 1069 694 975 541 
L 3222 541 
z
" transform="scale(0.015625)"/>
       </defs>
       <use xlink:href="#ArialMT-30"/>
       <use xlink:href="#ArialMT-2e" transform="translate(55.615234 0)"/>
       <use xlink:href="#ArialMT-32" transform="translate(83.398438 0)"/>
      </g>
     </g>
    </g>
    <g id="xtick_3">
     <g id="line2d_3">
      <g>
       <use xlink:href="#m641476901e" x="197.38586" y="311.94" style="fill: #262626; stroke: #262626; stroke-width: 1.25"/>
      </g>
     </g>
     <g id="text_3">
      <!-- 0.4 -->
      <g style="fill: #262626" transform="translate(189.74086 329.313594) scale(0.11 -0.11)">
       <defs>
        <path id="ArialMT-34" d="M 2069 0 
L 2069 1097 
L 81 1097 
L 81 1613 
L 2172 4581 
L 2631 4581 
L 2631 1613 
L 3250 1613 
L 3250 1097 
L 2631 1097 
L 2631 0 
L 2069 0 
z
M 2069 1613 
L 2069 3678 
L 634 1613 
L 2069 1613 
z
" transform="scale(0.015625)"/>
       </defs>
       <use xlink:href="#ArialMT-30"/>
       <use xlink:href="#ArialMT-2e" transform="translate(55.615234 0)"/>
       <use xlink:href="#ArialMT-34" transform="translate(83.398438 0)"/>
      </g>
     </g>
    </g>
    <g id="xtick_4">
     <g id="line2d_4">
      <g>
       <use xlink:href="#m641476901e" x="252.405573" y="311.94" style="fill: #262626; stroke: #262626; stroke-width: 1.25"/>
      </g>
     </g>
     <g id="text_4">
      <!-- 0.6 -->
      <g style="fill: #262626" transform="translate(244.760573 329.313594) scale(0.11 -0.11)">
       <defs>
        <path id="ArialMT-36" d="M 3184 3459 
L 2625 3416 
Q 2550 3747 2413 3897 
Q 2184 4138 1850 4138 
Q 1581 4138 1378 3988 
Q 1113 3794 959 3422 
Q 806 3050 800 2363 
Q 1003 2672 1297 2822 
Q 1591 2972 1913 2972 
Q 2475 2972 2870 2558 
Q 3266 2144 3266 1488 
Q 3266 1056 3080 686 
Q 2894 316 2569 119 
Q 2244 -78 1831 -78 
Q 1128 -78 684 439 
Q 241 956 241 2144 
Q 241 3472 731 4075 
Q 1159 4600 1884 4600 
Q 2425 4600 2770 4297 
Q 3116 3994 3184 3459 
z
M 888 1484 
Q 888 1194 1011 928 
Q 1134 663 1356 523 
Q 1578 384 1822 384 
Q 2178 384 2434 671 
Q 2691 959 2691 1453 
Q 2691 1928 2437 2201 
Q 2184 2475 1800 2475 
Q 1419 2475 1153 2201 
Q 888 1928 888 1484 
z
" transform="scale(0.015625)"/>
       </defs>
       <use xlink:href="#ArialMT-30"/>
       <use xlink:href="#ArialMT-2e" transform="translate(55.615234 0)"/>
       <use xlink:href="#ArialMT-36" transform="translate(83.398438 0)"/>
      </g>
     </g>
    </g>
    <g id="xtick_5">
     <g id="line2d_5">
      <g>
       <use xlink:href="#m641476901e" x="307.425286" y="311.94" style="fill: #262626; stroke: #262626; stroke-width: 1.25"/>
      </g>
     </g>
     <g id="text_5">
      <!-- 0.8 -->
      <g style="fill: #262626" transform="translate(299.780286 329.313594) scale(0.11 -0.11)">
       <defs>
        <path id="ArialMT-38" d="M 1131 2484 
Q 781 2613 612 2850 
Q 444 3088 444 3419 
Q 444 3919 803 4259 
Q 1163 4600 1759 4600 
Q 2359 4600 2725 4251 
Q 3091 3903 3091 3403 
Q 3091 3084 2923 2848 
Q 2756 2613 2416 2484 
Q 2838 2347 3058 2040 
Q 3278 1734 3278 1309 
Q 3278 722 2862 322 
Q 2447 -78 1769 -78 
Q 1091 -78 675 323 
Q 259 725 259 1325 
Q 259 1772 486 2073 
Q 713 2375 1131 2484 
z
M 1019 3438 
Q 1019 3113 1228 2906 
Q 1438 2700 1772 2700 
Q 2097 2700 2305 2904 
Q 2513 3109 2513 3406 
Q 2513 3716 2298 3927 
Q 2084 4138 1766 4138 
Q 1444 4138 1231 3931 
Q 1019 3725 1019 3438 
z
M 838 1322 
Q 838 1081 952 856 
Q 1066 631 1291 507 
Q 1516 384 1775 384 
Q 2178 384 2440 643 
Q 2703 903 2703 1303 
Q 2703 1709 2433 1975 
Q 2163 2241 1756 2241 
Q 1359 2241 1098 1978 
Q 838 1716 838 1322 
z
" transform="scale(0.015625)"/>
       </defs>
       <use xlink:href="#ArialMT-30"/>
       <use xlink:href="#ArialMT-2e" transform="translate(55.615234 0)"/>
       <use xlink:href="#ArialMT-38" transform="translate(83.398438 0)"/>
      </g>
     </g>
    </g>
    <g id="text_6">
     <!-- acc -->
     <g style="fill: #262626" transform="translate(205.734205 344.089219) scale(0.12 -0.12)">
      <defs>
       <path id="ArialMT-61" d="M 2588 409 
Q 2275 144 1986 34 
Q 1697 -75 1366 -75 
Q 819 -75 525 192 
Q 231 459 231 875 
Q 231 1119 342 1320 
Q 453 1522 633 1644 
Q 813 1766 1038 1828 
Q 1203 1872 1538 1913 
Q 2219 1994 2541 2106 
Q 2544 2222 2544 2253 
Q 2544 2597 2384 2738 
Q 2169 2928 1744 2928 
Q 1347 2928 1158 2789 
Q 969 2650 878 2297 
L 328 2372 
Q 403 2725 575 2942 
Q 747 3159 1072 3276 
Q 1397 3394 1825 3394 
Q 2250 3394 2515 3294 
Q 2781 3194 2906 3042 
Q 3031 2891 3081 2659 
Q 3109 2516 3109 2141 
L 3109 1391 
Q 3109 606 3145 398 
Q 3181 191 3288 0 
L 2700 0 
Q 2613 175 2588 409 
z
M 2541 1666 
Q 2234 1541 1622 1453 
Q 1275 1403 1131 1340 
Q 988 1278 909 1158 
Q 831 1038 831 891 
Q 831 666 1001 516 
Q 1172 366 1500 366 
Q 1825 366 2078 508 
Q 2331 650 2450 897 
Q 2541 1088 2541 1459 
L 2541 1666 
z
" transform="scale(0.015625)"/>
       <path id="ArialMT-63" d="M 2588 1216 
L 3141 1144 
Q 3050 572 2676 248 
Q 2303 -75 1759 -75 
Q 1078 -75 664 370 
Q 250 816 250 1647 
Q 250 2184 428 2587 
Q 606 2991 970 3192 
Q 1334 3394 1763 3394 
Q 2303 3394 2647 3120 
Q 2991 2847 3088 2344 
L 2541 2259 
Q 2463 2594 2264 2762 
Q 2066 2931 1784 2931 
Q 1359 2931 1093 2626 
Q 828 2322 828 1663 
Q 828 994 1084 691 
Q 1341 388 1753 388 
Q 2084 388 2306 591 
Q 2528 794 2588 1216 
z
" transform="scale(0.015625)"/>
      </defs>
      <use xlink:href="#ArialMT-61"/>
      <use xlink:href="#ArialMT-63" transform="translate(55.615234 0)"/>
      <use xlink:href="#ArialMT-63" transform="translate(105.615234 0)"/>
     </g>
    </g>
   </g>
   <g id="matplotlib.axis_2">
    <g id="ytick_1">
     <g id="line2d_6">
      <defs>
       <path id="mf4efd19d7d" d="M 0 0 
L -6 0 
" style="stroke: #262626; stroke-width: 1.25"/>
      </defs>
      <g>
       <use xlink:href="#mf4efd19d7d" x="74.574" y="283.486206" style="fill: #262626; stroke: #262626; stroke-width: 1.25"/>
      </g>
     </g>
     <g id="text_7">
      <!-- 0 -->
      <g style="fill: #262626" transform="translate(58.956969 287.423003) scale(0.11 -0.11)">
       <use xlink:href="#ArialMT-30"/>
      </g>
     </g>
    </g>
    <g id="ytick_2">
     <g id="line2d_7">
      <g>
       <use xlink:href="#mf4efd19d7d" x="74.574" y="247.623979" style="fill: #262626; stroke: #262626; stroke-width: 1.25"/>
      </g>
     </g>
     <g id="text_8">
      <!-- 200 -->
      <g style="fill: #262626" transform="translate(46.722906 251.560776) scale(0.11 -0.11)">
       <use xlink:href="#ArialMT-32"/>
       <use xlink:href="#ArialMT-30" transform="translate(55.615234 0)"/>
       <use xlink:href="#ArialMT-30" transform="translate(111.230469 0)"/>
      </g>
     </g>
    </g>
    <g id="ytick_3">
     <g id="line2d_8">
      <g>
       <use xlink:href="#mf4efd19d7d" x="74.574" y="211.761753" style="fill: #262626; stroke: #262626; stroke-width: 1.25"/>
      </g>
     </g>
     <g id="text_9">
      <!-- 400 -->
      <g style="fill: #262626" transform="translate(46.722906 215.69855) scale(0.11 -0.11)">
       <use xlink:href="#ArialMT-34"/>
       <use xlink:href="#ArialMT-30" transform="translate(55.615234 0)"/>
       <use xlink:href="#ArialMT-30" transform="translate(111.230469 0)"/>
      </g>
     </g>
    </g>
    <g id="ytick_4">
     <g id="line2d_9">
      <g>
       <use xlink:href="#mf4efd19d7d" x="74.574" y="175.899527" style="fill: #262626; stroke: #262626; stroke-width: 1.25"/>
      </g>
     </g>
     <g id="text_10">
      <!-- 600 -->
      <g style="fill: #262626" transform="translate(46.722906 179.836323) scale(0.11 -0.11)">
       <use xlink:href="#ArialMT-36"/>
       <use xlink:href="#ArialMT-30" transform="translate(55.615234 0)"/>
       <use xlink:href="#ArialMT-30" transform="translate(111.230469 0)"/>
      </g>
     </g>
    </g>
    <g id="ytick_5">
     <g id="line2d_10">
      <g>
       <use xlink:href="#mf4efd19d7d" x="74.574" y="140.0373" style="fill: #262626; stroke: #262626; stroke-width: 1.25"/>
      </g>
     </g>
     <g id="text_11">
      <!-- 800 -->
      <g style="fill: #262626" transform="translate(46.722906 143.974097) scale(0.11 -0.11)">
       <use xlink:href="#ArialMT-38"/>
       <use xlink:href="#ArialMT-30" transform="translate(55.615234 0)"/>
       <use xlink:href="#ArialMT-30" transform="translate(111.230469 0)"/>
      </g>
     </g>
    </g>
    <g id="ytick_6">
     <g id="line2d_11">
      <g>
       <use xlink:href="#mf4efd19d7d" x="74.574" y="104.175074" style="fill: #262626; stroke: #262626; stroke-width: 1.25"/>
      </g>
     </g>
     <g id="text_12">
      <!-- 1000 -->
      <g style="fill: #262626" transform="translate(40.605875 108.11187) scale(0.11 -0.11)">
       <defs>
        <path id="ArialMT-31" d="M 2384 0 
L 1822 0 
L 1822 3584 
Q 1619 3391 1289 3197 
Q 959 3003 697 2906 
L 697 3450 
Q 1169 3672 1522 3987 
Q 1875 4303 2022 4600 
L 2384 4600 
L 2384 0 
z
" transform="scale(0.015625)"/>
       </defs>
       <use xlink:href="#ArialMT-31"/>
       <use xlink:href="#ArialMT-30" transform="translate(55.615234 0)"/>
       <use xlink:href="#ArialMT-30" transform="translate(111.230469 0)"/>
       <use xlink:href="#ArialMT-30" transform="translate(166.845703 0)"/>
      </g>
     </g>
    </g>
    <g id="ytick_7">
     <g id="line2d_12">
      <g>
       <use xlink:href="#mf4efd19d7d" x="74.574" y="68.312847" style="fill: #262626; stroke: #262626; stroke-width: 1.25"/>
      </g>
     </g>
     <g id="text_13">
      <!-- 1200 -->
      <g style="fill: #262626" transform="translate(40.605875 72.249644) scale(0.11 -0.11)">
       <use xlink:href="#ArialMT-31"/>
       <use xlink:href="#ArialMT-32" transform="translate(55.615234 0)"/>
       <use xlink:href="#ArialMT-30" transform="translate(111.230469 0)"/>
       <use xlink:href="#ArialMT-30" transform="translate(166.845703 0)"/>
      </g>
     </g>
    </g>
    <g id="ytick_8">
     <g id="line2d_13">
      <g>
       <use xlink:href="#mf4efd19d7d" x="74.574" y="32.450621" style="fill: #262626; stroke: #262626; stroke-width: 1.25"/>
      </g>
     </g>
     <g id="text_14">
      <!-- 1400 -->
      <g style="fill: #262626" transform="translate(40.605875 36.387418) scale(0.11 -0.11)">
       <use xlink:href="#ArialMT-31"/>
       <use xlink:href="#ArialMT-34" transform="translate(55.615234 0)"/>
       <use xlink:href="#ArialMT-30" transform="translate(111.230469 0)"/>
       <use xlink:href="#ArialMT-30" transform="translate(166.845703 0)"/>
      </g>
     </g>
    </g>
    <g id="text_15">
     <!-- p -->
     <g style="fill: #262626" transform="translate(34.220875 165.786563) rotate(-90) scale(0.12 -0.12)">
      <defs>
       <path id="ArialMT-70" d="M 422 -1272 
L 422 3319 
L 934 3319 
L 934 2888 
Q 1116 3141 1344 3267 
Q 1572 3394 1897 3394 
Q 2322 3394 2647 3175 
Q 2972 2956 3137 2557 
Q 3303 2159 3303 1684 
Q 3303 1175 3120 767 
Q 2938 359 2589 142 
Q 2241 -75 1856 -75 
Q 1575 -75 1351 44 
Q 1128 163 984 344 
L 984 -1272 
L 422 -1272 
z
M 931 1641 
Q 931 1000 1190 694 
Q 1450 388 1819 388 
Q 2194 388 2461 705 
Q 2728 1022 2728 1688 
Q 2728 2322 2467 2637 
Q 2206 2953 1844 2953 
Q 1484 2953 1207 2617 
Q 931 2281 931 1641 
z
" transform="scale(0.015625)"/>
      </defs>
      <use xlink:href="#ArialMT-70"/>
     </g>
    </g>
   </g>
   <g id="PathCollection_1">
    <defs>
     <path id="m8a6bc7e6e4" d="M 0 3 
C 0.795609 3 1.55874 2.683901 2.12132 2.12132 
C 2.683901 1.55874 3 0.795609 3 0 
C 3 -0.795609 2.683901 -1.55874 2.12132 -2.12132 
C 1.55874 -2.683901 0.795609 -3 0 -3 
C -0.795609 -3 -1.55874 -2.683901 -2.12132 -2.12132 
C -2.683901 -1.55874 -3 -0.795609 -3 0 
C -3 0.795609 -2.683901 1.55874 -2.12132 2.12132 
C -1.55874 2.683901 -0.795609 3 0 3 
z
" style="stroke: #eeae53; stroke-opacity: 0.8"/>
    </defs>
    <g clip-path="url(#pabc5fa3182)">
     <use xlink:href="#m8a6bc7e6e4" x="87.346433" y="247.623979" style="fill: #eeae53; fill-opacity: 0.8; stroke: #eeae53; stroke-opacity: 0.8"/>
     <use xlink:href="#m8a6bc7e6e4" x="121.733754" y="244.037757" style="fill: #eeae53; fill-opacity: 0.8; stroke: #eeae53; stroke-opacity: 0.8"/>
     <use xlink:href="#m8a6bc7e6e4" x="149.868835" y="240.451534" style="fill: #eeae53; fill-opacity: 0.8; stroke: #eeae53; stroke-opacity: 0.8"/>
     <use xlink:href="#m8a6bc7e6e4" x="142.366147" y="236.865312" style="fill: #eeae53; fill-opacity: 0.8; stroke: #eeae53; stroke-opacity: 0.8"/>
     <use xlink:href="#m8a6bc7e6e4" x="185.595921" y="229.692866" style="fill: #eeae53; fill-opacity: 0.8; stroke: #eeae53; stroke-opacity: 0.8"/>
     <use xlink:href="#m8a6bc7e6e4" x="197.38586" y="226.106644" style="fill: #eeae53; fill-opacity: 0.8; stroke: #eeae53; stroke-opacity: 0.8"/>
     <use xlink:href="#m8a6bc7e6e4" x="156.121075" y="222.520421" style="fill: #eeae53; fill-opacity: 0.8; stroke: #eeae53; stroke-opacity: 0.8"/>
     <use xlink:href="#m8a6bc7e6e4" x="148.479448" y="218.934198" style="fill: #eeae53; fill-opacity: 0.8; stroke: #eeae53; stroke-opacity: 0.8"/>
     <use xlink:href="#m8a6bc7e6e4" x="212.391236" y="208.17553" style="fill: #eeae53; fill-opacity: 0.8; stroke: #eeae53; stroke-opacity: 0.8"/>
     <use xlink:href="#m8a6bc7e6e4" x="201.970836" y="197.416862" style="fill: #eeae53; fill-opacity: 0.8; stroke: #eeae53; stroke-opacity: 0.8"/>
     <use xlink:href="#m8a6bc7e6e4" x="133.196194" y="193.83064" style="fill: #eeae53; fill-opacity: 0.8; stroke: #eeae53; stroke-opacity: 0.8"/>
     <use xlink:href="#m8a6bc7e6e4" x="262.409157" y="175.899527" style="fill: #eeae53; fill-opacity: 0.8; stroke: #eeae53; stroke-opacity: 0.8"/>
     <use xlink:href="#m8a6bc7e6e4" x="279.91543" y="161.554636" style="fill: #eeae53; fill-opacity: 0.8; stroke: #eeae53; stroke-opacity: 0.8"/>
     <use xlink:href="#m8a6bc7e6e4" x="171.992146" y="157.968413" style="fill: #eeae53; fill-opacity: 0.8; stroke: #eeae53; stroke-opacity: 0.8"/>
     <use xlink:href="#m8a6bc7e6e4" x="234.065669" y="154.382191" style="fill: #eeae53; fill-opacity: 0.8; stroke: #eeae53; stroke-opacity: 0.8"/>
     <use xlink:href="#m8a6bc7e6e4" x="237.400197" y="150.795968" style="fill: #eeae53; fill-opacity: 0.8; stroke: #eeae53; stroke-opacity: 0.8"/>
     <use xlink:href="#m8a6bc7e6e4" x="224.895716" y="147.209745" style="fill: #eeae53; fill-opacity: 0.8; stroke: #eeae53; stroke-opacity: 0.8"/>
     <use xlink:href="#m8a6bc7e6e4" x="293.670358" y="143.623523" style="fill: #eeae53; fill-opacity: 0.8; stroke: #eeae53; stroke-opacity: 0.8"/>
     <use xlink:href="#m8a6bc7e6e4" x="279.91543" y="129.278632" style="fill: #eeae53; fill-opacity: 0.8; stroke: #eeae53; stroke-opacity: 0.8"/>
     <use xlink:href="#m8a6bc7e6e4" x="249.169119" y="118.519964" style="fill: #eeae53; fill-opacity: 0.8; stroke: #eeae53; stroke-opacity: 0.8"/>
     <use xlink:href="#m8a6bc7e6e4" x="193.153574" y="100.588851" style="fill: #eeae53; fill-opacity: 0.8; stroke: #eeae53; stroke-opacity: 0.8"/>
     <use xlink:href="#m8a6bc7e6e4" x="256.637859" y="93.416406" style="fill: #eeae53; fill-opacity: 0.8; stroke: #eeae53; stroke-opacity: 0.8"/>
     <use xlink:href="#m8a6bc7e6e4" x="235.47643" y="86.24396" style="fill: #eeae53; fill-opacity: 0.8; stroke: #eeae53; stroke-opacity: 0.8"/>
     <use xlink:href="#m8a6bc7e6e4" x="287.418118" y="82.657738" style="fill: #eeae53; fill-opacity: 0.8; stroke: #eeae53; stroke-opacity: 0.8"/>
     <use xlink:href="#m8a6bc7e6e4" x="307.425286" y="79.071515" style="fill: #eeae53; fill-opacity: 0.8; stroke: #eeae53; stroke-opacity: 0.8"/>
     <use xlink:href="#m8a6bc7e6e4" x="307.425286" y="39.623066" style="fill: #eeae53; fill-opacity: 0.8; stroke: #eeae53; stroke-opacity: 0.8"/>
     <use xlink:href="#m8a6bc7e6e4" x="334.935143" y="36.036843" style="fill: #eeae53; fill-opacity: 0.8; stroke: #eeae53; stroke-opacity: 0.8"/>
     <use xlink:href="#m8a6bc7e6e4" x="342.795102" y="32.450621" style="fill: #eeae53; fill-opacity: 0.8; stroke: #eeae53; stroke-opacity: 0.8"/>
     <use xlink:href="#m8a6bc7e6e4" x="90.336635" y="283.486206" style="fill: #eeae53; fill-opacity: 0.8; stroke: #eeae53; stroke-opacity: 0.8"/>
     <use xlink:href="#m8a6bc7e6e4" x="118.489667" y="279.899983" style="fill: #eeae53; fill-opacity: 0.8; stroke: #eeae53; stroke-opacity: 0.8"/>
     <use xlink:href="#m8a6bc7e6e4" x="121.204718" y="276.313761" style="fill: #eeae53; fill-opacity: 0.8; stroke: #eeae53; stroke-opacity: 0.8"/>
     <use xlink:href="#m8a6bc7e6e4" x="110.271314" y="272.727538" style="fill: #eeae53; fill-opacity: 0.8; stroke: #eeae53; stroke-opacity: 0.8"/>
     <use xlink:href="#m8a6bc7e6e4" x="102.91805" y="269.141315" style="fill: #eeae53; fill-opacity: 0.8; stroke: #eeae53; stroke-opacity: 0.8"/>
     <use xlink:href="#m8a6bc7e6e4" x="92.348226" y="265.555093" style="fill: #eeae53; fill-opacity: 0.8; stroke: #eeae53; stroke-opacity: 0.8"/>
     <use xlink:href="#m8a6bc7e6e4" x="113.968875" y="261.96887" style="fill: #eeae53; fill-opacity: 0.8; stroke: #eeae53; stroke-opacity: 0.8"/>
     <use xlink:href="#m8a6bc7e6e4" x="142.366147" y="258.382647" style="fill: #eeae53; fill-opacity: 0.8; stroke: #eeae53; stroke-opacity: 0.8"/>
     <use xlink:href="#m8a6bc7e6e4" x="140.591317" y="254.796425" style="fill: #eeae53; fill-opacity: 0.8; stroke: #eeae53; stroke-opacity: 0.8"/>
     <use xlink:href="#m8a6bc7e6e4" x="142.366147" y="247.623979" style="fill: #eeae53; fill-opacity: 0.8; stroke: #eeae53; stroke-opacity: 0.8"/>
     <use xlink:href="#m8a6bc7e6e4" x="120.691714" y="244.037757" style="fill: #eeae53; fill-opacity: 0.8; stroke: #eeae53; stroke-opacity: 0.8"/>
    </g>
   </g>
   <g id="FillBetweenPolyCollection_1">
    <defs>
     <path id="m6dc715f78a" d="M 87.346433 -89.50177 
L 87.346433 -61.65 
L 89.926723 -64.144436 
L 92.507013 -66.676241 
L 95.087302 -69.277092 
L 97.667592 -71.929013 
L 100.247881 -74.639507 
L 102.828171 -77.173572 
L 105.40846 -79.833252 
L 107.98875 -82.286288 
L 110.56904 -84.884623 
L 113.149329 -87.485527 
L 115.729619 -90.086431 
L 118.309908 -92.459312 
L 120.890198 -95.035747 
L 123.470488 -97.605382 
L 126.050777 -100.181261 
L 128.631067 -102.758058 
L 131.211356 -105.332633 
L 133.791646 -107.894706 
L 136.371935 -110.355257 
L 138.952225 -112.637796 
L 141.532515 -115.030614 
L 144.112804 -117.366598 
L 146.693094 -119.97894 
L 149.273383 -122.176589 
L 151.853673 -124.660516 
L 154.433962 -127.108403 
L 157.014252 -129.472189 
L 159.594542 -131.854975 
L 162.174831 -134.195089 
L 164.755121 -136.559681 
L 167.33541 -138.88173 
L 169.9157 -141.186233 
L 172.49599 -143.645667 
L 175.076279 -145.99034 
L 177.656569 -148.165726 
L 180.236858 -150.31676 
L 182.817148 -152.701265 
L 185.397437 -154.894016 
L 187.977727 -156.88762 
L 190.558017 -159.082071 
L 193.138306 -161.427364 
L 195.718596 -163.561914 
L 198.298885 -165.667208 
L 200.879175 -167.776752 
L 203.459464 -169.886296 
L 206.039754 -172.11245 
L 208.620044 -174.408301 
L 211.200333 -176.746439 
L 213.780623 -178.923145 
L 216.360912 -181.083329 
L 218.941202 -183.243514 
L 221.521492 -185.24846 
L 224.101781 -187.1792 
L 226.682071 -189.111703 
L 229.26236 -191.044206 
L 231.84265 -193.036229 
L 234.422939 -195.136394 
L 237.003229 -197.237755 
L 239.583519 -199.286119 
L 242.163808 -201.31232 
L 244.744098 -203.523699 
L 247.324387 -205.655705 
L 249.904677 -207.75947 
L 252.484966 -209.76817 
L 255.065256 -211.881584 
L 257.645546 -213.749469 
L 260.225835 -215.900852 
L 262.806125 -218.05549 
L 265.386414 -220.210127 
L 267.966704 -222.339461 
L 270.546994 -224.343864 
L 273.127283 -226.349351 
L 275.707573 -228.354838 
L 278.287862 -230.360326 
L 280.868152 -232.365813 
L 283.448441 -234.545478 
L 286.028731 -236.741051 
L 288.609021 -238.779245 
L 291.18931 -240.794722 
L 293.7696 -242.777004 
L 296.349889 -244.759285 
L 298.930179 -246.743314 
L 301.510468 -248.706174 
L 304.090758 -250.713635 
L 306.671048 -252.694849 
L 309.251337 -254.676063 
L 311.831627 -256.657277 
L 314.411916 -258.638491 
L 316.992206 -260.619706 
L 319.572496 -262.60092 
L 322.152785 -264.582134 
L 324.733075 -266.56438 
L 327.313364 -268.546662 
L 329.893654 -270.528943 
L 332.473943 -272.511225 
L 335.054233 -274.493506 
L 337.634523 -276.475787 
L 340.214812 -278.458069 
L 342.795102 -280.44035 
L 342.795102 -333.45 
L 342.795102 -333.45 
L 340.214812 -330.823632 
L 337.634523 -328.197001 
L 335.054233 -325.645433 
L 332.473943 -323.000839 
L 329.893654 -320.270839 
L 327.313364 -317.543297 
L 324.733075 -314.817149 
L 322.152785 -312.107439 
L 319.572496 -309.482845 
L 316.992206 -306.856874 
L 314.411916 -304.232976 
L 311.831627 -301.610469 
L 309.251337 -298.97767 
L 306.671048 -296.26308 
L 304.090758 -293.611291 
L 301.510468 -290.949396 
L 298.930179 -288.342984 
L 296.349889 -285.770849 
L 293.7696 -283.202971 
L 291.18931 -280.558003 
L 288.609021 -277.917335 
L 286.028731 -275.310923 
L 283.448441 -272.750141 
L 280.868152 -270.098099 
L 278.287862 -267.505027 
L 275.707573 -264.891229 
L 273.127283 -262.283487 
L 270.546994 -259.675064 
L 267.966704 -257.071788 
L 265.386414 -254.46621 
L 262.806125 -251.857675 
L 260.225835 -249.252647 
L 257.645546 -246.652207 
L 255.065256 -244.051767 
L 252.484966 -241.481999 
L 249.904677 -239.088128 
L 247.324387 -236.719454 
L 244.744098 -234.35078 
L 242.163808 -231.981834 
L 239.583519 -229.559618 
L 237.003229 -226.888558 
L 234.422939 -224.31815 
L 231.84265 -221.650537 
L 229.26236 -218.980986 
L 226.682071 -216.311436 
L 224.101781 -213.641885 
L 221.521492 -210.972335 
L 218.941202 -208.509809 
L 216.360912 -205.996713 
L 213.780623 -203.524706 
L 211.200333 -200.925362 
L 208.620044 -198.446786 
L 206.039754 -196.119197 
L 203.459464 -193.564863 
L 200.879175 -191.090436 
L 198.298885 -188.664206 
L 195.718596 -186.108491 
L 193.138306 -183.567557 
L 190.558017 -181.300768 
L 187.977727 -178.834695 
L 185.397437 -176.334544 
L 182.817148 -173.72054 
L 180.236858 -171.19004 
L 177.656569 -168.771987 
L 175.076279 -166.263584 
L 172.49599 -164.004171 
L 169.9157 -161.554808 
L 167.33541 -159.204309 
L 164.755121 -156.851737 
L 162.174831 -154.49636 
L 159.594542 -152.00029 
L 157.014252 -149.583904 
L 154.433962 -147.324525 
L 151.853673 -144.826482 
L 149.273383 -142.548122 
L 146.693094 -140.183956 
L 144.112804 -137.841678 
L 141.532515 -135.640617 
L 138.952225 -133.305367 
L 136.371935 -130.875436 
L 133.791646 -128.488971 
L 131.211356 -126.121169 
L 128.631067 -123.907869 
L 126.050777 -121.679502 
L 123.470488 -119.639865 
L 120.890198 -117.390038 
L 118.309908 -115.231596 
L 115.729619 -113.111004 
L 113.149329 -110.903695 
L 110.56904 -108.529418 
L 107.98875 -106.50674 
L 105.40846 -104.426521 
L 102.828171 -102.210891 
L 100.247881 -100.135287 
L 97.667592 -98.200053 
L 95.087302 -96.069436 
L 92.507013 -93.893946 
L 89.926723 -91.699246 
L 87.346433 -89.50177 
z
" style="stroke: #ffffff; stroke-opacity: 0.15"/>
    </defs>
    <g clip-path="url(#pabc5fa3182)">
     <use xlink:href="#m6dc715f78a" x="0" y="360" style="fill: #eeae53; fill-opacity: 0.15; stroke: #ffffff; stroke-opacity: 0.15"/>
    </g>
   </g>
   <g id="line2d_14">
    <path d="M 87.346433 286.785272 
L 89.926723 284.369386 
L 92.507013 281.9535 
L 95.087302 279.537614 
L 97.667592 277.121729 
L 100.247881 274.705843 
L 102.828171 272.289957 
L 105.40846 269.874071 
L 107.98875 267.458185 
L 110.56904 265.042299 
L 113.149329 262.626413 
L 115.729619 260.210528 
L 118.309908 257.794642 
L 120.890198 255.378756 
L 123.470488 252.96287 
L 126.050777 250.546984 
L 128.631067 248.131098 
L 131.211356 245.715212 
L 133.791646 243.299327 
L 136.371935 240.883441 
L 138.952225 238.467555 
L 141.532515 236.051669 
L 144.112804 233.635783 
L 146.693094 231.219897 
L 149.273383 228.804012 
L 151.853673 226.388126 
L 154.433962 223.97224 
L 157.014252 221.556354 
L 159.594542 219.140468 
L 162.174831 216.724582 
L 164.755121 214.308696 
L 167.33541 211.892811 
L 169.9157 209.476925 
L 172.49599 207.061039 
L 175.076279 204.645153 
L 177.656569 202.229267 
L 180.236858 199.813381 
L 182.817148 197.397495 
L 185.397437 194.98161 
L 187.977727 192.565724 
L 190.558017 190.149838 
L 193.138306 187.733952 
L 195.718596 185.318066 
L 198.298885 182.90218 
L 200.879175 180.486294 
L 203.459464 178.070409 
L 206.039754 175.654523 
L 208.620044 173.238637 
L 211.200333 170.822751 
L 213.780623 168.406865 
L 216.360912 165.990979 
L 218.941202 163.575093 
L 221.521492 161.159208 
L 224.101781 158.743322 
L 226.682071 156.327436 
L 229.26236 153.91155 
L 231.84265 151.495664 
L 234.422939 149.079778 
L 237.003229 146.663892 
L 239.583519 144.248007 
L 242.163808 141.832121 
L 244.744098 139.416235 
L 247.324387 137.000349 
L 249.904677 134.584463 
L 252.484966 132.168577 
L 255.065256 129.752691 
L 257.645546 127.336806 
L 260.225835 124.92092 
L 262.806125 122.505034 
L 265.386414 120.089148 
L 267.966704 117.673262 
L 270.546994 115.257376 
L 273.127283 112.84149 
L 275.707573 110.425605 
L 278.287862 108.009719 
L 280.868152 105.593833 
L 283.448441 103.177947 
L 286.028731 100.762061 
L 288.609021 98.346175 
L 291.18931 95.93029 
L 293.7696 93.514404 
L 296.349889 91.098518 
L 298.930179 88.682632 
L 301.510468 86.266746 
L 304.090758 83.85086 
L 306.671048 81.434974 
L 309.251337 79.019089 
L 311.831627 76.603203 
L 314.411916 74.187317 
L 316.992206 71.771431 
L 319.572496 69.355545 
L 322.152785 66.939659 
L 324.733075 64.523773 
L 327.313364 62.107888 
L 329.893654 59.692002 
L 332.473943 57.276116 
L 335.054233 54.86023 
L 337.634523 52.444344 
L 340.214812 50.028458 
L 342.795102 47.612572 
" clip-path="url(#pabc5fa3182)" style="fill: none; stroke: #eeae53; stroke-width: 2.25; stroke-linecap: round"/>
   </g>
   <g id="patch_3">
    <path d="M 74.574 311.94 
L 74.574 12.96 
" style="fill: none; stroke: #262626; stroke-width: 1.25; stroke-linejoin: miter; stroke-linecap: square"/>
   </g>
   <g id="patch_4">
    <path d="M 74.574 311.94 
L 355.567535 311.94 
" style="fill: none; stroke: #262626; stroke-width: 1.25; stroke-linejoin: miter; stroke-linecap: square"/>
   </g>
  </g>
  <g id="legend_1">
   <g id="text_16">
    <!-- class -->
    <g style="fill: #262626" transform="translate(376.824219 175.322266) scale(0.12 -0.12)">
     <defs>
      <path id="ArialMT-6c" d="M 409 0 
L 409 4581 
L 972 4581 
L 972 0 
L 409 0 
z
" transform="scale(0.015625)"/>
      <path id="ArialMT-73" d="M 197 991 
L 753 1078 
Q 800 744 1014 566 
Q 1228 388 1613 388 
Q 2000 388 2187 545 
Q 2375 703 2375 916 
Q 2375 1106 2209 1216 
Q 2094 1291 1634 1406 
Q 1016 1563 777 1677 
Q 538 1791 414 1992 
Q 291 2194 291 2438 
Q 291 2659 392 2848 
Q 494 3038 669 3163 
Q 800 3259 1026 3326 
Q 1253 3394 1513 3394 
Q 1903 3394 2198 3281 
Q 2494 3169 2634 2976 
Q 2775 2784 2828 2463 
L 2278 2388 
Q 2241 2644 2061 2787 
Q 1881 2931 1553 2931 
Q 1166 2931 1000 2803 
Q 834 2675 834 2503 
Q 834 2394 903 2306 
Q 972 2216 1119 2156 
Q 1203 2125 1616 2013 
Q 2213 1853 2448 1751 
Q 2684 1650 2818 1456 
Q 2953 1263 2953 975 
Q 2953 694 2789 445 
Q 2625 197 2315 61 
Q 2006 -75 1616 -75 
Q 969 -75 630 194 
Q 291 463 197 991 
z
" transform="scale(0.015625)"/>
     </defs>
     <use xlink:href="#ArialMT-63"/>
     <use xlink:href="#ArialMT-6c" transform="translate(50 0)"/>
     <use xlink:href="#ArialMT-61" transform="translate(72.216797 0)"/>
     <use xlink:href="#ArialMT-73" transform="translate(127.832031 0)"/>
     <use xlink:href="#ArialMT-73" transform="translate(177.832031 0)"/>
    </g>
   </g>
   <g id="PathCollection_2">
    <g>
     <use xlink:href="#m8a6bc7e6e4" x="369.887812" y="188.193359" style="fill: #eeae53; fill-opacity: 0.8; stroke: #eeae53; stroke-opacity: 0.8"/>
    </g>
   </g>
   <g id="text_17">
    <!-- unified -->
    <g style="fill: #262626" transform="translate(389.687813 191.080859) scale(0.11 -0.11)">
     <defs>
      <path id="ArialMT-75" d="M 2597 0 
L 2597 488 
Q 2209 -75 1544 -75 
Q 1250 -75 995 37 
Q 741 150 617 320 
Q 494 491 444 738 
Q 409 903 409 1263 
L 409 3319 
L 972 3319 
L 972 1478 
Q 972 1038 1006 884 
Q 1059 663 1231 536 
Q 1403 409 1656 409 
Q 1909 409 2131 539 
Q 2353 669 2445 892 
Q 2538 1116 2538 1541 
L 2538 3319 
L 3100 3319 
L 3100 0 
L 2597 0 
z
" transform="scale(0.015625)"/>
      <path id="ArialMT-6e" d="M 422 0 
L 422 3319 
L 928 3319 
L 928 2847 
Q 1294 3394 1984 3394 
Q 2284 3394 2536 3286 
Q 2788 3178 2913 3003 
Q 3038 2828 3088 2588 
Q 3119 2431 3119 2041 
L 3119 0 
L 2556 0 
L 2556 2019 
Q 2556 2363 2490 2533 
Q 2425 2703 2258 2804 
Q 2091 2906 1866 2906 
Q 1506 2906 1245 2678 
Q 984 2450 984 1813 
L 984 0 
L 422 0 
z
" transform="scale(0.015625)"/>
      <path id="ArialMT-69" d="M 425 3934 
L 425 4581 
L 988 4581 
L 988 3934 
L 425 3934 
z
M 425 0 
L 425 3319 
L 988 3319 
L 988 0 
L 425 0 
z
" transform="scale(0.015625)"/>
      <path id="ArialMT-66" d="M 556 0 
L 556 2881 
L 59 2881 
L 59 3319 
L 556 3319 
L 556 3672 
Q 556 4006 616 4169 
Q 697 4388 901 4523 
Q 1106 4659 1475 4659 
Q 1713 4659 2000 4603 
L 1916 4113 
Q 1741 4144 1584 4144 
Q 1328 4144 1222 4034 
Q 1116 3925 1116 3625 
L 1116 3319 
L 1763 3319 
L 1763 2881 
L 1116 2881 
L 1116 0 
L 556 0 
z
" transform="scale(0.015625)"/>
      <path id="ArialMT-65" d="M 2694 1069 
L 3275 997 
Q 3138 488 2766 206 
Q 2394 -75 1816 -75 
Q 1088 -75 661 373 
Q 234 822 234 1631 
Q 234 2469 665 2931 
Q 1097 3394 1784 3394 
Q 2450 3394 2872 2941 
Q 3294 2488 3294 1666 
Q 3294 1616 3291 1516 
L 816 1516 
Q 847 969 1125 678 
Q 1403 388 1819 388 
Q 2128 388 2347 550 
Q 2566 713 2694 1069 
z
M 847 1978 
L 2700 1978 
Q 2663 2397 2488 2606 
Q 2219 2931 1791 2931 
Q 1403 2931 1139 2672 
Q 875 2413 847 1978 
z
" transform="scale(0.015625)"/>
      <path id="ArialMT-64" d="M 2575 0 
L 2575 419 
Q 2259 -75 1647 -75 
Q 1250 -75 917 144 
Q 584 363 401 755 
Q 219 1147 219 1656 
Q 219 2153 384 2558 
Q 550 2963 881 3178 
Q 1213 3394 1622 3394 
Q 1922 3394 2156 3267 
Q 2391 3141 2538 2938 
L 2538 4581 
L 3097 4581 
L 3097 0 
L 2575 0 
z
M 797 1656 
Q 797 1019 1065 703 
Q 1334 388 1700 388 
Q 2069 388 2326 689 
Q 2584 991 2584 1609 
Q 2584 2291 2321 2609 
Q 2059 2928 1675 2928 
Q 1300 2928 1048 2622 
Q 797 2316 797 1656 
z
" transform="scale(0.015625)"/>
     </defs>
     <use xlink:href="#ArialMT-75"/>
     <use xlink:href="#ArialMT-6e" transform="translate(55.615234 0)"/>
     <use xlink:href="#ArialMT-69" transform="translate(111.230469 0)"/>
     <use xlink:href="#ArialMT-66" transform="translate(133.447266 0)"/>
     <use xlink:href="#ArialMT-69" transform="translate(161.230469 0)"/>
     <use xlink:href="#ArialMT-65" transform="translate(183.447266 0)"/>
     <use xlink:href="#ArialMT-64" transform="translate(239.0625 0)"/>
    </g>
   </g>
  </g>
 </g>
 <defs>
  <clipPath id="pabc5fa3182">
   <rect x="74.574" y="12.96" width="280.993535" height="298.98"/>
  </clipPath>
 </defs>
</svg>
