<?xml version="1.0" encoding="utf-8" standalone="no"?>
<!DOCTYPE svg PUBLIC "-//W3C//DTD SVG 1.1//EN"
  "http://www.w3.org/Graphics/SVG/1.1/DTD/svg11.dtd">
<svg xmlns:xlink="http://www.w3.org/1999/xlink" width="466.56pt" height="360pt" viewBox="0 0 466.56 360" xmlns="http://www.w3.org/2000/svg" version="1.1">
 <metadata>
  <rdf:RDF xmlns:dc="http://purl.org/dc/elements/1.1/" xmlns:cc="http://creativecommons.org/ns#" xmlns:rdf="http://www.w3.org/1999/02/22-rdf-syntax-ns#">
   <cc:Work>
    <dc:type rdf:resource="http://purl.org/dc/dcmitype/StillImage"/>
    <dc:date>2025-01-18T20:59:01.694573</dc:date>
    <dc:format>image/svg+xml</dc:format>
    <dc:creator>
     <cc:Agent>
      <dc:title>Matplotlib v3.10.0, https://matplotlib.org/</dc:title>
     </cc:Agent>
    </dc:creator>
   </cc:Work>
  </rdf:RDF>
 </metadata>
 <defs>
  <style type="text/css">*{stroke-linejoin: round; stroke-linecap: butt}</style>
 </defs>
 <g id="figure_1">
  <g id="patch_1">
   <path d="M 0 360 
L 466.56 360 
L 466.56 0 
L 0 0 
z
" style="fill: #ffffff"/>
  </g>
  <g id="axes_1">
   <g id="patch_2">
    <path d="M 80.53992 311.94 
L 354.987512 311.94 
L 354.987512 15.612151 
L 80.53992 15.612151 
z
" style="fill: #ffffff"/>
   </g>
   <g id="matplotlib.axis_1">
    <g id="xtick_1">
     <g id="line2d_1">
      <defs>
       <path id="m28dd52c66b" d="M 0 0 
L 0 6 
" style="stroke: #262626; stroke-width: 1.25"/>
      </defs>
      <g>
       <use xlink:href="#m28dd52c66b" x="93.014811" y="311.94" style="fill: #262626; stroke: #262626; stroke-width: 1.25"/>
      </g>
     </g>
     <g id="text_1">
      <!-- 0.0 -->
      <g style="fill: #262626" transform="translate(85.369811 329.313594) scale(0.11 -0.11)">
       <defs>
        <path id="ArialMT-30" d="M 266 2259 
Q 266 3072 433 3567 
Q 600 4063 929 4331 
Q 1259 4600 1759 4600 
Q 2128 4600 2406 4451 
Q 2684 4303 2865 4023 
Q 3047 3744 3150 3342 
Q 3253 2941 3253 2259 
Q 3253 1453 3087 958 
Q 2922 463 2592 192 
Q 2263 -78 1759 -78 
Q 1097 -78 719 397 
Q 266 969 266 2259 
z
M 844 2259 
Q 844 1131 1108 757 
Q 1372 384 1759 384 
Q 2147 384 2411 759 
Q 2675 1134 2675 2259 
Q 2675 3391 2411 3762 
Q 2147 4134 1753 4134 
Q 1366 4134 1134 3806 
Q 844 3388 844 2259 
z
" transform="scale(0.015625)"/>
        <path id="ArialMT-2e" d="M 581 0 
L 581 641 
L 1222 641 
L 1222 0 
L 581 0 
z
" transform="scale(0.015625)"/>
       </defs>
       <use xlink:href="#ArialMT-30"/>
       <use xlink:href="#ArialMT-2e" transform="translate(55.615234 0)"/>
       <use xlink:href="#ArialMT-30" transform="translate(83.398438 0)"/>
      </g>
     </g>
    </g>
    <g id="xtick_2">
     <g id="line2d_2">
      <g>
       <use xlink:href="#m28dd52c66b" x="142.914373" y="311.94" style="fill: #262626; stroke: #262626; stroke-width: 1.25"/>
      </g>
     </g>
     <g id="text_2">
      <!-- 0.2 -->
      <g style="fill: #262626" transform="translate(135.269373 329.313594) scale(0.11 -0.11)">
       <defs>
        <path id="ArialMT-32" d="M 3222 541 
L 3222 0 
L 194 0 
Q 188 203 259 391 
Q 375 700 629 1000 
Q 884 1300 1366 1694 
Q 2113 2306 2375 2664 
Q 2638 3022 2638 3341 
Q 2638 3675 2398 3904 
Q 2159 4134 1775 4134 
Q 1369 4134 1125 3890 
Q 881 3647 878 3216 
L 300 3275 
Q 359 3922 746 4261 
Q 1134 4600 1788 4600 
Q 2447 4600 2831 4234 
Q 3216 3869 3216 3328 
Q 3216 3053 3103 2787 
Q 2991 2522 2730 2228 
Q 2469 1934 1863 1422 
Q 1356 997 1212 845 
Q 1069 694 975 541 
L 3222 541 
z
" transform="scale(0.015625)"/>
       </defs>
       <use xlink:href="#ArialMT-30"/>
       <use xlink:href="#ArialMT-2e" transform="translate(55.615234 0)"/>
       <use xlink:href="#ArialMT-32" transform="translate(83.398438 0)"/>
      </g>
     </g>
    </g>
    <g id="xtick_3">
     <g id="line2d_3">
      <g>
       <use xlink:href="#m28dd52c66b" x="192.813935" y="311.94" style="fill: #262626; stroke: #262626; stroke-width: 1.25"/>
      </g>
     </g>
     <g id="text_3">
      <!-- 0.4 -->
      <g style="fill: #262626" transform="translate(185.168935 329.313594) scale(0.11 -0.11)">
       <defs>
        <path id="ArialMT-34" d="M 2069 0 
L 2069 1097 
L 81 1097 
L 81 1613 
L 2172 4581 
L 2631 4581 
L 2631 1613 
L 3250 1613 
L 3250 1097 
L 2631 1097 
L 2631 0 
L 2069 0 
z
M 2069 1613 
L 2069 3678 
L 634 1613 
L 2069 1613 
z
" transform="scale(0.015625)"/>
       </defs>
       <use xlink:href="#ArialMT-30"/>
       <use xlink:href="#ArialMT-2e" transform="translate(55.615234 0)"/>
       <use xlink:href="#ArialMT-34" transform="translate(83.398438 0)"/>
      </g>
     </g>
    </g>
    <g id="xtick_4">
     <g id="line2d_4">
      <g>
       <use xlink:href="#m28dd52c66b" x="242.713497" y="311.94" style="fill: #262626; stroke: #262626; stroke-width: 1.25"/>
      </g>
     </g>
     <g id="text_4">
      <!-- 0.6 -->
      <g style="fill: #262626" transform="translate(235.068497 329.313594) scale(0.11 -0.11)">
       <defs>
        <path id="ArialMT-36" d="M 3184 3459 
L 2625 3416 
Q 2550 3747 2413 3897 
Q 2184 4138 1850 4138 
Q 1581 4138 1378 3988 
Q 1113 3794 959 3422 
Q 806 3050 800 2363 
Q 1003 2672 1297 2822 
Q 1591 2972 1913 2972 
Q 2475 2972 2870 2558 
Q 3266 2144 3266 1488 
Q 3266 1056 3080 686 
Q 2894 316 2569 119 
Q 2244 -78 1831 -78 
Q 1128 -78 684 439 
Q 241 956 241 2144 
Q 241 3472 731 4075 
Q 1159 4600 1884 4600 
Q 2425 4600 2770 4297 
Q 3116 3994 3184 3459 
z
M 888 1484 
Q 888 1194 1011 928 
Q 1134 663 1356 523 
Q 1578 384 1822 384 
Q 2178 384 2434 671 
Q 2691 959 2691 1453 
Q 2691 1928 2437 2201 
Q 2184 2475 1800 2475 
Q 1419 2475 1153 2201 
Q 888 1928 888 1484 
z
" transform="scale(0.015625)"/>
       </defs>
       <use xlink:href="#ArialMT-30"/>
       <use xlink:href="#ArialMT-2e" transform="translate(55.615234 0)"/>
       <use xlink:href="#ArialMT-36" transform="translate(83.398438 0)"/>
      </g>
     </g>
    </g>
    <g id="xtick_5">
     <g id="line2d_5">
      <g>
       <use xlink:href="#m28dd52c66b" x="292.61306" y="311.94" style="fill: #262626; stroke: #262626; stroke-width: 1.25"/>
      </g>
     </g>
     <g id="text_5">
      <!-- 0.8 -->
      <g style="fill: #262626" transform="translate(284.96806 329.313594) scale(0.11 -0.11)">
       <defs>
        <path id="ArialMT-38" d="M 1131 2484 
Q 781 2613 612 2850 
Q 444 3088 444 3419 
Q 444 3919 803 4259 
Q 1163 4600 1759 4600 
Q 2359 4600 2725 4251 
Q 3091 3903 3091 3403 
Q 3091 3084 2923 2848 
Q 2756 2613 2416 2484 
Q 2838 2347 3058 2040 
Q 3278 1734 3278 1309 
Q 3278 722 2862 322 
Q 2447 -78 1769 -78 
Q 1091 -78 675 323 
Q 259 725 259 1325 
Q 259 1772 486 2073 
Q 713 2375 1131 2484 
z
M 1019 3438 
Q 1019 3113 1228 2906 
Q 1438 2700 1772 2700 
Q 2097 2700 2305 2904 
Q 2513 3109 2513 3406 
Q 2513 3716 2298 3927 
Q 2084 4138 1766 4138 
Q 1444 4138 1231 3931 
Q 1019 3725 1019 3438 
z
M 838 1322 
Q 838 1081 952 856 
Q 1066 631 1291 507 
Q 1516 384 1775 384 
Q 2178 384 2440 643 
Q 2703 903 2703 1303 
Q 2703 1709 2433 1975 
Q 2163 2241 1756 2241 
Q 1359 2241 1098 1978 
Q 838 1716 838 1322 
z
" transform="scale(0.015625)"/>
       </defs>
       <use xlink:href="#ArialMT-30"/>
       <use xlink:href="#ArialMT-2e" transform="translate(55.615234 0)"/>
       <use xlink:href="#ArialMT-38" transform="translate(83.398438 0)"/>
      </g>
     </g>
    </g>
    <g id="xtick_6">
     <g id="line2d_6">
      <g>
       <use xlink:href="#m28dd52c66b" x="342.512622" y="311.94" style="fill: #262626; stroke: #262626; stroke-width: 1.25"/>
      </g>
     </g>
     <g id="text_6">
      <!-- 1.0 -->
      <g style="fill: #262626" transform="translate(334.867622 329.313594) scale(0.11 -0.11)">
       <defs>
        <path id="ArialMT-31" d="M 2384 0 
L 1822 0 
L 1822 3584 
Q 1619 3391 1289 3197 
Q 959 3003 697 2906 
L 697 3450 
Q 1169 3672 1522 3987 
Q 1875 4303 2022 4600 
L 2384 4600 
L 2384 0 
z
" transform="scale(0.015625)"/>
       </defs>
       <use xlink:href="#ArialMT-31"/>
       <use xlink:href="#ArialMT-2e" transform="translate(55.615234 0)"/>
       <use xlink:href="#ArialMT-30" transform="translate(83.398438 0)"/>
      </g>
     </g>
    </g>
    <g id="text_7">
     <!-- acc -->
     <g style="fill: #262626" transform="translate(208.427154 344.089219) scale(0.12 -0.12)">
      <defs>
       <path id="ArialMT-61" d="M 2588 409 
Q 2275 144 1986 34 
Q 1697 -75 1366 -75 
Q 819 -75 525 192 
Q 231 459 231 875 
Q 231 1119 342 1320 
Q 453 1522 633 1644 
Q 813 1766 1038 1828 
Q 1203 1872 1538 1913 
Q 2219 1994 2541 2106 
Q 2544 2222 2544 2253 
Q 2544 2597 2384 2738 
Q 2169 2928 1744 2928 
Q 1347 2928 1158 2789 
Q 969 2650 878 2297 
L 328 2372 
Q 403 2725 575 2942 
Q 747 3159 1072 3276 
Q 1397 3394 1825 3394 
Q 2250 3394 2515 3294 
Q 2781 3194 2906 3042 
Q 3031 2891 3081 2659 
Q 3109 2516 3109 2141 
L 3109 1391 
Q 3109 606 3145 398 
Q 3181 191 3288 0 
L 2700 0 
Q 2613 175 2588 409 
z
M 2541 1666 
Q 2234 1541 1622 1453 
Q 1275 1403 1131 1340 
Q 988 1278 909 1158 
Q 831 1038 831 891 
Q 831 666 1001 516 
Q 1172 366 1500 366 
Q 1825 366 2078 508 
Q 2331 650 2450 897 
Q 2541 1088 2541 1459 
L 2541 1666 
z
" transform="scale(0.015625)"/>
       <path id="ArialMT-63" d="M 2588 1216 
L 3141 1144 
Q 3050 572 2676 248 
Q 2303 -75 1759 -75 
Q 1078 -75 664 370 
Q 250 816 250 1647 
Q 250 2184 428 2587 
Q 606 2991 970 3192 
Q 1334 3394 1763 3394 
Q 2303 3394 2647 3120 
Q 2991 2847 3088 2344 
L 2541 2259 
Q 2463 2594 2264 2762 
Q 2066 2931 1784 2931 
Q 1359 2931 1093 2626 
Q 828 2322 828 1663 
Q 828 994 1084 691 
Q 1341 388 1753 388 
Q 2084 388 2306 591 
Q 2528 794 2588 1216 
z
" transform="scale(0.015625)"/>
      </defs>
      <use xlink:href="#ArialMT-61"/>
      <use xlink:href="#ArialMT-63" transform="translate(55.615234 0)"/>
      <use xlink:href="#ArialMT-63" transform="translate(105.615234 0)"/>
     </g>
    </g>
   </g>
   <g id="matplotlib.axis_2">
    <g id="ytick_1">
     <g id="line2d_7">
      <defs>
       <path id="m12dfc1f990" d="M 0 0 
L -6 0 
" style="stroke: #262626; stroke-width: 1.25"/>
      </defs>
      <g>
       <use xlink:href="#m12dfc1f990" x="80.53992" y="263.799485" style="fill: #262626; stroke: #262626; stroke-width: 1.25"/>
      </g>
     </g>
     <g id="text_8">
      <!-- 0 -->
      <g style="fill: #262626" transform="translate(64.922889 267.736282) scale(0.11 -0.11)">
       <use xlink:href="#ArialMT-30"/>
      </g>
     </g>
    </g>
    <g id="ytick_2">
     <g id="line2d_8">
      <g>
       <use xlink:href="#m12dfc1f990" x="80.53992" y="202.126491" style="fill: #262626; stroke: #262626; stroke-width: 1.25"/>
      </g>
     </g>
     <g id="text_9">
      <!-- 500 -->
      <g style="fill: #262626" transform="translate(52.688826 206.063288) scale(0.11 -0.11)">
       <defs>
        <path id="ArialMT-35" d="M 266 1200 
L 856 1250 
Q 922 819 1161 601 
Q 1400 384 1738 384 
Q 2144 384 2425 690 
Q 2706 997 2706 1503 
Q 2706 1984 2436 2262 
Q 2166 2541 1728 2541 
Q 1456 2541 1237 2417 
Q 1019 2294 894 2097 
L 366 2166 
L 809 4519 
L 3088 4519 
L 3088 3981 
L 1259 3981 
L 1013 2750 
Q 1425 3038 1878 3038 
Q 2478 3038 2890 2622 
Q 3303 2206 3303 1553 
Q 3303 931 2941 478 
Q 2500 -78 1738 -78 
Q 1113 -78 717 272 
Q 322 622 266 1200 
z
" transform="scale(0.015625)"/>
       </defs>
       <use xlink:href="#ArialMT-35"/>
       <use xlink:href="#ArialMT-30" transform="translate(55.615234 0)"/>
       <use xlink:href="#ArialMT-30" transform="translate(111.230469 0)"/>
      </g>
     </g>
    </g>
    <g id="ytick_3">
     <g id="line2d_9">
      <g>
       <use xlink:href="#m12dfc1f990" x="80.53992" y="140.453497" style="fill: #262626; stroke: #262626; stroke-width: 1.25"/>
      </g>
     </g>
     <g id="text_10">
      <!-- 1000 -->
      <g style="fill: #262626" transform="translate(46.571795 144.390293) scale(0.11 -0.11)">
       <use xlink:href="#ArialMT-31"/>
       <use xlink:href="#ArialMT-30" transform="translate(55.615234 0)"/>
       <use xlink:href="#ArialMT-30" transform="translate(111.230469 0)"/>
       <use xlink:href="#ArialMT-30" transform="translate(166.845703 0)"/>
      </g>
     </g>
    </g>
    <g id="ytick_4">
     <g id="line2d_10">
      <g>
       <use xlink:href="#m12dfc1f990" x="80.53992" y="78.780502" style="fill: #262626; stroke: #262626; stroke-width: 1.25"/>
      </g>
     </g>
     <g id="text_11">
      <!-- 1500 -->
      <g style="fill: #262626" transform="translate(46.571795 82.717299) scale(0.11 -0.11)">
       <use xlink:href="#ArialMT-31"/>
       <use xlink:href="#ArialMT-35" transform="translate(55.615234 0)"/>
       <use xlink:href="#ArialMT-30" transform="translate(111.230469 0)"/>
       <use xlink:href="#ArialMT-30" transform="translate(166.845703 0)"/>
      </g>
     </g>
    </g>
    <g id="ytick_5">
     <g id="line2d_11">
      <g>
       <use xlink:href="#m12dfc1f990" x="80.53992" y="17.107508" style="fill: #262626; stroke: #262626; stroke-width: 1.25"/>
      </g>
     </g>
     <g id="text_12">
      <!-- 2000 -->
      <g style="fill: #262626" transform="translate(46.571795 21.044305) scale(0.11 -0.11)">
       <use xlink:href="#ArialMT-32"/>
       <use xlink:href="#ArialMT-30" transform="translate(55.615234 0)"/>
       <use xlink:href="#ArialMT-30" transform="translate(111.230469 0)"/>
       <use xlink:href="#ArialMT-30" transform="translate(166.845703 0)"/>
      </g>
     </g>
    </g>
    <g id="text_13">
     <!-- p -->
     <g style="fill: #262626" transform="translate(40.186795 167.112638) rotate(-90) scale(0.12 -0.12)">
      <defs>
       <path id="ArialMT-70" d="M 422 -1272 
L 422 3319 
L 934 3319 
L 934 2888 
Q 1116 3141 1344 3267 
Q 1572 3394 1897 3394 
Q 2322 3394 2647 3175 
Q 2972 2956 3137 2557 
Q 3303 2159 3303 1684 
Q 3303 1175 3120 767 
Q 2938 359 2589 142 
Q 2241 -75 1856 -75 
Q 1575 -75 1351 44 
Q 1128 163 984 344 
L 984 -1272 
L 422 -1272 
z
M 931 1641 
Q 931 1000 1190 694 
Q 1450 388 1819 388 
Q 2194 388 2461 705 
Q 2728 1022 2728 1688 
Q 2728 2322 2467 2637 
Q 2206 2953 1844 2953 
Q 1484 2953 1207 2617 
Q 931 2281 931 1641 
z
" transform="scale(0.015625)"/>
      </defs>
      <use xlink:href="#ArialMT-70"/>
     </g>
    </g>
   </g>
   <g id="PathCollection_1">
    <defs>
     <path id="m3e28b0dd8a" d="M 0 3 
C 0.795609 3 1.55874 2.683901 2.12132 2.12132 
C 2.683901 1.55874 3 0.795609 3 0 
C 3 -0.795609 2.683901 -1.55874 2.12132 -2.12132 
C 1.55874 -2.683901 0.795609 -3 0 -3 
C -0.795609 -3 -1.55874 -2.683901 -2.12132 -2.12132 
C -2.683901 -1.55874 -3 -0.795609 -3 0 
C -3 0.795609 -2.683901 1.55874 -2.12132 2.12132 
C -1.55874 2.683901 -0.795609 3 0 3 
z
" style="stroke: #eeae53; stroke-opacity: 0.8"/>
    </defs>
    <g clip-path="url(#pa56b3ac094)">
     <use xlink:href="#m3e28b0dd8a" x="93.014811" y="239.130287" style="fill: #eeae53; fill-opacity: 0.8; stroke: #eeae53; stroke-opacity: 0.8"/>
     <use xlink:href="#m3e28b0dd8a" x="113.806295" y="229.262608" style="fill: #eeae53; fill-opacity: 0.8; stroke: #eeae53; stroke-opacity: 0.8"/>
     <use xlink:href="#m3e28b0dd8a" x="183.741287" y="224.328769" style="fill: #eeae53; fill-opacity: 0.8; stroke: #eeae53; stroke-opacity: 0.8"/>
     <use xlink:href="#m3e28b0dd8a" x="130.439482" y="219.394929" style="fill: #eeae53; fill-opacity: 0.8; stroke: #eeae53; stroke-opacity: 0.8"/>
     <use xlink:href="#m3e28b0dd8a" x="158.672129" y="214.46109" style="fill: #eeae53; fill-opacity: 0.8; stroke: #eeae53; stroke-opacity: 0.8"/>
     <use xlink:href="#m3e28b0dd8a" x="192.813935" y="209.52725" style="fill: #eeae53; fill-opacity: 0.8; stroke: #eeae53; stroke-opacity: 0.8"/>
     <use xlink:href="#m3e28b0dd8a" x="209.447122" y="204.59341" style="fill: #eeae53; fill-opacity: 0.8; stroke: #eeae53; stroke-opacity: 0.8"/>
     <use xlink:href="#m3e28b0dd8a" x="186.57649" y="199.659571" style="fill: #eeae53; fill-opacity: 0.8; stroke: #eeae53; stroke-opacity: 0.8"/>
     <use xlink:href="#m3e28b0dd8a" x="184.935057" y="194.725731" style="fill: #eeae53; fill-opacity: 0.8; stroke: #eeae53; stroke-opacity: 0.8"/>
     <use xlink:href="#m3e28b0dd8a" x="208.167647" y="189.791892" style="fill: #eeae53; fill-opacity: 0.8; stroke: #eeae53; stroke-opacity: 0.8"/>
     <use xlink:href="#m3e28b0dd8a" x="192.813935" y="184.858052" style="fill: #eeae53; fill-opacity: 0.8; stroke: #eeae53; stroke-opacity: 0.8"/>
     <use xlink:href="#m3e28b0dd8a" x="210.425545" y="174.990373" style="fill: #eeae53; fill-opacity: 0.8; stroke: #eeae53; stroke-opacity: 0.8"/>
     <use xlink:href="#m3e28b0dd8a" x="209.447122" y="170.056534" style="fill: #eeae53; fill-opacity: 0.8; stroke: #eeae53; stroke-opacity: 0.8"/>
     <use xlink:href="#m3e28b0dd8a" x="176.180748" y="165.122694" style="fill: #eeae53; fill-opacity: 0.8; stroke: #eeae53; stroke-opacity: 0.8"/>
     <use xlink:href="#m3e28b0dd8a" x="167.864154" y="155.255015" style="fill: #eeae53; fill-opacity: 0.8; stroke: #eeae53; stroke-opacity: 0.8"/>
     <use xlink:href="#m3e28b0dd8a" x="267.663278" y="145.387336" style="fill: #eeae53; fill-opacity: 0.8; stroke: #eeae53; stroke-opacity: 0.8"/>
     <use xlink:href="#m3e28b0dd8a" x="267.663278" y="130.585817" style="fill: #eeae53; fill-opacity: 0.8; stroke: #eeae53; stroke-opacity: 0.8"/>
     <use xlink:href="#m3e28b0dd8a" x="224.329448" y="125.651978" style="fill: #eeae53; fill-opacity: 0.8; stroke: #eeae53; stroke-opacity: 0.8"/>
     <use xlink:href="#m3e28b0dd8a" x="313.159938" y="120.718138" style="fill: #eeae53; fill-opacity: 0.8; stroke: #eeae53; stroke-opacity: 0.8"/>
     <use xlink:href="#m3e28b0dd8a" x="245.485695" y="115.784299" style="fill: #eeae53; fill-opacity: 0.8; stroke: #eeae53; stroke-opacity: 0.8"/>
     <use xlink:href="#m3e28b0dd8a" x="275.979872" y="110.850459" style="fill: #eeae53; fill-opacity: 0.8; stroke: #eeae53; stroke-opacity: 0.8"/>
     <use xlink:href="#m3e28b0dd8a" x="284.936204" y="91.115101" style="fill: #eeae53; fill-opacity: 0.8; stroke: #eeae53; stroke-opacity: 0.8"/>
     <use xlink:href="#m3e28b0dd8a" x="269.130913" y="86.181262" style="fill: #eeae53; fill-opacity: 0.8; stroke: #eeae53; stroke-opacity: 0.8"/>
     <use xlink:href="#m3e28b0dd8a" x="267.663278" y="81.247422" style="fill: #eeae53; fill-opacity: 0.8; stroke: #eeae53; stroke-opacity: 0.8"/>
     <use xlink:href="#m3e28b0dd8a" x="292.61306" y="61.512064" style="fill: #eeae53; fill-opacity: 0.8; stroke: #eeae53; stroke-opacity: 0.8"/>
     <use xlink:href="#m3e28b0dd8a" x="304.128343" y="56.578224" style="fill: #eeae53; fill-opacity: 0.8; stroke: #eeae53; stroke-opacity: 0.8"/>
     <use xlink:href="#m3e28b0dd8a" x="285.808574" y="46.710545" style="fill: #eeae53; fill-opacity: 0.8; stroke: #eeae53; stroke-opacity: 0.8"/>
     <use xlink:href="#m3e28b0dd8a" x="332.532709" y="41.776706" style="fill: #eeae53; fill-opacity: 0.8; stroke: #eeae53; stroke-opacity: 0.8"/>
    </g>
   </g>
   <g id="FillBetweenPolyCollection_1">
    <defs>
     <path id="m4153127f1b" d="M 93.014811 -116.485635 
L 93.014811 -61.529448 
L 95.434183 -64.225581 
L 97.853556 -66.922526 
L 100.272929 -69.61947 
L 102.692301 -72.316415 
L 105.111674 -75.013359 
L 107.531047 -77.710304 
L 109.95042 -80.407248 
L 112.369792 -83.104193 
L 114.789165 -85.801137 
L 117.208538 -88.498082 
L 119.62791 -91.195026 
L 122.047283 -93.891971 
L 124.466656 -96.588915 
L 126.886029 -99.288 
L 129.305401 -101.988387 
L 131.724774 -104.688773 
L 134.144147 -107.38916 
L 136.563519 -110.089547 
L 138.982892 -112.789934 
L 141.402265 -115.49032 
L 143.821638 -118.190707 
L 146.24101 -120.891094 
L 148.660383 -123.591481 
L 151.079756 -126.211311 
L 153.499128 -128.758796 
L 155.918501 -131.306282 
L 158.337874 -133.853767 
L 160.757247 -136.401253 
L 163.176619 -138.944548 
L 165.595992 -141.483154 
L 168.015365 -143.960484 
L 170.434737 -146.428384 
L 172.85411 -148.899713 
L 175.273483 -151.377228 
L 177.692856 -154.00055 
L 180.112228 -156.73577 
L 182.531601 -159.276537 
L 184.950974 -161.817304 
L 187.370346 -163.902271 
L 189.789719 -166.331211 
L 192.209092 -169.199241 
L 194.628465 -171.763097 
L 197.047837 -174.06551 
L 199.46721 -176.143174 
L 201.886583 -178.504884 
L 204.305955 -181.234358 
L 206.725328 -183.631973 
L 209.144701 -185.96117 
L 211.564074 -188.279081 
L 213.983446 -190.549028 
L 216.402819 -192.655594 
L 218.822192 -194.885119 
L 221.241564 -197.15882 
L 223.660937 -199.237759 
L 226.08031 -201.119962 
L 228.499683 -202.867944 
L 230.919055 -204.715325 
L 233.338428 -206.74593 
L 235.757801 -208.466563 
L 238.177173 -210.616741 
L 240.596546 -212.359262 
L 243.015919 -214.090258 
L 245.435292 -215.838635 
L 247.854664 -217.573291 
L 250.274037 -219.316536 
L 252.69341 -221.074315 
L 255.112782 -223.02091 
L 257.532155 -224.827383 
L 259.951528 -226.518611 
L 262.370901 -228.209839 
L 264.790273 -229.901067 
L 267.209646 -231.592295 
L 269.629019 -233.283524 
L 272.048391 -234.974752 
L 274.467764 -236.716385 
L 276.887137 -238.492628 
L 279.30651 -240.263802 
L 281.725882 -241.986478 
L 284.145255 -243.607994 
L 286.564628 -245.310422 
L 288.984 -247.01285 
L 291.403373 -248.717287 
L 293.822746 -250.424027 
L 296.242119 -252.131341 
L 298.661491 -253.877048 
L 301.080864 -255.545115 
L 303.500237 -257.244099 
L 305.919609 -258.945603 
L 308.338982 -260.650469 
L 310.758355 -262.356407 
L 313.177728 -264.062346 
L 315.5971 -265.768285 
L 318.016473 -267.474224 
L 320.435846 -269.180163 
L 322.855218 -270.886102 
L 325.274591 -272.617476 
L 327.693964 -274.36349 
L 330.113337 -276.109504 
L 332.532709 -277.855517 
L 332.532709 -330.918402 
L 332.532709 -330.918402 
L 330.113337 -328.26617 
L 327.693964 -325.63411 
L 325.274591 -323.241289 
L 322.855218 -320.690094 
L 320.435846 -318.047141 
L 318.016473 -315.410546 
L 315.5971 -312.991912 
L 313.177728 -310.573278 
L 310.758355 -308.154644 
L 308.338982 -305.629299 
L 305.919609 -303.034684 
L 303.500237 -300.654225 
L 301.080864 -298.147877 
L 298.661491 -295.635692 
L 296.242119 -293.125004 
L 293.822746 -290.544009 
L 291.403373 -287.957775 
L 288.984 -285.269253 
L 286.564628 -282.641848 
L 284.145255 -280.316168 
L 281.725882 -277.791211 
L 279.30651 -275.371832 
L 276.887137 -272.956309 
L 274.467764 -270.524571 
L 272.048391 -268.0274 
L 269.629019 -265.777904 
L 267.209646 -263.341957 
L 264.790273 -260.98445 
L 262.370901 -258.823334 
L 259.951528 -256.145972 
L 257.532155 -253.580374 
L 255.112782 -251.271223 
L 252.69341 -249.088138 
L 250.274037 -247.019728 
L 247.854664 -244.59143 
L 245.435292 -242.299012 
L 243.015919 -240.082704 
L 240.596546 -237.862954 
L 238.177173 -235.665867 
L 235.757801 -233.251018 
L 233.338428 -230.825781 
L 230.919055 -228.416641 
L 228.499683 -226.146057 
L 226.08031 -223.823727 
L 223.660937 -221.727059 
L 221.241564 -219.415108 
L 218.822192 -217.049658 
L 216.402819 -214.873217 
L 213.983446 -212.80439 
L 211.564074 -210.624252 
L 209.144701 -208.509777 
L 206.725328 -206.306325 
L 204.305955 -204.103991 
L 201.886583 -201.897856 
L 199.46721 -199.72838 
L 197.047837 -197.546526 
L 194.628465 -195.493287 
L 192.209092 -193.537942 
L 189.789719 -191.323917 
L 187.370346 -189.107608 
L 184.950974 -186.973434 
L 182.531601 -184.971959 
L 180.112228 -183.077218 
L 177.692856 -181.217647 
L 175.273483 -179.342319 
L 172.85411 -177.419136 
L 170.434737 -175.488518 
L 168.015365 -173.496955 
L 165.595992 -171.564748 
L 163.176619 -169.543844 
L 160.757247 -167.732887 
L 158.337874 -165.989067 
L 155.918501 -164.207542 
L 153.499128 -162.321658 
L 151.079756 -160.323798 
L 148.660383 -158.304311 
L 146.24101 -156.161536 
L 143.821638 -154.149595 
L 141.402265 -152.304064 
L 138.982892 -150.514069 
L 136.563519 -148.800454 
L 134.144147 -147.09397 
L 131.724774 -145.377431 
L 129.305401 -143.55388 
L 126.886029 -141.63211 
L 124.466656 -139.709553 
L 122.047283 -137.793646 
L 119.62791 -135.988964 
L 117.208538 -134.197672 
L 114.789165 -132.38475 
L 112.369792 -130.851966 
L 109.95042 -129.252545 
L 107.531047 -127.394514 
L 105.111674 -125.477409 
L 102.692301 -123.53634 
L 100.272929 -121.921015 
L 97.853556 -120.080125 
L 95.434183 -118.282875 
L 93.014811 -116.485635 
z
" style="stroke: #ffffff; stroke-opacity: 0.15"/>
    </defs>
    <g clip-path="url(#pa56b3ac094)">
     <use xlink:href="#m4153127f1b" x="0" y="360" style="fill: #eeae53; fill-opacity: 0.15; stroke: #ffffff; stroke-opacity: 0.15"/>
    </g>
   </g>
   <g id="PathCollection_2">
    <defs>
     <path id="m99d49a9b67" d="M 0 3 
C 0.795609 3 1.55874 2.683901 2.12132 2.12132 
C 2.683901 1.55874 3 0.795609 3 0 
C 3 -0.795609 2.683901 -1.55874 2.12132 -2.12132 
C 1.55874 -2.683901 0.795609 -3 0 -3 
C -0.795609 -3 -1.55874 -2.683901 -2.12132 -2.12132 
C -2.683901 -1.55874 -3 -0.795609 -3 0 
C -3 0.795609 -2.683901 1.55874 -2.12132 2.12132 
C -1.55874 2.683901 -0.795609 3 0 3 
z
" style="stroke: #c76a72; stroke-opacity: 0.8"/>
    </defs>
    <g clip-path="url(#pa56b3ac094)">
     <use xlink:href="#m99d49a9b67" x="93.014811" y="248.997966" style="fill: #c76a72; fill-opacity: 0.8; stroke: #c76a72; stroke-opacity: 0.8"/>
     <use xlink:href="#m99d49a9b67" x="124.202037" y="239.130287" style="fill: #c76a72; fill-opacity: 0.8; stroke: #c76a72; stroke-opacity: 0.8"/>
     <use xlink:href="#m99d49a9b67" x="125.558003" y="234.196448" style="fill: #c76a72; fill-opacity: 0.8; stroke: #c76a72; stroke-opacity: 0.8"/>
     <use xlink:href="#m99d49a9b67" x="129.977449" y="229.262608" style="fill: #c76a72; fill-opacity: 0.8; stroke: #c76a72; stroke-opacity: 0.8"/>
     <use xlink:href="#m99d49a9b67" x="166.39652" y="224.328769" style="fill: #c76a72; fill-opacity: 0.8; stroke: #c76a72; stroke-opacity: 0.8"/>
     <use xlink:href="#m99d49a9b67" x="180.339044" y="219.394929" style="fill: #c76a72; fill-opacity: 0.8; stroke: #c76a72; stroke-opacity: 0.8"/>
     <use xlink:href="#m99d49a9b67" x="192.813935" y="214.46109" style="fill: #c76a72; fill-opacity: 0.8; stroke: #c76a72; stroke-opacity: 0.8"/>
     <use xlink:href="#m99d49a9b67" x="176.180748" y="209.52725" style="fill: #c76a72; fill-opacity: 0.8; stroke: #c76a72; stroke-opacity: 0.8"/>
     <use xlink:href="#m99d49a9b67" x="170.982877" y="204.59341" style="fill: #c76a72; fill-opacity: 0.8; stroke: #c76a72; stroke-opacity: 0.8"/>
     <use xlink:href="#m99d49a9b67" x="176.180748" y="199.659571" style="fill: #c76a72; fill-opacity: 0.8; stroke: #c76a72; stroke-opacity: 0.8"/>
     <use xlink:href="#m99d49a9b67" x="229.104526" y="194.725731" style="fill: #c76a72; fill-opacity: 0.8; stroke: #c76a72; stroke-opacity: 0.8"/>
     <use xlink:href="#m99d49a9b67" x="208.167647" y="189.791892" style="fill: #c76a72; fill-opacity: 0.8; stroke: #c76a72; stroke-opacity: 0.8"/>
     <use xlink:href="#m99d49a9b67" x="229.104526" y="184.858052" style="fill: #c76a72; fill-opacity: 0.8; stroke: #c76a72; stroke-opacity: 0.8"/>
     <use xlink:href="#m99d49a9b67" x="253.406261" y="179.924213" style="fill: #c76a72; fill-opacity: 0.8; stroke: #c76a72; stroke-opacity: 0.8"/>
     <use xlink:href="#m99d49a9b67" x="206.422907" y="174.990373" style="fill: #c76a72; fill-opacity: 0.8; stroke: #c76a72; stroke-opacity: 0.8"/>
     <use xlink:href="#m99d49a9b67" x="232.733585" y="165.122694" style="fill: #c76a72; fill-opacity: 0.8; stroke: #c76a72; stroke-opacity: 0.8"/>
     <use xlink:href="#m99d49a9b67" x="263.126955" y="160.188855" style="fill: #c76a72; fill-opacity: 0.8; stroke: #c76a72; stroke-opacity: 0.8"/>
     <use xlink:href="#m99d49a9b67" x="282.633147" y="155.255015" style="fill: #c76a72; fill-opacity: 0.8; stroke: #c76a72; stroke-opacity: 0.8"/>
     <use xlink:href="#m99d49a9b67" x="229.104526" y="150.321176" style="fill: #c76a72; fill-opacity: 0.8; stroke: #c76a72; stroke-opacity: 0.8"/>
     <use xlink:href="#m99d49a9b67" x="253.406261" y="145.387336" style="fill: #c76a72; fill-opacity: 0.8; stroke: #c76a72; stroke-opacity: 0.8"/>
     <use xlink:href="#m99d49a9b67" x="227.359786" y="140.453497" style="fill: #c76a72; fill-opacity: 0.8; stroke: #c76a72; stroke-opacity: 0.8"/>
     <use xlink:href="#m99d49a9b67" x="244.883043" y="135.519657" style="fill: #c76a72; fill-opacity: 0.8; stroke: #c76a72; stroke-opacity: 0.8"/>
     <use xlink:href="#m99d49a9b67" x="227.359786" y="130.585817" style="fill: #c76a72; fill-opacity: 0.8; stroke: #c76a72; stroke-opacity: 0.8"/>
     <use xlink:href="#m99d49a9b67" x="273.207674" y="120.718138" style="fill: #c76a72; fill-opacity: 0.8; stroke: #c76a72; stroke-opacity: 0.8"/>
     <use xlink:href="#m99d49a9b67" x="254.454571" y="115.784299" style="fill: #c76a72; fill-opacity: 0.8; stroke: #c76a72; stroke-opacity: 0.8"/>
     <use xlink:href="#m99d49a9b67" x="253.406261" y="110.850459" style="fill: #c76a72; fill-opacity: 0.8; stroke: #c76a72; stroke-opacity: 0.8"/>
     <use xlink:href="#m99d49a9b67" x="316.923103" y="105.91662" style="fill: #c76a72; fill-opacity: 0.8; stroke: #c76a72; stroke-opacity: 0.8"/>
     <use xlink:href="#m99d49a9b67" x="280.138169" y="100.98278" style="fill: #c76a72; fill-opacity: 0.8; stroke: #c76a72; stroke-opacity: 0.8"/>
     <use xlink:href="#m99d49a9b67" x="317.562841" y="91.115101" style="fill: #c76a72; fill-opacity: 0.8; stroke: #c76a72; stroke-opacity: 0.8"/>
     <use xlink:href="#m99d49a9b67" x="321.721138" y="76.313583" style="fill: #c76a72; fill-opacity: 0.8; stroke: #c76a72; stroke-opacity: 0.8"/>
     <use xlink:href="#m99d49a9b67" x="304.128343" y="71.379743" style="fill: #c76a72; fill-opacity: 0.8; stroke: #c76a72; stroke-opacity: 0.8"/>
     <use xlink:href="#m99d49a9b67" x="317.562841" y="66.445903" style="fill: #c76a72; fill-opacity: 0.8; stroke: #c76a72; stroke-opacity: 0.8"/>
    </g>
   </g>
   <g id="FillBetweenPolyCollection_2">
    <defs>
     <path id="m7b79af4765" d="M 93.014811 -101.404233 
L 93.014811 -73.695743 
L 95.324975 -75.857973 
L 97.63514 -78.013299 
L 99.945305 -80.077082 
L 102.25547 -82.142031 
L 104.565635 -84.257495 
L 106.8758 -86.425291 
L 109.185965 -88.491287 
L 111.49613 -90.552672 
L 113.806295 -92.61448 
L 116.11646 -94.677655 
L 118.426625 -96.74083 
L 120.73679 -98.871363 
L 123.046955 -101.003403 
L 125.357119 -103.070002 
L 127.667284 -105.088329 
L 129.977449 -107.161903 
L 132.287614 -109.383319 
L 134.597779 -111.4134 
L 136.907944 -113.533623 
L 139.218109 -115.660308 
L 141.528274 -117.786993 
L 143.838439 -119.913678 
L 146.148604 -122.040363 
L 148.458769 -124.172177 
L 150.768934 -126.306653 
L 153.079098 -128.461768 
L 155.389263 -130.567897 
L 157.699428 -132.62583 
L 160.009593 -134.657978 
L 162.319758 -136.690126 
L 164.629923 -138.722274 
L 166.940088 -140.760724 
L 169.250253 -142.828031 
L 171.560418 -144.840715 
L 173.870583 -147.067345 
L 176.180748 -148.964206 
L 178.490913 -151.035326 
L 180.801077 -153.16373 
L 183.111242 -155.181202 
L 185.421407 -157.103682 
L 187.731572 -159.033937 
L 190.041737 -160.913449 
L 192.351902 -162.845588 
L 194.662067 -164.765487 
L 196.972232 -166.722891 
L 199.282397 -168.756553 
L 201.592562 -170.609699 
L 203.902727 -172.37526 
L 206.212892 -174.25257 
L 208.523057 -176.15931 
L 210.833221 -178.077858 
L 213.143386 -179.814188 
L 215.453551 -181.708818 
L 217.763716 -183.780546 
L 220.073881 -185.682578 
L 222.384046 -187.525427 
L 224.694211 -189.250832 
L 227.004376 -190.889947 
L 229.314541 -192.704511 
L 231.624706 -194.412606 
L 233.934871 -196.120701 
L 236.245036 -197.828797 
L 238.5552 -199.539971 
L 240.865365 -201.242011 
L 243.17553 -202.87009 
L 245.485695 -204.487058 
L 247.79586 -206.104026 
L 250.106025 -207.722047 
L 252.41619 -209.426013 
L 254.726355 -211.06091 
L 257.03652 -212.620065 
L 259.346685 -214.294412 
L 261.65685 -215.949099 
L 263.967015 -217.681779 
L 266.277179 -219.373936 
L 268.587344 -221.069153 
L 270.897509 -222.764371 
L 273.207674 -224.459589 
L 275.517839 -226.154806 
L 277.828004 -227.850024 
L 280.138169 -229.543001 
L 282.448334 -231.233692 
L 284.758499 -232.924383 
L 287.068664 -234.608228 
L 289.378829 -236.231728 
L 291.688994 -237.855228 
L 293.999158 -239.478728 
L 296.309323 -241.102228 
L 298.619488 -242.725727 
L 300.929653 -244.306778 
L 303.239818 -245.844835 
L 305.549983 -247.382901 
L 307.860148 -248.923871 
L 310.170313 -250.465969 
L 312.480478 -252.008068 
L 314.790643 -253.550166 
L 317.100808 -255.092265 
L 319.410973 -256.791894 
L 321.721138 -258.502195 
L 321.721138 -289.171397 
L 321.721138 -289.171397 
L 319.410973 -287.165153 
L 317.100808 -285.164194 
L 314.790643 -283.087055 
L 312.480478 -280.972843 
L 310.170313 -278.937375 
L 307.860148 -276.84948 
L 305.549983 -274.841539 
L 303.239818 -272.789058 
L 300.929653 -270.686792 
L 298.619488 -268.584073 
L 296.309323 -266.482915 
L 293.999158 -264.354558 
L 291.688994 -262.279255 
L 289.378829 -260.210829 
L 287.068664 -258.144736 
L 284.758499 -256.163271 
L 282.448334 -254.071346 
L 280.138169 -252.031 
L 277.828004 -249.962167 
L 275.517839 -247.890898 
L 273.207674 -245.823632 
L 270.897509 -243.756695 
L 268.587344 -241.821563 
L 266.277179 -239.879604 
L 263.967015 -237.73167 
L 261.65685 -235.77018 
L 259.346685 -233.731698 
L 257.03652 -231.571105 
L 254.726355 -229.546121 
L 252.41619 -227.55099 
L 250.106025 -225.572063 
L 247.79586 -223.589303 
L 245.485695 -221.596666 
L 243.17553 -219.607394 
L 240.865365 -217.591245 
L 238.5552 -215.694268 
L 236.245036 -213.642229 
L 233.934871 -211.765763 
L 231.624706 -209.893097 
L 229.314541 -207.919917 
L 227.004376 -206.069375 
L 224.694211 -204.10282 
L 222.384046 -202.237821 
L 220.073881 -200.329972 
L 217.763716 -198.472257 
L 215.453551 -196.545519 
L 213.143386 -194.539108 
L 210.833221 -192.6546 
L 208.523057 -190.773532 
L 206.212892 -188.980655 
L 203.902727 -187.060831 
L 201.592562 -185.228216 
L 199.282397 -183.264812 
L 196.972232 -181.293 
L 194.662067 -179.368518 
L 192.351902 -177.433274 
L 190.041737 -175.514535 
L 187.731572 -173.613962 
L 185.421407 -171.773059 
L 183.111242 -169.900826 
L 180.801077 -168.028496 
L 178.490913 -166.156595 
L 176.180748 -164.295838 
L 173.870583 -162.45621 
L 171.560418 -160.640289 
L 169.250253 -158.855032 
L 166.940088 -156.962605 
L 164.629923 -155.103371 
L 162.319758 -153.332006 
L 160.009593 -151.664945 
L 157.699428 -149.927902 
L 155.389263 -148.117371 
L 153.079098 -146.247408 
L 150.768934 -144.466647 
L 148.458769 -142.784637 
L 146.148604 -141.003043 
L 143.838439 -139.217491 
L 141.528274 -137.488134 
L 139.218109 -135.699003 
L 136.907944 -133.923765 
L 134.597779 -132.241306 
L 132.287614 -130.457746 
L 129.977449 -128.733757 
L 127.667284 -127.053998 
L 125.357119 -125.412805 
L 123.046955 -123.770496 
L 120.73679 -122.066493 
L 118.426625 -120.291923 
L 116.11646 -118.578137 
L 113.806295 -116.847235 
L 111.49613 -115.087439 
L 109.185965 -113.341925 
L 106.8758 -111.595754 
L 104.565635 -109.8487 
L 102.25547 -108.258432 
L 99.945305 -106.523785 
L 97.63514 -104.759025 
L 95.324975 -103.009647 
L 93.014811 -101.404233 
z
" style="stroke: #ffffff; stroke-opacity: 0.15"/>
    </defs>
    <g clip-path="url(#pa56b3ac094)">
     <use xlink:href="#m7b79af4765" x="0" y="360" style="fill: #c76a72; fill-opacity: 0.15; stroke: #ffffff; stroke-opacity: 0.15"/>
    </g>
   </g>
   <g id="PathCollection_3">
    <defs>
     <path id="m7dff154b02" d="M 0 3 
C 0.795609 3 1.55874 2.683901 2.12132 2.12132 
C 2.683901 1.55874 3 0.795609 3 0 
C 3 -0.795609 2.683901 -1.55874 2.12132 -2.12132 
C 1.55874 -2.683901 0.795609 -3 0 -3 
C -0.795609 -3 -1.55874 -2.683901 -2.12132 -2.12132 
C -2.683901 -1.55874 -3 -0.795609 -3 0 
C -3 0.795609 -2.683901 1.55874 -2.12132 2.12132 
C -1.55874 2.683901 -0.795609 3 0 3 
z
" style="stroke: #62289d; stroke-opacity: 0.8"/>
    </defs>
    <g clip-path="url(#pa56b3ac094)">
     <use xlink:href="#m7dff154b02" x="93.014811" y="248.997966" style="fill: #62289d; fill-opacity: 0.8; stroke: #62289d; stroke-opacity: 0.8"/>
     <use xlink:href="#m7dff154b02" x="106.146274" y="244.064127" style="fill: #62289d; fill-opacity: 0.8; stroke: #62289d; stroke-opacity: 0.8"/>
     <use xlink:href="#m7dff154b02" x="113.806295" y="239.130287" style="fill: #62289d; fill-opacity: 0.8; stroke: #62289d; stroke-opacity: 0.8"/>
     <use xlink:href="#m7dff154b02" x="142.914373" y="234.196448" style="fill: #62289d; fill-opacity: 0.8; stroke: #62289d; stroke-opacity: 0.8"/>
     <use xlink:href="#m7dff154b02" x="217.763716" y="229.262608" style="fill: #62289d; fill-opacity: 0.8; stroke: #62289d; stroke-opacity: 0.8"/>
     <use xlink:href="#m7dff154b02" x="155.389263" y="224.328769" style="fill: #62289d; fill-opacity: 0.8; stroke: #62289d; stroke-opacity: 0.8"/>
     <use xlink:href="#m7dff154b02" x="188.061596" y="219.394929" style="fill: #62289d; fill-opacity: 0.8; stroke: #62289d; stroke-opacity: 0.8"/>
     <use xlink:href="#m7dff154b02" x="166.39652" y="214.46109" style="fill: #62289d; fill-opacity: 0.8; stroke: #62289d; stroke-opacity: 0.8"/>
     <use xlink:href="#m7dff154b02" x="207.367974" y="209.52725" style="fill: #62289d; fill-opacity: 0.8; stroke: #62289d; stroke-opacity: 0.8"/>
     <use xlink:href="#m7dff154b02" x="188.061596" y="204.59341" style="fill: #62289d; fill-opacity: 0.8; stroke: #62289d; stroke-opacity: 0.8"/>
     <use xlink:href="#m7dff154b02" x="209.447122" y="199.659571" style="fill: #62289d; fill-opacity: 0.8; stroke: #62289d; stroke-opacity: 0.8"/>
     <use xlink:href="#m7dff154b02" x="231.624706" y="194.725731" style="fill: #62289d; fill-opacity: 0.8; stroke: #62289d; stroke-opacity: 0.8"/>
     <use xlink:href="#m7dff154b02" x="142.914373" y="189.791892" style="fill: #62289d; fill-opacity: 0.8; stroke: #62289d; stroke-opacity: 0.8"/>
     <use xlink:href="#m7dff154b02" x="254.454571" y="184.858052" style="fill: #62289d; fill-opacity: 0.8; stroke: #62289d; stroke-opacity: 0.8"/>
     <use xlink:href="#m7dff154b02" x="266.578505" y="179.924213" style="fill: #62289d; fill-opacity: 0.8; stroke: #62289d; stroke-opacity: 0.8"/>
     <use xlink:href="#m7dff154b02" x="209.447122" y="174.990373" style="fill: #62289d; fill-opacity: 0.8; stroke: #62289d; stroke-opacity: 0.8"/>
     <use xlink:href="#m7dff154b02" x="251.786145" y="170.056534" style="fill: #62289d; fill-opacity: 0.8; stroke: #62289d; stroke-opacity: 0.8"/>
     <use xlink:href="#m7dff154b02" x="206.422907" y="165.122694" style="fill: #62289d; fill-opacity: 0.8; stroke: #62289d; stroke-opacity: 0.8"/>
     <use xlink:href="#m7dff154b02" x="276.855303" y="160.188855" style="fill: #62289d; fill-opacity: 0.8; stroke: #62289d; stroke-opacity: 0.8"/>
     <use xlink:href="#m7dff154b02" x="287.068664" y="155.255015" style="fill: #62289d; fill-opacity: 0.8; stroke: #62289d; stroke-opacity: 0.8"/>
     <use xlink:href="#m7dff154b02" x="271.227533" y="150.321176" style="fill: #62289d; fill-opacity: 0.8; stroke: #62289d; stroke-opacity: 0.8"/>
     <use xlink:href="#m7dff154b02" x="274.467764" y="140.453497" style="fill: #62289d; fill-opacity: 0.8; stroke: #62289d; stroke-opacity: 0.8"/>
     <use xlink:href="#m7dff154b02" x="248.950943" y="135.519657" style="fill: #62289d; fill-opacity: 0.8; stroke: #62289d; stroke-opacity: 0.8"/>
     <use xlink:href="#m7dff154b02" x="299.330308" y="130.585817" style="fill: #62289d; fill-opacity: 0.8; stroke: #62289d; stroke-opacity: 0.8"/>
     <use xlink:href="#m7dff154b02" x="323.320482" y="115.784299" style="fill: #62289d; fill-opacity: 0.8; stroke: #62289d; stroke-opacity: 0.8"/>
     <use xlink:href="#m7dff154b02" x="342.512622" y="105.91662" style="fill: #62289d; fill-opacity: 0.8; stroke: #62289d; stroke-opacity: 0.8"/>
     <use xlink:href="#m7dff154b02" x="314.790643" y="100.98278" style="fill: #62289d; fill-opacity: 0.8; stroke: #62289d; stroke-opacity: 0.8"/>
     <use xlink:href="#m7dff154b02" x="342.512622" y="96.048941" style="fill: #62289d; fill-opacity: 0.8; stroke: #62289d; stroke-opacity: 0.8"/>
    </g>
   </g>
   <g id="FillBetweenPolyCollection_3">
    <defs>
     <path id="ma17a3e6f5c" d="M 93.014811 -114.906373 
L 93.014811 -88.66759 
L 95.53499 -90.352911 
L 98.05517 -92.038658 
L 100.57535 -93.724406 
L 103.09553 -95.410153 
L 105.61571 -97.046128 
L 108.13589 -98.676095 
L 110.65607 -100.306221 
L 113.17625 -101.936348 
L 115.69643 -103.635781 
L 118.21661 -105.374256 
L 120.73679 -107.096232 
L 123.256969 -108.706669 
L 125.777149 -110.317369 
L 128.297329 -111.92807 
L 130.817509 -113.561394 
L 133.337689 -115.246874 
L 135.857869 -116.832945 
L 138.378049 -118.419016 
L 140.898229 -120.005087 
L 143.418409 -121.58102 
L 145.938589 -123.175767 
L 148.458769 -124.794822 
L 150.978949 -126.426541 
L 153.499128 -128.015563 
L 156.019308 -129.643462 
L 158.539488 -131.310449 
L 161.059668 -133.015736 
L 163.579848 -134.693852 
L 166.100028 -136.347809 
L 168.620208 -137.976145 
L 171.140388 -139.64146 
L 173.660568 -141.297228 
L 176.180748 -142.779217 
L 178.700928 -144.261206 
L 181.221107 -145.870455 
L 183.741287 -147.4494 
L 186.261467 -148.940367 
L 188.781647 -150.59679 
L 191.301827 -152.359193 
L 193.822007 -154.008125 
L 196.342187 -155.493139 
L 198.862367 -157.062442 
L 201.382547 -158.581693 
L 203.902727 -160.18581 
L 206.422907 -161.689415 
L 208.943086 -163.168703 
L 211.463266 -164.620776 
L 213.983446 -166.079442 
L 216.503626 -167.625133 
L 219.023806 -169.093868 
L 221.543986 -170.443626 
L 224.064166 -171.897808 
L 226.584346 -173.355025 
L 229.104526 -175.000291 
L 231.624706 -176.533253 
L 234.144886 -178.197945 
L 236.665066 -179.640182 
L 239.185245 -181.243403 
L 241.705425 -182.746379 
L 244.225605 -184.142452 
L 246.745785 -185.414032 
L 249.265965 -186.697971 
L 251.786145 -188.017782 
L 254.306325 -189.423636 
L 256.826505 -190.810467 
L 259.346685 -192.090301 
L 261.866865 -193.41591 
L 264.387045 -194.780743 
L 266.907224 -196.006066 
L 269.427404 -197.361918 
L 271.947584 -198.652506 
L 274.467764 -200.057282 
L 276.987944 -201.270023 
L 279.508124 -202.585457 
L 282.028304 -203.900975 
L 284.548484 -205.216492 
L 287.068664 -206.53201 
L 289.588844 -207.847527 
L 292.109024 -209.112515 
L 294.629203 -210.336684 
L 297.149383 -211.560852 
L 299.669563 -212.841902 
L 302.189743 -214.148373 
L 304.709923 -215.462759 
L 307.230103 -216.777146 
L 309.750283 -218.091533 
L 312.270463 -219.405919 
L 314.790643 -220.721985 
L 317.310823 -222.076623 
L 319.831003 -223.474488 
L 322.351183 -224.731955 
L 324.871362 -225.989422 
L 327.391542 -227.297594 
L 329.911722 -228.611132 
L 332.431902 -229.92467 
L 334.952082 -231.238209 
L 337.472262 -232.551747 
L 339.992442 -233.865285 
L 342.512622 -235.178823 
L 342.512622 -259.580457 
L 342.512622 -259.580457 
L 339.992442 -258.008914 
L 337.472262 -256.435925 
L 334.952082 -254.801466 
L 332.431902 -253.14499 
L 329.911722 -251.419413 
L 327.391542 -249.861027 
L 324.871362 -248.174967 
L 322.351183 -246.646753 
L 319.831003 -245.002356 
L 317.310823 -243.434629 
L 314.790643 -241.867462 
L 312.270463 -240.302723 
L 309.750283 -238.73591 
L 307.230103 -237.164999 
L 304.709923 -235.569517 
L 302.189743 -233.970939 
L 299.669563 -232.458475 
L 297.149383 -230.9078 
L 294.629203 -229.331261 
L 292.109024 -227.653501 
L 289.588844 -225.985792 
L 287.068664 -224.402857 
L 284.548484 -222.821511 
L 282.028304 -221.240166 
L 279.508124 -219.65882 
L 276.987944 -218.077475 
L 274.467764 -216.537436 
L 271.947584 -214.914784 
L 269.427404 -213.353651 
L 266.907224 -211.851195 
L 264.387045 -210.374427 
L 261.866865 -208.883399 
L 259.346685 -207.389283 
L 256.826505 -205.775936 
L 254.306325 -204.160485 
L 251.786145 -202.544325 
L 249.265965 -200.956185 
L 246.745785 -199.469163 
L 244.225605 -197.982718 
L 241.705425 -196.4404 
L 239.185245 -194.854867 
L 236.665066 -193.322476 
L 234.144886 -191.867318 
L 231.624706 -190.377667 
L 229.104526 -188.915238 
L 226.584346 -187.451052 
L 224.064166 -185.986866 
L 221.543986 -184.522645 
L 219.023806 -183.052079 
L 216.503626 -181.49993 
L 213.983446 -179.948704 
L 211.463266 -178.444467 
L 208.943086 -176.985553 
L 206.422907 -175.551465 
L 203.902727 -174.116381 
L 201.382547 -172.707706 
L 198.862367 -171.324652 
L 196.342187 -169.886734 
L 193.822007 -168.41061 
L 191.301827 -166.958664 
L 188.781647 -165.627902 
L 186.261467 -164.302898 
L 183.741287 -162.98798 
L 181.221107 -161.655823 
L 178.700928 -160.25589 
L 176.180748 -158.747095 
L 173.660568 -157.221419 
L 171.140388 -155.76784 
L 168.620208 -154.56749 
L 166.100028 -153.14436 
L 163.579848 -151.721464 
L 161.059668 -150.299562 
L 158.539488 -148.991037 
L 156.019308 -147.674991 
L 153.499128 -146.369103 
L 150.978949 -144.871517 
L 148.458769 -143.469463 
L 145.938589 -142.069794 
L 143.418409 -140.678839 
L 140.898229 -139.393 
L 138.378049 -138.107161 
L 135.857869 -136.821322 
L 133.337689 -135.532557 
L 130.817509 -134.150133 
L 128.297329 -132.744657 
L 125.777149 -131.339181 
L 123.256969 -129.933705 
L 120.73679 -128.583085 
L 118.21661 -127.408237 
L 115.69643 -126.238309 
L 113.17625 -124.897356 
L 110.65607 -123.447809 
L 108.13589 -122.060457 
L 105.61571 -120.802091 
L 103.09553 -119.622947 
L 100.57535 -118.443804 
L 98.05517 -117.26466 
L 95.53499 -116.085517 
L 93.014811 -114.906373 
z
" style="stroke: #ffffff; stroke-opacity: 0.15"/>
    </defs>
    <g clip-path="url(#pa56b3ac094)">
     <use xlink:href="#ma17a3e6f5c" x="0" y="360" style="fill: #62289d; fill-opacity: 0.15; stroke: #ffffff; stroke-opacity: 0.15"/>
    </g>
   </g>
   <g id="line2d_12">
    <path d="M 93.014811 263.780118 
L 95.434183 261.656896 
L 97.853556 259.533674 
L 100.272929 257.410452 
L 102.692301 255.28723 
L 105.111674 253.164007 
L 107.531047 251.040785 
L 109.95042 248.917563 
L 112.369792 246.794341 
L 114.789165 244.671119 
L 117.208538 242.547897 
L 119.62791 240.424674 
L 122.047283 238.301452 
L 124.466656 236.17823 
L 126.886029 234.055008 
L 129.305401 231.931786 
L 131.724774 229.808564 
L 134.144147 227.685341 
L 136.563519 225.562119 
L 138.982892 223.438897 
L 141.402265 221.315675 
L 143.821638 219.192453 
L 146.24101 217.069231 
L 148.660383 214.946008 
L 151.079756 212.822786 
L 153.499128 210.699564 
L 155.918501 208.576342 
L 158.337874 206.45312 
L 160.757247 204.329898 
L 163.176619 202.206675 
L 165.595992 200.083453 
L 168.015365 197.960231 
L 170.434737 195.837009 
L 172.85411 193.713787 
L 175.273483 191.590565 
L 177.692856 189.467342 
L 180.112228 187.34412 
L 182.531601 185.220898 
L 184.950974 183.097676 
L 187.370346 180.974454 
L 189.789719 178.851232 
L 192.209092 176.728009 
L 194.628465 174.604787 
L 197.047837 172.481565 
L 199.46721 170.358343 
L 201.886583 168.235121 
L 204.305955 166.111899 
L 206.725328 163.988676 
L 209.144701 161.865454 
L 211.564074 159.742232 
L 213.983446 157.61901 
L 216.402819 155.495788 
L 218.822192 153.372566 
L 221.241564 151.249343 
L 223.660937 149.126121 
L 226.08031 147.002899 
L 228.499683 144.879677 
L 230.919055 142.756455 
L 233.338428 140.633233 
L 235.757801 138.51001 
L 238.177173 136.386788 
L 240.596546 134.263566 
L 243.015919 132.140344 
L 245.435292 130.017122 
L 247.854664 127.8939 
L 250.274037 125.770677 
L 252.69341 123.647455 
L 255.112782 121.524233 
L 257.532155 119.401011 
L 259.951528 117.277789 
L 262.370901 115.154567 
L 264.790273 113.031344 
L 267.209646 110.908122 
L 269.629019 108.7849 
L 272.048391 106.661678 
L 274.467764 104.538456 
L 276.887137 102.415233 
L 279.30651 100.292011 
L 281.725882 98.168789 
L 284.145255 96.045567 
L 286.564628 93.922345 
L 288.984 91.799123 
L 291.403373 89.6759 
L 293.822746 87.552678 
L 296.242119 85.429456 
L 298.661491 83.306234 
L 301.080864 81.183012 
L 303.500237 79.05979 
L 305.919609 76.936567 
L 308.338982 74.813345 
L 310.758355 72.690123 
L 313.177728 70.566901 
L 315.5971 68.443679 
L 318.016473 66.320457 
L 320.435846 64.197234 
L 322.855218 62.074012 
L 325.274591 59.95079 
L 327.693964 57.827568 
L 330.113337 55.704346 
L 332.532709 53.581124 
" clip-path="url(#pa56b3ac094)" style="fill: none; stroke: #eeae53; stroke-width: 2.25; stroke-linecap: round"/>
   </g>
   <g id="line2d_13">
    <path d="M 93.014811 269.364728 
L 95.324975 267.504611 
L 97.63514 265.644494 
L 99.945305 263.784377 
L 102.25547 261.92426 
L 104.565635 260.064143 
L 106.8758 258.204026 
L 109.185965 256.343909 
L 111.49613 254.483792 
L 113.806295 252.623675 
L 116.11646 250.763558 
L 118.426625 248.903441 
L 120.73679 247.043323 
L 123.046955 245.183206 
L 125.357119 243.323089 
L 127.667284 241.462972 
L 129.977449 239.602855 
L 132.287614 237.742738 
L 134.597779 235.882621 
L 136.907944 234.022504 
L 139.218109 232.162387 
L 141.528274 230.30227 
L 143.838439 228.442153 
L 146.148604 226.582036 
L 148.458769 224.721919 
L 150.768934 222.861801 
L 153.079098 221.001684 
L 155.389263 219.141567 
L 157.699428 217.28145 
L 160.009593 215.421333 
L 162.319758 213.561216 
L 164.629923 211.701099 
L 166.940088 209.840982 
L 169.250253 207.980865 
L 171.560418 206.120748 
L 173.870583 204.260631 
L 176.180748 202.400514 
L 178.490913 200.540397 
L 180.801077 198.680279 
L 183.111242 196.820162 
L 185.421407 194.960045 
L 187.731572 193.099928 
L 190.041737 191.239811 
L 192.351902 189.379694 
L 194.662067 187.519577 
L 196.972232 185.65946 
L 199.282397 183.799343 
L 201.592562 181.939226 
L 203.902727 180.079109 
L 206.212892 178.218992 
L 208.523057 176.358875 
L 210.833221 174.498757 
L 213.143386 172.63864 
L 215.453551 170.778523 
L 217.763716 168.918406 
L 220.073881 167.058289 
L 222.384046 165.198172 
L 224.694211 163.338055 
L 227.004376 161.477938 
L 229.314541 159.617821 
L 231.624706 157.757704 
L 233.934871 155.897587 
L 236.245036 154.03747 
L 238.5552 152.177353 
L 240.865365 150.317235 
L 243.17553 148.457118 
L 245.485695 146.597001 
L 247.79586 144.736884 
L 250.106025 142.876767 
L 252.41619 141.01665 
L 254.726355 139.156533 
L 257.03652 137.296416 
L 259.346685 135.436299 
L 261.65685 133.576182 
L 263.967015 131.716065 
L 266.277179 129.855948 
L 268.587344 127.995831 
L 270.897509 126.135713 
L 273.207674 124.275596 
L 275.517839 122.415479 
L 277.828004 120.555362 
L 280.138169 118.695245 
L 282.448334 116.835128 
L 284.758499 114.975011 
L 287.068664 113.114894 
L 289.378829 111.254777 
L 291.688994 109.39466 
L 293.999158 107.534543 
L 296.309323 105.674426 
L 298.619488 103.814309 
L 300.929653 101.954191 
L 303.239818 100.094074 
L 305.549983 98.233957 
L 307.860148 96.37384 
L 310.170313 94.513723 
L 312.480478 92.653606 
L 314.790643 90.793489 
L 317.100808 88.933372 
L 319.410973 87.073255 
L 321.721138 85.213138 
" clip-path="url(#pa56b3ac094)" style="fill: none; stroke: #c76a72; stroke-width: 2.25; stroke-linecap: round"/>
   </g>
   <g id="line2d_14">
    <path d="M 93.014811 258.555131 
L 95.53499 257.060026 
L 98.05517 255.56492 
L 100.57535 254.069815 
L 103.09553 252.57471 
L 105.61571 251.079604 
L 108.13589 249.584499 
L 110.65607 248.089394 
L 113.17625 246.594288 
L 115.69643 245.099183 
L 118.21661 243.604078 
L 120.73679 242.108972 
L 123.256969 240.613867 
L 125.777149 239.118761 
L 128.297329 237.623656 
L 130.817509 236.128551 
L 133.337689 234.633445 
L 135.857869 233.13834 
L 138.378049 231.643235 
L 140.898229 230.148129 
L 143.418409 228.653024 
L 145.938589 227.157919 
L 148.458769 225.662813 
L 150.978949 224.167708 
L 153.499128 222.672603 
L 156.019308 221.177497 
L 158.539488 219.682392 
L 161.059668 218.187287 
L 163.579848 216.692181 
L 166.100028 215.197076 
L 168.620208 213.701971 
L 171.140388 212.206865 
L 173.660568 210.71176 
L 176.180748 209.216655 
L 178.700928 207.721549 
L 181.221107 206.226444 
L 183.741287 204.731338 
L 186.261467 203.236233 
L 188.781647 201.741128 
L 191.301827 200.246022 
L 193.822007 198.750917 
L 196.342187 197.255812 
L 198.862367 195.760706 
L 201.382547 194.265601 
L 203.902727 192.770496 
L 206.422907 191.27539 
L 208.943086 189.780285 
L 211.463266 188.28518 
L 213.983446 186.790074 
L 216.503626 185.294969 
L 219.023806 183.799864 
L 221.543986 182.304758 
L 224.064166 180.809653 
L 226.584346 179.314548 
L 229.104526 177.819442 
L 231.624706 176.324337 
L 234.144886 174.829232 
L 236.665066 173.334126 
L 239.185245 171.839021 
L 241.705425 170.343915 
L 244.225605 168.84881 
L 246.745785 167.353705 
L 249.265965 165.858599 
L 251.786145 164.363494 
L 254.306325 162.868389 
L 256.826505 161.373283 
L 259.346685 159.878178 
L 261.866865 158.383073 
L 264.387045 156.887967 
L 266.907224 155.392862 
L 269.427404 153.897757 
L 271.947584 152.402651 
L 274.467764 150.907546 
L 276.987944 149.412441 
L 279.508124 147.917335 
L 282.028304 146.42223 
L 284.548484 144.927125 
L 287.068664 143.432019 
L 289.588844 141.936914 
L 292.109024 140.441809 
L 294.629203 138.946703 
L 297.149383 137.451598 
L 299.669563 135.956492 
L 302.189743 134.461387 
L 304.709923 132.966282 
L 307.230103 131.471176 
L 309.750283 129.976071 
L 312.270463 128.480966 
L 314.790643 126.98586 
L 317.310823 125.490755 
L 319.831003 123.99565 
L 322.351183 122.500544 
L 324.871362 121.005439 
L 327.391542 119.510334 
L 329.911722 118.015228 
L 332.431902 116.520123 
L 334.952082 115.025018 
L 337.472262 113.529912 
L 339.992442 112.034807 
L 342.512622 110.539702 
" clip-path="url(#pa56b3ac094)" style="fill: none; stroke: #62289d; stroke-width: 2.25; stroke-linecap: round"/>
   </g>
   <g id="patch_3">
    <path d="M 80.53992 311.94 
L 80.53992 15.612151 
" style="fill: none; stroke: #262626; stroke-width: 1.25; stroke-linejoin: miter; stroke-linecap: square"/>
   </g>
   <g id="patch_4">
    <path d="M 80.53992 311.94 
L 354.987512 311.94 
" style="fill: none; stroke: #262626; stroke-width: 1.25; stroke-linejoin: miter; stroke-linecap: square"/>
   </g>
  </g>
  <g id="legend_1">
   <g id="text_14">
    <!-- class -->
    <g style="fill: #262626" transform="translate(393.972422 159.697969) scale(0.12 -0.12)">
     <defs>
      <path id="ArialMT-6c" d="M 409 0 
L 409 4581 
L 972 4581 
L 972 0 
L 409 0 
z
" transform="scale(0.015625)"/>
      <path id="ArialMT-73" d="M 197 991 
L 753 1078 
Q 800 744 1014 566 
Q 1228 388 1613 388 
Q 2000 388 2187 545 
Q 2375 703 2375 916 
Q 2375 1106 2209 1216 
Q 2094 1291 1634 1406 
Q 1016 1563 777 1677 
Q 538 1791 414 1992 
Q 291 2194 291 2438 
Q 291 2659 392 2848 
Q 494 3038 669 3163 
Q 800 3259 1026 3326 
Q 1253 3394 1513 3394 
Q 1903 3394 2198 3281 
Q 2494 3169 2634 2976 
Q 2775 2784 2828 2463 
L 2278 2388 
Q 2241 2644 2061 2787 
Q 1881 2931 1553 2931 
Q 1166 2931 1000 2803 
Q 834 2675 834 2503 
Q 834 2394 903 2306 
Q 972 2216 1119 2156 
Q 1203 2125 1616 2013 
Q 2213 1853 2448 1751 
Q 2684 1650 2818 1456 
Q 2953 1263 2953 975 
Q 2953 694 2789 445 
Q 2625 197 2315 61 
Q 2006 -75 1616 -75 
Q 969 -75 630 194 
Q 291 463 197 991 
z
" transform="scale(0.015625)"/>
     </defs>
     <use xlink:href="#ArialMT-63"/>
     <use xlink:href="#ArialMT-6c" transform="translate(50 0)"/>
     <use xlink:href="#ArialMT-61" transform="translate(72.216797 0)"/>
     <use xlink:href="#ArialMT-73" transform="translate(127.832031 0)"/>
     <use xlink:href="#ArialMT-73" transform="translate(177.832031 0)"/>
    </g>
   </g>
   <g id="PathCollection_4">
    <g>
     <use xlink:href="#m3e28b0dd8a" x="369.624219" y="172.569063" style="fill: #eeae53; fill-opacity: 0.8; stroke: #eeae53; stroke-opacity: 0.8"/>
    </g>
   </g>
   <g id="text_15">
    <!-- bert-icl-cot -->
    <g style="fill: #262626" transform="translate(389.424219 175.456563) scale(0.11 -0.11)">
     <defs>
      <path id="ArialMT-62" d="M 941 0 
L 419 0 
L 419 4581 
L 981 4581 
L 981 2947 
Q 1338 3394 1891 3394 
Q 2197 3394 2470 3270 
Q 2744 3147 2920 2923 
Q 3097 2700 3197 2384 
Q 3297 2069 3297 1709 
Q 3297 856 2875 390 
Q 2453 -75 1863 -75 
Q 1275 -75 941 416 
L 941 0 
z
M 934 1684 
Q 934 1088 1097 822 
Q 1363 388 1816 388 
Q 2184 388 2453 708 
Q 2722 1028 2722 1663 
Q 2722 2313 2464 2622 
Q 2206 2931 1841 2931 
Q 1472 2931 1203 2611 
Q 934 2291 934 1684 
z
" transform="scale(0.015625)"/>
      <path id="ArialMT-65" d="M 2694 1069 
L 3275 997 
Q 3138 488 2766 206 
Q 2394 -75 1816 -75 
Q 1088 -75 661 373 
Q 234 822 234 1631 
Q 234 2469 665 2931 
Q 1097 3394 1784 3394 
Q 2450 3394 2872 2941 
Q 3294 2488 3294 1666 
Q 3294 1616 3291 1516 
L 816 1516 
Q 847 969 1125 678 
Q 1403 388 1819 388 
Q 2128 388 2347 550 
Q 2566 713 2694 1069 
z
M 847 1978 
L 2700 1978 
Q 2663 2397 2488 2606 
Q 2219 2931 1791 2931 
Q 1403 2931 1139 2672 
Q 875 2413 847 1978 
z
" transform="scale(0.015625)"/>
      <path id="ArialMT-72" d="M 416 0 
L 416 3319 
L 922 3319 
L 922 2816 
Q 1116 3169 1280 3281 
Q 1444 3394 1641 3394 
Q 1925 3394 2219 3213 
L 2025 2691 
Q 1819 2813 1613 2813 
Q 1428 2813 1281 2702 
Q 1134 2591 1072 2394 
Q 978 2094 978 1738 
L 978 0 
L 416 0 
z
" transform="scale(0.015625)"/>
      <path id="ArialMT-74" d="M 1650 503 
L 1731 6 
Q 1494 -44 1306 -44 
Q 1000 -44 831 53 
Q 663 150 594 308 
Q 525 466 525 972 
L 525 2881 
L 113 2881 
L 113 3319 
L 525 3319 
L 525 4141 
L 1084 4478 
L 1084 3319 
L 1650 3319 
L 1650 2881 
L 1084 2881 
L 1084 941 
Q 1084 700 1114 631 
Q 1144 563 1211 522 
Q 1278 481 1403 481 
Q 1497 481 1650 503 
z
" transform="scale(0.015625)"/>
      <path id="ArialMT-2d" d="M 203 1375 
L 203 1941 
L 1931 1941 
L 1931 1375 
L 203 1375 
z
" transform="scale(0.015625)"/>
      <path id="ArialMT-69" d="M 425 3934 
L 425 4581 
L 988 4581 
L 988 3934 
L 425 3934 
z
M 425 0 
L 425 3319 
L 988 3319 
L 988 0 
L 425 0 
z
" transform="scale(0.015625)"/>
      <path id="ArialMT-6f" d="M 213 1659 
Q 213 2581 725 3025 
Q 1153 3394 1769 3394 
Q 2453 3394 2887 2945 
Q 3322 2497 3322 1706 
Q 3322 1066 3130 698 
Q 2938 331 2570 128 
Q 2203 -75 1769 -75 
Q 1072 -75 642 372 
Q 213 819 213 1659 
z
M 791 1659 
Q 791 1022 1069 705 
Q 1347 388 1769 388 
Q 2188 388 2466 706 
Q 2744 1025 2744 1678 
Q 2744 2294 2464 2611 
Q 2184 2928 1769 2928 
Q 1347 2928 1069 2612 
Q 791 2297 791 1659 
z
" transform="scale(0.015625)"/>
     </defs>
     <use xlink:href="#ArialMT-62"/>
     <use xlink:href="#ArialMT-65" transform="translate(55.615234 0)"/>
     <use xlink:href="#ArialMT-72" transform="translate(111.230469 0)"/>
     <use xlink:href="#ArialMT-74" transform="translate(144.53125 0)"/>
     <use xlink:href="#ArialMT-2d" transform="translate(172.314453 0)"/>
     <use xlink:href="#ArialMT-69" transform="translate(205.615234 0)"/>
     <use xlink:href="#ArialMT-63" transform="translate(227.832031 0)"/>
     <use xlink:href="#ArialMT-6c" transform="translate(277.832031 0)"/>
     <use xlink:href="#ArialMT-2d" transform="translate(300.048828 0)"/>
     <use xlink:href="#ArialMT-63" transform="translate(333.349609 0)"/>
     <use xlink:href="#ArialMT-6f" transform="translate(383.349609 0)"/>
     <use xlink:href="#ArialMT-74" transform="translate(438.964844 0)"/>
    </g>
   </g>
   <g id="PathCollection_5">
    <g>
     <use xlink:href="#m99d49a9b67" x="369.624219" y="188.128906" style="fill: #c76a72; fill-opacity: 0.8; stroke: #c76a72; stroke-opacity: 0.8"/>
    </g>
   </g>
   <g id="text_16">
    <!-- bge-icl-cot -->
    <g style="fill: #262626" transform="translate(389.424219 191.016406) scale(0.11 -0.11)">
     <defs>
      <path id="ArialMT-67" d="M 319 -275 
L 866 -356 
Q 900 -609 1056 -725 
Q 1266 -881 1628 -881 
Q 2019 -881 2231 -725 
Q 2444 -569 2519 -288 
Q 2563 -116 2559 434 
Q 2191 0 1641 0 
Q 956 0 581 494 
Q 206 988 206 1678 
Q 206 2153 378 2554 
Q 550 2956 876 3175 
Q 1203 3394 1644 3394 
Q 2231 3394 2613 2919 
L 2613 3319 
L 3131 3319 
L 3131 450 
Q 3131 -325 2973 -648 
Q 2816 -972 2473 -1159 
Q 2131 -1347 1631 -1347 
Q 1038 -1347 672 -1080 
Q 306 -813 319 -275 
z
M 784 1719 
Q 784 1066 1043 766 
Q 1303 466 1694 466 
Q 2081 466 2343 764 
Q 2606 1063 2606 1700 
Q 2606 2309 2336 2618 
Q 2066 2928 1684 2928 
Q 1309 2928 1046 2623 
Q 784 2319 784 1719 
z
" transform="scale(0.015625)"/>
     </defs>
     <use xlink:href="#ArialMT-62"/>
     <use xlink:href="#ArialMT-67" transform="translate(55.615234 0)"/>
     <use xlink:href="#ArialMT-65" transform="translate(111.230469 0)"/>
     <use xlink:href="#ArialMT-2d" transform="translate(166.845703 0)"/>
     <use xlink:href="#ArialMT-69" transform="translate(200.146484 0)"/>
     <use xlink:href="#ArialMT-63" transform="translate(222.363281 0)"/>
     <use xlink:href="#ArialMT-6c" transform="translate(272.363281 0)"/>
     <use xlink:href="#ArialMT-2d" transform="translate(294.580078 0)"/>
     <use xlink:href="#ArialMT-63" transform="translate(327.880859 0)"/>
     <use xlink:href="#ArialMT-6f" transform="translate(377.880859 0)"/>
     <use xlink:href="#ArialMT-74" transform="translate(433.496094 0)"/>
    </g>
   </g>
   <g id="PathCollection_6">
    <g>
     <use xlink:href="#m7dff154b02" x="369.624219" y="203.817656" style="fill: #62289d; fill-opacity: 0.8; stroke: #62289d; stroke-opacity: 0.8"/>
    </g>
   </g>
   <g id="text_17">
    <!-- roberta-icl-cot -->
    <g style="fill: #262626" transform="translate(389.424219 206.705156) scale(0.11 -0.11)">
     <use xlink:href="#ArialMT-72"/>
     <use xlink:href="#ArialMT-6f" transform="translate(33.300781 0)"/>
     <use xlink:href="#ArialMT-62" transform="translate(88.916016 0)"/>
     <use xlink:href="#ArialMT-65" transform="translate(144.53125 0)"/>
     <use xlink:href="#ArialMT-72" transform="translate(200.146484 0)"/>
     <use xlink:href="#ArialMT-74" transform="translate(233.447266 0)"/>
     <use xlink:href="#ArialMT-61" transform="translate(261.230469 0)"/>
     <use xlink:href="#ArialMT-2d" transform="translate(316.845703 0)"/>
     <use xlink:href="#ArialMT-69" transform="translate(350.146484 0)"/>
     <use xlink:href="#ArialMT-63" transform="translate(372.363281 0)"/>
     <use xlink:href="#ArialMT-6c" transform="translate(422.363281 0)"/>
     <use xlink:href="#ArialMT-2d" transform="translate(444.580078 0)"/>
     <use xlink:href="#ArialMT-63" transform="translate(477.880859 0)"/>
     <use xlink:href="#ArialMT-6f" transform="translate(527.880859 0)"/>
     <use xlink:href="#ArialMT-74" transform="translate(583.496094 0)"/>
    </g>
   </g>
  </g>
 </g>
 <defs>
  <clipPath id="pa56b3ac094">
   <rect x="80.53992" y="15.612151" width="274.447592" height="296.327849"/>
  </clipPath>
 </defs>
</svg>
