<?xml version="1.0" encoding="utf-8" standalone="no"?>
<!DOCTYPE svg PUBLIC "-//W3C//DTD SVG 1.1//EN"
  "http://www.w3.org/Graphics/SVG/1.1/DTD/svg11.dtd">
<svg xmlns:xlink="http://www.w3.org/1999/xlink" width="466.56pt" height="360pt" viewBox="0 0 466.56 360" xmlns="http://www.w3.org/2000/svg" version="1.1">
 <metadata>
  <rdf:RDF xmlns:dc="http://purl.org/dc/elements/1.1/" xmlns:cc="http://creativecommons.org/ns#" xmlns:rdf="http://www.w3.org/1999/02/22-rdf-syntax-ns#">
   <cc:Work>
    <dc:type rdf:resource="http://purl.org/dc/dcmitype/StillImage"/>
    <dc:date>2025-01-18T21:19:25.092946</dc:date>
    <dc:format>image/svg+xml</dc:format>
    <dc:creator>
     <cc:Agent>
      <dc:title>Matplotlib v3.10.0, https://matplotlib.org/</dc:title>
     </cc:Agent>
    </dc:creator>
   </cc:Work>
  </rdf:RDF>
 </metadata>
 <defs>
  <style type="text/css">*{stroke-linejoin: round; stroke-linecap: butt}</style>
 </defs>
 <g id="figure_1">
  <g id="patch_1">
   <path d="M 0 360 
L 466.56 360 
L 466.56 0 
L 0 0 
z
" style="fill: #ffffff"/>
  </g>
  <g id="axes_1">
   <g id="patch_2">
    <path d="M 80.53992 311.94 
L 354.987512 311.94 
L 354.987512 12.96 
L 80.53992 12.96 
z
" style="fill: #ffffff"/>
   </g>
   <g id="matplotlib.axis_1">
    <g id="xtick_1">
     <g id="line2d_1">
      <defs>
       <path id="m415f781c7f" d="M 0 0 
L 0 6 
" style="stroke: #262626; stroke-width: 1.25"/>
      </defs>
      <g>
       <use xlink:href="#m415f781c7f" x="93.014811" y="311.94" style="fill: #262626; stroke: #262626; stroke-width: 1.25"/>
      </g>
     </g>
     <g id="text_1">
      <!-- 0.0 -->
      <g style="fill: #262626" transform="translate(85.369811 329.313594) scale(0.11 -0.11)">
       <defs>
        <path id="ArialMT-30" d="M 266 2259 
Q 266 3072 433 3567 
Q 600 4063 929 4331 
Q 1259 4600 1759 4600 
Q 2128 4600 2406 4451 
Q 2684 4303 2865 4023 
Q 3047 3744 3150 3342 
Q 3253 2941 3253 2259 
Q 3253 1453 3087 958 
Q 2922 463 2592 192 
Q 2263 -78 1759 -78 
Q 1097 -78 719 397 
Q 266 969 266 2259 
z
M 844 2259 
Q 844 1131 1108 757 
Q 1372 384 1759 384 
Q 2147 384 2411 759 
Q 2675 1134 2675 2259 
Q 2675 3391 2411 3762 
Q 2147 4134 1753 4134 
Q 1366 4134 1134 3806 
Q 844 3388 844 2259 
z
" transform="scale(0.015625)"/>
        <path id="ArialMT-2e" d="M 581 0 
L 581 641 
L 1222 641 
L 1222 0 
L 581 0 
z
" transform="scale(0.015625)"/>
       </defs>
       <use xlink:href="#ArialMT-30"/>
       <use xlink:href="#ArialMT-2e" transform="translate(55.615234 0)"/>
       <use xlink:href="#ArialMT-30" transform="translate(83.398438 0)"/>
      </g>
     </g>
    </g>
    <g id="xtick_2">
     <g id="line2d_2">
      <g>
       <use xlink:href="#m415f781c7f" x="142.914373" y="311.94" style="fill: #262626; stroke: #262626; stroke-width: 1.25"/>
      </g>
     </g>
     <g id="text_2">
      <!-- 0.2 -->
      <g style="fill: #262626" transform="translate(135.269373 329.313594) scale(0.11 -0.11)">
       <defs>
        <path id="ArialMT-32" d="M 3222 541 
L 3222 0 
L 194 0 
Q 188 203 259 391 
Q 375 700 629 1000 
Q 884 1300 1366 1694 
Q 2113 2306 2375 2664 
Q 2638 3022 2638 3341 
Q 2638 3675 2398 3904 
Q 2159 4134 1775 4134 
Q 1369 4134 1125 3890 
Q 881 3647 878 3216 
L 300 3275 
Q 359 3922 746 4261 
Q 1134 4600 1788 4600 
Q 2447 4600 2831 4234 
Q 3216 3869 3216 3328 
Q 3216 3053 3103 2787 
Q 2991 2522 2730 2228 
Q 2469 1934 1863 1422 
Q 1356 997 1212 845 
Q 1069 694 975 541 
L 3222 541 
z
" transform="scale(0.015625)"/>
       </defs>
       <use xlink:href="#ArialMT-30"/>
       <use xlink:href="#ArialMT-2e" transform="translate(55.615234 0)"/>
       <use xlink:href="#ArialMT-32" transform="translate(83.398438 0)"/>
      </g>
     </g>
    </g>
    <g id="xtick_3">
     <g id="line2d_3">
      <g>
       <use xlink:href="#m415f781c7f" x="192.813935" y="311.94" style="fill: #262626; stroke: #262626; stroke-width: 1.25"/>
      </g>
     </g>
     <g id="text_3">
      <!-- 0.4 -->
      <g style="fill: #262626" transform="translate(185.168935 329.313594) scale(0.11 -0.11)">
       <defs>
        <path id="ArialMT-34" d="M 2069 0 
L 2069 1097 
L 81 1097 
L 81 1613 
L 2172 4581 
L 2631 4581 
L 2631 1613 
L 3250 1613 
L 3250 1097 
L 2631 1097 
L 2631 0 
L 2069 0 
z
M 2069 1613 
L 2069 3678 
L 634 1613 
L 2069 1613 
z
" transform="scale(0.015625)"/>
       </defs>
       <use xlink:href="#ArialMT-30"/>
       <use xlink:href="#ArialMT-2e" transform="translate(55.615234 0)"/>
       <use xlink:href="#ArialMT-34" transform="translate(83.398438 0)"/>
      </g>
     </g>
    </g>
    <g id="xtick_4">
     <g id="line2d_4">
      <g>
       <use xlink:href="#m415f781c7f" x="242.713497" y="311.94" style="fill: #262626; stroke: #262626; stroke-width: 1.25"/>
      </g>
     </g>
     <g id="text_4">
      <!-- 0.6 -->
      <g style="fill: #262626" transform="translate(235.068497 329.313594) scale(0.11 -0.11)">
       <defs>
        <path id="ArialMT-36" d="M 3184 3459 
L 2625 3416 
Q 2550 3747 2413 3897 
Q 2184 4138 1850 4138 
Q 1581 4138 1378 3988 
Q 1113 3794 959 3422 
Q 806 3050 800 2363 
Q 1003 2672 1297 2822 
Q 1591 2972 1913 2972 
Q 2475 2972 2870 2558 
Q 3266 2144 3266 1488 
Q 3266 1056 3080 686 
Q 2894 316 2569 119 
Q 2244 -78 1831 -78 
Q 1128 -78 684 439 
Q 241 956 241 2144 
Q 241 3472 731 4075 
Q 1159 4600 1884 4600 
Q 2425 4600 2770 4297 
Q 3116 3994 3184 3459 
z
M 888 1484 
Q 888 1194 1011 928 
Q 1134 663 1356 523 
Q 1578 384 1822 384 
Q 2178 384 2434 671 
Q 2691 959 2691 1453 
Q 2691 1928 2437 2201 
Q 2184 2475 1800 2475 
Q 1419 2475 1153 2201 
Q 888 1928 888 1484 
z
" transform="scale(0.015625)"/>
       </defs>
       <use xlink:href="#ArialMT-30"/>
       <use xlink:href="#ArialMT-2e" transform="translate(55.615234 0)"/>
       <use xlink:href="#ArialMT-36" transform="translate(83.398438 0)"/>
      </g>
     </g>
    </g>
    <g id="xtick_5">
     <g id="line2d_5">
      <g>
       <use xlink:href="#m415f781c7f" x="292.61306" y="311.94" style="fill: #262626; stroke: #262626; stroke-width: 1.25"/>
      </g>
     </g>
     <g id="text_5">
      <!-- 0.8 -->
      <g style="fill: #262626" transform="translate(284.96806 329.313594) scale(0.11 -0.11)">
       <defs>
        <path id="ArialMT-38" d="M 1131 2484 
Q 781 2613 612 2850 
Q 444 3088 444 3419 
Q 444 3919 803 4259 
Q 1163 4600 1759 4600 
Q 2359 4600 2725 4251 
Q 3091 3903 3091 3403 
Q 3091 3084 2923 2848 
Q 2756 2613 2416 2484 
Q 2838 2347 3058 2040 
Q 3278 1734 3278 1309 
Q 3278 722 2862 322 
Q 2447 -78 1769 -78 
Q 1091 -78 675 323 
Q 259 725 259 1325 
Q 259 1772 486 2073 
Q 713 2375 1131 2484 
z
M 1019 3438 
Q 1019 3113 1228 2906 
Q 1438 2700 1772 2700 
Q 2097 2700 2305 2904 
Q 2513 3109 2513 3406 
Q 2513 3716 2298 3927 
Q 2084 4138 1766 4138 
Q 1444 4138 1231 3931 
Q 1019 3725 1019 3438 
z
M 838 1322 
Q 838 1081 952 856 
Q 1066 631 1291 507 
Q 1516 384 1775 384 
Q 2178 384 2440 643 
Q 2703 903 2703 1303 
Q 2703 1709 2433 1975 
Q 2163 2241 1756 2241 
Q 1359 2241 1098 1978 
Q 838 1716 838 1322 
z
" transform="scale(0.015625)"/>
       </defs>
       <use xlink:href="#ArialMT-30"/>
       <use xlink:href="#ArialMT-2e" transform="translate(55.615234 0)"/>
       <use xlink:href="#ArialMT-38" transform="translate(83.398438 0)"/>
      </g>
     </g>
    </g>
    <g id="xtick_6">
     <g id="line2d_6">
      <g>
       <use xlink:href="#m415f781c7f" x="342.512622" y="311.94" style="fill: #262626; stroke: #262626; stroke-width: 1.25"/>
      </g>
     </g>
     <g id="text_6">
      <!-- 1.0 -->
      <g style="fill: #262626" transform="translate(334.867622 329.313594) scale(0.11 -0.11)">
       <defs>
        <path id="ArialMT-31" d="M 2384 0 
L 1822 0 
L 1822 3584 
Q 1619 3391 1289 3197 
Q 959 3003 697 2906 
L 697 3450 
Q 1169 3672 1522 3987 
Q 1875 4303 2022 4600 
L 2384 4600 
L 2384 0 
z
" transform="scale(0.015625)"/>
       </defs>
       <use xlink:href="#ArialMT-31"/>
       <use xlink:href="#ArialMT-2e" transform="translate(55.615234 0)"/>
       <use xlink:href="#ArialMT-30" transform="translate(83.398438 0)"/>
      </g>
     </g>
    </g>
    <g id="text_7">
     <!-- acc -->
     <g style="fill: #262626" transform="translate(208.427154 344.089219) scale(0.12 -0.12)">
      <defs>
       <path id="ArialMT-61" d="M 2588 409 
Q 2275 144 1986 34 
Q 1697 -75 1366 -75 
Q 819 -75 525 192 
Q 231 459 231 875 
Q 231 1119 342 1320 
Q 453 1522 633 1644 
Q 813 1766 1038 1828 
Q 1203 1872 1538 1913 
Q 2219 1994 2541 2106 
Q 2544 2222 2544 2253 
Q 2544 2597 2384 2738 
Q 2169 2928 1744 2928 
Q 1347 2928 1158 2789 
Q 969 2650 878 2297 
L 328 2372 
Q 403 2725 575 2942 
Q 747 3159 1072 3276 
Q 1397 3394 1825 3394 
Q 2250 3394 2515 3294 
Q 2781 3194 2906 3042 
Q 3031 2891 3081 2659 
Q 3109 2516 3109 2141 
L 3109 1391 
Q 3109 606 3145 398 
Q 3181 191 3288 0 
L 2700 0 
Q 2613 175 2588 409 
z
M 2541 1666 
Q 2234 1541 1622 1453 
Q 1275 1403 1131 1340 
Q 988 1278 909 1158 
Q 831 1038 831 891 
Q 831 666 1001 516 
Q 1172 366 1500 366 
Q 1825 366 2078 508 
Q 2331 650 2450 897 
Q 2541 1088 2541 1459 
L 2541 1666 
z
" transform="scale(0.015625)"/>
       <path id="ArialMT-63" d="M 2588 1216 
L 3141 1144 
Q 3050 572 2676 248 
Q 2303 -75 1759 -75 
Q 1078 -75 664 370 
Q 250 816 250 1647 
Q 250 2184 428 2587 
Q 606 2991 970 3192 
Q 1334 3394 1763 3394 
Q 2303 3394 2647 3120 
Q 2991 2847 3088 2344 
L 2541 2259 
Q 2463 2594 2264 2762 
Q 2066 2931 1784 2931 
Q 1359 2931 1093 2626 
Q 828 2322 828 1663 
Q 828 994 1084 691 
Q 1341 388 1753 388 
Q 2084 388 2306 591 
Q 2528 794 2588 1216 
z
" transform="scale(0.015625)"/>
      </defs>
      <use xlink:href="#ArialMT-61"/>
      <use xlink:href="#ArialMT-63" transform="translate(55.615234 0)"/>
      <use xlink:href="#ArialMT-63" transform="translate(105.615234 0)"/>
     </g>
    </g>
   </g>
   <g id="matplotlib.axis_2">
    <g id="ytick_1">
     <g id="line2d_7">
      <defs>
       <path id="mddf900efa4" d="M 0 0 
L -6 0 
" style="stroke: #262626; stroke-width: 1.25"/>
      </defs>
      <g>
       <use xlink:href="#mddf900efa4" x="80.53992" y="285.872532" style="fill: #262626; stroke: #262626; stroke-width: 1.25"/>
      </g>
     </g>
     <g id="text_8">
      <!-- 0 -->
      <g style="fill: #262626" transform="translate(64.922889 289.809329) scale(0.11 -0.11)">
       <use xlink:href="#ArialMT-30"/>
      </g>
     </g>
    </g>
    <g id="ytick_2">
     <g id="line2d_8">
      <g>
       <use xlink:href="#mddf900efa4" x="80.53992" y="247.736866" style="fill: #262626; stroke: #262626; stroke-width: 1.25"/>
      </g>
     </g>
     <g id="text_9">
      <!-- 200 -->
      <g style="fill: #262626" transform="translate(52.688826 251.673663) scale(0.11 -0.11)">
       <use xlink:href="#ArialMT-32"/>
       <use xlink:href="#ArialMT-30" transform="translate(55.615234 0)"/>
       <use xlink:href="#ArialMT-30" transform="translate(111.230469 0)"/>
      </g>
     </g>
    </g>
    <g id="ytick_3">
     <g id="line2d_9">
      <g>
       <use xlink:href="#mddf900efa4" x="80.53992" y="209.601199" style="fill: #262626; stroke: #262626; stroke-width: 1.25"/>
      </g>
     </g>
     <g id="text_10">
      <!-- 400 -->
      <g style="fill: #262626" transform="translate(52.688826 213.537996) scale(0.11 -0.11)">
       <use xlink:href="#ArialMT-34"/>
       <use xlink:href="#ArialMT-30" transform="translate(55.615234 0)"/>
       <use xlink:href="#ArialMT-30" transform="translate(111.230469 0)"/>
      </g>
     </g>
    </g>
    <g id="ytick_4">
     <g id="line2d_10">
      <g>
       <use xlink:href="#mddf900efa4" x="80.53992" y="171.465533" style="fill: #262626; stroke: #262626; stroke-width: 1.25"/>
      </g>
     </g>
     <g id="text_11">
      <!-- 600 -->
      <g style="fill: #262626" transform="translate(52.688826 175.40233) scale(0.11 -0.11)">
       <use xlink:href="#ArialMT-36"/>
       <use xlink:href="#ArialMT-30" transform="translate(55.615234 0)"/>
       <use xlink:href="#ArialMT-30" transform="translate(111.230469 0)"/>
      </g>
     </g>
    </g>
    <g id="ytick_5">
     <g id="line2d_11">
      <g>
       <use xlink:href="#mddf900efa4" x="80.53992" y="133.329866" style="fill: #262626; stroke: #262626; stroke-width: 1.25"/>
      </g>
     </g>
     <g id="text_12">
      <!-- 800 -->
      <g style="fill: #262626" transform="translate(52.688826 137.266663) scale(0.11 -0.11)">
       <use xlink:href="#ArialMT-38"/>
       <use xlink:href="#ArialMT-30" transform="translate(55.615234 0)"/>
       <use xlink:href="#ArialMT-30" transform="translate(111.230469 0)"/>
      </g>
     </g>
    </g>
    <g id="ytick_6">
     <g id="line2d_12">
      <g>
       <use xlink:href="#mddf900efa4" x="80.53992" y="95.1942" style="fill: #262626; stroke: #262626; stroke-width: 1.25"/>
      </g>
     </g>
     <g id="text_13">
      <!-- 1000 -->
      <g style="fill: #262626" transform="translate(46.571795 99.130997) scale(0.11 -0.11)">
       <use xlink:href="#ArialMT-31"/>
       <use xlink:href="#ArialMT-30" transform="translate(55.615234 0)"/>
       <use xlink:href="#ArialMT-30" transform="translate(111.230469 0)"/>
       <use xlink:href="#ArialMT-30" transform="translate(166.845703 0)"/>
      </g>
     </g>
    </g>
    <g id="ytick_7">
     <g id="line2d_13">
      <g>
       <use xlink:href="#mddf900efa4" x="80.53992" y="57.058533" style="fill: #262626; stroke: #262626; stroke-width: 1.25"/>
      </g>
     </g>
     <g id="text_14">
      <!-- 1200 -->
      <g style="fill: #262626" transform="translate(46.571795 60.99533) scale(0.11 -0.11)">
       <use xlink:href="#ArialMT-31"/>
       <use xlink:href="#ArialMT-32" transform="translate(55.615234 0)"/>
       <use xlink:href="#ArialMT-30" transform="translate(111.230469 0)"/>
       <use xlink:href="#ArialMT-30" transform="translate(166.845703 0)"/>
      </g>
     </g>
    </g>
    <g id="ytick_8">
     <g id="line2d_14">
      <g>
       <use xlink:href="#mddf900efa4" x="80.53992" y="18.922867" style="fill: #262626; stroke: #262626; stroke-width: 1.25"/>
      </g>
     </g>
     <g id="text_15">
      <!-- 1400 -->
      <g style="fill: #262626" transform="translate(46.571795 22.859664) scale(0.11 -0.11)">
       <use xlink:href="#ArialMT-31"/>
       <use xlink:href="#ArialMT-34" transform="translate(55.615234 0)"/>
       <use xlink:href="#ArialMT-30" transform="translate(111.230469 0)"/>
       <use xlink:href="#ArialMT-30" transform="translate(166.845703 0)"/>
      </g>
     </g>
    </g>
    <g id="text_16">
     <!-- p -->
     <g style="fill: #262626" transform="translate(40.186795 165.786563) rotate(-90) scale(0.12 -0.12)">
      <defs>
       <path id="ArialMT-70" d="M 422 -1272 
L 422 3319 
L 934 3319 
L 934 2888 
Q 1116 3141 1344 3267 
Q 1572 3394 1897 3394 
Q 2322 3394 2647 3175 
Q 2972 2956 3137 2557 
Q 3303 2159 3303 1684 
Q 3303 1175 3120 767 
Q 2938 359 2589 142 
Q 2241 -75 1856 -75 
Q 1575 -75 1351 44 
Q 1128 163 984 344 
L 984 -1272 
L 422 -1272 
z
M 931 1641 
Q 931 1000 1190 694 
Q 1450 388 1819 388 
Q 2194 388 2461 705 
Q 2728 1022 2728 1688 
Q 2728 2322 2467 2637 
Q 2206 2953 1844 2953 
Q 1484 2953 1207 2617 
Q 931 2281 931 1641 
z
" transform="scale(0.015625)"/>
      </defs>
      <use xlink:href="#ArialMT-70"/>
     </g>
    </g>
   </g>
   <g id="PathCollection_1">
    <defs>
     <path id="m748df110a5" d="M 0 3 
C 0.795609 3 1.55874 2.683901 2.12132 2.12132 
C 2.683901 1.55874 3 0.795609 3 0 
C 3 -0.795609 2.683901 -1.55874 2.12132 -2.12132 
C 1.55874 -2.683901 0.795609 -3 0 -3 
C -0.795609 -3 -1.55874 -2.683901 -2.12132 -2.12132 
C -2.683901 -1.55874 -3 -0.795609 -3 0 
C -3 0.795609 -2.683901 1.55874 -2.12132 2.12132 
C -1.55874 2.683901 -0.795609 3 0 3 
z
" style="stroke: #eeae53; stroke-opacity: 0.8"/>
    </defs>
    <g clip-path="url(#p0f2e49c207)">
     <use xlink:href="#m748df110a5" x="157.401342" y="255.363999" style="fill: #eeae53; fill-opacity: 0.8; stroke: #eeae53; stroke-opacity: 0.8"/>
     <use xlink:href="#m748df110a5" x="134.597779" y="247.736866" style="fill: #eeae53; fill-opacity: 0.8; stroke: #eeae53; stroke-opacity: 0.8"/>
     <use xlink:href="#m748df110a5" x="147.592457" y="240.109732" style="fill: #eeae53; fill-opacity: 0.8; stroke: #eeae53; stroke-opacity: 0.8"/>
     <use xlink:href="#m748df110a5" x="149.718859" y="232.482599" style="fill: #eeae53; fill-opacity: 0.8; stroke: #eeae53; stroke-opacity: 0.8"/>
     <use xlink:href="#m748df110a5" x="212.77376" y="224.855466" style="fill: #eeae53; fill-opacity: 0.8; stroke: #eeae53; stroke-opacity: 0.8"/>
     <use xlink:href="#m748df110a5" x="186.57649" y="217.228333" style="fill: #eeae53; fill-opacity: 0.8; stroke: #eeae53; stroke-opacity: 0.8"/>
     <use xlink:href="#m748df110a5" x="199.942444" y="209.601199" style="fill: #eeae53; fill-opacity: 0.8; stroke: #eeae53; stroke-opacity: 0.8"/>
     <use xlink:href="#m748df110a5" x="210.425545" y="201.974066" style="fill: #eeae53; fill-opacity: 0.8; stroke: #eeae53; stroke-opacity: 0.8"/>
     <use xlink:href="#m748df110a5" x="217.763716" y="194.346933" style="fill: #eeae53; fill-opacity: 0.8; stroke: #eeae53; stroke-opacity: 0.8"/>
     <use xlink:href="#m748df110a5" x="209.96691" y="186.719799" style="fill: #eeae53; fill-opacity: 0.8; stroke: #eeae53; stroke-opacity: 0.8"/>
     <use xlink:href="#m748df110a5" x="246.551925" y="179.092666" style="fill: #eeae53; fill-opacity: 0.8; stroke: #eeae53; stroke-opacity: 0.8"/>
     <use xlink:href="#m748df110a5" x="238.5552" y="171.465533" style="fill: #eeae53; fill-opacity: 0.8; stroke: #eeae53; stroke-opacity: 0.8"/>
     <use xlink:href="#m748df110a5" x="262.673322" y="163.838399" style="fill: #eeae53; fill-opacity: 0.8; stroke: #eeae53; stroke-opacity: 0.8"/>
     <use xlink:href="#m748df110a5" x="271.227533" y="156.211266" style="fill: #eeae53; fill-opacity: 0.8; stroke: #eeae53; stroke-opacity: 0.8"/>
     <use xlink:href="#m748df110a5" x="259.346685" y="148.584133" style="fill: #eeae53; fill-opacity: 0.8; stroke: #eeae53; stroke-opacity: 0.8"/>
     <use xlink:href="#m748df110a5" x="277.426236" y="140.957" style="fill: #eeae53; fill-opacity: 0.8; stroke: #eeae53; stroke-opacity: 0.8"/>
     <use xlink:href="#m748df110a5" x="285.808574" y="133.329866" style="fill: #eeae53; fill-opacity: 0.8; stroke: #eeae53; stroke-opacity: 0.8"/>
     <use xlink:href="#m748df110a5" x="275.340134" y="125.702733" style="fill: #eeae53; fill-opacity: 0.8; stroke: #eeae53; stroke-opacity: 0.8"/>
     <use xlink:href="#m748df110a5" x="308.490193" y="118.0756" style="fill: #eeae53; fill-opacity: 0.8; stroke: #eeae53; stroke-opacity: 0.8"/>
     <use xlink:href="#m748df110a5" x="287.068664" y="110.448466" style="fill: #eeae53; fill-opacity: 0.8; stroke: #eeae53; stroke-opacity: 0.8"/>
     <use xlink:href="#m748df110a5" x="282.633147" y="102.821333" style="fill: #eeae53; fill-opacity: 0.8; stroke: #eeae53; stroke-opacity: 0.8"/>
     <use xlink:href="#m748df110a5" x="311.325395" y="95.1942" style="fill: #eeae53; fill-opacity: 0.8; stroke: #eeae53; stroke-opacity: 0.8"/>
     <use xlink:href="#m748df110a5" x="267.663278" y="57.058533" style="fill: #eeae53; fill-opacity: 0.8; stroke: #eeae53; stroke-opacity: 0.8"/>
    </g>
   </g>
   <g id="FillBetweenPolyCollection_1">
    <defs>
     <path id="mf041b4f989" d="M 134.597779 -108.829058 
L 134.597779 -81.535949 
L 136.382907 -83.381918 
L 138.168034 -85.227886 
L 139.953161 -87.075037 
L 141.738289 -88.879786 
L 143.523416 -90.708676 
L 145.308544 -92.571752 
L 147.093671 -94.435896 
L 148.878799 -96.301922 
L 150.663926 -98.154112 
L 152.449053 -100.001812 
L 154.234181 -101.849513 
L 156.019308 -103.697213 
L 157.804436 -105.544914 
L 159.589563 -107.392615 
L 161.374691 -109.228156 
L 163.159818 -111.074397 
L 164.944946 -112.820155 
L 166.730073 -114.686428 
L 168.5152 -116.525565 
L 170.300328 -118.386494 
L 172.085455 -120.121381 
L 173.870583 -121.975717 
L 175.65571 -123.829633 
L 177.440838 -125.633977 
L 179.225965 -127.430505 
L 181.011092 -129.191614 
L 182.79622 -130.965238 
L 184.581347 -132.688853 
L 186.366475 -134.529317 
L 188.151602 -136.324388 
L 189.93673 -138.110771 
L 191.721857 -139.897154 
L 193.506985 -141.602586 
L 195.292112 -143.228673 
L 197.077239 -144.932466 
L 198.862367 -146.679146 
L 200.647494 -148.428712 
L 202.432622 -150.179129 
L 204.217749 -151.961417 
L 206.002877 -153.767123 
L 207.788004 -155.551553 
L 209.573131 -157.368822 
L 211.358259 -158.9932 
L 213.143386 -160.586416 
L 214.928514 -162.199739 
L 216.713641 -164.090477 
L 218.498769 -165.751198 
L 220.283896 -167.37398 
L 222.069024 -168.998073 
L 223.854151 -170.418986 
L 225.639278 -172.245438 
L 227.424406 -174.021551 
L 229.209533 -175.495763 
L 230.994661 -177.111992 
L 232.779788 -178.730142 
L 234.564916 -180.306782 
L 236.350043 -181.987055 
L 238.13517 -183.437065 
L 239.920298 -184.941291 
L 241.705425 -186.555757 
L 243.490553 -188.050022 
L 245.27568 -189.604288 
L 247.060808 -191.12256 
L 248.845935 -192.660434 
L 250.631063 -194.187929 
L 252.41619 -195.686731 
L 254.201317 -197.151702 
L 255.986445 -198.571667 
L 257.771572 -200.031569 
L 259.5567 -201.57511 
L 261.341827 -202.976652 
L 263.126955 -204.378195 
L 264.912082 -205.779738 
L 266.697209 -207.18128 
L 268.482337 -208.59302 
L 270.267464 -210.057028 
L 272.052592 -211.459659 
L 273.837719 -212.89143 
L 275.622847 -214.269351 
L 277.407974 -215.639227 
L 279.193102 -217.099916 
L 280.978229 -218.485564 
L 282.763356 -219.865155 
L 284.548484 -221.283433 
L 286.333611 -222.702575 
L 288.118739 -224.090972 
L 289.903866 -225.541559 
L 291.688994 -226.960557 
L 293.474121 -228.334676 
L 295.259248 -229.723726 
L 297.044376 -231.176347 
L 298.829503 -232.629443 
L 300.614631 -234.027705 
L 302.399758 -235.424469 
L 304.184886 -236.790214 
L 305.970013 -238.133 
L 307.755141 -239.56159 
L 309.540268 -240.992235 
L 311.325395 -242.354362 
L 311.325395 -268.129131 
L 311.325395 -268.129131 
L 309.540268 -266.334147 
L 307.755141 -264.538939 
L 305.970013 -262.709177 
L 304.184886 -260.862314 
L 302.399758 -259.015451 
L 300.614631 -257.167445 
L 298.829503 -255.318466 
L 297.044376 -253.560799 
L 295.259248 -251.683015 
L 293.474121 -249.805942 
L 291.688994 -248.039044 
L 289.903866 -246.177308 
L 288.118739 -244.314308 
L 286.333611 -242.554636 
L 284.548484 -240.868754 
L 282.763356 -239.214404 
L 280.978229 -237.441406 
L 279.193102 -235.677451 
L 277.407974 -234.036121 
L 275.622847 -232.267503 
L 273.837719 -230.592867 
L 272.052592 -228.902959 
L 270.267464 -226.997157 
L 268.482337 -225.271333 
L 266.697209 -223.574918 
L 264.912082 -221.917253 
L 263.126955 -220.237368 
L 261.341827 -218.342279 
L 259.5567 -216.635237 
L 257.771572 -215.029851 
L 255.986445 -213.457197 
L 254.201317 -211.88268 
L 252.41619 -210.201004 
L 250.631063 -208.495543 
L 248.845935 -206.798556 
L 247.060808 -205.095741 
L 245.27568 -203.443983 
L 243.490553 -201.753812 
L 241.705425 -200.106073 
L 239.920298 -198.512477 
L 238.13517 -196.915625 
L 236.350043 -195.322347 
L 234.564916 -193.715063 
L 232.779788 -192.056964 
L 230.994661 -190.397707 
L 229.209533 -188.738866 
L 227.424406 -187.080245 
L 225.639278 -185.422768 
L 223.854151 -183.815905 
L 222.069024 -182.127754 
L 220.283896 -180.490958 
L 218.498769 -178.885973 
L 216.713641 -177.280988 
L 214.928514 -175.653041 
L 213.143386 -174.071018 
L 211.358259 -172.493424 
L 209.573131 -170.926538 
L 207.788004 -169.264842 
L 206.002877 -167.689026 
L 204.217749 -166.155264 
L 202.432622 -164.622538 
L 200.647494 -163.101999 
L 198.862367 -161.602074 
L 197.077239 -160.025634 
L 195.292112 -158.464342 
L 193.506985 -156.942118 
L 191.721857 -155.472824 
L 189.93673 -153.897205 
L 188.151602 -152.366292 
L 186.366475 -150.83937 
L 184.581347 -149.324131 
L 182.79622 -147.948144 
L 181.011092 -146.4513 
L 179.225965 -144.963005 
L 177.440838 -143.527619 
L 175.65571 -142.059754 
L 173.870583 -140.620963 
L 172.085455 -139.116386 
L 170.300328 -137.591378 
L 168.5152 -136.130626 
L 166.730073 -134.651027 
L 164.944946 -133.154723 
L 163.159818 -131.725612 
L 161.374691 -130.23763 
L 159.589563 -128.735698 
L 157.804436 -127.20291 
L 156.019308 -125.738247 
L 154.234181 -124.446271 
L 152.449053 -123.066704 
L 150.663926 -121.724712 
L 148.878799 -120.333131 
L 147.093671 -118.871243 
L 145.308544 -117.491983 
L 143.523416 -116.040917 
L 141.738289 -114.52297 
L 139.953161 -113.081349 
L 138.168034 -111.625782 
L 136.382907 -110.242835 
L 134.597779 -108.829058 
z
" style="stroke: #ffffff; stroke-opacity: 0.15"/>
    </defs>
    <g clip-path="url(#p0f2e49c207)">
     <use xlink:href="#mf041b4f989" x="0" y="360" style="fill: #eeae53; fill-opacity: 0.15; stroke: #ffffff; stroke-opacity: 0.15"/>
    </g>
   </g>
   <g id="PathCollection_2">
    <defs>
     <path id="m1ef9048636" d="M 0 3 
C 0.795609 3 1.55874 2.683901 2.12132 2.12132 
C 2.683901 1.55874 3 0.795609 3 0 
C 3 -0.795609 2.683901 -1.55874 2.12132 -2.12132 
C 1.55874 -2.683901 0.795609 -3 0 -3 
C -0.795609 -3 -1.55874 -2.683901 -2.12132 -2.12132 
C -2.683901 -1.55874 -3 -0.795609 -3 0 
C -3 0.795609 -2.683901 1.55874 -2.12132 2.12132 
C -1.55874 2.683901 -0.795609 3 0 3 
z
" style="stroke: #c76a72; stroke-opacity: 0.8"/>
    </defs>
    <g clip-path="url(#p0f2e49c207)">
     <use xlink:href="#m1ef9048636" x="93.014811" y="262.991132" style="fill: #c76a72; fill-opacity: 0.8; stroke: #c76a72; stroke-opacity: 0.8"/>
     <use xlink:href="#m1ef9048636" x="106.146274" y="255.363999" style="fill: #c76a72; fill-opacity: 0.8; stroke: #c76a72; stroke-opacity: 0.8"/>
     <use xlink:href="#m1ef9048636" x="113.806295" y="247.736866" style="fill: #c76a72; fill-opacity: 0.8; stroke: #c76a72; stroke-opacity: 0.8"/>
     <use xlink:href="#m1ef9048636" x="142.914373" y="240.109732" style="fill: #c76a72; fill-opacity: 0.8; stroke: #c76a72; stroke-opacity: 0.8"/>
     <use xlink:href="#m1ef9048636" x="217.763716" y="232.482599" style="fill: #c76a72; fill-opacity: 0.8; stroke: #c76a72; stroke-opacity: 0.8"/>
     <use xlink:href="#m1ef9048636" x="155.389263" y="224.855466" style="fill: #c76a72; fill-opacity: 0.8; stroke: #c76a72; stroke-opacity: 0.8"/>
     <use xlink:href="#m1ef9048636" x="188.061596" y="217.228333" style="fill: #c76a72; fill-opacity: 0.8; stroke: #c76a72; stroke-opacity: 0.8"/>
     <use xlink:href="#m1ef9048636" x="166.39652" y="209.601199" style="fill: #c76a72; fill-opacity: 0.8; stroke: #c76a72; stroke-opacity: 0.8"/>
     <use xlink:href="#m1ef9048636" x="207.367974" y="201.974066" style="fill: #c76a72; fill-opacity: 0.8; stroke: #c76a72; stroke-opacity: 0.8"/>
     <use xlink:href="#m1ef9048636" x="188.061596" y="194.346933" style="fill: #c76a72; fill-opacity: 0.8; stroke: #c76a72; stroke-opacity: 0.8"/>
     <use xlink:href="#m1ef9048636" x="209.447122" y="186.719799" style="fill: #c76a72; fill-opacity: 0.8; stroke: #c76a72; stroke-opacity: 0.8"/>
     <use xlink:href="#m1ef9048636" x="231.624706" y="179.092666" style="fill: #c76a72; fill-opacity: 0.8; stroke: #c76a72; stroke-opacity: 0.8"/>
     <use xlink:href="#m1ef9048636" x="142.914373" y="171.465533" style="fill: #c76a72; fill-opacity: 0.8; stroke: #c76a72; stroke-opacity: 0.8"/>
     <use xlink:href="#m1ef9048636" x="254.454571" y="163.838399" style="fill: #c76a72; fill-opacity: 0.8; stroke: #c76a72; stroke-opacity: 0.8"/>
     <use xlink:href="#m1ef9048636" x="266.578505" y="156.211266" style="fill: #c76a72; fill-opacity: 0.8; stroke: #c76a72; stroke-opacity: 0.8"/>
     <use xlink:href="#m1ef9048636" x="209.447122" y="148.584133" style="fill: #c76a72; fill-opacity: 0.8; stroke: #c76a72; stroke-opacity: 0.8"/>
     <use xlink:href="#m1ef9048636" x="251.786145" y="140.957" style="fill: #c76a72; fill-opacity: 0.8; stroke: #c76a72; stroke-opacity: 0.8"/>
     <use xlink:href="#m1ef9048636" x="206.422907" y="133.329866" style="fill: #c76a72; fill-opacity: 0.8; stroke: #c76a72; stroke-opacity: 0.8"/>
     <use xlink:href="#m1ef9048636" x="276.855303" y="125.702733" style="fill: #c76a72; fill-opacity: 0.8; stroke: #c76a72; stroke-opacity: 0.8"/>
     <use xlink:href="#m1ef9048636" x="287.068664" y="118.0756" style="fill: #c76a72; fill-opacity: 0.8; stroke: #c76a72; stroke-opacity: 0.8"/>
     <use xlink:href="#m1ef9048636" x="271.227533" y="110.448466" style="fill: #c76a72; fill-opacity: 0.8; stroke: #c76a72; stroke-opacity: 0.8"/>
     <use xlink:href="#m1ef9048636" x="274.467764" y="95.1942" style="fill: #c76a72; fill-opacity: 0.8; stroke: #c76a72; stroke-opacity: 0.8"/>
     <use xlink:href="#m1ef9048636" x="248.950943" y="87.567066" style="fill: #c76a72; fill-opacity: 0.8; stroke: #c76a72; stroke-opacity: 0.8"/>
     <use xlink:href="#m1ef9048636" x="299.330308" y="79.939933" style="fill: #c76a72; fill-opacity: 0.8; stroke: #c76a72; stroke-opacity: 0.8"/>
     <use xlink:href="#m1ef9048636" x="323.320482" y="57.058533" style="fill: #c76a72; fill-opacity: 0.8; stroke: #c76a72; stroke-opacity: 0.8"/>
     <use xlink:href="#m1ef9048636" x="342.512622" y="41.804267" style="fill: #c76a72; fill-opacity: 0.8; stroke: #c76a72; stroke-opacity: 0.8"/>
     <use xlink:href="#m1ef9048636" x="314.790643" y="34.177133" style="fill: #c76a72; fill-opacity: 0.8; stroke: #c76a72; stroke-opacity: 0.8"/>
     <use xlink:href="#m1ef9048636" x="342.512622" y="26.55" style="fill: #c76a72; fill-opacity: 0.8; stroke: #c76a72; stroke-opacity: 0.8"/>
    </g>
   </g>
   <g id="FillBetweenPolyCollection_2">
    <defs>
     <path id="m139df1741b" d="M 93.014811 -102.450206 
L 93.014811 -61.65 
L 95.53499 -64.244432 
L 98.05517 -66.838865 
L 100.57535 -69.444679 
L 103.09553 -72.074739 
L 105.61571 -74.704798 
L 108.13589 -77.334858 
L 110.65607 -79.94738 
L 113.17625 -82.432011 
L 115.69643 -85.013572 
L 118.21661 -87.646302 
L 120.73679 -90.205438 
L 123.256969 -92.770194 
L 125.777149 -95.358805 
L 128.297329 -97.810262 
L 130.817509 -100.262547 
L 133.337689 -102.728537 
L 135.857869 -105.376573 
L 138.378049 -108.024609 
L 140.898229 -110.672645 
L 143.418409 -113.322331 
L 145.938589 -115.974011 
L 148.458769 -118.527605 
L 150.978949 -121.05255 
L 153.499128 -123.577494 
L 156.019308 -126.102439 
L 158.539488 -128.627464 
L 161.059668 -131.153854 
L 163.579848 -133.680243 
L 166.100028 -136.206633 
L 168.620208 -138.729314 
L 171.140388 -141.216899 
L 173.660568 -143.689632 
L 176.180748 -146.262711 
L 178.700928 -148.751551 
L 181.221107 -151.274856 
L 183.741287 -153.568114 
L 186.261467 -156.02867 
L 188.781647 -158.500755 
L 191.301827 -160.97281 
L 193.822007 -163.423812 
L 196.342187 -165.857145 
L 198.862367 -168.386284 
L 201.382547 -170.638103 
L 203.902727 -172.932759 
L 206.422907 -175.222809 
L 208.943086 -177.537539 
L 211.463266 -179.871909 
L 213.983446 -182.004804 
L 216.503626 -184.218434 
L 219.023806 -186.540213 
L 221.543986 -188.81085 
L 224.064166 -191.164379 
L 226.584346 -193.257096 
L 229.104526 -195.707167 
L 231.624706 -198.12483 
L 234.144886 -200.153161 
L 236.665066 -202.727324 
L 239.185245 -204.820726 
L 241.705425 -206.905928 
L 244.225605 -209.158564 
L 246.745785 -211.265342 
L 249.265965 -213.37212 
L 251.786145 -215.478898 
L 254.306325 -217.513684 
L 256.826505 -219.498103 
L 259.346685 -221.443951 
L 261.866865 -223.388624 
L 264.387045 -225.337585 
L 266.907224 -227.34335 
L 269.427404 -229.350919 
L 271.947584 -231.409164 
L 274.467764 -233.507895 
L 276.987944 -235.585222 
L 279.508124 -237.554791 
L 282.028304 -239.570723 
L 284.548484 -241.612807 
L 287.068664 -243.65489 
L 289.588844 -245.696974 
L 292.109024 -247.560853 
L 294.629203 -249.41674 
L 297.149383 -251.327655 
L 299.669563 -253.29245 
L 302.189743 -255.257739 
L 304.709923 -257.230165 
L 307.230103 -259.310973 
L 309.750283 -261.468051 
L 312.270463 -263.625129 
L 314.790643 -265.672701 
L 317.310823 -267.645931 
L 319.831003 -269.751671 
L 322.351183 -271.857412 
L 324.871362 -273.964016 
L 327.391542 -276.072947 
L 329.911722 -278.181879 
L 332.431902 -280.290811 
L 334.952082 -282.399742 
L 337.472262 -284.508674 
L 339.992442 -286.571683 
L 342.512622 -288.616827 
L 342.512622 -326.361608 
L 342.512622 -326.361608 
L 339.992442 -323.900741 
L 337.472262 -321.259194 
L 334.952082 -318.706889 
L 332.431902 -316.154584 
L 329.911722 -313.603285 
L 327.391542 -311.047496 
L 324.871362 -308.501115 
L 322.351183 -305.95003 
L 319.831003 -303.562457 
L 317.310823 -300.99479 
L 314.790643 -298.649681 
L 312.270463 -296.315076 
L 309.750283 -293.980471 
L 307.230103 -291.645276 
L 304.709923 -289.307184 
L 302.189743 -286.806746 
L 299.669563 -284.438926 
L 297.149383 -281.866208 
L 294.629203 -279.258939 
L 292.109024 -276.90255 
L 289.588844 -274.354726 
L 287.068664 -271.831376 
L 284.548484 -269.355779 
L 282.028304 -267.074257 
L 279.508124 -264.63715 
L 276.987944 -262.38416 
L 274.467764 -260.150427 
L 271.947584 -257.822554 
L 269.427404 -255.532942 
L 266.907224 -253.323396 
L 264.387045 -251.074383 
L 261.866865 -248.738398 
L 259.346685 -246.450722 
L 256.826505 -244.161828 
L 254.306325 -241.879554 
L 251.786145 -239.538506 
L 249.265965 -237.230468 
L 246.745785 -235.017943 
L 244.225605 -232.661911 
L 241.705425 -230.464706 
L 239.185245 -228.057115 
L 236.665066 -225.647148 
L 234.144886 -223.334837 
L 231.624706 -221.068562 
L 229.104526 -218.802288 
L 226.584346 -216.640108 
L 224.064166 -214.298728 
L 221.543986 -212.007586 
L 219.023806 -209.662931 
L 216.503626 -207.380356 
L 213.983446 -205.187682 
L 211.463266 -202.799764 
L 208.943086 -200.607208 
L 206.422907 -198.420314 
L 203.902727 -196.222732 
L 201.382547 -193.93548 
L 198.862367 -191.644732 
L 196.342187 -189.395728 
L 193.822007 -187.100477 
L 191.301827 -184.801868 
L 188.781647 -182.57137 
L 186.261467 -180.370527 
L 183.741287 -178.240097 
L 181.221107 -176.117973 
L 178.700928 -173.648716 
L 176.180748 -171.581485 
L 173.660568 -169.51603 
L 171.140388 -167.450575 
L 168.620208 -165.326749 
L 166.100028 -163.240555 
L 163.579848 -160.981648 
L 161.059668 -158.827231 
L 158.539488 -156.580291 
L 156.019308 -154.488315 
L 153.499128 -152.258805 
L 150.978949 -150.202501 
L 148.458769 -148.147432 
L 145.938589 -146.126345 
L 143.418409 -144.048261 
L 140.898229 -141.995002 
L 138.378049 -139.940374 
L 135.857869 -137.760247 
L 133.337689 -135.548964 
L 130.817509 -133.383041 
L 128.297329 -131.200039 
L 125.777149 -129.242234 
L 123.256969 -127.283326 
L 120.73679 -125.322235 
L 118.21661 -123.245699 
L 115.69643 -120.993421 
L 113.17625 -118.74003 
L 110.65607 -116.486639 
L 108.13589 -114.304789 
L 105.61571 -112.335196 
L 103.09553 -110.294119 
L 100.57535 -108.126254 
L 98.05517 -106.35765 
L 95.53499 -104.478232 
L 93.014811 -102.450206 
z
" style="stroke: #ffffff; stroke-opacity: 0.15"/>
    </defs>
    <g clip-path="url(#p0f2e49c207)">
     <use xlink:href="#m139df1741b" x="0" y="360" style="fill: #c76a72; fill-opacity: 0.15; stroke: #ffffff; stroke-opacity: 0.15"/>
    </g>
   </g>
   <g id="line2d_15">
    <path d="M 134.597779 260.872677 
L 136.382907 259.30417 
L 138.168034 257.735663 
L 139.953161 256.167155 
L 141.738289 254.598648 
L 143.523416 253.03014 
L 145.308544 251.461633 
L 147.093671 249.893126 
L 148.878799 248.324618 
L 150.663926 246.756111 
L 152.449053 245.187603 
L 154.234181 243.619096 
L 156.019308 242.050589 
L 157.804436 240.482081 
L 159.589563 238.913574 
L 161.374691 237.345067 
L 163.159818 235.776559 
L 164.944946 234.208052 
L 166.730073 232.639544 
L 168.5152 231.071037 
L 170.300328 229.50253 
L 172.085455 227.934022 
L 173.870583 226.365515 
L 175.65571 224.797007 
L 177.440838 223.2285 
L 179.225965 221.659993 
L 181.011092 220.091485 
L 182.79622 218.522978 
L 184.581347 216.954471 
L 186.366475 215.385963 
L 188.151602 213.817456 
L 189.93673 212.248948 
L 191.721857 210.680441 
L 193.506985 209.111934 
L 195.292112 207.543426 
L 197.077239 205.974919 
L 198.862367 204.406411 
L 200.647494 202.837904 
L 202.432622 201.269397 
L 204.217749 199.700889 
L 206.002877 198.132382 
L 207.788004 196.563874 
L 209.573131 194.995367 
L 211.358259 193.42686 
L 213.143386 191.858352 
L 214.928514 190.289845 
L 216.713641 188.721338 
L 218.498769 187.15283 
L 220.283896 185.584323 
L 222.069024 184.015815 
L 223.854151 182.447308 
L 225.639278 180.878801 
L 227.424406 179.310293 
L 229.209533 177.741786 
L 230.994661 176.173278 
L 232.779788 174.604771 
L 234.564916 173.036264 
L 236.350043 171.467756 
L 238.13517 169.899249 
L 239.920298 168.330742 
L 241.705425 166.762234 
L 243.490553 165.193727 
L 245.27568 163.625219 
L 247.060808 162.056712 
L 248.845935 160.488205 
L 250.631063 158.919697 
L 252.41619 157.35119 
L 254.201317 155.782682 
L 255.986445 154.214175 
L 257.771572 152.645668 
L 259.5567 151.07716 
L 261.341827 149.508653 
L 263.126955 147.940145 
L 264.912082 146.371638 
L 266.697209 144.803131 
L 268.482337 143.234623 
L 270.267464 141.666116 
L 272.052592 140.097609 
L 273.837719 138.529101 
L 275.622847 136.960594 
L 277.407974 135.392086 
L 279.193102 133.823579 
L 280.978229 132.255072 
L 282.763356 130.686564 
L 284.548484 129.118057 
L 286.333611 127.549549 
L 288.118739 125.981042 
L 289.903866 124.412535 
L 291.688994 122.844027 
L 293.474121 121.27552 
L 295.259248 119.707012 
L 297.044376 118.138505 
L 298.829503 116.569998 
L 300.614631 115.00149 
L 302.399758 113.432983 
L 304.184886 111.864476 
L 305.970013 110.295968 
L 307.755141 108.727461 
L 309.540268 107.158953 
L 311.325395 105.590446 
" clip-path="url(#p0f2e49c207)" style="fill: none; stroke: #eeae53; stroke-width: 2.25; stroke-linecap: round"/>
   </g>
   <g id="line2d_16">
    <path d="M 93.014811 277.76538 
L 95.53499 275.454124 
L 98.05517 273.142868 
L 100.57535 270.831611 
L 103.09553 268.520355 
L 105.61571 266.209099 
L 108.13589 263.897843 
L 110.65607 261.586586 
L 113.17625 259.27533 
L 115.69643 256.964074 
L 118.21661 254.652817 
L 120.73679 252.341561 
L 123.256969 250.030305 
L 125.777149 247.719048 
L 128.297329 245.407792 
L 130.817509 243.096536 
L 133.337689 240.785279 
L 135.857869 238.474023 
L 138.378049 236.162767 
L 140.898229 233.85151 
L 143.418409 231.540254 
L 145.938589 229.228998 
L 148.458769 226.917741 
L 150.978949 224.606485 
L 153.499128 222.295229 
L 156.019308 219.983973 
L 158.539488 217.672716 
L 161.059668 215.36146 
L 163.579848 213.050204 
L 166.100028 210.738947 
L 168.620208 208.427691 
L 171.140388 206.116435 
L 173.660568 203.805178 
L 176.180748 201.493922 
L 178.700928 199.182666 
L 181.221107 196.871409 
L 183.741287 194.560153 
L 186.261467 192.248897 
L 188.781647 189.93764 
L 191.301827 187.626384 
L 193.822007 185.315128 
L 196.342187 183.003871 
L 198.862367 180.692615 
L 201.382547 178.381359 
L 203.902727 176.070103 
L 206.422907 173.758846 
L 208.943086 171.44759 
L 211.463266 169.136334 
L 213.983446 166.825077 
L 216.503626 164.513821 
L 219.023806 162.202565 
L 221.543986 159.891308 
L 224.064166 157.580052 
L 226.584346 155.268796 
L 229.104526 152.957539 
L 231.624706 150.646283 
L 234.144886 148.335027 
L 236.665066 146.02377 
L 239.185245 143.712514 
L 241.705425 141.401258 
L 244.225605 139.090001 
L 246.745785 136.778745 
L 249.265965 134.467489 
L 251.786145 132.156233 
L 254.306325 129.844976 
L 256.826505 127.53372 
L 259.346685 125.222464 
L 261.866865 122.911207 
L 264.387045 120.599951 
L 266.907224 118.288695 
L 269.427404 115.977438 
L 271.947584 113.666182 
L 274.467764 111.354926 
L 276.987944 109.043669 
L 279.508124 106.732413 
L 282.028304 104.421157 
L 284.548484 102.1099 
L 287.068664 99.798644 
L 289.588844 97.487388 
L 292.109024 95.176131 
L 294.629203 92.864875 
L 297.149383 90.553619 
L 299.669563 88.242363 
L 302.189743 85.931106 
L 304.709923 83.61985 
L 307.230103 81.308594 
L 309.750283 78.997337 
L 312.270463 76.686081 
L 314.790643 74.374825 
L 317.310823 72.063568 
L 319.831003 69.752312 
L 322.351183 67.441056 
L 324.871362 65.129799 
L 327.391542 62.818543 
L 329.911722 60.507287 
L 332.431902 58.19603 
L 334.952082 55.884774 
L 337.472262 53.573518 
L 339.992442 51.262261 
L 342.512622 48.951005 
" clip-path="url(#p0f2e49c207)" style="fill: none; stroke: #c76a72; stroke-width: 2.25; stroke-linecap: round"/>
   </g>
   <g id="patch_3">
    <path d="M 80.53992 311.94 
L 80.53992 12.96 
" style="fill: none; stroke: #262626; stroke-width: 1.25; stroke-linejoin: miter; stroke-linecap: square"/>
   </g>
   <g id="patch_4">
    <path d="M 80.53992 311.94 
L 354.987512 311.94 
" style="fill: none; stroke: #262626; stroke-width: 1.25; stroke-linejoin: miter; stroke-linecap: square"/>
   </g>
  </g>
  <g id="legend_1">
   <g id="text_17">
    <!-- class -->
    <g style="fill: #262626" transform="translate(393.972422 167.542344) scale(0.12 -0.12)">
     <defs>
      <path id="ArialMT-6c" d="M 409 0 
L 409 4581 
L 972 4581 
L 972 0 
L 409 0 
z
" transform="scale(0.015625)"/>
      <path id="ArialMT-73" d="M 197 991 
L 753 1078 
Q 800 744 1014 566 
Q 1228 388 1613 388 
Q 2000 388 2187 545 
Q 2375 703 2375 916 
Q 2375 1106 2209 1216 
Q 2094 1291 1634 1406 
Q 1016 1563 777 1677 
Q 538 1791 414 1992 
Q 291 2194 291 2438 
Q 291 2659 392 2848 
Q 494 3038 669 3163 
Q 800 3259 1026 3326 
Q 1253 3394 1513 3394 
Q 1903 3394 2198 3281 
Q 2494 3169 2634 2976 
Q 2775 2784 2828 2463 
L 2278 2388 
Q 2241 2644 2061 2787 
Q 1881 2931 1553 2931 
Q 1166 2931 1000 2803 
Q 834 2675 834 2503 
Q 834 2394 903 2306 
Q 972 2216 1119 2156 
Q 1203 2125 1616 2013 
Q 2213 1853 2448 1751 
Q 2684 1650 2818 1456 
Q 2953 1263 2953 975 
Q 2953 694 2789 445 
Q 2625 197 2315 61 
Q 2006 -75 1616 -75 
Q 969 -75 630 194 
Q 291 463 197 991 
z
" transform="scale(0.015625)"/>
     </defs>
     <use xlink:href="#ArialMT-63"/>
     <use xlink:href="#ArialMT-6c" transform="translate(50 0)"/>
     <use xlink:href="#ArialMT-61" transform="translate(72.216797 0)"/>
     <use xlink:href="#ArialMT-73" transform="translate(127.832031 0)"/>
     <use xlink:href="#ArialMT-73" transform="translate(177.832031 0)"/>
    </g>
   </g>
   <g id="PathCollection_3">
    <g>
     <use xlink:href="#m748df110a5" x="369.624219" y="180.413438" style="fill: #eeae53; fill-opacity: 0.8; stroke: #eeae53; stroke-opacity: 0.8"/>
    </g>
   </g>
   <g id="text_18">
    <!-- skill-icl-cot -->
    <g style="fill: #262626" transform="translate(389.424219 183.300938) scale(0.11 -0.11)">
     <defs>
      <path id="ArialMT-6b" d="M 425 0 
L 425 4581 
L 988 4581 
L 988 1969 
L 2319 3319 
L 3047 3319 
L 1778 2088 
L 3175 0 
L 2481 0 
L 1384 1697 
L 988 1316 
L 988 0 
L 425 0 
z
" transform="scale(0.015625)"/>
      <path id="ArialMT-69" d="M 425 3934 
L 425 4581 
L 988 4581 
L 988 3934 
L 425 3934 
z
M 425 0 
L 425 3319 
L 988 3319 
L 988 0 
L 425 0 
z
" transform="scale(0.015625)"/>
      <path id="ArialMT-2d" d="M 203 1375 
L 203 1941 
L 1931 1941 
L 1931 1375 
L 203 1375 
z
" transform="scale(0.015625)"/>
      <path id="ArialMT-6f" d="M 213 1659 
Q 213 2581 725 3025 
Q 1153 3394 1769 3394 
Q 2453 3394 2887 2945 
Q 3322 2497 3322 1706 
Q 3322 1066 3130 698 
Q 2938 331 2570 128 
Q 2203 -75 1769 -75 
Q 1072 -75 642 372 
Q 213 819 213 1659 
z
M 791 1659 
Q 791 1022 1069 705 
Q 1347 388 1769 388 
Q 2188 388 2466 706 
Q 2744 1025 2744 1678 
Q 2744 2294 2464 2611 
Q 2184 2928 1769 2928 
Q 1347 2928 1069 2612 
Q 791 2297 791 1659 
z
" transform="scale(0.015625)"/>
      <path id="ArialMT-74" d="M 1650 503 
L 1731 6 
Q 1494 -44 1306 -44 
Q 1000 -44 831 53 
Q 663 150 594 308 
Q 525 466 525 972 
L 525 2881 
L 113 2881 
L 113 3319 
L 525 3319 
L 525 4141 
L 1084 4478 
L 1084 3319 
L 1650 3319 
L 1650 2881 
L 1084 2881 
L 1084 941 
Q 1084 700 1114 631 
Q 1144 563 1211 522 
Q 1278 481 1403 481 
Q 1497 481 1650 503 
z
" transform="scale(0.015625)"/>
     </defs>
     <use xlink:href="#ArialMT-73"/>
     <use xlink:href="#ArialMT-6b" transform="translate(50 0)"/>
     <use xlink:href="#ArialMT-69" transform="translate(100 0)"/>
     <use xlink:href="#ArialMT-6c" transform="translate(122.216797 0)"/>
     <use xlink:href="#ArialMT-6c" transform="translate(144.433594 0)"/>
     <use xlink:href="#ArialMT-2d" transform="translate(166.650391 0)"/>
     <use xlink:href="#ArialMT-69" transform="translate(199.951172 0)"/>
     <use xlink:href="#ArialMT-63" transform="translate(222.167969 0)"/>
     <use xlink:href="#ArialMT-6c" transform="translate(272.167969 0)"/>
     <use xlink:href="#ArialMT-2d" transform="translate(294.384766 0)"/>
     <use xlink:href="#ArialMT-63" transform="translate(327.685547 0)"/>
     <use xlink:href="#ArialMT-6f" transform="translate(377.685547 0)"/>
     <use xlink:href="#ArialMT-74" transform="translate(433.300781 0)"/>
    </g>
   </g>
   <g id="PathCollection_4">
    <g>
     <use xlink:href="#m1ef9048636" x="369.624219" y="195.973281" style="fill: #c76a72; fill-opacity: 0.8; stroke: #c76a72; stroke-opacity: 0.8"/>
    </g>
   </g>
   <g id="text_19">
    <!-- roberta-icl-cot -->
    <g style="fill: #262626" transform="translate(389.424219 198.860781) scale(0.11 -0.11)">
     <defs>
      <path id="ArialMT-72" d="M 416 0 
L 416 3319 
L 922 3319 
L 922 2816 
Q 1116 3169 1280 3281 
Q 1444 3394 1641 3394 
Q 1925 3394 2219 3213 
L 2025 2691 
Q 1819 2813 1613 2813 
Q 1428 2813 1281 2702 
Q 1134 2591 1072 2394 
Q 978 2094 978 1738 
L 978 0 
L 416 0 
z
" transform="scale(0.015625)"/>
      <path id="ArialMT-62" d="M 941 0 
L 419 0 
L 419 4581 
L 981 4581 
L 981 2947 
Q 1338 3394 1891 3394 
Q 2197 3394 2470 3270 
Q 2744 3147 2920 2923 
Q 3097 2700 3197 2384 
Q 3297 2069 3297 1709 
Q 3297 856 2875 390 
Q 2453 -75 1863 -75 
Q 1275 -75 941 416 
L 941 0 
z
M 934 1684 
Q 934 1088 1097 822 
Q 1363 388 1816 388 
Q 2184 388 2453 708 
Q 2722 1028 2722 1663 
Q 2722 2313 2464 2622 
Q 2206 2931 1841 2931 
Q 1472 2931 1203 2611 
Q 934 2291 934 1684 
z
" transform="scale(0.015625)"/>
      <path id="ArialMT-65" d="M 2694 1069 
L 3275 997 
Q 3138 488 2766 206 
Q 2394 -75 1816 -75 
Q 1088 -75 661 373 
Q 234 822 234 1631 
Q 234 2469 665 2931 
Q 1097 3394 1784 3394 
Q 2450 3394 2872 2941 
Q 3294 2488 3294 1666 
Q 3294 1616 3291 1516 
L 816 1516 
Q 847 969 1125 678 
Q 1403 388 1819 388 
Q 2128 388 2347 550 
Q 2566 713 2694 1069 
z
M 847 1978 
L 2700 1978 
Q 2663 2397 2488 2606 
Q 2219 2931 1791 2931 
Q 1403 2931 1139 2672 
Q 875 2413 847 1978 
z
" transform="scale(0.015625)"/>
     </defs>
     <use xlink:href="#ArialMT-72"/>
     <use xlink:href="#ArialMT-6f" transform="translate(33.300781 0)"/>
     <use xlink:href="#ArialMT-62" transform="translate(88.916016 0)"/>
     <use xlink:href="#ArialMT-65" transform="translate(144.53125 0)"/>
     <use xlink:href="#ArialMT-72" transform="translate(200.146484 0)"/>
     <use xlink:href="#ArialMT-74" transform="translate(233.447266 0)"/>
     <use xlink:href="#ArialMT-61" transform="translate(261.230469 0)"/>
     <use xlink:href="#ArialMT-2d" transform="translate(316.845703 0)"/>
     <use xlink:href="#ArialMT-69" transform="translate(350.146484 0)"/>
     <use xlink:href="#ArialMT-63" transform="translate(372.363281 0)"/>
     <use xlink:href="#ArialMT-6c" transform="translate(422.363281 0)"/>
     <use xlink:href="#ArialMT-2d" transform="translate(444.580078 0)"/>
     <use xlink:href="#ArialMT-63" transform="translate(477.880859 0)"/>
     <use xlink:href="#ArialMT-6f" transform="translate(527.880859 0)"/>
     <use xlink:href="#ArialMT-74" transform="translate(583.496094 0)"/>
    </g>
   </g>
  </g>
 </g>
 <defs>
  <clipPath id="p0f2e49c207">
   <rect x="80.53992" y="12.96" width="274.447592" height="298.98"/>
  </clipPath>
 </defs>
</svg>
