<?xml version="1.0" encoding="utf-8" standalone="no"?>
<!DOCTYPE svg PUBLIC "-//W3C//DTD SVG 1.1//EN"
  "http://www.w3.org/Graphics/SVG/1.1/DTD/svg11.dtd">
<svg xmlns:xlink="http://www.w3.org/1999/xlink" width="447.84pt" height="360pt" viewBox="0 0 447.84 360" xmlns="http://www.w3.org/2000/svg" version="1.1">
 <metadata>
  <rdf:RDF xmlns:dc="http://purl.org/dc/elements/1.1/" xmlns:cc="http://creativecommons.org/ns#" xmlns:rdf="http://www.w3.org/1999/02/22-rdf-syntax-ns#">
   <cc:Work>
    <dc:type rdf:resource="http://purl.org/dc/dcmitype/StillImage"/>
    <dc:date>2025-01-17T18:29:01.123721</dc:date>
    <dc:format>image/svg+xml</dc:format>
    <dc:creator>
     <cc:Agent>
      <dc:title>Matplotlib v3.10.0, https://matplotlib.org/</dc:title>
     </cc:Agent>
    </dc:creator>
   </cc:Work>
  </rdf:RDF>
 </metadata>
 <defs>
  <style type="text/css">*{stroke-linejoin: round; stroke-linecap: butt}</style>
 </defs>
 <g id="figure_1">
  <g id="patch_1">
   <path d="M 0 360 
L 447.84 360 
L 447.84 0 
L 0 0 
z
" style="fill: #ffffff"/>
  </g>
  <g id="axes_1">
   <g id="patch_2">
    <path d="M 77.64426 311.94 
L 355.376964 311.94 
L 355.376964 12.96 
L 77.64426 12.96 
z
" style="fill: #ffffff"/>
   </g>
   <g id="matplotlib.axis_1">
    <g id="xtick_1">
     <g id="line2d_1">
      <defs>
       <path id="mfbf9e96762" d="M 0 0 
L 0 6 
" style="stroke: #262626; stroke-width: 1.25"/>
      </defs>
      <g>
       <use xlink:href="#mfbf9e96762" x="122.402836" y="311.94" style="fill: #262626; stroke: #262626; stroke-width: 1.25"/>
      </g>
     </g>
     <g id="text_1">
      <!-- 0.2 -->
      <g style="fill: #262626" transform="translate(114.757836 329.313594) scale(0.11 -0.11)">
       <defs>
        <path id="ArialMT-30" d="M 266 2259 
Q 266 3072 433 3567 
Q 600 4063 929 4331 
Q 1259 4600 1759 4600 
Q 2128 4600 2406 4451 
Q 2684 4303 2865 4023 
Q 3047 3744 3150 3342 
Q 3253 2941 3253 2259 
Q 3253 1453 3087 958 
Q 2922 463 2592 192 
Q 2263 -78 1759 -78 
Q 1097 -78 719 397 
Q 266 969 266 2259 
z
M 844 2259 
Q 844 1131 1108 757 
Q 1372 384 1759 384 
Q 2147 384 2411 759 
Q 2675 1134 2675 2259 
Q 2675 3391 2411 3762 
Q 2147 4134 1753 4134 
Q 1366 4134 1134 3806 
Q 844 3388 844 2259 
z
" transform="scale(0.015625)"/>
        <path id="ArialMT-2e" d="M 581 0 
L 581 641 
L 1222 641 
L 1222 0 
L 581 0 
z
" transform="scale(0.015625)"/>
        <path id="ArialMT-32" d="M 3222 541 
L 3222 0 
L 194 0 
Q 188 203 259 391 
Q 375 700 629 1000 
Q 884 1300 1366 1694 
Q 2113 2306 2375 2664 
Q 2638 3022 2638 3341 
Q 2638 3675 2398 3904 
Q 2159 4134 1775 4134 
Q 1369 4134 1125 3890 
Q 881 3647 878 3216 
L 300 3275 
Q 359 3922 746 4261 
Q 1134 4600 1788 4600 
Q 2447 4600 2831 4234 
Q 3216 3869 3216 3328 
Q 3216 3053 3103 2787 
Q 2991 2522 2730 2228 
Q 2469 1934 1863 1422 
Q 1356 997 1212 845 
Q 1069 694 975 541 
L 3222 541 
z
" transform="scale(0.015625)"/>
       </defs>
       <use xlink:href="#ArialMT-30"/>
       <use xlink:href="#ArialMT-2e" transform="translate(55.615234 0)"/>
       <use xlink:href="#ArialMT-32" transform="translate(83.398438 0)"/>
      </g>
     </g>
    </g>
    <g id="xtick_2">
     <g id="line2d_2">
      <g>
       <use xlink:href="#mfbf9e96762" x="177.490315" y="311.94" style="fill: #262626; stroke: #262626; stroke-width: 1.25"/>
      </g>
     </g>
     <g id="text_2">
      <!-- 0.4 -->
      <g style="fill: #262626" transform="translate(169.845315 329.313594) scale(0.11 -0.11)">
       <defs>
        <path id="ArialMT-34" d="M 2069 0 
L 2069 1097 
L 81 1097 
L 81 1613 
L 2172 4581 
L 2631 4581 
L 2631 1613 
L 3250 1613 
L 3250 1097 
L 2631 1097 
L 2631 0 
L 2069 0 
z
M 2069 1613 
L 2069 3678 
L 634 1613 
L 2069 1613 
z
" transform="scale(0.015625)"/>
       </defs>
       <use xlink:href="#ArialMT-30"/>
       <use xlink:href="#ArialMT-2e" transform="translate(55.615234 0)"/>
       <use xlink:href="#ArialMT-34" transform="translate(83.398438 0)"/>
      </g>
     </g>
    </g>
    <g id="xtick_3">
     <g id="line2d_3">
      <g>
       <use xlink:href="#mfbf9e96762" x="232.577793" y="311.94" style="fill: #262626; stroke: #262626; stroke-width: 1.25"/>
      </g>
     </g>
     <g id="text_3">
      <!-- 0.6 -->
      <g style="fill: #262626" transform="translate(224.932793 329.313594) scale(0.11 -0.11)">
       <defs>
        <path id="ArialMT-36" d="M 3184 3459 
L 2625 3416 
Q 2550 3747 2413 3897 
Q 2184 4138 1850 4138 
Q 1581 4138 1378 3988 
Q 1113 3794 959 3422 
Q 806 3050 800 2363 
Q 1003 2672 1297 2822 
Q 1591 2972 1913 2972 
Q 2475 2972 2870 2558 
Q 3266 2144 3266 1488 
Q 3266 1056 3080 686 
Q 2894 316 2569 119 
Q 2244 -78 1831 -78 
Q 1128 -78 684 439 
Q 241 956 241 2144 
Q 241 3472 731 4075 
Q 1159 4600 1884 4600 
Q 2425 4600 2770 4297 
Q 3116 3994 3184 3459 
z
M 888 1484 
Q 888 1194 1011 928 
Q 1134 663 1356 523 
Q 1578 384 1822 384 
Q 2178 384 2434 671 
Q 2691 959 2691 1453 
Q 2691 1928 2437 2201 
Q 2184 2475 1800 2475 
Q 1419 2475 1153 2201 
Q 888 1928 888 1484 
z
" transform="scale(0.015625)"/>
       </defs>
       <use xlink:href="#ArialMT-30"/>
       <use xlink:href="#ArialMT-2e" transform="translate(55.615234 0)"/>
       <use xlink:href="#ArialMT-36" transform="translate(83.398438 0)"/>
      </g>
     </g>
    </g>
    <g id="xtick_4">
     <g id="line2d_4">
      <g>
       <use xlink:href="#mfbf9e96762" x="287.665271" y="311.94" style="fill: #262626; stroke: #262626; stroke-width: 1.25"/>
      </g>
     </g>
     <g id="text_4">
      <!-- 0.8 -->
      <g style="fill: #262626" transform="translate(280.020271 329.313594) scale(0.11 -0.11)">
       <defs>
        <path id="ArialMT-38" d="M 1131 2484 
Q 781 2613 612 2850 
Q 444 3088 444 3419 
Q 444 3919 803 4259 
Q 1163 4600 1759 4600 
Q 2359 4600 2725 4251 
Q 3091 3903 3091 3403 
Q 3091 3084 2923 2848 
Q 2756 2613 2416 2484 
Q 2838 2347 3058 2040 
Q 3278 1734 3278 1309 
Q 3278 722 2862 322 
Q 2447 -78 1769 -78 
Q 1091 -78 675 323 
Q 259 725 259 1325 
Q 259 1772 486 2073 
Q 713 2375 1131 2484 
z
M 1019 3438 
Q 1019 3113 1228 2906 
Q 1438 2700 1772 2700 
Q 2097 2700 2305 2904 
Q 2513 3109 2513 3406 
Q 2513 3716 2298 3927 
Q 2084 4138 1766 4138 
Q 1444 4138 1231 3931 
Q 1019 3725 1019 3438 
z
M 838 1322 
Q 838 1081 952 856 
Q 1066 631 1291 507 
Q 1516 384 1775 384 
Q 2178 384 2440 643 
Q 2703 903 2703 1303 
Q 2703 1709 2433 1975 
Q 2163 2241 1756 2241 
Q 1359 2241 1098 1978 
Q 838 1716 838 1322 
z
" transform="scale(0.015625)"/>
       </defs>
       <use xlink:href="#ArialMT-30"/>
       <use xlink:href="#ArialMT-2e" transform="translate(55.615234 0)"/>
       <use xlink:href="#ArialMT-38" transform="translate(83.398438 0)"/>
      </g>
     </g>
    </g>
    <g id="xtick_5">
     <g id="line2d_5">
      <g>
       <use xlink:href="#mfbf9e96762" x="342.75275" y="311.94" style="fill: #262626; stroke: #262626; stroke-width: 1.25"/>
      </g>
     </g>
     <g id="text_5">
      <!-- 1.0 -->
      <g style="fill: #262626" transform="translate(335.10775 329.313594) scale(0.11 -0.11)">
       <defs>
        <path id="ArialMT-31" d="M 2384 0 
L 1822 0 
L 1822 3584 
Q 1619 3391 1289 3197 
Q 959 3003 697 2906 
L 697 3450 
Q 1169 3672 1522 3987 
Q 1875 4303 2022 4600 
L 2384 4600 
L 2384 0 
z
" transform="scale(0.015625)"/>
       </defs>
       <use xlink:href="#ArialMT-31"/>
       <use xlink:href="#ArialMT-2e" transform="translate(55.615234 0)"/>
       <use xlink:href="#ArialMT-30" transform="translate(83.398438 0)"/>
      </g>
     </g>
    </g>
    <g id="text_6">
     <!-- acc -->
     <g style="fill: #262626" transform="translate(207.174049 344.089219) scale(0.12 -0.12)">
      <defs>
       <path id="ArialMT-61" d="M 2588 409 
Q 2275 144 1986 34 
Q 1697 -75 1366 -75 
Q 819 -75 525 192 
Q 231 459 231 875 
Q 231 1119 342 1320 
Q 453 1522 633 1644 
Q 813 1766 1038 1828 
Q 1203 1872 1538 1913 
Q 2219 1994 2541 2106 
Q 2544 2222 2544 2253 
Q 2544 2597 2384 2738 
Q 2169 2928 1744 2928 
Q 1347 2928 1158 2789 
Q 969 2650 878 2297 
L 328 2372 
Q 403 2725 575 2942 
Q 747 3159 1072 3276 
Q 1397 3394 1825 3394 
Q 2250 3394 2515 3294 
Q 2781 3194 2906 3042 
Q 3031 2891 3081 2659 
Q 3109 2516 3109 2141 
L 3109 1391 
Q 3109 606 3145 398 
Q 3181 191 3288 0 
L 2700 0 
Q 2613 175 2588 409 
z
M 2541 1666 
Q 2234 1541 1622 1453 
Q 1275 1403 1131 1340 
Q 988 1278 909 1158 
Q 831 1038 831 891 
Q 831 666 1001 516 
Q 1172 366 1500 366 
Q 1825 366 2078 508 
Q 2331 650 2450 897 
Q 2541 1088 2541 1459 
L 2541 1666 
z
" transform="scale(0.015625)"/>
       <path id="ArialMT-63" d="M 2588 1216 
L 3141 1144 
Q 3050 572 2676 248 
Q 2303 -75 1759 -75 
Q 1078 -75 664 370 
Q 250 816 250 1647 
Q 250 2184 428 2587 
Q 606 2991 970 3192 
Q 1334 3394 1763 3394 
Q 2303 3394 2647 3120 
Q 2991 2847 3088 2344 
L 2541 2259 
Q 2463 2594 2264 2762 
Q 2066 2931 1784 2931 
Q 1359 2931 1093 2626 
Q 828 2322 828 1663 
Q 828 994 1084 691 
Q 1341 388 1753 388 
Q 2084 388 2306 591 
Q 2528 794 2588 1216 
z
" transform="scale(0.015625)"/>
      </defs>
      <use xlink:href="#ArialMT-61"/>
      <use xlink:href="#ArialMT-63" transform="translate(55.615234 0)"/>
      <use xlink:href="#ArialMT-63" transform="translate(105.615234 0)"/>
     </g>
    </g>
   </g>
   <g id="matplotlib.axis_2">
    <g id="ytick_1">
     <g id="line2d_6">
      <defs>
       <path id="maa6b184b9d" d="M 0 0 
L -6 0 
" style="stroke: #262626; stroke-width: 1.25"/>
      </defs>
      <g>
       <use xlink:href="#maa6b184b9d" x="77.64426" y="284.525516" style="fill: #262626; stroke: #262626; stroke-width: 1.25"/>
      </g>
     </g>
     <g id="text_7">
      <!-- −500 -->
      <g style="fill: #262626" transform="translate(43.368479 288.462313) scale(0.11 -0.11)">
       <defs>
        <path id="ArialMT-2212" d="M 3381 1997 
L 356 1997 
L 356 2522 
L 3381 2522 
L 3381 1997 
z
" transform="scale(0.015625)"/>
        <path id="ArialMT-35" d="M 266 1200 
L 856 1250 
Q 922 819 1161 601 
Q 1400 384 1738 384 
Q 2144 384 2425 690 
Q 2706 997 2706 1503 
Q 2706 1984 2436 2262 
Q 2166 2541 1728 2541 
Q 1456 2541 1237 2417 
Q 1019 2294 894 2097 
L 366 2166 
L 809 4519 
L 3088 4519 
L 3088 3981 
L 1259 3981 
L 1013 2750 
Q 1425 3038 1878 3038 
Q 2478 3038 2890 2622 
Q 3303 2206 3303 1553 
Q 3303 931 2941 478 
Q 2500 -78 1738 -78 
Q 1113 -78 717 272 
Q 322 622 266 1200 
z
" transform="scale(0.015625)"/>
       </defs>
       <use xlink:href="#ArialMT-2212"/>
       <use xlink:href="#ArialMT-35" transform="translate(58.398438 0)"/>
       <use xlink:href="#ArialMT-30" transform="translate(114.013672 0)"/>
       <use xlink:href="#ArialMT-30" transform="translate(169.628906 0)"/>
      </g>
     </g>
    </g>
    <g id="ytick_2">
     <g id="line2d_7">
      <g>
       <use xlink:href="#maa6b184b9d" x="77.64426" y="231.556636" style="fill: #262626; stroke: #262626; stroke-width: 1.25"/>
      </g>
     </g>
     <g id="text_8">
      <!-- 0 -->
      <g style="fill: #262626" transform="translate(62.027229 235.493433) scale(0.11 -0.11)">
       <use xlink:href="#ArialMT-30"/>
      </g>
     </g>
    </g>
    <g id="ytick_3">
     <g id="line2d_8">
      <g>
       <use xlink:href="#maa6b184b9d" x="77.64426" y="178.587756" style="fill: #262626; stroke: #262626; stroke-width: 1.25"/>
      </g>
     </g>
     <g id="text_9">
      <!-- 500 -->
      <g style="fill: #262626" transform="translate(49.793166 182.524552) scale(0.11 -0.11)">
       <use xlink:href="#ArialMT-35"/>
       <use xlink:href="#ArialMT-30" transform="translate(55.615234 0)"/>
       <use xlink:href="#ArialMT-30" transform="translate(111.230469 0)"/>
      </g>
     </g>
    </g>
    <g id="ytick_4">
     <g id="line2d_9">
      <g>
       <use xlink:href="#maa6b184b9d" x="77.64426" y="125.618875" style="fill: #262626; stroke: #262626; stroke-width: 1.25"/>
      </g>
     </g>
     <g id="text_10">
      <!-- 1000 -->
      <g style="fill: #262626" transform="translate(43.676135 129.555672) scale(0.11 -0.11)">
       <use xlink:href="#ArialMT-31"/>
       <use xlink:href="#ArialMT-30" transform="translate(55.615234 0)"/>
       <use xlink:href="#ArialMT-30" transform="translate(111.230469 0)"/>
       <use xlink:href="#ArialMT-30" transform="translate(166.845703 0)"/>
      </g>
     </g>
    </g>
    <g id="ytick_5">
     <g id="line2d_10">
      <g>
       <use xlink:href="#maa6b184b9d" x="77.64426" y="72.649995" style="fill: #262626; stroke: #262626; stroke-width: 1.25"/>
      </g>
     </g>
     <g id="text_11">
      <!-- 1500 -->
      <g style="fill: #262626" transform="translate(43.676135 76.586792) scale(0.11 -0.11)">
       <use xlink:href="#ArialMT-31"/>
       <use xlink:href="#ArialMT-35" transform="translate(55.615234 0)"/>
       <use xlink:href="#ArialMT-30" transform="translate(111.230469 0)"/>
       <use xlink:href="#ArialMT-30" transform="translate(166.845703 0)"/>
      </g>
     </g>
    </g>
    <g id="ytick_6">
     <g id="line2d_11">
      <g>
       <use xlink:href="#maa6b184b9d" x="77.64426" y="19.681115" style="fill: #262626; stroke: #262626; stroke-width: 1.25"/>
      </g>
     </g>
     <g id="text_12">
      <!-- 2000 -->
      <g style="fill: #262626" transform="translate(43.676135 23.617912) scale(0.11 -0.11)">
       <use xlink:href="#ArialMT-32"/>
       <use xlink:href="#ArialMT-30" transform="translate(55.615234 0)"/>
       <use xlink:href="#ArialMT-30" transform="translate(111.230469 0)"/>
       <use xlink:href="#ArialMT-30" transform="translate(166.845703 0)"/>
      </g>
     </g>
    </g>
    <g id="text_13">
     <!-- p -->
     <g style="fill: #262626" transform="translate(36.983479 165.786563) rotate(-90) scale(0.12 -0.12)">
      <defs>
       <path id="ArialMT-70" d="M 422 -1272 
L 422 3319 
L 934 3319 
L 934 2888 
Q 1116 3141 1344 3267 
Q 1572 3394 1897 3394 
Q 2322 3394 2647 3175 
Q 2972 2956 3137 2557 
Q 3303 2159 3303 1684 
Q 3303 1175 3120 767 
Q 2938 359 2589 142 
Q 2241 -75 1856 -75 
Q 1575 -75 1351 44 
Q 1128 163 984 344 
L 984 -1272 
L 422 -1272 
z
M 931 1641 
Q 931 1000 1190 694 
Q 1450 388 1819 388 
Q 2194 388 2461 705 
Q 2728 1022 2728 1688 
Q 2728 2322 2467 2637 
Q 2206 2953 1844 2953 
Q 1484 2953 1207 2617 
Q 931 2281 931 1641 
z
" transform="scale(0.015625)"/>
      </defs>
      <use xlink:href="#ArialMT-70"/>
     </g>
    </g>
   </g>
   <g id="PathCollection_1">
    <defs>
     <path id="m1aa937ad0e" d="M 0 3 
C 0.795609 3 1.55874 2.683901 2.12132 2.12132 
C 2.683901 1.55874 3 0.795609 3 0 
C 3 -0.795609 2.683901 -1.55874 2.12132 -2.12132 
C 1.55874 -2.683901 0.795609 -3 0 -3 
C -0.795609 -3 -1.55874 -2.683901 -2.12132 -2.12132 
C -2.683901 -1.55874 -3 -0.795609 -3 0 
C -3 0.795609 -2.683901 1.55874 -2.12132 2.12132 
C -1.55874 2.683901 -0.795609 3 0 3 
z
" style="stroke: #4c72b0; stroke-opacity: 0.8"/>
    </defs>
    <g clip-path="url(#p2b9a8a9fd9)">
     <use xlink:href="#m1aa937ad0e" x="109.690341" y="197.995553" style="fill: #4c72b0; fill-opacity: 0.8; stroke: #4c72b0; stroke-opacity: 0.8"/>
     <use xlink:href="#m1aa937ad0e" x="92.355121" y="194.605545" style="fill: #4c72b0; fill-opacity: 0.8; stroke: #4c72b0; stroke-opacity: 0.8"/>
     <use xlink:href="#m1aa937ad0e" x="117.394884" y="186.130524" style="fill: #4c72b0; fill-opacity: 0.8; stroke: #4c72b0; stroke-opacity: 0.8"/>
     <use xlink:href="#m1aa937ad0e" x="142.434647" y="180.706511" style="fill: #4c72b0; fill-opacity: 0.8; stroke: #4c72b0; stroke-opacity: 0.8"/>
     <use xlink:href="#m1aa937ad0e" x="187.819217" y="145.704675" style="fill: #4c72b0; fill-opacity: 0.8; stroke: #4c72b0; stroke-opacity: 0.8"/>
     <use xlink:href="#m1aa937ad0e" x="258.002783" y="131.212389" style="fill: #4c72b0; fill-opacity: 0.8; stroke: #4c72b0; stroke-opacity: 0.8"/>
     <use xlink:href="#m1aa937ad0e" x="285.36996" y="112.736844" style="fill: #4c72b0; fill-opacity: 0.8; stroke: #4c72b0; stroke-opacity: 0.8"/>
     <use xlink:href="#m1aa937ad0e" x="292.939604" y="88.667785" style="fill: #4c72b0; fill-opacity: 0.8; stroke: #4c72b0; stroke-opacity: 0.8"/>
     <use xlink:href="#m1aa937ad0e" x="250.940286" y="88.583034" style="fill: #4c72b0; fill-opacity: 0.8; stroke: #4c72b0; stroke-opacity: 0.8"/>
     <use xlink:href="#m1aa937ad0e" x="283.730452" y="56.547456" style="fill: #4c72b0; fill-opacity: 0.8; stroke: #4c72b0; stroke-opacity: 0.8"/>
     <use xlink:href="#m1aa937ad0e" x="275.629352" y="56.462705" style="fill: #4c72b0; fill-opacity: 0.8; stroke: #4c72b0; stroke-opacity: 0.8"/>
     <use xlink:href="#m1aa937ad0e" x="318.801672" y="56.377955" style="fill: #4c72b0; fill-opacity: 0.8; stroke: #4c72b0; stroke-opacity: 0.8"/>
     <use xlink:href="#m1aa937ad0e" x="300.627031" y="48.750436" style="fill: #4c72b0; fill-opacity: 0.8; stroke: #4c72b0; stroke-opacity: 0.8"/>
     <use xlink:href="#m1aa937ad0e" x="330.777211" y="48.665686" style="fill: #4c72b0; fill-opacity: 0.8; stroke: #4c72b0; stroke-opacity: 0.8"/>
    </g>
   </g>
   <g id="FillBetweenPolyCollection_1">
    <defs>
     <path id="m2968dfc117" d="M 92.355121 -163.055705 
L 92.355121 -142.392692 
L 94.763425 -144.190494 
L 97.171729 -145.966229 
L 99.580033 -147.773313 
L 101.988336 -149.499254 
L 104.39664 -151.202181 
L 106.804944 -152.871244 
L 109.213248 -154.76622 
L 111.621552 -156.571476 
L 114.029856 -158.201075 
L 116.43816 -159.830674 
L 118.846464 -161.460273 
L 121.254768 -163.089949 
L 123.663072 -164.720432 
L 126.071376 -166.578771 
L 128.47968 -168.412785 
L 130.887984 -170.002693 
L 133.296288 -171.596224 
L 135.704592 -173.288709 
L 138.112896 -175.079391 
L 140.5212 -176.668462 
L 142.929504 -178.441759 
L 145.337807 -180.225167 
L 147.746111 -181.809066 
L 150.154415 -183.367731 
L 152.562719 -184.905606 
L 154.971023 -186.977205 
L 157.379327 -188.435827 
L 159.787631 -189.909903 
L 162.195935 -191.605492 
L 164.604239 -193.056818 
L 167.012543 -194.765911 
L 169.420847 -196.348575 
L 171.829151 -197.998851 
L 174.237455 -199.448352 
L 176.645759 -200.648302 
L 179.054063 -202.195751 
L 181.462367 -203.80754 
L 183.870671 -205.438391 
L 186.278974 -207.059677 
L 188.687278 -208.688642 
L 191.095582 -210.235674 
L 193.503886 -211.696615 
L 195.91219 -213.112257 
L 198.320494 -214.467898 
L 200.728798 -215.987264 
L 203.137102 -217.408355 
L 205.545406 -218.929528 
L 207.95371 -220.767293 
L 210.362014 -222.25843 
L 212.770318 -223.680793 
L 215.178622 -225.101863 
L 217.586926 -226.437312 
L 219.99523 -228.040597 
L 222.403534 -229.533988 
L 224.811838 -230.903142 
L 227.220141 -232.460042 
L 229.628445 -233.882393 
L 232.036749 -235.31441 
L 234.445053 -236.738298 
L 236.853357 -238.201526 
L 239.261661 -239.587893 
L 241.669965 -240.993945 
L 244.078269 -242.352762 
L 246.486573 -243.650962 
L 248.894877 -245.072019 
L 251.303181 -246.429365 
L 253.711485 -247.78803 
L 256.119789 -249.146847 
L 258.528093 -250.505664 
L 260.936397 -251.868083 
L 263.344701 -253.230967 
L 265.753005 -254.593852 
L 268.161309 -256.058176 
L 270.569612 -257.514995 
L 272.977916 -258.849826 
L 275.38622 -260.168087 
L 277.794524 -261.458585 
L 280.202828 -262.752741 
L 282.611132 -264.110719 
L 285.019436 -265.470992 
L 287.42774 -266.858813 
L 289.836044 -268.193645 
L 292.244348 -269.551015 
L 294.652652 -270.91013 
L 297.060956 -272.270994 
L 299.46926 -273.671765 
L 301.877564 -275.077151 
L 304.285868 -276.482537 
L 306.694172 -277.84809 
L 309.102476 -279.203022 
L 311.510779 -280.557953 
L 313.919083 -281.852418 
L 316.327387 -283.149009 
L 318.735691 -284.507007 
L 321.143995 -285.865005 
L 323.552299 -287.223003 
L 325.960603 -288.504801 
L 328.368907 -289.776185 
L 330.777211 -291.047569 
L 330.777211 -333.45 
L 330.777211 -333.45 
L 328.368907 -331.703102 
L 325.960603 -329.956203 
L 323.552299 -328.164785 
L 321.143995 -326.289077 
L 318.735691 -324.407543 
L 316.327387 -322.593974 
L 313.919083 -320.788213 
L 311.510779 -318.959417 
L 309.102476 -317.100487 
L 306.694172 -315.256051 
L 304.285868 -313.420972 
L 301.877564 -311.569983 
L 299.46926 -309.72591 
L 297.060956 -307.923274 
L 294.652652 -306.130942 
L 292.244348 -304.259375 
L 289.836044 -302.383532 
L 287.42774 -300.507153 
L 285.019436 -298.658641 
L 282.611132 -296.757072 
L 280.202828 -294.963213 
L 277.794524 -293.067985 
L 275.38622 -291.15945 
L 272.977916 -289.300646 
L 270.569612 -287.432574 
L 268.161309 -285.580558 
L 265.753005 -283.732626 
L 263.344701 -281.878096 
L 260.936397 -280.021486 
L 258.528093 -278.169036 
L 256.119789 -276.314506 
L 253.711485 -274.459976 
L 251.303181 -272.650142 
L 248.894877 -270.946558 
L 246.486573 -269.109719 
L 244.078269 -267.210451 
L 241.669965 -265.464272 
L 239.261661 -263.621004 
L 236.853357 -261.768388 
L 234.445053 -259.933629 
L 232.036749 -258.14088 
L 229.628445 -256.447984 
L 227.220141 -254.686925 
L 224.811838 -252.887637 
L 222.403534 -251.272675 
L 219.99523 -249.658728 
L 217.586926 -247.804789 
L 215.178622 -246.032452 
L 212.770318 -244.459087 
L 210.362014 -242.621655 
L 207.95371 -240.865949 
L 205.545406 -239.053948 
L 203.137102 -237.435484 
L 200.728798 -235.810185 
L 198.320494 -234.141121 
L 195.91219 -232.394713 
L 193.503886 -230.659868 
L 191.095582 -229.106763 
L 188.687278 -227.412114 
L 186.278974 -225.896171 
L 183.870671 -224.160637 
L 181.462367 -222.547666 
L 179.054063 -220.858126 
L 176.645759 -219.183066 
L 174.237455 -217.335011 
L 171.829151 -215.671997 
L 169.420847 -214.087203 
L 167.012543 -212.448112 
L 164.604239 -210.781425 
L 162.195935 -209.225741 
L 159.787631 -207.608617 
L 157.379327 -205.935506 
L 154.971023 -204.213501 
L 152.562719 -202.492843 
L 150.154415 -200.947874 
L 147.746111 -199.339204 
L 145.337807 -197.76054 
L 142.929504 -196.122904 
L 140.5212 -194.475786 
L 138.112896 -192.804281 
L 135.704592 -191.178636 
L 133.296288 -189.484106 
L 130.887984 -188.004308 
L 128.47968 -186.557598 
L 126.071376 -184.909974 
L 123.663072 -183.15541 
L 121.254768 -181.400847 
L 118.846464 -179.811043 
L 116.43816 -178.318322 
L 114.029856 -176.671299 
L 111.621552 -175.127166 
L 109.213248 -173.497366 
L 106.804944 -171.879311 
L 104.39664 -170.402984 
L 101.988336 -169.323685 
L 99.580033 -167.760727 
L 97.171729 -166.150202 
L 94.763425 -164.539677 
L 92.355121 -163.055705 
z
" style="stroke: #ffffff; stroke-opacity: 0.15"/>
    </defs>
    <g clip-path="url(#p2b9a8a9fd9)">
     <use xlink:href="#m2968dfc117" x="0" y="360" style="fill: #4c72b0; fill-opacity: 0.15; stroke: #ffffff; stroke-opacity: 0.15"/>
    </g>
   </g>
   <g id="PathCollection_2">
    <defs>
     <path id="m63884f79a4" d="M 0 3 
C 0.795609 3 1.55874 2.683901 2.12132 2.12132 
C 2.683901 1.55874 3 0.795609 3 0 
C 3 -0.795609 2.683901 -1.55874 2.12132 -2.12132 
C 1.55874 -2.683901 0.795609 -3 0 -3 
C -0.795609 -3 -1.55874 -2.683901 -2.12132 -2.12132 
C -2.683901 -1.55874 -3 -0.795609 -3 0 
C -3 0.795609 -2.683901 1.55874 -2.12132 2.12132 
C -1.55874 2.683901 -0.795609 3 0 3 
z
" style="stroke: #dd8452; stroke-opacity: 0.8"/>
    </defs>
    <g clip-path="url(#p2b9a8a9fd9)">
     <use xlink:href="#m63884f79a4" x="90.268474" y="214.606594" style="fill: #dd8452; fill-opacity: 0.8; stroke: #dd8452; stroke-opacity: 0.8"/>
     <use xlink:href="#m63884f79a4" x="140.765329" y="206.131573" style="fill: #dd8452; fill-opacity: 0.8; stroke: #dd8452; stroke-opacity: 0.8"/>
     <use xlink:href="#m63884f79a4" x="185.359954" y="201.894063" style="fill: #dd8452; fill-opacity: 0.8; stroke: #dd8452; stroke-opacity: 0.8"/>
     <use xlink:href="#m63884f79a4" x="173.252816" y="197.656552" style="fill: #dd8452; fill-opacity: 0.8; stroke: #dd8452; stroke-opacity: 0.8"/>
     <use xlink:href="#m63884f79a4" x="205.034054" y="193.419042" style="fill: #dd8452; fill-opacity: 0.8; stroke: #dd8452; stroke-opacity: 0.8"/>
     <use xlink:href="#m63884f79a4" x="213.135154" y="189.181532" style="fill: #dd8452; fill-opacity: 0.8; stroke: #dd8452; stroke-opacity: 0.8"/>
     <use xlink:href="#m63884f79a4" x="224.708153" y="184.944021" style="fill: #dd8452; fill-opacity: 0.8; stroke: #dd8452; stroke-opacity: 0.8"/>
     <use xlink:href="#m63884f79a4" x="242.593698" y="180.706511" style="fill: #dd8452; fill-opacity: 0.8; stroke: #dd8452; stroke-opacity: 0.8"/>
     <use xlink:href="#m63884f79a4" x="242.593698" y="176.469" style="fill: #dd8452; fill-opacity: 0.8; stroke: #dd8452; stroke-opacity: 0.8"/>
     <use xlink:href="#m63884f79a4" x="244.382253" y="172.23149" style="fill: #dd8452; fill-opacity: 0.8; stroke: #dd8452; stroke-opacity: 0.8"/>
     <use xlink:href="#m63884f79a4" x="277.943952" y="167.99398" style="fill: #dd8452; fill-opacity: 0.8; stroke: #dd8452; stroke-opacity: 0.8"/>
     <use xlink:href="#m63884f79a4" x="241.275816" y="163.756469" style="fill: #dd8452; fill-opacity: 0.8; stroke: #dd8452; stroke-opacity: 0.8"/>
     <use xlink:href="#m63884f79a4" x="267.633461" y="159.518959" style="fill: #dd8452; fill-opacity: 0.8; stroke: #dd8452; stroke-opacity: 0.8"/>
     <use xlink:href="#m63884f79a4" x="217.553935" y="155.281448" style="fill: #dd8452; fill-opacity: 0.8; stroke: #dd8452; stroke-opacity: 0.8"/>
     <use xlink:href="#m63884f79a4" x="300.377766" y="151.043938" style="fill: #dd8452; fill-opacity: 0.8; stroke: #dd8452; stroke-opacity: 0.8"/>
     <use xlink:href="#m63884f79a4" x="205.034054" y="146.806427" style="fill: #dd8452; fill-opacity: 0.8; stroke: #dd8452; stroke-opacity: 0.8"/>
     <use xlink:href="#m63884f79a4" x="296.846518" y="138.331407" style="fill: #dd8452; fill-opacity: 0.8; stroke: #dd8452; stroke-opacity: 0.8"/>
     <use xlink:href="#m63884f79a4" x="255.11358" y="134.093896" style="fill: #dd8452; fill-opacity: 0.8; stroke: #dd8452; stroke-opacity: 0.8"/>
     <use xlink:href="#m63884f79a4" x="296.846518" y="129.856386" style="fill: #dd8452; fill-opacity: 0.8; stroke: #dd8452; stroke-opacity: 0.8"/>
     <use xlink:href="#m63884f79a4" x="323.07865" y="125.618875" style="fill: #dd8452; fill-opacity: 0.8; stroke: #dd8452; stroke-opacity: 0.8"/>
     <use xlink:href="#m63884f79a4" x="242.593698" y="117.143855" style="fill: #dd8452; fill-opacity: 0.8; stroke: #dd8452; stroke-opacity: 0.8"/>
     <use xlink:href="#m63884f79a4" x="317.712987" y="112.906344" style="fill: #dd8452; fill-opacity: 0.8; stroke: #dd8452; stroke-opacity: 0.8"/>
     <use xlink:href="#m63884f79a4" x="300.377766" y="108.668834" style="fill: #dd8452; fill-opacity: 0.8; stroke: #dd8452; stroke-opacity: 0.8"/>
     <use xlink:href="#m63884f79a4" x="294.850595" y="104.431323" style="fill: #dd8452; fill-opacity: 0.8; stroke: #dd8452; stroke-opacity: 0.8"/>
     <use xlink:href="#m63884f79a4" x="296.846518" y="100.193813" style="fill: #dd8452; fill-opacity: 0.8; stroke: #dd8452; stroke-opacity: 0.8"/>
     <use xlink:href="#m63884f79a4" x="325.537913" y="91.718792" style="fill: #dd8452; fill-opacity: 0.8; stroke: #dd8452; stroke-opacity: 0.8"/>
     <use xlink:href="#m63884f79a4" x="273.893402" y="87.481282" style="fill: #dd8452; fill-opacity: 0.8; stroke: #dd8452; stroke-opacity: 0.8"/>
     <use xlink:href="#m63884f79a4" x="220.336131" y="83.243771" style="fill: #dd8452; fill-opacity: 0.8; stroke: #dd8452; stroke-opacity: 0.8"/>
     <use xlink:href="#m63884f79a4" x="342.75275" y="79.006261" style="fill: #dd8452; fill-opacity: 0.8; stroke: #dd8452; stroke-opacity: 0.8"/>
     <use xlink:href="#m63884f79a4" x="316.930494" y="74.76875" style="fill: #dd8452; fill-opacity: 0.8; stroke: #dd8452; stroke-opacity: 0.8"/>
     <use xlink:href="#m63884f79a4" x="315.209011" y="62.056219" style="fill: #dd8452; fill-opacity: 0.8; stroke: #dd8452; stroke-opacity: 0.8"/>
     <use xlink:href="#m63884f79a4" x="273.893402" y="57.818709" style="fill: #dd8452; fill-opacity: 0.8; stroke: #dd8452; stroke-opacity: 0.8"/>
     <use xlink:href="#m63884f79a4" x="315.209011" y="49.343688" style="fill: #dd8452; fill-opacity: 0.8; stroke: #dd8452; stroke-opacity: 0.8"/>
     <use xlink:href="#m63884f79a4" x="317.712987" y="45.106177" style="fill: #dd8452; fill-opacity: 0.8; stroke: #dd8452; stroke-opacity: 0.8"/>
     <use xlink:href="#m63884f79a4" x="342.75275" y="40.868667" style="fill: #dd8452; fill-opacity: 0.8; stroke: #dd8452; stroke-opacity: 0.8"/>
     <use xlink:href="#m63884f79a4" x="324.390257" y="36.631157" style="fill: #dd8452; fill-opacity: 0.8; stroke: #dd8452; stroke-opacity: 0.8"/>
    </g>
   </g>
   <g id="FillBetweenPolyCollection_2">
    <defs>
     <path id="m1880d68201" d="M 90.268474 -133.387177 
L 90.268474 -61.65 
L 92.81882 -63.996144 
L 95.369166 -66.342288 
L 97.919512 -68.688432 
L 100.469859 -71.034577 
L 103.020205 -73.42353 
L 105.570551 -75.851 
L 108.120897 -78.278469 
L 110.671244 -80.628014 
L 113.22159 -82.969352 
L 115.771936 -85.31069 
L 118.322282 -87.652028 
L 120.872628 -89.993367 
L 123.422975 -92.334705 
L 125.973321 -94.676043 
L 128.523667 -97.021845 
L 131.074013 -99.588676 
L 133.62436 -102.196599 
L 136.174706 -104.604234 
L 138.725052 -107.134195 
L 141.275398 -109.664156 
L 143.825744 -112.194118 
L 146.376091 -114.70216 
L 148.926437 -117.128346 
L 151.476783 -119.554532 
L 154.027129 -121.980718 
L 156.577476 -124.406904 
L 159.127822 -126.83309 
L 161.678168 -129.259507 
L 164.228514 -131.689761 
L 166.77886 -134.122759 
L 169.329207 -136.555756 
L 171.879553 -138.988754 
L 174.429899 -141.421751 
L 176.980245 -143.854749 
L 179.530592 -146.262491 
L 182.080938 -148.563208 
L 184.631284 -150.863925 
L 187.18163 -153.164642 
L 189.731976 -155.56308 
L 192.282323 -158.032119 
L 194.832669 -160.256391 
L 197.383015 -162.48879 
L 199.933361 -164.704027 
L 202.483708 -167.217365 
L 205.034054 -169.502019 
L 207.5844 -171.519035 
L 210.134746 -173.808061 
L 212.685092 -176.10334 
L 215.235439 -178.385563 
L 217.785785 -180.42257 
L 220.336131 -182.459577 
L 222.886477 -184.653577 
L 225.436824 -187.100904 
L 227.98717 -189.617072 
L 230.537516 -191.651049 
L 233.087862 -193.893918 
L 235.638208 -196.166645 
L 238.188555 -198.358814 
L 240.738901 -200.470775 
L 243.289247 -203.000515 
L 245.839593 -205.114635 
L 248.38994 -207.029597 
L 250.940286 -208.937149 
L 253.490632 -210.823111 
L 256.040978 -212.7597 
L 258.591324 -214.669468 
L 261.141671 -216.676023 
L 263.692017 -218.492031 
L 266.242363 -220.260369 
L 268.792709 -221.740182 
L 271.343056 -223.474243 
L 273.893402 -225.411306 
L 276.443748 -227.029202 
L 278.994094 -228.634698 
L 281.54444 -230.101929 
L 284.094787 -231.569443 
L 286.645133 -233.251259 
L 289.195479 -235.103229 
L 291.745825 -236.726766 
L 294.296172 -238.33944 
L 296.846518 -239.851284 
L 299.396864 -241.34624 
L 301.94721 -242.837719 
L 304.497556 -244.222515 
L 307.047903 -245.624275 
L 309.598249 -247.291289 
L 312.148595 -248.80522 
L 314.698941 -250.222517 
L 317.249288 -251.673633 
L 319.799634 -253.240909 
L 322.34998 -254.733443 
L 324.900326 -256.148353 
L 327.450672 -257.530211 
L 330.001019 -258.912068 
L 332.551365 -260.293926 
L 335.101711 -261.675783 
L 337.652057 -263.058165 
L 340.202404 -264.441237 
L 342.75275 -265.824844 
L 342.75275 -306.821216 
L 342.75275 -306.821216 
L 340.202404 -304.530311 
L 337.652057 -302.241987 
L 335.101711 -299.950967 
L 332.551365 -297.730762 
L 330.001019 -295.503686 
L 327.450672 -293.097591 
L 324.900326 -291.019087 
L 322.34998 -288.952507 
L 319.799634 -286.494435 
L 317.249288 -284.41776 
L 314.698941 -282.13512 
L 312.148595 -280.188517 
L 309.598249 -277.7857 
L 307.047903 -275.453625 
L 304.497556 -273.417798 
L 301.94721 -271.118182 
L 299.396864 -269.135716 
L 296.846518 -267.118977 
L 294.296172 -265.107114 
L 291.745825 -263.104808 
L 289.195479 -261.074874 
L 286.645133 -258.879499 
L 284.094787 -257.002458 
L 281.54444 -255.029956 
L 278.994094 -253.213526 
L 276.443748 -251.289808 
L 273.893402 -249.435969 
L 271.343056 -247.441726 
L 268.792709 -245.561298 
L 266.242363 -243.430837 
L 263.692017 -241.448739 
L 261.141671 -239.815223 
L 258.591324 -237.85781 
L 256.040978 -236.167754 
L 253.490632 -234.030512 
L 250.940286 -232.287018 
L 248.38994 -230.475128 
L 245.839593 -228.867087 
L 243.289247 -227.166375 
L 240.738901 -225.409275 
L 238.188555 -223.720155 
L 235.638208 -222.032838 
L 233.087862 -220.316872 
L 230.537516 -218.605246 
L 227.98717 -216.912922 
L 225.436824 -215.279887 
L 222.886477 -213.589266 
L 220.336131 -212.003706 
L 217.785785 -210.112934 
L 215.235439 -208.485569 
L 212.685092 -206.837879 
L 210.134746 -205.214772 
L 207.5844 -203.852809 
L 205.034054 -202.370603 
L 202.483708 -200.549344 
L 199.933361 -198.723651 
L 197.383015 -196.897958 
L 194.832669 -195.208527 
L 192.282323 -193.674866 
L 189.731976 -191.887323 
L 187.18163 -190.095156 
L 184.631284 -188.439293 
L 182.080938 -186.829275 
L 179.530592 -185.279225 
L 176.980245 -183.69734 
L 174.429899 -182.190875 
L 171.879553 -180.627162 
L 169.329207 -179.063449 
L 166.77886 -177.45867 
L 164.228514 -175.69902 
L 161.678168 -174.204115 
L 159.127822 -172.771944 
L 156.577476 -171.184878 
L 154.027129 -169.596976 
L 151.476783 -168.009075 
L 148.926437 -166.522181 
L 146.376091 -165.075712 
L 143.825744 -163.656031 
L 141.275398 -162.20031 
L 138.725052 -160.732575 
L 136.174706 -159.349916 
L 133.62436 -158.020122 
L 131.074013 -156.687065 
L 128.523667 -155.235709 
L 125.973321 -153.544595 
L 123.422975 -151.983899 
L 120.872628 -150.35996 
L 118.322282 -148.933976 
L 115.771936 -147.362773 
L 113.22159 -145.809554 
L 110.671244 -144.355721 
L 108.120897 -142.901889 
L 105.570551 -141.578076 
L 103.020205 -140.32291 
L 100.469859 -138.997931 
L 97.919512 -137.554199 
L 95.369166 -136.110467 
L 92.81882 -134.69483 
L 90.268474 -133.387177 
z
" style="stroke: #ffffff; stroke-opacity: 0.15"/>
    </defs>
    <g clip-path="url(#p2b9a8a9fd9)">
     <use xlink:href="#m1880d68201" x="0" y="360" style="fill: #dd8452; fill-opacity: 0.15; stroke: #ffffff; stroke-opacity: 0.15"/>
    </g>
   </g>
   <g id="PathCollection_3">
    <defs>
     <path id="ma08449494f" d="M 0 3 
C 0.795609 3 1.55874 2.683901 2.12132 2.12132 
C 2.683901 1.55874 3 0.795609 3 0 
C 3 -0.795609 2.683901 -1.55874 2.12132 -2.12132 
C 1.55874 -2.683901 0.795609 -3 0 -3 
C -0.795609 -3 -1.55874 -2.683901 -2.12132 -2.12132 
C -2.683901 -1.55874 -3 -0.795609 -3 0 
C -3 0.795609 -2.683901 1.55874 -2.12132 2.12132 
C -1.55874 2.683901 -0.795609 3 0 3 
z
" style="stroke: #55a868; stroke-opacity: 0.8"/>
    </defs>
    <g clip-path="url(#p2b9a8a9fd9)">
     <use xlink:href="#ma08449494f" x="90.268474" y="190.66466" style="fill: #55a868; fill-opacity: 0.8; stroke: #55a868; stroke-opacity: 0.8"/>
     <use xlink:href="#ma08449494f" x="92.355121" y="186.850901" style="fill: #55a868; fill-opacity: 0.8; stroke: #55a868; stroke-opacity: 0.8"/>
     <use xlink:href="#ma08449494f" x="192.514172" y="177.528378" style="fill: #55a868; fill-opacity: 0.8; stroke: #55a868; stroke-opacity: 0.8"/>
     <use xlink:href="#ma08449494f" x="182.080938" y="171.701801" style="fill: #55a868; fill-opacity: 0.8; stroke: #55a868; stroke-opacity: 0.8"/>
     <use xlink:href="#ma08449494f" x="94.859097" y="135.735931" style="fill: #55a868; fill-opacity: 0.8; stroke: #55a868; stroke-opacity: 0.8"/>
     <use xlink:href="#ma08449494f" x="182.080938" y="121.699178" style="fill: #55a868; fill-opacity: 0.8; stroke: #55a868; stroke-opacity: 0.8"/>
     <use xlink:href="#ma08449494f" x="311.453046" y="121.646209" style="fill: #55a868; fill-opacity: 0.8; stroke: #55a868; stroke-opacity: 0.8"/>
     <use xlink:href="#ma08449494f" x="256.040978" y="104.272417" style="fill: #55a868; fill-opacity: 0.8; stroke: #55a868; stroke-opacity: 0.8"/>
     <use xlink:href="#ma08449494f" x="296.846518" y="104.219448" style="fill: #55a868; fill-opacity: 0.8; stroke: #55a868; stroke-opacity: 0.8"/>
     <use xlink:href="#ma08449494f" x="296.199951" y="82.3433" style="fill: #55a868; fill-opacity: 0.8; stroke: #55a868; stroke-opacity: 0.8"/>
     <use xlink:href="#ma08449494f" x="301.437141" y="82.290331" style="fill: #55a868; fill-opacity: 0.8; stroke: #55a868; stroke-opacity: 0.8"/>
     <use xlink:href="#ma08449494f" x="327.450672" y="54.322763" style="fill: #55a868; fill-opacity: 0.8; stroke: #55a868; stroke-opacity: 0.8"/>
     <use xlink:href="#ma08449494f" x="314.742168" y="54.269794" style="fill: #55a868; fill-opacity: 0.8; stroke: #55a868; stroke-opacity: 0.8"/>
     <use xlink:href="#ma08449494f" x="338.237383" y="54.216825" style="fill: #55a868; fill-opacity: 0.8; stroke: #55a868; stroke-opacity: 0.8"/>
     <use xlink:href="#ma08449494f" x="342.75275" y="47.754621" style="fill: #55a868; fill-opacity: 0.8; stroke: #55a868; stroke-opacity: 0.8"/>
     <use xlink:href="#ma08449494f" x="337.834225" y="47.701653" style="fill: #55a868; fill-opacity: 0.8; stroke: #55a868; stroke-opacity: 0.8"/>
     <use xlink:href="#ma08449494f" x="342.75275" y="47.648684" style="fill: #55a868; fill-opacity: 0.8; stroke: #55a868; stroke-opacity: 0.8"/>
    </g>
   </g>
   <g id="FillBetweenPolyCollection_3">
    <defs>
     <path id="m17f0a4d3a6" d="M 90.268474 -206.639835 
L 90.268474 -119.078517 
L 92.81882 -121.047428 
L 95.369166 -123.016338 
L 97.919512 -124.985249 
L 100.469859 -126.955135 
L 103.020205 -128.925229 
L 105.570551 -130.895323 
L 108.120897 -132.865416 
L 110.671244 -134.832535 
L 113.22159 -136.746817 
L 115.771936 -138.687084 
L 118.322282 -140.691908 
L 120.872628 -142.696732 
L 123.422975 -144.678148 
L 125.973321 -146.645859 
L 128.523667 -148.61357 
L 131.074013 -150.581281 
L 133.62436 -152.549993 
L 136.174706 -154.518904 
L 138.725052 -156.487814 
L 141.275398 -158.456725 
L 143.825744 -160.425635 
L 146.376091 -162.361982 
L 148.926437 -164.293913 
L 151.476783 -166.225844 
L 154.027129 -168.157775 
L 156.577476 -170.089706 
L 159.127822 -172.021637 
L 161.678168 -173.953568 
L 164.228514 -175.8861 
L 166.77886 -177.820067 
L 169.329207 -179.754034 
L 171.879553 -181.715432 
L 174.429899 -183.649425 
L 176.980245 -185.583417 
L 179.530592 -187.517409 
L 182.080938 -189.409015 
L 184.631284 -191.340946 
L 187.18163 -193.272877 
L 189.731976 -195.204808 
L 192.282323 -197.160049 
L 194.832669 -199.119199 
L 197.383015 -201.055356 
L 199.933361 -202.989348 
L 202.483708 -204.923341 
L 205.034054 -206.857333 
L 207.5844 -208.751715 
L 210.134746 -210.65188 
L 212.685092 -212.585103 
L 215.235439 -214.566561 
L 217.785785 -216.527295 
L 220.336131 -218.463003 
L 222.886477 -220.448079 
L 225.436824 -222.447646 
L 227.98717 -224.447213 
L 230.537516 -226.345106 
L 233.087862 -228.138973 
L 235.638208 -230.082221 
L 238.188555 -231.863641 
L 240.738901 -233.467084 
L 243.289247 -235.229416 
L 245.839593 -236.92417 
L 248.38994 -238.782391 
L 250.940286 -240.421175 
L 253.490632 -242.195914 
L 256.040978 -243.57611 
L 258.591324 -245.182946 
L 261.141671 -246.491028 
L 263.692017 -248.312759 
L 266.242363 -249.802264 
L 268.792709 -251.277221 
L 271.343056 -252.66763 
L 273.893402 -254.257452 
L 276.443748 -255.537599 
L 278.994094 -256.692673 
L 281.54444 -257.958471 
L 284.094787 -259.099532 
L 286.645133 -260.288973 
L 289.195479 -261.662204 
L 291.745825 -262.996013 
L 294.296172 -264.247829 
L 296.846518 -265.525544 
L 299.396864 -266.772451 
L 301.94721 -267.860813 
L 304.497556 -269.064519 
L 307.047903 -270.299018 
L 309.598249 -271.319061 
L 312.148595 -272.471006 
L 314.698941 -273.520591 
L 317.249288 -274.535423 
L 319.799634 -275.619324 
L 322.34998 -276.667253 
L 324.900326 -277.700135 
L 327.450672 -278.770143 
L 330.001019 -279.818001 
L 332.551365 -280.865858 
L 335.101711 -281.913716 
L 337.652057 -282.963902 
L 340.202404 -284.013345 
L 342.75275 -285.065728 
L 342.75275 -313.284556 
L 342.75275 -313.284556 
L 340.202404 -311.635716 
L 337.652057 -310.02421 
L 335.101711 -308.637229 
L 332.551365 -307.101135 
L 330.001019 -305.753917 
L 327.450672 -304.298585 
L 324.900326 -302.836486 
L 322.34998 -301.370619 
L 319.799634 -299.896799 
L 317.249288 -298.4208 
L 314.698941 -297.100883 
L 312.148595 -295.90695 
L 309.598249 -294.499599 
L 307.047903 -293.191474 
L 304.497556 -291.942012 
L 301.94721 -290.552641 
L 299.396864 -289.241085 
L 296.846518 -287.99403 
L 294.296172 -286.708389 
L 291.745825 -285.414236 
L 289.195479 -284.157434 
L 286.645133 -282.940039 
L 284.094787 -281.592829 
L 281.54444 -280.426585 
L 278.994094 -279.359373 
L 276.443748 -278.279981 
L 273.893402 -277.188814 
L 271.343056 -276.106061 
L 268.792709 -274.964271 
L 266.242363 -273.794135 
L 263.692017 -272.741005 
L 261.141671 -271.719926 
L 258.591324 -270.6395 
L 256.040978 -269.587514 
L 253.490632 -268.538377 
L 250.940286 -267.490465 
L 248.38994 -266.437938 
L 245.839593 -265.384174 
L 243.289247 -264.335258 
L 240.738901 -263.286343 
L 238.188555 -262.237427 
L 235.638208 -261.188512 
L 233.087862 -260.139596 
L 230.537516 -259.15363 
L 227.98717 -258.171991 
L 225.436824 -257.190351 
L 222.886477 -256.208711 
L 220.336131 -255.227071 
L 217.785785 -254.245432 
L 215.235439 -253.263792 
L 212.685092 -252.278569 
L 210.134746 -251.293936 
L 207.5844 -250.22586 
L 205.034054 -249.252132 
L 202.483708 -248.23363 
L 199.933361 -247.128306 
L 197.383015 -246.022982 
L 194.832669 -245.087078 
L 192.282323 -244.382557 
L 189.731976 -243.409766 
L 187.18163 -242.436038 
L 184.631284 -241.46231 
L 182.080938 -240.488583 
L 179.530592 -239.514855 
L 176.980245 -238.539833 
L 174.429899 -237.559009 
L 171.879553 -236.575948 
L 169.329207 -235.541978 
L 166.77886 -234.615763 
L 164.228514 -233.635713 
L 161.678168 -232.660668 
L 159.127822 -231.726473 
L 156.577476 -230.754037 
L 154.027129 -229.781602 
L 151.476783 -228.809166 
L 148.926437 -227.949639 
L 146.376091 -227.085953 
L 143.825744 -226.157832 
L 141.275398 -225.228615 
L 138.725052 -224.299399 
L 136.174706 -223.370183 
L 133.62436 -222.440967 
L 131.074013 -221.51175 
L 128.523667 -220.582534 
L 125.973321 -219.653318 
L 123.422975 -218.724102 
L 120.872628 -217.794886 
L 118.322282 -216.865669 
L 115.771936 -215.936453 
L 113.22159 -215.007237 
L 110.671244 -214.078021 
L 108.120897 -213.148804 
L 105.570551 -212.219588 
L 103.020205 -211.290372 
L 100.469859 -210.360524 
L 97.919512 -209.430351 
L 95.369166 -208.500179 
L 92.81882 -207.570007 
L 90.268474 -206.639835 
z
" style="stroke: #ffffff; stroke-opacity: 0.15"/>
    </defs>
    <g clip-path="url(#p2b9a8a9fd9)">
     <use xlink:href="#m17f0a4d3a6" x="0" y="360" style="fill: #55a868; fill-opacity: 0.15; stroke: #ffffff; stroke-opacity: 0.15"/>
    </g>
   </g>
   <g id="PathCollection_4">
    <defs>
     <path id="m5c63b9f4d3" d="M 0 3 
C 0.795609 3 1.55874 2.683901 2.12132 2.12132 
C 2.683901 1.55874 3 0.795609 3 0 
C 3 -0.795609 2.683901 -1.55874 2.12132 -2.12132 
C 1.55874 -2.683901 0.795609 -3 0 -3 
C -0.795609 -3 -1.55874 -2.683901 -2.12132 -2.12132 
C -2.683901 -1.55874 -3 -0.795609 -3 0 
C -3 0.795609 -2.683901 1.55874 -2.12132 2.12132 
C -1.55874 2.683901 -0.795609 3 0 3 
z
" style="stroke: #c44e52; stroke-opacity: 0.8"/>
    </defs>
    <g clip-path="url(#p2b9a8a9fd9)">
     <use xlink:href="#m5c63b9f4d3" x="92.355121" y="198.292179" style="fill: #c44e52; fill-opacity: 0.8; stroke: #c44e52; stroke-opacity: 0.8"/>
     <use xlink:href="#m5c63b9f4d3" x="220.336131" y="186.5119" style="fill: #c44e52; fill-opacity: 0.8; stroke: #c44e52; stroke-opacity: 0.8"/>
     <use xlink:href="#m5c63b9f4d3" x="159.127822" y="181.172637" style="fill: #c44e52; fill-opacity: 0.8; stroke: #c44e52; stroke-opacity: 0.8"/>
     <use xlink:href="#m5c63b9f4d3" x="97.919512" y="146.425052" style="fill: #c44e52; fill-opacity: 0.8; stroke: #c44e52; stroke-opacity: 0.8"/>
     <use xlink:href="#m5c63b9f4d3" x="217.553935" y="132.102266" style="fill: #c44e52; fill-opacity: 0.8; stroke: #c44e52; stroke-opacity: 0.8"/>
     <use xlink:href="#m5c63b9f4d3" x="242.593698" y="132.081079" style="fill: #c44e52; fill-opacity: 0.8; stroke: #c44e52; stroke-opacity: 0.8"/>
     <use xlink:href="#m5c63b9f4d3" x="330.232868" y="132.059891" style="fill: #c44e52; fill-opacity: 0.8; stroke: #c44e52; stroke-opacity: 0.8"/>
     <use xlink:href="#m5c63b9f4d3" x="220.336131" y="113.796221" style="fill: #c44e52; fill-opacity: 0.8; stroke: #c44e52; stroke-opacity: 0.8"/>
     <use xlink:href="#m5c63b9f4d3" x="264.911748" y="113.775034" style="fill: #c44e52; fill-opacity: 0.8; stroke: #c44e52; stroke-opacity: 0.8"/>
     <use xlink:href="#m5c63b9f4d3" x="303.404551" y="113.753846" style="fill: #c44e52; fill-opacity: 0.8; stroke: #c44e52; stroke-opacity: 0.8"/>
     <use xlink:href="#m5c63b9f4d3" x="273.893402" y="89.939038" style="fill: #c44e52; fill-opacity: 0.8; stroke: #c44e52; stroke-opacity: 0.8"/>
     <use xlink:href="#m5c63b9f4d3" x="292.673224" y="89.91785" style="fill: #c44e52; fill-opacity: 0.8; stroke: #c44e52; stroke-opacity: 0.8"/>
     <use xlink:href="#m5c63b9f4d3" x="310.348351" y="89.896663" style="fill: #c44e52; fill-opacity: 0.8; stroke: #c44e52; stroke-opacity: 0.8"/>
     <use xlink:href="#m5c63b9f4d3" x="287.665271" y="89.875475" style="fill: #c44e52; fill-opacity: 0.8; stroke: #c44e52; stroke-opacity: 0.8"/>
     <use xlink:href="#m5c63b9f4d3" x="316.520617" y="58.072959" style="fill: #c44e52; fill-opacity: 0.8; stroke: #c44e52; stroke-opacity: 0.8"/>
     <use xlink:href="#m5c63b9f4d3" x="342.75275" y="58.051772" style="fill: #c44e52; fill-opacity: 0.8; stroke: #c44e52; stroke-opacity: 0.8"/>
     <use xlink:href="#m5c63b9f4d3" x="312.148595" y="58.030584" style="fill: #c44e52; fill-opacity: 0.8; stroke: #c44e52; stroke-opacity: 0.8"/>
     <use xlink:href="#m5c63b9f4d3" x="304.497556" y="58.009397" style="fill: #c44e52; fill-opacity: 0.8; stroke: #c44e52; stroke-opacity: 0.8"/>
     <use xlink:href="#m5c63b9f4d3" x="342.75275" y="57.988209" style="fill: #c44e52; fill-opacity: 0.8; stroke: #c44e52; stroke-opacity: 0.8"/>
     <use xlink:href="#m5c63b9f4d3" x="342.75275" y="57.967022" style="fill: #c44e52; fill-opacity: 0.8; stroke: #c44e52; stroke-opacity: 0.8"/>
     <use xlink:href="#m5c63b9f4d3" x="342.75275" y="50.403065" style="fill: #c44e52; fill-opacity: 0.8; stroke: #c44e52; stroke-opacity: 0.8"/>
     <use xlink:href="#m5c63b9f4d3" x="342.75275" y="50.381878" style="fill: #c44e52; fill-opacity: 0.8; stroke: #c44e52; stroke-opacity: 0.8"/>
     <use xlink:href="#m5c63b9f4d3" x="342.75275" y="50.36069" style="fill: #c44e52; fill-opacity: 0.8; stroke: #c44e52; stroke-opacity: 0.8"/>
     <use xlink:href="#m5c63b9f4d3" x="331.735254" y="50.339503" style="fill: #c44e52; fill-opacity: 0.8; stroke: #c44e52; stroke-opacity: 0.8"/>
     <use xlink:href="#m5c63b9f4d3" x="342.75275" y="50.318315" style="fill: #c44e52; fill-opacity: 0.8; stroke: #c44e52; stroke-opacity: 0.8"/>
    </g>
   </g>
   <g id="FillBetweenPolyCollection_4">
    <defs>
     <path id="mc4e19d5e6c" d="M 92.355121 -194.32528 
L 92.355121 -123.124519 
L 94.88439 -124.988808 
L 97.413659 -126.853096 
L 99.942928 -128.717384 
L 102.472197 -130.581672 
L 105.001466 -132.44596 
L 107.530735 -134.310248 
L 110.060004 -136.174536 
L 112.589273 -138.038824 
L 115.118542 -139.903113 
L 117.647811 -141.767401 
L 120.177079 -143.631689 
L 122.706348 -145.495977 
L 125.235617 -147.360265 
L 127.764886 -149.224553 
L 130.294155 -151.088841 
L 132.823424 -152.953129 
L 135.352693 -154.817418 
L 137.881962 -156.681706 
L 140.411231 -158.545994 
L 142.9405 -160.410282 
L 145.469769 -162.27457 
L 147.999038 -164.138858 
L 150.528307 -166.003146 
L 153.057576 -167.867435 
L 155.586845 -169.643018 
L 158.116114 -171.359089 
L 160.645383 -173.075159 
L 163.174652 -174.79123 
L 165.703921 -176.507301 
L 168.23319 -178.372581 
L 170.762459 -180.244267 
L 173.291728 -182.115954 
L 175.820997 -183.98764 
L 178.350266 -185.845562 
L 180.879535 -187.60664 
L 183.408804 -189.368103 
L 185.938073 -191.028892 
L 188.467342 -192.632957 
L 190.996611 -194.288647 
L 193.52588 -196.208106 
L 196.055149 -198.127662 
L 198.584418 -199.948544 
L 201.113687 -201.714486 
L 203.642956 -203.480428 
L 206.172225 -205.24637 
L 208.701494 -206.976383 
L 211.230763 -208.773934 
L 213.760032 -210.535233 
L 216.289301 -212.296532 
L 218.81857 -214.057832 
L 221.347839 -215.819131 
L 223.877108 -217.576684 
L 226.406377 -219.170184 
L 228.935646 -221.050205 
L 231.464915 -222.864329 
L 233.994184 -224.504138 
L 236.523453 -226.322989 
L 239.052722 -228.149382 
L 241.581991 -229.9153 
L 244.11126 -231.630055 
L 246.640529 -233.445817 
L 249.169798 -235.256583 
L 251.699066 -237.173571 
L 254.228335 -238.905284 
L 256.757604 -240.825081 
L 259.286873 -242.744879 
L 261.816142 -244.428365 
L 264.345411 -246.245724 
L 266.87468 -247.865099 
L 269.403949 -249.493263 
L 271.933218 -251.113791 
L 274.462487 -252.735267 
L 276.991756 -254.282412 
L 279.521025 -255.635941 
L 282.050294 -257.113587 
L 284.579563 -258.841162 
L 287.108832 -260.346396 
L 289.638101 -261.787878 
L 292.16737 -263.576177 
L 294.696639 -264.704323 
L 297.225908 -266.307923 
L 299.755177 -267.689348 
L 302.284446 -268.953907 
L 304.813715 -270.613866 
L 307.342984 -271.802384 
L 309.872253 -273.231066 
L 312.401522 -274.199128 
L 314.930791 -275.35375 
L 317.46006 -276.603954 
L 319.989329 -277.830427 
L 322.518598 -278.936776 
L 325.047867 -280.053477 
L 327.577136 -281.298224 
L 330.106405 -282.473553 
L 332.635674 -283.607027 
L 335.164943 -284.729357 
L 337.694212 -285.855262 
L 340.223481 -287.086091 
L 342.75275 -288.384891 
L 342.75275 -310.638483 
L 342.75275 -310.638483 
L 340.223481 -308.913568 
L 337.694212 -307.380082 
L 335.164943 -305.79842 
L 332.635674 -304.112597 
L 330.106405 -302.566548 
L 327.577136 -300.94171 
L 325.047867 -299.388214 
L 322.518598 -297.945017 
L 319.989329 -296.439702 
L 317.46006 -294.90683 
L 314.930791 -293.353437 
L 312.401522 -291.830638 
L 309.872253 -290.258905 
L 307.342984 -288.754744 
L 304.813715 -287.401224 
L 302.284446 -285.876928 
L 299.755177 -284.410723 
L 297.225908 -283.042331 
L 294.696639 -281.637638 
L 292.16737 -280.230065 
L 289.638101 -279.01163 
L 287.108832 -277.827464 
L 284.579563 -276.485581 
L 282.050294 -275.121524 
L 279.521025 -273.816611 
L 276.991756 -272.542266 
L 274.462487 -271.345744 
L 271.933218 -269.990122 
L 269.403949 -268.843042 
L 266.87468 -267.651992 
L 264.345411 -266.591491 
L 261.816142 -265.424819 
L 259.286873 -264.388537 
L 256.757604 -263.37528 
L 254.228335 -262.227115 
L 251.699066 -261.094789 
L 249.169798 -260.015419 
L 246.640529 -258.93149 
L 244.11126 -257.848658 
L 241.581991 -256.62368 
L 239.052722 -255.461999 
L 236.523453 -254.329498 
L 233.994184 -253.2773 
L 231.464915 -252.319444 
L 228.935646 -251.355606 
L 226.406377 -250.09138 
L 223.877108 -248.816338 
L 221.347839 -247.541296 
L 218.81857 -246.412857 
L 216.289301 -245.385631 
L 213.760032 -244.379828 
L 211.230763 -243.374026 
L 208.701494 -242.368223 
L 206.172225 -241.360984 
L 203.642956 -240.399793 
L 201.113687 -239.350814 
L 198.584418 -238.345012 
L 196.055149 -237.290251 
L 193.52588 -236.210168 
L 190.996611 -235.130084 
L 188.467342 -234.05 
L 185.938073 -232.968568 
L 183.408804 -231.885879 
L 180.879535 -231.051904 
L 178.350266 -229.953121 
L 175.820997 -228.843058 
L 173.291728 -227.732995 
L 170.762459 -226.628044 
L 168.23319 -225.517047 
L 165.703921 -224.411168 
L 163.174652 -223.305289 
L 160.645383 -222.197001 
L 158.116114 -221.102895 
L 155.586845 -220.122909 
L 153.057576 -219.093595 
L 150.528307 -218.091999 
L 147.999038 -217.090402 
L 145.469769 -216.088805 
L 142.9405 -215.084206 
L 140.411231 -214.061283 
L 137.881962 -212.933185 
L 135.352693 -212.073666 
L 132.823424 -211.074818 
L 130.294155 -210.070745 
L 127.764886 -209.065579 
L 125.235617 -207.968046 
L 122.706348 -206.870512 
L 120.177079 -205.772978 
L 117.647811 -204.675445 
L 115.118542 -203.577911 
L 112.589273 -202.480378 
L 110.060004 -201.382844 
L 107.530735 -200.285311 
L 105.001466 -199.187666 
L 102.472197 -198.140873 
L 99.942928 -197.186975 
L 97.413659 -196.233077 
L 94.88439 -195.279179 
L 92.355121 -194.32528 
z
" style="stroke: #ffffff; stroke-opacity: 0.15"/>
    </defs>
    <g clip-path="url(#p2b9a8a9fd9)">
     <use xlink:href="#mc4e19d5e6c" x="0" y="360" style="fill: #c44e52; fill-opacity: 0.15; stroke: #ffffff; stroke-opacity: 0.15"/>
    </g>
   </g>
   <g id="line2d_12">
    <path d="M 92.355121 205.088055 
L 94.763425 203.48067 
L 97.171729 201.873285 
L 99.580033 200.2659 
L 101.988336 198.658515 
L 104.39664 197.05113 
L 106.804944 195.443745 
L 109.213248 193.83636 
L 111.621552 192.228975 
L 114.029856 190.62159 
L 116.43816 189.014205 
L 118.846464 187.40682 
L 121.254768 185.799435 
L 123.663072 184.19205 
L 126.071376 182.584665 
L 128.47968 180.97728 
L 130.887984 179.369895 
L 133.296288 177.762511 
L 135.704592 176.155126 
L 138.112896 174.547741 
L 140.5212 172.940356 
L 142.929504 171.332971 
L 145.337807 169.725586 
L 147.746111 168.118201 
L 150.154415 166.510816 
L 152.562719 164.903431 
L 154.971023 163.296046 
L 157.379327 161.688661 
L 159.787631 160.081276 
L 162.195935 158.473891 
L 164.604239 156.866506 
L 167.012543 155.259121 
L 169.420847 153.651736 
L 171.829151 152.044351 
L 174.237455 150.436966 
L 176.645759 148.829581 
L 179.054063 147.222196 
L 181.462367 145.614811 
L 183.870671 144.007426 
L 186.278974 142.400041 
L 188.687278 140.792656 
L 191.095582 139.185271 
L 193.503886 137.577886 
L 195.91219 135.970501 
L 198.320494 134.363116 
L 200.728798 132.755731 
L 203.137102 131.148346 
L 205.545406 129.540961 
L 207.95371 127.933576 
L 210.362014 126.326191 
L 212.770318 124.718806 
L 215.178622 123.111421 
L 217.586926 121.504036 
L 219.99523 119.896651 
L 222.403534 118.289266 
L 224.811838 116.681881 
L 227.220141 115.074496 
L 229.628445 113.467111 
L 232.036749 111.859726 
L 234.445053 110.252341 
L 236.853357 108.644956 
L 239.261661 107.037571 
L 241.669965 105.430186 
L 244.078269 103.822801 
L 246.486573 102.215416 
L 248.894877 100.608031 
L 251.303181 99.000646 
L 253.711485 97.393261 
L 256.119789 95.785877 
L 258.528093 94.178492 
L 260.936397 92.571107 
L 263.344701 90.963722 
L 265.753005 89.356337 
L 268.161309 87.748952 
L 270.569612 86.141567 
L 272.977916 84.534182 
L 275.38622 82.926797 
L 277.794524 81.319412 
L 280.202828 79.712027 
L 282.611132 78.104642 
L 285.019436 76.497257 
L 287.42774 74.889872 
L 289.836044 73.282487 
L 292.244348 71.675102 
L 294.652652 70.067717 
L 297.060956 68.460332 
L 299.46926 66.852947 
L 301.877564 65.245562 
L 304.285868 63.638177 
L 306.694172 62.030792 
L 309.102476 60.423407 
L 311.510779 58.816022 
L 313.919083 57.208637 
L 316.327387 55.601252 
L 318.735691 53.993867 
L 321.143995 52.386482 
L 323.552299 50.779097 
L 325.960603 49.171712 
L 328.368907 47.564327 
L 330.777211 45.956942 
" clip-path="url(#p2b9a8a9fd9)" style="fill: none; stroke: #4c72b0; stroke-width: 2.25; stroke-linecap: round"/>
   </g>
   <g id="line2d_13">
    <path d="M 90.268474 252.589488 
L 92.81882 250.775292 
L 95.369166 248.961097 
L 97.919512 247.146901 
L 100.469859 245.332706 
L 103.020205 243.51851 
L 105.570551 241.704314 
L 108.120897 239.890119 
L 110.671244 238.075923 
L 113.22159 236.261728 
L 115.771936 234.447532 
L 118.322282 232.633336 
L 120.872628 230.819141 
L 123.422975 229.004945 
L 125.973321 227.19075 
L 128.523667 225.376554 
L 131.074013 223.562358 
L 133.62436 221.748163 
L 136.174706 219.933967 
L 138.725052 218.119772 
L 141.275398 216.305576 
L 143.825744 214.49138 
L 146.376091 212.677185 
L 148.926437 210.862989 
L 151.476783 209.048794 
L 154.027129 207.234598 
L 156.577476 205.420402 
L 159.127822 203.606207 
L 161.678168 201.792011 
L 164.228514 199.977816 
L 166.77886 198.16362 
L 169.329207 196.349424 
L 171.879553 194.535229 
L 174.429899 192.721033 
L 176.980245 190.906837 
L 179.530592 189.092642 
L 182.080938 187.278446 
L 184.631284 185.464251 
L 187.18163 183.650055 
L 189.731976 181.835859 
L 192.282323 180.021664 
L 194.832669 178.207468 
L 197.383015 176.393273 
L 199.933361 174.579077 
L 202.483708 172.764881 
L 205.034054 170.950686 
L 207.5844 169.13649 
L 210.134746 167.322295 
L 212.685092 165.508099 
L 215.235439 163.693903 
L 217.785785 161.879708 
L 220.336131 160.065512 
L 222.886477 158.251317 
L 225.436824 156.437121 
L 227.98717 154.622925 
L 230.537516 152.80873 
L 233.087862 150.994534 
L 235.638208 149.180339 
L 238.188555 147.366143 
L 240.738901 145.551947 
L 243.289247 143.737752 
L 245.839593 141.923556 
L 248.38994 140.109361 
L 250.940286 138.295165 
L 253.490632 136.480969 
L 256.040978 134.666774 
L 258.591324 132.852578 
L 261.141671 131.038382 
L 263.692017 129.224187 
L 266.242363 127.409991 
L 268.792709 125.595796 
L 271.343056 123.7816 
L 273.893402 121.967404 
L 276.443748 120.153209 
L 278.994094 118.339013 
L 281.54444 116.524818 
L 284.094787 114.710622 
L 286.645133 112.896426 
L 289.195479 111.082231 
L 291.745825 109.268035 
L 294.296172 107.45384 
L 296.846518 105.639644 
L 299.396864 103.825448 
L 301.94721 102.011253 
L 304.497556 100.197057 
L 307.047903 98.382862 
L 309.598249 96.568666 
L 312.148595 94.75447 
L 314.698941 92.940275 
L 317.249288 91.126079 
L 319.799634 89.311884 
L 322.34998 87.497688 
L 324.900326 85.683492 
L 327.450672 83.869297 
L 330.001019 82.055101 
L 332.551365 80.240906 
L 335.101711 78.42671 
L 337.652057 76.612514 
L 340.202404 74.798319 
L 342.75275 72.984123 
" clip-path="url(#p2b9a8a9fd9)" style="fill: none; stroke: #dd8452; stroke-width: 2.25; stroke-linecap: round"/>
   </g>
   <g id="line2d_14">
    <path d="M 90.268474 189.115525 
L 92.81882 187.748268 
L 95.369166 186.381011 
L 97.919512 185.013754 
L 100.469859 183.646497 
L 103.020205 182.279239 
L 105.570551 180.911982 
L 108.120897 179.544725 
L 110.671244 178.177468 
L 113.22159 176.810211 
L 115.771936 175.442954 
L 118.322282 174.075697 
L 120.872628 172.708439 
L 123.422975 171.341182 
L 125.973321 169.973925 
L 128.523667 168.606668 
L 131.074013 167.239411 
L 133.62436 165.872154 
L 136.174706 164.504897 
L 138.725052 163.137639 
L 141.275398 161.770382 
L 143.825744 160.403125 
L 146.376091 159.035868 
L 148.926437 157.668611 
L 151.476783 156.301354 
L 154.027129 154.934097 
L 156.577476 153.56684 
L 159.127822 152.199582 
L 161.678168 150.832325 
L 164.228514 149.465068 
L 166.77886 148.097811 
L 169.329207 146.730554 
L 171.879553 145.363297 
L 174.429899 143.99604 
L 176.980245 142.628782 
L 179.530592 141.261525 
L 182.080938 139.894268 
L 184.631284 138.527011 
L 187.18163 137.159754 
L 189.731976 135.792497 
L 192.282323 134.42524 
L 194.832669 133.057982 
L 197.383015 131.690725 
L 199.933361 130.323468 
L 202.483708 128.956211 
L 205.034054 127.588954 
L 207.5844 126.221697 
L 210.134746 124.85444 
L 212.685092 123.487182 
L 215.235439 122.119925 
L 217.785785 120.752668 
L 220.336131 119.385411 
L 222.886477 118.018154 
L 225.436824 116.650897 
L 227.98717 115.28364 
L 230.537516 113.916382 
L 233.087862 112.549125 
L 235.638208 111.181868 
L 238.188555 109.814611 
L 240.738901 108.447354 
L 243.289247 107.080097 
L 245.839593 105.71284 
L 248.38994 104.345582 
L 250.940286 102.978325 
L 253.490632 101.611068 
L 256.040978 100.243811 
L 258.591324 98.876554 
L 261.141671 97.509297 
L 263.692017 96.14204 
L 266.242363 94.774783 
L 268.792709 93.407525 
L 271.343056 92.040268 
L 273.893402 90.673011 
L 276.443748 89.305754 
L 278.994094 87.938497 
L 281.54444 86.57124 
L 284.094787 85.203983 
L 286.645133 83.836725 
L 289.195479 82.469468 
L 291.745825 81.102211 
L 294.296172 79.734954 
L 296.846518 78.367697 
L 299.396864 77.00044 
L 301.94721 75.633183 
L 304.497556 74.265925 
L 307.047903 72.898668 
L 309.598249 71.531411 
L 312.148595 70.164154 
L 314.698941 68.796897 
L 317.249288 67.42964 
L 319.799634 66.062383 
L 322.34998 64.695125 
L 324.900326 63.327868 
L 327.450672 61.960611 
L 330.001019 60.593354 
L 332.551365 59.226097 
L 335.101711 57.85884 
L 337.652057 56.491583 
L 340.202404 55.124325 
L 342.75275 53.757068 
" clip-path="url(#p2b9a8a9fd9)" style="fill: none; stroke: #55a868; stroke-width: 2.25; stroke-linecap: round"/>
   </g>
   <g id="line2d_15">
    <path d="M 92.355121 202.629125 
L 94.88439 201.157022 
L 97.413659 199.68492 
L 99.942928 198.212817 
L 102.472197 196.740714 
L 105.001466 195.268612 
L 107.530735 193.796509 
L 110.060004 192.324406 
L 112.589273 190.852304 
L 115.118542 189.380201 
L 117.647811 187.908099 
L 120.177079 186.435996 
L 122.706348 184.963893 
L 125.235617 183.491791 
L 127.764886 182.019688 
L 130.294155 180.547585 
L 132.823424 179.075483 
L 135.352693 177.60338 
L 137.881962 176.131277 
L 140.411231 174.659175 
L 142.9405 173.187072 
L 145.469769 171.714969 
L 147.999038 170.242867 
L 150.528307 168.770764 
L 153.057576 167.298662 
L 155.586845 165.826559 
L 158.116114 164.354456 
L 160.645383 162.882354 
L 163.174652 161.410251 
L 165.703921 159.938148 
L 168.23319 158.466046 
L 170.762459 156.993943 
L 173.291728 155.52184 
L 175.820997 154.049738 
L 178.350266 152.577635 
L 180.879535 151.105532 
L 183.408804 149.63343 
L 185.938073 148.161327 
L 188.467342 146.689225 
L 190.996611 145.217122 
L 193.52588 143.745019 
L 196.055149 142.272917 
L 198.584418 140.800814 
L 201.113687 139.328711 
L 203.642956 137.856609 
L 206.172225 136.384506 
L 208.701494 134.912403 
L 211.230763 133.440301 
L 213.760032 131.968198 
L 216.289301 130.496095 
L 218.81857 129.023993 
L 221.347839 127.55189 
L 223.877108 126.079788 
L 226.406377 124.607685 
L 228.935646 123.135582 
L 231.464915 121.66348 
L 233.994184 120.191377 
L 236.523453 118.719274 
L 239.052722 117.247172 
L 241.581991 115.775069 
L 244.11126 114.302966 
L 246.640529 112.830864 
L 249.169798 111.358761 
L 251.699066 109.886659 
L 254.228335 108.414556 
L 256.757604 106.942453 
L 259.286873 105.470351 
L 261.816142 103.998248 
L 264.345411 102.526145 
L 266.87468 101.054043 
L 269.403949 99.58194 
L 271.933218 98.109837 
L 274.462487 96.637735 
L 276.991756 95.165632 
L 279.521025 93.693529 
L 282.050294 92.221427 
L 284.579563 90.749324 
L 287.108832 89.277222 
L 289.638101 87.805119 
L 292.16737 86.333016 
L 294.696639 84.860914 
L 297.225908 83.388811 
L 299.755177 81.916708 
L 302.284446 80.444606 
L 304.813715 78.972503 
L 307.342984 77.5004 
L 309.872253 76.028298 
L 312.401522 74.556195 
L 314.930791 73.084092 
L 317.46006 71.61199 
L 319.989329 70.139887 
L 322.518598 68.667785 
L 325.047867 67.195682 
L 327.577136 65.723579 
L 330.106405 64.251477 
L 332.635674 62.779374 
L 335.164943 61.307271 
L 337.694212 59.835169 
L 340.223481 58.363066 
L 342.75275 56.890963 
" clip-path="url(#p2b9a8a9fd9)" style="fill: none; stroke: #c44e52; stroke-width: 2.25; stroke-linecap: round"/>
   </g>
   <g id="patch_3">
    <path d="M 77.64426 311.94 
L 77.64426 12.96 
" style="fill: none; stroke: #262626; stroke-width: 1.25; stroke-linejoin: miter; stroke-linecap: square"/>
   </g>
   <g id="patch_4">
    <path d="M 77.64426 311.94 
L 355.376964 311.94 
" style="fill: none; stroke: #262626; stroke-width: 1.25; stroke-linejoin: miter; stroke-linecap: square"/>
   </g>
  </g>
  <g id="legend_1">
   <g id="text_14">
    <!-- class -->
    <g style="fill: #262626" transform="translate(384.723594 151.9825) scale(0.12 -0.12)">
     <defs>
      <path id="ArialMT-6c" d="M 409 0 
L 409 4581 
L 972 4581 
L 972 0 
L 409 0 
z
" transform="scale(0.015625)"/>
      <path id="ArialMT-73" d="M 197 991 
L 753 1078 
Q 800 744 1014 566 
Q 1228 388 1613 388 
Q 2000 388 2187 545 
Q 2375 703 2375 916 
Q 2375 1106 2209 1216 
Q 2094 1291 1634 1406 
Q 1016 1563 777 1677 
Q 538 1791 414 1992 
Q 291 2194 291 2438 
Q 291 2659 392 2848 
Q 494 3038 669 3163 
Q 800 3259 1026 3326 
Q 1253 3394 1513 3394 
Q 1903 3394 2198 3281 
Q 2494 3169 2634 2976 
Q 2775 2784 2828 2463 
L 2278 2388 
Q 2241 2644 2061 2787 
Q 1881 2931 1553 2931 
Q 1166 2931 1000 2803 
Q 834 2675 834 2503 
Q 834 2394 903 2306 
Q 972 2216 1119 2156 
Q 1203 2125 1616 2013 
Q 2213 1853 2448 1751 
Q 2684 1650 2818 1456 
Q 2953 1263 2953 975 
Q 2953 694 2789 445 
Q 2625 197 2315 61 
Q 2006 -75 1616 -75 
Q 969 -75 630 194 
Q 291 463 197 991 
z
" transform="scale(0.015625)"/>
     </defs>
     <use xlink:href="#ArialMT-63"/>
     <use xlink:href="#ArialMT-6c" transform="translate(50 0)"/>
     <use xlink:href="#ArialMT-61" transform="translate(72.216797 0)"/>
     <use xlink:href="#ArialMT-73" transform="translate(127.832031 0)"/>
     <use xlink:href="#ArialMT-73" transform="translate(177.832031 0)"/>
    </g>
   </g>
   <g id="PathCollection_5">
    <g>
     <use xlink:href="#m1aa937ad0e" x="369.846562" y="164.853594" style="fill: #4c72b0; fill-opacity: 0.8; stroke: #4c72b0; stroke-opacity: 0.8"/>
    </g>
   </g>
   <g id="text_15">
    <!-- tool-cot -->
    <g style="fill: #262626" transform="translate(389.646562 167.741094) scale(0.11 -0.11)">
     <defs>
      <path id="ArialMT-74" d="M 1650 503 
L 1731 6 
Q 1494 -44 1306 -44 
Q 1000 -44 831 53 
Q 663 150 594 308 
Q 525 466 525 972 
L 525 2881 
L 113 2881 
L 113 3319 
L 525 3319 
L 525 4141 
L 1084 4478 
L 1084 3319 
L 1650 3319 
L 1650 2881 
L 1084 2881 
L 1084 941 
Q 1084 700 1114 631 
Q 1144 563 1211 522 
Q 1278 481 1403 481 
Q 1497 481 1650 503 
z
" transform="scale(0.015625)"/>
      <path id="ArialMT-6f" d="M 213 1659 
Q 213 2581 725 3025 
Q 1153 3394 1769 3394 
Q 2453 3394 2887 2945 
Q 3322 2497 3322 1706 
Q 3322 1066 3130 698 
Q 2938 331 2570 128 
Q 2203 -75 1769 -75 
Q 1072 -75 642 372 
Q 213 819 213 1659 
z
M 791 1659 
Q 791 1022 1069 705 
Q 1347 388 1769 388 
Q 2188 388 2466 706 
Q 2744 1025 2744 1678 
Q 2744 2294 2464 2611 
Q 2184 2928 1769 2928 
Q 1347 2928 1069 2612 
Q 791 2297 791 1659 
z
" transform="scale(0.015625)"/>
      <path id="ArialMT-2d" d="M 203 1375 
L 203 1941 
L 1931 1941 
L 1931 1375 
L 203 1375 
z
" transform="scale(0.015625)"/>
     </defs>
     <use xlink:href="#ArialMT-74"/>
     <use xlink:href="#ArialMT-6f" transform="translate(27.783203 0)"/>
     <use xlink:href="#ArialMT-6f" transform="translate(83.398438 0)"/>
     <use xlink:href="#ArialMT-6c" transform="translate(139.013672 0)"/>
     <use xlink:href="#ArialMT-2d" transform="translate(161.230469 0)"/>
     <use xlink:href="#ArialMT-63" transform="translate(194.53125 0)"/>
     <use xlink:href="#ArialMT-6f" transform="translate(244.53125 0)"/>
     <use xlink:href="#ArialMT-74" transform="translate(300.146484 0)"/>
    </g>
   </g>
   <g id="PathCollection_6">
    <g>
     <use xlink:href="#m63884f79a4" x="369.846562" y="180.413438" style="fill: #dd8452; fill-opacity: 0.8; stroke: #dd8452; stroke-opacity: 0.8"/>
    </g>
   </g>
   <g id="text_16">
    <!-- tool-cot-nl -->
    <g style="fill: #262626" transform="translate(389.646562 183.300938) scale(0.11 -0.11)">
     <defs>
      <path id="ArialMT-6e" d="M 422 0 
L 422 3319 
L 928 3319 
L 928 2847 
Q 1294 3394 1984 3394 
Q 2284 3394 2536 3286 
Q 2788 3178 2913 3003 
Q 3038 2828 3088 2588 
Q 3119 2431 3119 2041 
L 3119 0 
L 2556 0 
L 2556 2019 
Q 2556 2363 2490 2533 
Q 2425 2703 2258 2804 
Q 2091 2906 1866 2906 
Q 1506 2906 1245 2678 
Q 984 2450 984 1813 
L 984 0 
L 422 0 
z
" transform="scale(0.015625)"/>
     </defs>
     <use xlink:href="#ArialMT-74"/>
     <use xlink:href="#ArialMT-6f" transform="translate(27.783203 0)"/>
     <use xlink:href="#ArialMT-6f" transform="translate(83.398438 0)"/>
     <use xlink:href="#ArialMT-6c" transform="translate(139.013672 0)"/>
     <use xlink:href="#ArialMT-2d" transform="translate(161.230469 0)"/>
     <use xlink:href="#ArialMT-63" transform="translate(194.53125 0)"/>
     <use xlink:href="#ArialMT-6f" transform="translate(244.53125 0)"/>
     <use xlink:href="#ArialMT-74" transform="translate(300.146484 0)"/>
     <use xlink:href="#ArialMT-2d" transform="translate(327.929688 0)"/>
     <use xlink:href="#ArialMT-6e" transform="translate(361.230469 0)"/>
     <use xlink:href="#ArialMT-6c" transform="translate(416.845703 0)"/>
    </g>
   </g>
   <g id="PathCollection_7">
    <g>
     <use xlink:href="#ma08449494f" x="369.846562" y="195.973281" style="fill: #55a868; fill-opacity: 0.8; stroke: #55a868; stroke-opacity: 0.8"/>
    </g>
   </g>
   <g id="text_17">
    <!-- pot -->
    <g style="fill: #262626" transform="translate(389.646562 198.860781) scale(0.11 -0.11)">
     <use xlink:href="#ArialMT-70"/>
     <use xlink:href="#ArialMT-6f" transform="translate(55.615234 0)"/>
     <use xlink:href="#ArialMT-74" transform="translate(111.230469 0)"/>
    </g>
   </g>
   <g id="PathCollection_8">
    <g>
     <use xlink:href="#m5c63b9f4d3" x="369.846562" y="211.533125" style="fill: #c44e52; fill-opacity: 0.8; stroke: #c44e52; stroke-opacity: 0.8"/>
    </g>
   </g>
   <g id="text_18">
    <!-- pot-tool -->
    <g style="fill: #262626" transform="translate(389.646562 214.420625) scale(0.11 -0.11)">
     <use xlink:href="#ArialMT-70"/>
     <use xlink:href="#ArialMT-6f" transform="translate(55.615234 0)"/>
     <use xlink:href="#ArialMT-74" transform="translate(111.230469 0)"/>
     <use xlink:href="#ArialMT-2d" transform="translate(139.013672 0)"/>
     <use xlink:href="#ArialMT-74" transform="translate(172.314453 0)"/>
     <use xlink:href="#ArialMT-6f" transform="translate(200.097656 0)"/>
     <use xlink:href="#ArialMT-6f" transform="translate(255.712891 0)"/>
     <use xlink:href="#ArialMT-6c" transform="translate(311.328125 0)"/>
    </g>
   </g>
  </g>
 </g>
 <defs>
  <clipPath id="p2b9a8a9fd9">
   <rect x="77.64426" y="12.96" width="277.732704" height="298.98"/>
  </clipPath>
 </defs>
</svg>
